G04 #@! TF.GenerationSoftware,KiCad,Pcbnew,(5.1.0)-1*
G04 #@! TF.CreationDate,2019-04-26T16:58:35+10:00*
G04 #@! TF.ProjectId,CT2960_Riser,43543239-3630-45f5-9269-7365722e6b69,rev?*
G04 #@! TF.SameCoordinates,Original*
G04 #@! TF.FileFunction,Legend,Top*
G04 #@! TF.FilePolarity,Positive*
%FSLAX46Y46*%
G04 Gerber Fmt 4.6, Leading zero omitted, Abs format (unit mm)*
G04 Created by KiCad (PCBNEW (5.1.0)-1) date 2019-04-26 16:58:35*
%MOMM*%
%LPD*%
G04 APERTURE LIST*
%ADD10C,0.150000*%
%ADD11C,0.200000*%
%ADD12C,0.120000*%
%ADD13C,0.010000*%
%ADD14C,0.127000*%
%ADD15C,0.050000*%
G04 APERTURE END LIST*
D10*
X74241333Y-184698142D02*
X74193714Y-184745761D01*
X74050857Y-184793380D01*
X73955619Y-184793380D01*
X73812761Y-184745761D01*
X73717523Y-184650523D01*
X73669904Y-184555285D01*
X73622285Y-184364809D01*
X73622285Y-184221952D01*
X73669904Y-184031476D01*
X73717523Y-183936238D01*
X73812761Y-183841000D01*
X73955619Y-183793380D01*
X74050857Y-183793380D01*
X74193714Y-183841000D01*
X74241333Y-183888619D01*
X74812761Y-184793380D02*
X74717523Y-184745761D01*
X74669904Y-184698142D01*
X74622285Y-184602904D01*
X74622285Y-184317190D01*
X74669904Y-184221952D01*
X74717523Y-184174333D01*
X74812761Y-184126714D01*
X74955619Y-184126714D01*
X75050857Y-184174333D01*
X75098476Y-184221952D01*
X75146095Y-184317190D01*
X75146095Y-184602904D01*
X75098476Y-184698142D01*
X75050857Y-184745761D01*
X74955619Y-184793380D01*
X74812761Y-184793380D01*
X75574666Y-184126714D02*
X75574666Y-185126714D01*
X75574666Y-184174333D02*
X75669904Y-184126714D01*
X75860380Y-184126714D01*
X75955619Y-184174333D01*
X76003238Y-184221952D01*
X76050857Y-184317190D01*
X76050857Y-184602904D01*
X76003238Y-184698142D01*
X75955619Y-184745761D01*
X75860380Y-184793380D01*
X75669904Y-184793380D01*
X75574666Y-184745761D01*
X76384190Y-184126714D02*
X76622285Y-184793380D01*
X76860380Y-184126714D02*
X76622285Y-184793380D01*
X76527047Y-185031476D01*
X76479428Y-185079095D01*
X76384190Y-185126714D01*
X77241333Y-184793380D02*
X77241333Y-184126714D01*
X77241333Y-184317190D02*
X77288952Y-184221952D01*
X77336571Y-184174333D01*
X77431809Y-184126714D01*
X77527047Y-184126714D01*
X77860380Y-184793380D02*
X77860380Y-184126714D01*
X77860380Y-183793380D02*
X77812761Y-183841000D01*
X77860380Y-183888619D01*
X77908000Y-183841000D01*
X77860380Y-183793380D01*
X77860380Y-183888619D01*
X78765142Y-184126714D02*
X78765142Y-184936238D01*
X78717523Y-185031476D01*
X78669904Y-185079095D01*
X78574666Y-185126714D01*
X78431809Y-185126714D01*
X78336571Y-185079095D01*
X78765142Y-184745761D02*
X78669904Y-184793380D01*
X78479428Y-184793380D01*
X78384190Y-184745761D01*
X78336571Y-184698142D01*
X78288952Y-184602904D01*
X78288952Y-184317190D01*
X78336571Y-184221952D01*
X78384190Y-184174333D01*
X78479428Y-184126714D01*
X78669904Y-184126714D01*
X78765142Y-184174333D01*
X79241333Y-184793380D02*
X79241333Y-183793380D01*
X79669904Y-184793380D02*
X79669904Y-184269571D01*
X79622285Y-184174333D01*
X79527047Y-184126714D01*
X79384190Y-184126714D01*
X79288952Y-184174333D01*
X79241333Y-184221952D01*
X80003238Y-184126714D02*
X80384190Y-184126714D01*
X80146095Y-183793380D02*
X80146095Y-184650523D01*
X80193714Y-184745761D01*
X80288952Y-184793380D01*
X80384190Y-184793380D01*
X81765142Y-185174333D02*
X81717523Y-185126714D01*
X81622285Y-184983857D01*
X81574666Y-184888619D01*
X81527047Y-184745761D01*
X81479428Y-184507666D01*
X81479428Y-184317190D01*
X81527047Y-184079095D01*
X81574666Y-183936238D01*
X81622285Y-183841000D01*
X81717523Y-183698142D01*
X81765142Y-183650523D01*
X82574666Y-184745761D02*
X82479428Y-184793380D01*
X82288952Y-184793380D01*
X82193714Y-184745761D01*
X82146095Y-184698142D01*
X82098476Y-184602904D01*
X82098476Y-184317190D01*
X82146095Y-184221952D01*
X82193714Y-184174333D01*
X82288952Y-184126714D01*
X82479428Y-184126714D01*
X82574666Y-184174333D01*
X82908000Y-185174333D02*
X82955619Y-185126714D01*
X83050857Y-184983857D01*
X83098476Y-184888619D01*
X83146095Y-184745761D01*
X83193714Y-184507666D01*
X83193714Y-184317190D01*
X83146095Y-184079095D01*
X83098476Y-183936238D01*
X83050857Y-183841000D01*
X82955619Y-183698142D01*
X82908000Y-183650523D01*
X84717523Y-183793380D02*
X84717523Y-184507666D01*
X84669904Y-184650523D01*
X84574666Y-184745761D01*
X84431809Y-184793380D01*
X84336571Y-184793380D01*
X85574666Y-184745761D02*
X85479428Y-184793380D01*
X85288952Y-184793380D01*
X85193714Y-184745761D01*
X85146095Y-184650523D01*
X85146095Y-184269571D01*
X85193714Y-184174333D01*
X85288952Y-184126714D01*
X85479428Y-184126714D01*
X85574666Y-184174333D01*
X85622285Y-184269571D01*
X85622285Y-184364809D01*
X85146095Y-184460047D01*
X86003238Y-184745761D02*
X86098476Y-184793380D01*
X86288952Y-184793380D01*
X86384190Y-184745761D01*
X86431809Y-184650523D01*
X86431809Y-184602904D01*
X86384190Y-184507666D01*
X86288952Y-184460047D01*
X86146095Y-184460047D01*
X86050857Y-184412428D01*
X86003238Y-184317190D01*
X86003238Y-184269571D01*
X86050857Y-184174333D01*
X86146095Y-184126714D01*
X86288952Y-184126714D01*
X86384190Y-184174333D01*
X86812761Y-184745761D02*
X86908000Y-184793380D01*
X87098476Y-184793380D01*
X87193714Y-184745761D01*
X87241333Y-184650523D01*
X87241333Y-184602904D01*
X87193714Y-184507666D01*
X87098476Y-184460047D01*
X86955619Y-184460047D01*
X86860380Y-184412428D01*
X86812761Y-184317190D01*
X86812761Y-184269571D01*
X86860380Y-184174333D01*
X86955619Y-184126714D01*
X87098476Y-184126714D01*
X87193714Y-184174333D01*
X88050857Y-184745761D02*
X87955619Y-184793380D01*
X87765142Y-184793380D01*
X87669904Y-184745761D01*
X87622285Y-184650523D01*
X87622285Y-184269571D01*
X87669904Y-184174333D01*
X87765142Y-184126714D01*
X87955619Y-184126714D01*
X88050857Y-184174333D01*
X88098476Y-184269571D01*
X88098476Y-184364809D01*
X87622285Y-184460047D01*
X89622285Y-184269571D02*
X89765142Y-184317190D01*
X89812761Y-184364809D01*
X89860380Y-184460047D01*
X89860380Y-184602904D01*
X89812761Y-184698142D01*
X89765142Y-184745761D01*
X89669904Y-184793380D01*
X89288952Y-184793380D01*
X89288952Y-183793380D01*
X89622285Y-183793380D01*
X89717523Y-183841000D01*
X89765142Y-183888619D01*
X89812761Y-183983857D01*
X89812761Y-184079095D01*
X89765142Y-184174333D01*
X89717523Y-184221952D01*
X89622285Y-184269571D01*
X89288952Y-184269571D01*
X90717523Y-184126714D02*
X90717523Y-184793380D01*
X90288952Y-184126714D02*
X90288952Y-184650523D01*
X90336571Y-184745761D01*
X90431809Y-184793380D01*
X90574666Y-184793380D01*
X90669904Y-184745761D01*
X90717523Y-184698142D01*
X91193714Y-184793380D02*
X91193714Y-183793380D01*
X91622285Y-184793380D02*
X91622285Y-184269571D01*
X91574666Y-184174333D01*
X91479428Y-184126714D01*
X91336571Y-184126714D01*
X91241333Y-184174333D01*
X91193714Y-184221952D01*
X92527047Y-184793380D02*
X92527047Y-184269571D01*
X92479428Y-184174333D01*
X92384190Y-184126714D01*
X92193714Y-184126714D01*
X92098476Y-184174333D01*
X92527047Y-184745761D02*
X92431809Y-184793380D01*
X92193714Y-184793380D01*
X92098476Y-184745761D01*
X92050857Y-184650523D01*
X92050857Y-184555285D01*
X92098476Y-184460047D01*
X92193714Y-184412428D01*
X92431809Y-184412428D01*
X92527047Y-184364809D01*
X93431809Y-184126714D02*
X93431809Y-184936238D01*
X93384190Y-185031476D01*
X93336571Y-185079095D01*
X93241333Y-185126714D01*
X93098476Y-185126714D01*
X93003238Y-185079095D01*
X93431809Y-184745761D02*
X93336571Y-184793380D01*
X93146095Y-184793380D01*
X93050857Y-184745761D01*
X93003238Y-184698142D01*
X92955619Y-184602904D01*
X92955619Y-184317190D01*
X93003238Y-184221952D01*
X93050857Y-184174333D01*
X93146095Y-184126714D01*
X93336571Y-184126714D01*
X93431809Y-184174333D01*
X93907999Y-184793380D02*
X93907999Y-184126714D01*
X93907999Y-183793380D02*
X93860380Y-183841000D01*
X93907999Y-183888619D01*
X93955619Y-183841000D01*
X93907999Y-183793380D01*
X93907999Y-183888619D01*
X94812761Y-184793380D02*
X94812761Y-184269571D01*
X94765142Y-184174333D01*
X94669904Y-184126714D01*
X94479428Y-184126714D01*
X94384190Y-184174333D01*
X94812761Y-184745761D02*
X94717523Y-184793380D01*
X94479428Y-184793380D01*
X94384190Y-184745761D01*
X94336571Y-184650523D01*
X94336571Y-184555285D01*
X94384190Y-184460047D01*
X94479428Y-184412428D01*
X94717523Y-184412428D01*
X94812761Y-184364809D01*
X95288952Y-184793380D02*
X95288952Y-184126714D01*
X95288952Y-184317190D02*
X95336571Y-184221952D01*
X95384190Y-184174333D01*
X95479428Y-184126714D01*
X95574666Y-184126714D01*
X96955619Y-185174333D02*
X96907999Y-185126714D01*
X96812761Y-184983857D01*
X96765142Y-184888619D01*
X96717523Y-184745761D01*
X96669904Y-184507666D01*
X96669904Y-184317190D01*
X96717523Y-184079095D01*
X96765142Y-183936238D01*
X96812761Y-183841000D01*
X96907999Y-183698142D01*
X96955619Y-183650523D01*
X97288952Y-184745761D02*
X97431809Y-184793380D01*
X97669904Y-184793380D01*
X97765142Y-184745761D01*
X97812761Y-184698142D01*
X97860380Y-184602904D01*
X97860380Y-184507666D01*
X97812761Y-184412428D01*
X97765142Y-184364809D01*
X97669904Y-184317190D01*
X97479428Y-184269571D01*
X97384190Y-184221952D01*
X97336571Y-184174333D01*
X97288952Y-184079095D01*
X97288952Y-183983857D01*
X97336571Y-183888619D01*
X97384190Y-183841000D01*
X97479428Y-183793380D01*
X97717523Y-183793380D01*
X97860380Y-183841000D01*
X98193714Y-183793380D02*
X98812761Y-183793380D01*
X98479428Y-184174333D01*
X98622285Y-184174333D01*
X98717523Y-184221952D01*
X98765142Y-184269571D01*
X98812761Y-184364809D01*
X98812761Y-184602904D01*
X98765142Y-184698142D01*
X98717523Y-184745761D01*
X98622285Y-184793380D01*
X98336571Y-184793380D01*
X98241333Y-184745761D01*
X98193714Y-184698142D01*
X99669904Y-183793380D02*
X99479428Y-183793380D01*
X99384190Y-183841000D01*
X99336571Y-183888619D01*
X99241333Y-184031476D01*
X99193714Y-184221952D01*
X99193714Y-184602904D01*
X99241333Y-184698142D01*
X99288952Y-184745761D01*
X99384190Y-184793380D01*
X99574666Y-184793380D01*
X99669904Y-184745761D01*
X99717523Y-184698142D01*
X99765142Y-184602904D01*
X99765142Y-184364809D01*
X99717523Y-184269571D01*
X99669904Y-184221952D01*
X99574666Y-184174333D01*
X99384190Y-184174333D01*
X99288952Y-184221952D01*
X99241333Y-184269571D01*
X99193714Y-184364809D01*
X100384190Y-183793380D02*
X100479428Y-183793380D01*
X100574666Y-183841000D01*
X100622285Y-183888619D01*
X100669904Y-183983857D01*
X100717523Y-184174333D01*
X100717523Y-184412428D01*
X100669904Y-184602904D01*
X100622285Y-184698142D01*
X100574666Y-184745761D01*
X100479428Y-184793380D01*
X100384190Y-184793380D01*
X100288952Y-184745761D01*
X100241333Y-184698142D01*
X100193714Y-184602904D01*
X100146095Y-184412428D01*
X100146095Y-184174333D01*
X100193714Y-183983857D01*
X100241333Y-183888619D01*
X100288952Y-183841000D01*
X100384190Y-183793380D01*
X101336571Y-183793380D02*
X101431809Y-183793380D01*
X101527047Y-183841000D01*
X101574666Y-183888619D01*
X101622285Y-183983857D01*
X101669904Y-184174333D01*
X101669904Y-184412428D01*
X101622285Y-184602904D01*
X101574666Y-184698142D01*
X101527047Y-184745761D01*
X101431809Y-184793380D01*
X101336571Y-184793380D01*
X101241333Y-184745761D01*
X101193714Y-184698142D01*
X101146095Y-184602904D01*
X101098476Y-184412428D01*
X101098476Y-184174333D01*
X101146095Y-183983857D01*
X101193714Y-183888619D01*
X101241333Y-183841000D01*
X101336571Y-183793380D01*
X102050857Y-183888619D02*
X102098476Y-183841000D01*
X102193714Y-183793380D01*
X102431809Y-183793380D01*
X102527047Y-183841000D01*
X102574666Y-183888619D01*
X102622285Y-183983857D01*
X102622285Y-184079095D01*
X102574666Y-184221952D01*
X102003238Y-184793380D01*
X102622285Y-184793380D01*
X103479428Y-184126714D02*
X103479428Y-184793380D01*
X103241333Y-183745761D02*
X103003238Y-184460047D01*
X103622285Y-184460047D01*
X104431809Y-184126714D02*
X104431809Y-184793380D01*
X104193714Y-183745761D02*
X103955619Y-184460047D01*
X104574666Y-184460047D01*
X104860380Y-185174333D02*
X104907999Y-185126714D01*
X105003238Y-184983857D01*
X105050857Y-184888619D01*
X105098476Y-184745761D01*
X105146095Y-184507666D01*
X105146095Y-184317190D01*
X105098476Y-184079095D01*
X105050857Y-183936238D01*
X105003238Y-183841000D01*
X104907999Y-183698142D01*
X104860380Y-183650523D01*
X75765142Y-186443380D02*
X75765142Y-185919571D01*
X75717523Y-185824333D01*
X75622285Y-185776714D01*
X75431809Y-185776714D01*
X75336571Y-185824333D01*
X75765142Y-186395761D02*
X75669904Y-186443380D01*
X75431809Y-186443380D01*
X75336571Y-186395761D01*
X75288952Y-186300523D01*
X75288952Y-186205285D01*
X75336571Y-186110047D01*
X75431809Y-186062428D01*
X75669904Y-186062428D01*
X75765142Y-186014809D01*
X76241333Y-185776714D02*
X76241333Y-186443380D01*
X76241333Y-185871952D02*
X76288952Y-185824333D01*
X76384190Y-185776714D01*
X76527047Y-185776714D01*
X76622285Y-185824333D01*
X76669904Y-185919571D01*
X76669904Y-186443380D01*
X77574666Y-186443380D02*
X77574666Y-185443380D01*
X77574666Y-186395761D02*
X77479428Y-186443380D01*
X77288952Y-186443380D01*
X77193714Y-186395761D01*
X77146095Y-186348142D01*
X77098476Y-186252904D01*
X77098476Y-185967190D01*
X77146095Y-185871952D01*
X77193714Y-185824333D01*
X77288952Y-185776714D01*
X77479428Y-185776714D01*
X77574666Y-185824333D01*
X78812761Y-186443380D02*
X78812761Y-185443380D01*
X79146095Y-186157666D01*
X79479428Y-185443380D01*
X79479428Y-186443380D01*
X80384190Y-186443380D02*
X80384190Y-185919571D01*
X80336571Y-185824333D01*
X80241333Y-185776714D01*
X80050857Y-185776714D01*
X79955619Y-185824333D01*
X80384190Y-186395761D02*
X80288952Y-186443380D01*
X80050857Y-186443380D01*
X79955619Y-186395761D01*
X79908000Y-186300523D01*
X79908000Y-186205285D01*
X79955619Y-186110047D01*
X80050857Y-186062428D01*
X80288952Y-186062428D01*
X80384190Y-186014809D01*
X80717523Y-185776714D02*
X81098476Y-185776714D01*
X80860380Y-185443380D02*
X80860380Y-186300523D01*
X80908000Y-186395761D01*
X81003238Y-186443380D01*
X81098476Y-186443380D01*
X81288952Y-185776714D02*
X81669904Y-185776714D01*
X81431809Y-185443380D02*
X81431809Y-186300523D01*
X81479428Y-186395761D01*
X81574666Y-186443380D01*
X81669904Y-186443380D01*
X82003238Y-186443380D02*
X82003238Y-185443380D01*
X82431809Y-186443380D02*
X82431809Y-185919571D01*
X82384190Y-185824333D01*
X82288952Y-185776714D01*
X82146095Y-185776714D01*
X82050857Y-185824333D01*
X82003238Y-185871952D01*
X83288952Y-186395761D02*
X83193714Y-186443380D01*
X83003238Y-186443380D01*
X82908000Y-186395761D01*
X82860380Y-186300523D01*
X82860380Y-185919571D01*
X82908000Y-185824333D01*
X83003238Y-185776714D01*
X83193714Y-185776714D01*
X83288952Y-185824333D01*
X83336571Y-185919571D01*
X83336571Y-186014809D01*
X82860380Y-186110047D01*
X83669904Y-185776714D02*
X83860380Y-186443380D01*
X84050857Y-185967190D01*
X84241333Y-186443380D01*
X84431809Y-185776714D01*
X85527047Y-186157666D02*
X86003238Y-186157666D01*
X85431809Y-186443380D02*
X85765142Y-185443380D01*
X86098476Y-186443380D01*
X86288952Y-185776714D02*
X86669904Y-185776714D01*
X86431809Y-185443380D02*
X86431809Y-186300523D01*
X86479428Y-186395761D01*
X86574666Y-186443380D01*
X86669904Y-186443380D01*
X87003238Y-186443380D02*
X87003238Y-185443380D01*
X87098476Y-186062428D02*
X87384190Y-186443380D01*
X87384190Y-185776714D02*
X87003238Y-186157666D01*
X87812761Y-186443380D02*
X87812761Y-185776714D01*
X87812761Y-185443380D02*
X87765142Y-185491000D01*
X87812761Y-185538619D01*
X87860380Y-185491000D01*
X87812761Y-185443380D01*
X87812761Y-185538619D01*
X88288952Y-185776714D02*
X88288952Y-186443380D01*
X88288952Y-185871952D02*
X88336571Y-185824333D01*
X88431809Y-185776714D01*
X88574666Y-185776714D01*
X88669904Y-185824333D01*
X88717523Y-185919571D01*
X88717523Y-186443380D01*
X90241333Y-186824333D02*
X90193714Y-186776714D01*
X90098476Y-186633857D01*
X90050857Y-186538619D01*
X90003238Y-186395761D01*
X89955619Y-186157666D01*
X89955619Y-185967190D01*
X90003238Y-185729095D01*
X90050857Y-185586238D01*
X90098476Y-185491000D01*
X90193714Y-185348142D01*
X90241333Y-185300523D01*
X90574666Y-186395761D02*
X90717523Y-186443380D01*
X90955619Y-186443380D01*
X91050857Y-186395761D01*
X91098476Y-186348142D01*
X91146095Y-186252904D01*
X91146095Y-186157666D01*
X91098476Y-186062428D01*
X91050857Y-186014809D01*
X90955619Y-185967190D01*
X90765142Y-185919571D01*
X90669904Y-185871952D01*
X90622285Y-185824333D01*
X90574666Y-185729095D01*
X90574666Y-185633857D01*
X90622285Y-185538619D01*
X90669904Y-185491000D01*
X90765142Y-185443380D01*
X91003238Y-185443380D01*
X91146095Y-185491000D01*
X91479428Y-185443380D02*
X92098476Y-185443380D01*
X91765142Y-185824333D01*
X91908000Y-185824333D01*
X92003238Y-185871952D01*
X92050857Y-185919571D01*
X92098476Y-186014809D01*
X92098476Y-186252904D01*
X92050857Y-186348142D01*
X92003238Y-186395761D01*
X91908000Y-186443380D01*
X91622285Y-186443380D01*
X91527047Y-186395761D01*
X91479428Y-186348142D01*
X92955619Y-185443380D02*
X92765142Y-185443380D01*
X92669904Y-185491000D01*
X92622285Y-185538619D01*
X92527047Y-185681476D01*
X92479428Y-185871952D01*
X92479428Y-186252904D01*
X92527047Y-186348142D01*
X92574666Y-186395761D01*
X92669904Y-186443380D01*
X92860380Y-186443380D01*
X92955619Y-186395761D01*
X93003238Y-186348142D01*
X93050857Y-186252904D01*
X93050857Y-186014809D01*
X93003238Y-185919571D01*
X92955619Y-185871952D01*
X92860380Y-185824333D01*
X92669904Y-185824333D01*
X92574666Y-185871952D01*
X92527047Y-185919571D01*
X92479428Y-186014809D01*
X93669904Y-185443380D02*
X93765142Y-185443380D01*
X93860380Y-185491000D01*
X93908000Y-185538619D01*
X93955619Y-185633857D01*
X94003238Y-185824333D01*
X94003238Y-186062428D01*
X93955619Y-186252904D01*
X93908000Y-186348142D01*
X93860380Y-186395761D01*
X93765142Y-186443380D01*
X93669904Y-186443380D01*
X93574666Y-186395761D01*
X93527047Y-186348142D01*
X93479428Y-186252904D01*
X93431809Y-186062428D01*
X93431809Y-185824333D01*
X93479428Y-185633857D01*
X93527047Y-185538619D01*
X93574666Y-185491000D01*
X93669904Y-185443380D01*
X94336571Y-185443380D02*
X94955619Y-185443380D01*
X94622285Y-185824333D01*
X94765142Y-185824333D01*
X94860380Y-185871952D01*
X94908000Y-185919571D01*
X94955619Y-186014809D01*
X94955619Y-186252904D01*
X94908000Y-186348142D01*
X94860380Y-186395761D01*
X94765142Y-186443380D01*
X94479428Y-186443380D01*
X94384190Y-186395761D01*
X94336571Y-186348142D01*
X95288952Y-185443380D02*
X95955619Y-185443380D01*
X95527047Y-186443380D01*
X96384190Y-186443380D02*
X96574666Y-186443380D01*
X96669904Y-186395761D01*
X96717523Y-186348142D01*
X96812761Y-186205285D01*
X96860380Y-186014809D01*
X96860380Y-185633857D01*
X96812761Y-185538619D01*
X96765142Y-185491000D01*
X96669904Y-185443380D01*
X96479428Y-185443380D01*
X96384190Y-185491000D01*
X96336571Y-185538619D01*
X96288952Y-185633857D01*
X96288952Y-185871952D01*
X96336571Y-185967190D01*
X96384190Y-186014809D01*
X96479428Y-186062428D01*
X96669904Y-186062428D01*
X96765142Y-186014809D01*
X96812761Y-185967190D01*
X96860380Y-185871952D01*
X97193714Y-185443380D02*
X97860380Y-185443380D01*
X97431809Y-186443380D01*
X98146095Y-186824333D02*
X98193714Y-186776714D01*
X98288952Y-186633857D01*
X98336571Y-186538619D01*
X98384190Y-186395761D01*
X98431809Y-186157666D01*
X98431809Y-185967190D01*
X98384190Y-185729095D01*
X98336571Y-185586238D01*
X98288952Y-185491000D01*
X98193714Y-185348142D01*
X98146095Y-185300523D01*
X98955619Y-186395761D02*
X98955619Y-186443380D01*
X98908000Y-186538619D01*
X98860380Y-186586238D01*
X100098476Y-185538619D02*
X100146095Y-185491000D01*
X100241333Y-185443380D01*
X100479428Y-185443380D01*
X100574666Y-185491000D01*
X100622285Y-185538619D01*
X100669904Y-185633857D01*
X100669904Y-185729095D01*
X100622285Y-185871952D01*
X100050857Y-186443380D01*
X100669904Y-186443380D01*
X101288952Y-185443380D02*
X101384190Y-185443380D01*
X101479428Y-185491000D01*
X101527047Y-185538619D01*
X101574666Y-185633857D01*
X101622285Y-185824333D01*
X101622285Y-186062428D01*
X101574666Y-186252904D01*
X101527047Y-186348142D01*
X101479428Y-186395761D01*
X101384190Y-186443380D01*
X101288952Y-186443380D01*
X101193714Y-186395761D01*
X101146095Y-186348142D01*
X101098476Y-186252904D01*
X101050857Y-186062428D01*
X101050857Y-185824333D01*
X101098476Y-185633857D01*
X101146095Y-185538619D01*
X101193714Y-185491000D01*
X101288952Y-185443380D01*
X102574666Y-186443380D02*
X102003238Y-186443380D01*
X102288952Y-186443380D02*
X102288952Y-185443380D01*
X102193714Y-185586238D01*
X102098476Y-185681476D01*
X102003238Y-185729095D01*
X103050857Y-186443380D02*
X103241333Y-186443380D01*
X103336571Y-186395761D01*
X103384190Y-186348142D01*
X103479428Y-186205285D01*
X103527047Y-186014809D01*
X103527047Y-185633857D01*
X103479428Y-185538619D01*
X103431809Y-185491000D01*
X103336571Y-185443380D01*
X103146095Y-185443380D01*
X103050857Y-185491000D01*
X103003238Y-185538619D01*
X102955619Y-185633857D01*
X102955619Y-185871952D01*
X103003238Y-185967190D01*
X103050857Y-186014809D01*
X103146095Y-186062428D01*
X103336571Y-186062428D01*
X103431809Y-186014809D01*
X103479428Y-185967190D01*
X103527047Y-185871952D01*
D11*
X76696285Y-126154571D02*
X76696285Y-124654571D01*
X77696285Y-124654571D02*
X77982000Y-124654571D01*
X78124857Y-124726000D01*
X78267714Y-124868857D01*
X78339142Y-125154571D01*
X78339142Y-125654571D01*
X78267714Y-125940285D01*
X78124857Y-126083142D01*
X77982000Y-126154571D01*
X77696285Y-126154571D01*
X77553428Y-126083142D01*
X77410571Y-125940285D01*
X77339142Y-125654571D01*
X77339142Y-125154571D01*
X77410571Y-124868857D01*
X77553428Y-124726000D01*
X77696285Y-124654571D01*
X79839142Y-126154571D02*
X79339142Y-125440285D01*
X78982000Y-126154571D02*
X78982000Y-124654571D01*
X79553428Y-124654571D01*
X79696285Y-124726000D01*
X79767714Y-124797428D01*
X79839142Y-124940285D01*
X79839142Y-125154571D01*
X79767714Y-125297428D01*
X79696285Y-125368857D01*
X79553428Y-125440285D01*
X78982000Y-125440285D01*
X76589142Y-133012571D02*
X76589142Y-131512571D01*
X77589142Y-131512571D02*
X77874857Y-131512571D01*
X78017714Y-131584000D01*
X78160571Y-131726857D01*
X78232000Y-132012571D01*
X78232000Y-132512571D01*
X78160571Y-132798285D01*
X78017714Y-132941142D01*
X77874857Y-133012571D01*
X77589142Y-133012571D01*
X77446285Y-132941142D01*
X77303428Y-132798285D01*
X77232000Y-132512571D01*
X77232000Y-132012571D01*
X77303428Y-131726857D01*
X77446285Y-131584000D01*
X77589142Y-131512571D01*
X78732000Y-131512571D02*
X79089142Y-133012571D01*
X79374857Y-131941142D01*
X79660571Y-133012571D01*
X80017714Y-131512571D01*
D10*
X84010952Y-182824380D02*
X83677619Y-182348190D01*
X83439523Y-182824380D02*
X83439523Y-181824380D01*
X83820476Y-181824380D01*
X83915714Y-181872000D01*
X83963333Y-181919619D01*
X84010952Y-182014857D01*
X84010952Y-182157714D01*
X83963333Y-182252952D01*
X83915714Y-182300571D01*
X83820476Y-182348190D01*
X83439523Y-182348190D01*
X84439523Y-182824380D02*
X84439523Y-182157714D01*
X84439523Y-181824380D02*
X84391904Y-181872000D01*
X84439523Y-181919619D01*
X84487142Y-181872000D01*
X84439523Y-181824380D01*
X84439523Y-181919619D01*
X84868095Y-182776761D02*
X84963333Y-182824380D01*
X85153809Y-182824380D01*
X85249047Y-182776761D01*
X85296666Y-182681523D01*
X85296666Y-182633904D01*
X85249047Y-182538666D01*
X85153809Y-182491047D01*
X85010952Y-182491047D01*
X84915714Y-182443428D01*
X84868095Y-182348190D01*
X84868095Y-182300571D01*
X84915714Y-182205333D01*
X85010952Y-182157714D01*
X85153809Y-182157714D01*
X85249047Y-182205333D01*
X86106190Y-182776761D02*
X86010952Y-182824380D01*
X85820476Y-182824380D01*
X85725238Y-182776761D01*
X85677619Y-182681523D01*
X85677619Y-182300571D01*
X85725238Y-182205333D01*
X85820476Y-182157714D01*
X86010952Y-182157714D01*
X86106190Y-182205333D01*
X86153809Y-182300571D01*
X86153809Y-182395809D01*
X85677619Y-182491047D01*
X86582380Y-182824380D02*
X86582380Y-182157714D01*
X86582380Y-182348190D02*
X86630000Y-182252952D01*
X86677619Y-182205333D01*
X86772857Y-182157714D01*
X86868095Y-182157714D01*
X88296666Y-182300571D02*
X88439523Y-182348190D01*
X88487142Y-182395809D01*
X88534761Y-182491047D01*
X88534761Y-182633904D01*
X88487142Y-182729142D01*
X88439523Y-182776761D01*
X88344285Y-182824380D01*
X87963333Y-182824380D01*
X87963333Y-181824380D01*
X88296666Y-181824380D01*
X88391904Y-181872000D01*
X88439523Y-181919619D01*
X88487142Y-182014857D01*
X88487142Y-182110095D01*
X88439523Y-182205333D01*
X88391904Y-182252952D01*
X88296666Y-182300571D01*
X87963333Y-182300571D01*
X89106190Y-182824380D02*
X89010952Y-182776761D01*
X88963333Y-182729142D01*
X88915714Y-182633904D01*
X88915714Y-182348190D01*
X88963333Y-182252952D01*
X89010952Y-182205333D01*
X89106190Y-182157714D01*
X89249047Y-182157714D01*
X89344285Y-182205333D01*
X89391904Y-182252952D01*
X89439523Y-182348190D01*
X89439523Y-182633904D01*
X89391904Y-182729142D01*
X89344285Y-182776761D01*
X89249047Y-182824380D01*
X89106190Y-182824380D01*
X90296666Y-182824380D02*
X90296666Y-182300571D01*
X90249047Y-182205333D01*
X90153809Y-182157714D01*
X89963333Y-182157714D01*
X89868095Y-182205333D01*
X90296666Y-182776761D02*
X90201428Y-182824380D01*
X89963333Y-182824380D01*
X89868095Y-182776761D01*
X89820476Y-182681523D01*
X89820476Y-182586285D01*
X89868095Y-182491047D01*
X89963333Y-182443428D01*
X90201428Y-182443428D01*
X90296666Y-182395809D01*
X90772857Y-182824380D02*
X90772857Y-182157714D01*
X90772857Y-182348190D02*
X90820476Y-182252952D01*
X90868095Y-182205333D01*
X90963333Y-182157714D01*
X91058571Y-182157714D01*
X91820476Y-182824380D02*
X91820476Y-181824380D01*
X91820476Y-182776761D02*
X91725238Y-182824380D01*
X91534761Y-182824380D01*
X91439523Y-182776761D01*
X91391904Y-182729142D01*
X91344285Y-182633904D01*
X91344285Y-182348190D01*
X91391904Y-182252952D01*
X91439523Y-182205333D01*
X91534761Y-182157714D01*
X91725238Y-182157714D01*
X91820476Y-182205333D01*
D12*
X87666000Y-127086000D02*
X90116000Y-127086000D01*
X89466000Y-123866000D02*
X87666000Y-123866000D01*
X121184000Y-134594000D02*
X122384000Y-134594000D01*
X125704000Y-134594000D02*
X124504000Y-134594000D01*
X125704000Y-131138437D02*
X125704000Y-134594000D01*
X121184000Y-131138437D02*
X121184000Y-134594000D01*
X122248437Y-130074000D02*
X122384000Y-130074000D01*
X124639563Y-130074000D02*
X124504000Y-130074000D01*
X124639563Y-130074000D02*
X125704000Y-131138437D01*
X122248437Y-130074000D02*
X121184000Y-131138437D01*
X125004000Y-129334000D02*
X125004000Y-129834000D01*
X125254000Y-129584000D02*
X124754000Y-129584000D01*
X122708000Y-63220000D02*
X123908000Y-63220000D01*
X127228000Y-63220000D02*
X126028000Y-63220000D01*
X127228000Y-59764437D02*
X127228000Y-63220000D01*
X122708000Y-59764437D02*
X122708000Y-63220000D01*
X123772437Y-58700000D02*
X123908000Y-58700000D01*
X126163563Y-58700000D02*
X126028000Y-58700000D01*
X126163563Y-58700000D02*
X127228000Y-59764437D01*
X123772437Y-58700000D02*
X122708000Y-59764437D01*
X126528000Y-57960000D02*
X126528000Y-58460000D01*
X126778000Y-58210000D02*
X126278000Y-58210000D01*
X126778000Y-73704000D02*
X126278000Y-73704000D01*
X126528000Y-73454000D02*
X126528000Y-73954000D01*
X123772437Y-74194000D02*
X122708000Y-75258437D01*
X126163563Y-74194000D02*
X127228000Y-75258437D01*
X126163563Y-74194000D02*
X126028000Y-74194000D01*
X123772437Y-74194000D02*
X123908000Y-74194000D01*
X122708000Y-75258437D02*
X122708000Y-78714000D01*
X127228000Y-75258437D02*
X127228000Y-78714000D01*
X127228000Y-78714000D02*
X126028000Y-78714000D01*
X122708000Y-78714000D02*
X123908000Y-78714000D01*
X84942000Y-55023936D02*
X84942000Y-56228064D01*
X86762000Y-55023936D02*
X86762000Y-56228064D01*
X118523936Y-60092000D02*
X119728064Y-60092000D01*
X118523936Y-58272000D02*
X119728064Y-58272000D01*
X143150000Y-76105936D02*
X143150000Y-77310064D01*
X141330000Y-76105936D02*
X141330000Y-77310064D01*
D10*
X148379000Y-179768000D02*
X149504000Y-179768000D01*
X148379000Y-171293000D02*
X144229000Y-171293000D01*
X148379000Y-180243000D02*
X144229000Y-180243000D01*
X148379000Y-171293000D02*
X148379000Y-171850500D01*
X144229000Y-171293000D02*
X144229000Y-171850500D01*
X144229000Y-180243000D02*
X144229000Y-179685500D01*
X148379000Y-180243000D02*
X148379000Y-179768000D01*
X144229000Y-95822000D02*
X143104000Y-95822000D01*
X144229000Y-104297000D02*
X148379000Y-104297000D01*
X144229000Y-95347000D02*
X148379000Y-95347000D01*
X144229000Y-104297000D02*
X144229000Y-103739500D01*
X148379000Y-104297000D02*
X148379000Y-103739500D01*
X148379000Y-95347000D02*
X148379000Y-95904500D01*
X144229000Y-95347000D02*
X144229000Y-95822000D01*
X148379000Y-69278000D02*
X149504000Y-69278000D01*
X148379000Y-60803000D02*
X144229000Y-60803000D01*
X148379000Y-69753000D02*
X144229000Y-69753000D01*
X148379000Y-60803000D02*
X148379000Y-61360500D01*
X144229000Y-60803000D02*
X144229000Y-61360500D01*
X144229000Y-69753000D02*
X144229000Y-69195500D01*
X148379000Y-69753000D02*
X148379000Y-69278000D01*
D13*
G36*
X101420083Y-181313667D02*
G01*
X75374500Y-181313667D01*
X75374500Y-180075417D01*
X83354333Y-180075417D01*
X83354333Y-180269444D01*
X83354701Y-180331495D01*
X83355722Y-180386108D01*
X83357276Y-180429813D01*
X83359241Y-180459138D01*
X83361388Y-180470528D01*
X83372604Y-180471345D01*
X83403808Y-180472135D01*
X83453822Y-180472893D01*
X83521467Y-180473614D01*
X83605564Y-180474292D01*
X83704937Y-180474921D01*
X83818406Y-180475497D01*
X83944792Y-180476015D01*
X84082917Y-180476468D01*
X84231603Y-180476851D01*
X84389672Y-180477160D01*
X84555945Y-180477388D01*
X84729243Y-180477531D01*
X84908388Y-180477583D01*
X86465833Y-180477583D01*
X86465833Y-180075417D01*
X83354333Y-180075417D01*
X75374500Y-180075417D01*
X75374500Y-176757094D01*
X76803250Y-176757094D01*
X76805088Y-176782263D01*
X76813767Y-176792659D01*
X76831520Y-176794583D01*
X76860664Y-176801092D01*
X76879145Y-176812098D01*
X76881965Y-176815305D01*
X76884498Y-176820280D01*
X76886758Y-176828117D01*
X76888761Y-176839907D01*
X76890524Y-176856743D01*
X76892060Y-176879720D01*
X76893386Y-176909928D01*
X76894516Y-176948462D01*
X76895468Y-176996413D01*
X76896255Y-177054875D01*
X76896893Y-177124941D01*
X76897398Y-177207702D01*
X76897785Y-177304253D01*
X76898070Y-177415686D01*
X76898268Y-177543093D01*
X76898394Y-177687567D01*
X76898465Y-177850202D01*
X76898495Y-178032090D01*
X76898500Y-178182040D01*
X76898500Y-179534466D01*
X76874978Y-179550941D01*
X76847901Y-179563689D01*
X76827353Y-179567417D01*
X76811049Y-179570605D01*
X76804327Y-179584190D01*
X76803250Y-179605028D01*
X76803250Y-179642639D01*
X77843062Y-179638729D01*
X78014821Y-179638071D01*
X78166764Y-179637446D01*
X78300241Y-179636823D01*
X78416602Y-179636172D01*
X78517198Y-179635462D01*
X78603378Y-179634663D01*
X78676493Y-179633744D01*
X78737894Y-179632675D01*
X78788930Y-179631425D01*
X78830951Y-179629963D01*
X78865309Y-179628258D01*
X78893353Y-179626281D01*
X78916433Y-179624001D01*
X78935900Y-179621387D01*
X78953104Y-179618408D01*
X78969395Y-179615034D01*
X78978354Y-179613022D01*
X79117579Y-179572529D01*
X79241148Y-179518328D01*
X79348784Y-179450690D01*
X79440207Y-179369886D01*
X79515138Y-179276187D01*
X79573299Y-179169864D01*
X79614410Y-179051186D01*
X79629706Y-178980447D01*
X79635278Y-178930188D01*
X79637764Y-178866030D01*
X79637388Y-178794032D01*
X79634373Y-178720253D01*
X79628943Y-178650751D01*
X79621322Y-178591587D01*
X79614053Y-178556708D01*
X79573343Y-178444865D01*
X79514445Y-178343849D01*
X79437363Y-178253665D01*
X79342099Y-178174314D01*
X79298446Y-178145324D01*
X79216600Y-178094361D01*
X79277566Y-178049480D01*
X79358276Y-177978271D01*
X79429139Y-177892405D01*
X79486850Y-177796844D01*
X79528103Y-177696548D01*
X79539040Y-177657125D01*
X79551750Y-177572346D01*
X79553561Y-177477194D01*
X79545097Y-177379052D01*
X79526983Y-177285300D01*
X79500806Y-177205591D01*
X79443499Y-177094992D01*
X79370299Y-176998236D01*
X79281135Y-176915265D01*
X79175932Y-176846020D01*
X79054616Y-176790444D01*
X78921780Y-176749614D01*
X78906001Y-176745850D01*
X78890301Y-176742522D01*
X78873316Y-176739600D01*
X78853680Y-176737050D01*
X78830028Y-176734841D01*
X78800995Y-176732939D01*
X78765215Y-176731312D01*
X78721324Y-176729928D01*
X78667956Y-176728755D01*
X78603745Y-176727759D01*
X78527328Y-176726909D01*
X78437338Y-176726172D01*
X78332410Y-176725515D01*
X78211179Y-176724906D01*
X78072281Y-176724313D01*
X77914349Y-176723703D01*
X77816604Y-176723340D01*
X77046076Y-176720500D01*
X80316916Y-176720500D01*
X80316916Y-176757542D01*
X80318694Y-176782433D01*
X80327662Y-176792642D01*
X80348422Y-176794583D01*
X80357627Y-176794159D01*
X80365909Y-176793592D01*
X80373315Y-176793940D01*
X80379891Y-176796263D01*
X80385684Y-176801619D01*
X80390740Y-176811066D01*
X80395105Y-176825663D01*
X80398826Y-176846470D01*
X80401949Y-176874544D01*
X80404521Y-176910943D01*
X80406588Y-176956728D01*
X80408196Y-177012956D01*
X80409392Y-177080686D01*
X80410223Y-177160977D01*
X80410734Y-177254886D01*
X80410972Y-177363474D01*
X80410984Y-177487798D01*
X80410817Y-177628917D01*
X80410515Y-177787890D01*
X80410126Y-177965775D01*
X80409697Y-178163631D01*
X80409641Y-178190763D01*
X80409231Y-178387204D01*
X80408839Y-178563574D01*
X80408446Y-178720967D01*
X80408034Y-178860479D01*
X80407583Y-178983205D01*
X80407075Y-179090240D01*
X80406492Y-179182679D01*
X80405813Y-179261617D01*
X80405022Y-179328149D01*
X80404098Y-179383371D01*
X80403023Y-179428377D01*
X80401779Y-179464264D01*
X80400346Y-179492125D01*
X80398707Y-179513055D01*
X80396841Y-179528151D01*
X80394731Y-179538508D01*
X80392357Y-179545219D01*
X80389702Y-179549381D01*
X80386745Y-179552088D01*
X80386331Y-179552396D01*
X80359415Y-179564598D01*
X80341352Y-179567417D01*
X80324724Y-179570604D01*
X80317952Y-179584223D01*
X80316916Y-179604328D01*
X80316916Y-179641240D01*
X81551379Y-179644016D01*
X82785843Y-179646792D01*
X82807921Y-179676365D01*
X82831402Y-179698535D01*
X82856687Y-179702824D01*
X82883375Y-179699708D01*
X82884289Y-179596771D01*
X83354323Y-179596771D01*
X83354949Y-179619570D01*
X83361532Y-179634588D01*
X83373496Y-179636255D01*
X83404051Y-179637614D01*
X83450625Y-179638632D01*
X83510645Y-179639277D01*
X83581538Y-179639516D01*
X83660732Y-179639317D01*
X83708137Y-179638998D01*
X84047541Y-179636208D01*
X84050858Y-179601812D01*
X84050894Y-179577820D01*
X84042574Y-179568455D01*
X84033093Y-179567417D01*
X84003425Y-179558430D01*
X83985241Y-179534058D01*
X83981256Y-179498179D01*
X83981747Y-179494084D01*
X83987279Y-179474411D01*
X84000808Y-179436193D01*
X84021963Y-179380327D01*
X84050373Y-179307711D01*
X84085668Y-179219240D01*
X84127478Y-179115813D01*
X84175431Y-178998328D01*
X84229157Y-178867680D01*
X84288285Y-178724768D01*
X84352445Y-178570488D01*
X84421265Y-178405738D01*
X84494376Y-178231416D01*
X84571407Y-178048418D01*
X84651987Y-177857641D01*
X84735745Y-177659984D01*
X84822311Y-177456343D01*
X84862033Y-177363107D01*
X84865026Y-177357866D01*
X84868806Y-177356268D01*
X84874021Y-177359680D01*
X84881324Y-177369468D01*
X84891363Y-177386998D01*
X84904790Y-177413636D01*
X84922255Y-177450750D01*
X84944407Y-177499705D01*
X84971898Y-177561867D01*
X85005377Y-177638603D01*
X85045495Y-177731279D01*
X85092902Y-177841262D01*
X85123960Y-177913440D01*
X85214430Y-178123851D01*
X85296825Y-178315661D01*
X85371488Y-178489691D01*
X85438761Y-178646761D01*
X85498988Y-178787690D01*
X85552511Y-178913299D01*
X85599674Y-179024407D01*
X85640819Y-179121836D01*
X85676290Y-179206405D01*
X85706430Y-179278933D01*
X85731581Y-179340242D01*
X85752087Y-179391150D01*
X85768291Y-179432479D01*
X85780535Y-179465048D01*
X85789163Y-179489677D01*
X85794517Y-179507187D01*
X85796942Y-179518397D01*
X85797102Y-179522754D01*
X85783939Y-179551591D01*
X85764068Y-179565566D01*
X85742549Y-179580601D01*
X85737082Y-179601249D01*
X85737610Y-179607978D01*
X85740875Y-179636208D01*
X86471125Y-179636208D01*
X86474421Y-179613046D01*
X86467845Y-179587366D01*
X86441789Y-179554014D01*
X86437379Y-179549519D01*
X86429939Y-179540951D01*
X86421209Y-179528447D01*
X86410685Y-179510903D01*
X86397865Y-179487213D01*
X86382244Y-179456272D01*
X86363319Y-179416976D01*
X86346727Y-179381388D01*
X86922412Y-179381388D01*
X86956644Y-179398866D01*
X86999240Y-179398483D01*
X87011860Y-179395576D01*
X87030078Y-179391446D01*
X87046788Y-179390738D01*
X87066033Y-179394704D01*
X87091858Y-179404595D01*
X87128308Y-179421663D01*
X87179426Y-179447160D01*
X87180845Y-179447875D01*
X87313431Y-179510514D01*
X87441829Y-179561988D01*
X87569792Y-179603119D01*
X87701070Y-179634731D01*
X87839412Y-179657647D01*
X87988570Y-179672691D01*
X88152293Y-179680685D01*
X88249125Y-179682370D01*
X88320143Y-179682182D01*
X88394519Y-179680694D01*
X88465113Y-179678129D01*
X88524784Y-179674714D01*
X88545458Y-179673026D01*
X88738927Y-179648279D01*
X88915859Y-179611473D01*
X89076032Y-179562689D01*
X89219229Y-179502011D01*
X89345227Y-179429519D01*
X89453809Y-179345297D01*
X89475100Y-179325432D01*
X89561767Y-179228126D01*
X89629748Y-179121301D01*
X89679272Y-179004454D01*
X89710566Y-178877081D01*
X89721911Y-178778958D01*
X89722960Y-178691783D01*
X89716140Y-178596633D01*
X89702486Y-178503590D01*
X89686648Y-178435000D01*
X89647498Y-178333605D01*
X89590268Y-178237791D01*
X89517958Y-178151204D01*
X89433565Y-178077489D01*
X89349359Y-178024958D01*
X89289137Y-177995777D01*
X89228085Y-177970283D01*
X89164221Y-177948158D01*
X89095564Y-177929088D01*
X89020131Y-177912758D01*
X88935942Y-177898851D01*
X88841016Y-177887052D01*
X88733371Y-177877046D01*
X88611025Y-177868517D01*
X88471997Y-177861149D01*
X88314307Y-177854626D01*
X88269815Y-177853024D01*
X88130782Y-177846969D01*
X88011182Y-177838989D01*
X87909333Y-177828641D01*
X87823553Y-177815483D01*
X87752161Y-177799070D01*
X87693474Y-177778960D01*
X87645811Y-177754710D01*
X87607490Y-177725877D01*
X87576829Y-177692018D01*
X87559489Y-177665884D01*
X87543211Y-177635011D01*
X87534119Y-177606566D01*
X87530284Y-177572098D01*
X87529703Y-177535417D01*
X87534636Y-177470236D01*
X87550959Y-177417109D01*
X87581641Y-177369383D01*
X87622861Y-177326582D01*
X87688690Y-177276325D01*
X87768309Y-177234723D01*
X87862935Y-177201438D01*
X87973785Y-177176129D01*
X88102080Y-177158456D01*
X88249035Y-177148079D01*
X88265000Y-177147422D01*
X88468325Y-177148521D01*
X88661360Y-177167967D01*
X88741250Y-177181969D01*
X88840199Y-177205106D01*
X88938772Y-177234561D01*
X89033205Y-177268777D01*
X89119731Y-177306198D01*
X89194586Y-177345268D01*
X89254004Y-177384428D01*
X89276369Y-177403203D01*
X89303411Y-177430361D01*
X89317591Y-177451914D01*
X89322835Y-177475151D01*
X89323333Y-177490410D01*
X89326520Y-177522407D01*
X89339635Y-177544985D01*
X89357729Y-177561180D01*
X89392125Y-177588477D01*
X89537521Y-177294718D01*
X89573461Y-177221917D01*
X89606178Y-177155288D01*
X89634535Y-177097174D01*
X89657395Y-177049918D01*
X89673621Y-177015865D01*
X89682075Y-176997357D01*
X89683042Y-176994719D01*
X89674269Y-176983941D01*
X89653851Y-176974924D01*
X89631278Y-176970599D01*
X89616037Y-176973897D01*
X89615940Y-176973993D01*
X89604092Y-176981818D01*
X89587780Y-176983474D01*
X89564011Y-176978073D01*
X89529794Y-176964728D01*
X89482134Y-176942549D01*
X89440358Y-176921888D01*
X89270259Y-176846199D01*
X89087193Y-176782417D01*
X88896715Y-176732203D01*
X88704378Y-176697216D01*
X88675912Y-176693410D01*
X88618778Y-176686957D01*
X88562379Y-176682536D01*
X88501961Y-176679997D01*
X88432775Y-176679185D01*
X88350067Y-176679949D01*
X88291939Y-176681101D01*
X88169020Y-176685314D01*
X88062716Y-176692409D01*
X87968585Y-176703088D01*
X87882190Y-176718048D01*
X87799090Y-176737989D01*
X87714846Y-176763610D01*
X87670209Y-176779018D01*
X87532258Y-176838011D01*
X87407829Y-176911209D01*
X87297966Y-176997558D01*
X87203713Y-177096000D01*
X87126114Y-177205480D01*
X87066212Y-177324941D01*
X87032467Y-177424292D01*
X87020450Y-177483726D01*
X87012238Y-177556217D01*
X87008038Y-177634859D01*
X87008058Y-177712743D01*
X87012506Y-177782962D01*
X87020185Y-177832653D01*
X87054350Y-177943613D01*
X87104152Y-178040486D01*
X87169476Y-178123085D01*
X87242556Y-178185864D01*
X87317636Y-178233462D01*
X87400922Y-178274380D01*
X87494253Y-178309056D01*
X87599466Y-178337927D01*
X87718399Y-178361432D01*
X87852891Y-178380009D01*
X88004777Y-178394096D01*
X88153875Y-178403106D01*
X88300635Y-178410363D01*
X88428011Y-178417147D01*
X88537773Y-178423637D01*
X88631693Y-178430014D01*
X88711542Y-178436459D01*
X88779093Y-178443151D01*
X88836116Y-178450272D01*
X88884384Y-178458002D01*
X88925667Y-178466520D01*
X88961737Y-178476009D01*
X88994366Y-178486648D01*
X89002205Y-178489513D01*
X89079289Y-178526655D01*
X89137609Y-178573572D01*
X89177151Y-178630241D01*
X89197900Y-178696640D01*
X89199844Y-178772745D01*
X89196341Y-178800077D01*
X89172342Y-178888982D01*
X89130903Y-178966773D01*
X89071681Y-179033820D01*
X88994329Y-179090498D01*
X88898504Y-179137177D01*
X88876256Y-179145652D01*
X88762151Y-179178725D01*
X88633500Y-179201001D01*
X88493793Y-179212758D01*
X88346525Y-179214273D01*
X88195186Y-179205822D01*
X88043269Y-179187682D01*
X87894265Y-179160132D01*
X87751668Y-179123447D01*
X87618969Y-179077905D01*
X87529458Y-179038791D01*
X87448233Y-178994709D01*
X87384072Y-178949841D01*
X87337855Y-178905104D01*
X87310463Y-178861420D01*
X87302777Y-178819706D01*
X87305168Y-178804708D01*
X87300666Y-178781157D01*
X87282762Y-178762394D01*
X87262894Y-178748615D01*
X87251293Y-178748218D01*
X87242896Y-178757112D01*
X87234257Y-178771604D01*
X87217938Y-178801422D01*
X87195313Y-178843891D01*
X87167755Y-178896336D01*
X87136637Y-178956081D01*
X87103333Y-179020452D01*
X87069216Y-179086774D01*
X87035659Y-179152371D01*
X87004035Y-179214569D01*
X86975718Y-179270693D01*
X86952081Y-179318068D01*
X86934497Y-179354018D01*
X86924340Y-179375869D01*
X86922412Y-179381388D01*
X86346727Y-179381388D01*
X86340587Y-179368219D01*
X86313544Y-179308896D01*
X86281686Y-179237903D01*
X86244510Y-179154135D01*
X86201512Y-179056486D01*
X86152189Y-178943852D01*
X86096037Y-178815127D01*
X86032553Y-178669207D01*
X85961233Y-178504987D01*
X85958406Y-178498472D01*
X85889660Y-178340002D01*
X85817297Y-178173066D01*
X85742537Y-178000485D01*
X85666601Y-177825082D01*
X85590709Y-177649680D01*
X85516081Y-177477099D01*
X85443939Y-177310162D01*
X85375501Y-177151692D01*
X85311989Y-177004511D01*
X85254623Y-176871440D01*
X85210267Y-176768419D01*
X85166842Y-176667583D01*
X90275493Y-176667583D01*
X90281125Y-177244375D01*
X90306441Y-177247954D01*
X90332089Y-177243214D01*
X90355702Y-177221496D01*
X90379645Y-177191458D01*
X91355333Y-177184494D01*
X91355333Y-178356601D01*
X91355314Y-178540057D01*
X91355248Y-178703514D01*
X91355115Y-178848139D01*
X91354901Y-178975098D01*
X91354586Y-179085559D01*
X91354154Y-179180690D01*
X91353589Y-179261656D01*
X91352872Y-179329626D01*
X91351987Y-179385767D01*
X91350916Y-179431245D01*
X91349642Y-179467228D01*
X91348149Y-179494883D01*
X91346418Y-179515377D01*
X91344433Y-179529877D01*
X91342177Y-179539550D01*
X91339633Y-179545564D01*
X91337818Y-179548062D01*
X91314129Y-179563432D01*
X91295484Y-179567417D01*
X91278637Y-179570505D01*
X91271753Y-179583844D01*
X91270666Y-179604458D01*
X91270666Y-179641500D01*
X92000916Y-179641500D01*
X92000916Y-179604458D01*
X91998847Y-179579313D01*
X91989910Y-179569039D01*
X91976098Y-179567417D01*
X91950588Y-179559817D01*
X91931119Y-179545141D01*
X91927972Y-179541120D01*
X91925165Y-179535615D01*
X91922677Y-179527443D01*
X91920483Y-179515420D01*
X91918562Y-179498361D01*
X91916891Y-179475082D01*
X91915446Y-179444399D01*
X91914206Y-179405129D01*
X91913146Y-179356087D01*
X91912245Y-179296088D01*
X91911479Y-179223950D01*
X91910826Y-179138487D01*
X91910263Y-179038516D01*
X91909767Y-178922853D01*
X91909316Y-178790313D01*
X91908886Y-178639712D01*
X91908454Y-178469868D01*
X91908175Y-178353758D01*
X91905392Y-177184652D01*
X92389717Y-177188423D01*
X92489473Y-177189378D01*
X92583085Y-177190620D01*
X92668352Y-177192093D01*
X92743073Y-177193745D01*
X92805049Y-177195520D01*
X92852079Y-177197365D01*
X92881963Y-177199227D01*
X92892159Y-177200741D01*
X92910637Y-177217643D01*
X92916685Y-177229478D01*
X92931271Y-177245820D01*
X92954129Y-177249667D01*
X92985166Y-177249667D01*
X92985166Y-176720754D01*
X93673083Y-176720754D01*
X93673083Y-176757668D01*
X93675095Y-176782682D01*
X93684058Y-176792896D01*
X93699169Y-176794583D01*
X93724563Y-176802639D01*
X93736210Y-176815054D01*
X93738058Y-176828558D01*
X93739732Y-176861922D01*
X93741234Y-176915270D01*
X93742564Y-176988729D01*
X93743723Y-177082422D01*
X93744712Y-177196475D01*
X93745533Y-177331013D01*
X93746186Y-177486160D01*
X93746673Y-177662042D01*
X93746993Y-177858783D01*
X93747149Y-178076508D01*
X93747166Y-178182117D01*
X93747151Y-178379426D01*
X93747095Y-178556656D01*
X93746984Y-178714893D01*
X93746806Y-178855224D01*
X93746545Y-178978736D01*
X93746188Y-179086516D01*
X93745721Y-179179650D01*
X93745130Y-179259227D01*
X93744401Y-179326331D01*
X93743520Y-179382052D01*
X93742474Y-179427474D01*
X93741247Y-179463686D01*
X93739827Y-179491775D01*
X93738199Y-179512826D01*
X93736350Y-179527927D01*
X93734265Y-179538165D01*
X93731931Y-179544628D01*
X93729651Y-179548062D01*
X93708373Y-179563284D01*
X93692609Y-179567417D01*
X93678984Y-179572301D01*
X93673568Y-179590398D01*
X93673083Y-179604458D01*
X93673083Y-179641500D01*
X96224423Y-179641500D01*
X96247857Y-179666841D01*
X96273456Y-179685316D01*
X96300395Y-179693299D01*
X96329500Y-179694417D01*
X96329500Y-179101750D01*
X96298984Y-179101750D01*
X96273351Y-179107313D01*
X96262966Y-179122789D01*
X96249585Y-179141917D01*
X96229293Y-179154539D01*
X96213087Y-179156598D01*
X96176091Y-179158447D01*
X96118679Y-179160084D01*
X96041227Y-179161503D01*
X95944110Y-179162702D01*
X95827702Y-179163675D01*
X95692379Y-179164419D01*
X95538516Y-179164929D01*
X95366488Y-179165202D01*
X95249311Y-179165250D01*
X94297500Y-179165250D01*
X94297500Y-177948167D01*
X94932500Y-177948167D01*
X94932500Y-178424417D01*
X95535750Y-178424417D01*
X95535750Y-177948167D01*
X94932500Y-177948167D01*
X94297500Y-177948167D01*
X94297500Y-177185405D01*
X95231952Y-177188431D01*
X95394354Y-177188976D01*
X95536926Y-177189512D01*
X95661004Y-177190069D01*
X95767926Y-177190678D01*
X95859028Y-177191370D01*
X95935646Y-177192175D01*
X95999118Y-177193124D01*
X96050779Y-177194249D01*
X96091968Y-177195578D01*
X96124019Y-177197144D01*
X96148270Y-177198976D01*
X96166058Y-177201106D01*
X96178719Y-177203563D01*
X96187589Y-177206380D01*
X96194006Y-177209586D01*
X96195508Y-177210532D01*
X96219417Y-177232149D01*
X96234460Y-177255512D01*
X96250759Y-177276775D01*
X96271029Y-177281417D01*
X96297750Y-177281417D01*
X96297750Y-176756871D01*
X97112666Y-176756871D01*
X97114727Y-176781742D01*
X97125004Y-176792681D01*
X97146821Y-176796558D01*
X97178267Y-176806881D01*
X97194290Y-176826333D01*
X97196265Y-176840713D01*
X97198100Y-176874684D01*
X97199794Y-176926687D01*
X97201346Y-176995162D01*
X97202756Y-177078549D01*
X97204022Y-177175286D01*
X97205145Y-177283815D01*
X97206122Y-177402575D01*
X97206953Y-177530005D01*
X97207637Y-177664545D01*
X97208174Y-177804636D01*
X97208562Y-177948717D01*
X97208801Y-178095227D01*
X97208890Y-178242607D01*
X97208828Y-178389297D01*
X97208614Y-178533735D01*
X97208247Y-178674363D01*
X97207727Y-178809619D01*
X97207053Y-178937944D01*
X97206223Y-179057777D01*
X97205238Y-179167559D01*
X97204095Y-179265728D01*
X97202795Y-179350725D01*
X97201336Y-179420989D01*
X97199717Y-179474961D01*
X97197939Y-179511079D01*
X97195999Y-179527785D01*
X97195748Y-179528425D01*
X97175895Y-179555497D01*
X97150105Y-179566355D01*
X97136479Y-179567254D01*
X97120254Y-179570717D01*
X97113643Y-179584828D01*
X97112666Y-179604458D01*
X97112666Y-179641500D01*
X97832333Y-179641500D01*
X97832333Y-179604458D01*
X97829422Y-179578043D01*
X97819340Y-179567914D01*
X97814645Y-179567417D01*
X97793261Y-179560667D01*
X97777604Y-179549901D01*
X97774588Y-179546485D01*
X97771903Y-179541223D01*
X97769529Y-179532938D01*
X97767446Y-179520456D01*
X97765636Y-179502602D01*
X97764080Y-179478202D01*
X97762759Y-179446079D01*
X97761653Y-179405060D01*
X97760744Y-179353969D01*
X97760012Y-179291631D01*
X97759438Y-179216871D01*
X97759003Y-179128514D01*
X97758689Y-179025386D01*
X97758476Y-178906311D01*
X97758344Y-178770114D01*
X97758276Y-178615620D01*
X97758251Y-178441655D01*
X97758250Y-178358148D01*
X97758250Y-177183911D01*
X98358854Y-177189142D01*
X98496838Y-177190409D01*
X98615501Y-177191738D01*
X98716688Y-177193288D01*
X98802246Y-177195221D01*
X98874020Y-177197699D01*
X98933854Y-177200883D01*
X98983595Y-177204934D01*
X99025088Y-177210014D01*
X99060179Y-177216285D01*
X99090713Y-177223906D01*
X99118536Y-177233040D01*
X99145493Y-177243849D01*
X99173430Y-177256492D01*
X99183487Y-177261242D01*
X99246433Y-177299884D01*
X99300541Y-177350032D01*
X99341421Y-177406940D01*
X99361520Y-177453699D01*
X99374320Y-177522300D01*
X99376603Y-177600023D01*
X99368532Y-177677715D01*
X99356699Y-177727530D01*
X99336829Y-177778308D01*
X99310034Y-177818110D01*
X99290553Y-177838619D01*
X99263489Y-177863564D01*
X99237083Y-177884413D01*
X99209196Y-177901532D01*
X99177691Y-177915284D01*
X99140428Y-177926037D01*
X99095270Y-177934154D01*
X99040077Y-177940001D01*
X98972711Y-177943943D01*
X98891033Y-177946346D01*
X98792906Y-177947573D01*
X98676190Y-177947991D01*
X98649895Y-177948010D01*
X98560906Y-177948273D01*
X98478943Y-177948953D01*
X98406326Y-177949998D01*
X98345377Y-177951356D01*
X98298417Y-177952972D01*
X98267770Y-177954796D01*
X98255754Y-177956774D01*
X98255666Y-177956960D01*
X98261160Y-177968035D01*
X98276553Y-177994210D01*
X98300212Y-178032833D01*
X98330503Y-178081256D01*
X98365793Y-178136829D01*
X98384489Y-178165981D01*
X98410467Y-178206577D01*
X98446285Y-178262871D01*
X98490534Y-178332632D01*
X98541810Y-178413627D01*
X98598703Y-178503623D01*
X98659809Y-178600387D01*
X98723719Y-178701686D01*
X98789028Y-178805289D01*
X98854328Y-178908961D01*
X98918212Y-179010471D01*
X98979273Y-179107585D01*
X99036105Y-179198071D01*
X99087301Y-179279696D01*
X99131453Y-179350228D01*
X99167155Y-179407433D01*
X99193001Y-179449079D01*
X99193802Y-179450377D01*
X99218327Y-179496869D01*
X99228338Y-179532597D01*
X99223571Y-179556038D01*
X99213458Y-179563589D01*
X99201469Y-179578728D01*
X99197583Y-179605590D01*
X99197583Y-179641500D01*
X100012500Y-179641500D01*
X100012500Y-179605781D01*
X100009756Y-179580360D01*
X99998016Y-179568188D01*
X99983395Y-179563858D01*
X99964838Y-179559081D01*
X99947386Y-179552039D01*
X99929768Y-179541171D01*
X99910713Y-179524919D01*
X99888951Y-179501723D01*
X99863212Y-179470026D01*
X99832224Y-179428267D01*
X99794717Y-179374888D01*
X99749420Y-179308330D01*
X99695062Y-179227034D01*
X99634843Y-179136196D01*
X99576661Y-179048191D01*
X99517732Y-178958966D01*
X99460051Y-178871551D01*
X99405616Y-178788973D01*
X99356423Y-178714264D01*
X99314470Y-178650453D01*
X99281753Y-178600569D01*
X99275800Y-178591468D01*
X99167066Y-178425144D01*
X99206137Y-178418595D01*
X99344472Y-178386192D01*
X99470431Y-178337736D01*
X99583191Y-178273808D01*
X99681930Y-178194987D01*
X99765824Y-178101856D01*
X99834053Y-177994995D01*
X99849597Y-177964042D01*
X99879858Y-177893429D01*
X99901084Y-177825414D01*
X99914874Y-177752997D01*
X99922828Y-177669178D01*
X99924524Y-177635958D01*
X99926281Y-177570229D01*
X99924771Y-177516530D01*
X99919333Y-177465886D01*
X99909306Y-177409323D01*
X99907000Y-177398002D01*
X99879095Y-177290707D01*
X99841740Y-177198425D01*
X99792325Y-177116133D01*
X99728240Y-177038815D01*
X99711002Y-177021058D01*
X99666819Y-176978456D01*
X99628183Y-176946364D01*
X99587595Y-176919426D01*
X99537558Y-176892289D01*
X99514772Y-176880940D01*
X99413898Y-176836374D01*
X99308961Y-176800345D01*
X99195957Y-176771871D01*
X99070881Y-176749968D01*
X98929728Y-176733653D01*
X98906541Y-176731595D01*
X98873683Y-176729717D01*
X98821359Y-176727961D01*
X98751268Y-176726345D01*
X98665111Y-176724890D01*
X98564587Y-176723615D01*
X98451396Y-176722539D01*
X98327239Y-176721681D01*
X98193815Y-176721061D01*
X98052824Y-176720699D01*
X97946104Y-176720609D01*
X97112666Y-176720500D01*
X97112666Y-176756871D01*
X96297750Y-176756871D01*
X96297750Y-176667583D01*
X96270342Y-176667583D01*
X96242107Y-176676093D01*
X96223653Y-176691396D01*
X96204372Y-176715208D01*
X94938727Y-176717981D01*
X93673083Y-176720754D01*
X92985166Y-176720754D01*
X92985166Y-176667583D01*
X92957758Y-176667583D01*
X92929523Y-176676093D01*
X92911070Y-176691396D01*
X92891789Y-176715208D01*
X91648338Y-176717983D01*
X91440984Y-176718355D01*
X91250828Y-176718510D01*
X91078264Y-176718450D01*
X90923684Y-176718177D01*
X90787479Y-176717694D01*
X90670042Y-176717004D01*
X90571765Y-176716108D01*
X90493040Y-176715008D01*
X90434259Y-176713709D01*
X90395814Y-176712210D01*
X90378097Y-176710516D01*
X90377402Y-176710307D01*
X90357227Y-176697431D01*
X90349916Y-176683720D01*
X90342272Y-176671889D01*
X90317511Y-176667641D01*
X90312704Y-176667583D01*
X90275493Y-176667583D01*
X85166842Y-176667583D01*
X85165557Y-176664599D01*
X99810947Y-176664599D01*
X99820502Y-176733085D01*
X99845074Y-176796046D01*
X99882736Y-176851279D01*
X99931556Y-176896578D01*
X99989606Y-176929740D01*
X100054956Y-176948560D01*
X100125678Y-176950835D01*
X100199840Y-176934360D01*
X100205591Y-176932268D01*
X100260088Y-176902921D01*
X100311887Y-176859164D01*
X100354070Y-176807329D01*
X100367597Y-176784000D01*
X100378066Y-176753733D01*
X100386683Y-176711646D01*
X100391230Y-176671409D01*
X100392756Y-176626330D01*
X100389315Y-176592547D01*
X100379380Y-176560470D01*
X100370125Y-176539053D01*
X100328444Y-176470706D01*
X100274058Y-176417555D01*
X100209377Y-176381199D01*
X100136811Y-176363235D01*
X100102458Y-176361575D01*
X100022356Y-176371513D01*
X99953536Y-176399305D01*
X99896310Y-176444758D01*
X99850992Y-176507681D01*
X99844610Y-176519871D01*
X99818340Y-176592793D01*
X99810947Y-176664599D01*
X85165557Y-176664599D01*
X85151435Y-176631808D01*
X85100330Y-176513480D01*
X85056401Y-176412236D01*
X85019096Y-176326880D01*
X84987861Y-176256214D01*
X84962145Y-176199041D01*
X84941395Y-176154163D01*
X84925060Y-176120382D01*
X84912587Y-176096502D01*
X84903423Y-176081324D01*
X84897016Y-176073652D01*
X84892815Y-176072287D01*
X84890558Y-176075211D01*
X84883274Y-176093102D01*
X84868282Y-176129257D01*
X84846102Y-176182436D01*
X84817256Y-176251403D01*
X84782264Y-176334919D01*
X84741647Y-176431745D01*
X84695926Y-176540643D01*
X84645621Y-176660376D01*
X84591253Y-176789705D01*
X84533343Y-176927392D01*
X84472413Y-177072199D01*
X84408982Y-177222887D01*
X84343572Y-177378218D01*
X84276703Y-177536955D01*
X84208896Y-177697858D01*
X84140672Y-177859691D01*
X84072552Y-178021214D01*
X84005056Y-178181189D01*
X83938706Y-178338379D01*
X83918018Y-178387375D01*
X83858535Y-178528290D01*
X83801106Y-178664441D01*
X83746301Y-178794470D01*
X83694690Y-178917022D01*
X83646842Y-179030740D01*
X83603328Y-179134266D01*
X83564717Y-179226244D01*
X83531580Y-179305318D01*
X83504487Y-179370130D01*
X83484007Y-179419323D01*
X83470711Y-179451542D01*
X83465462Y-179464625D01*
X83446277Y-179502252D01*
X83420638Y-179535314D01*
X83393294Y-179558728D01*
X83369396Y-179567417D01*
X83359500Y-179576299D01*
X83354323Y-179596771D01*
X82884289Y-179596771D01*
X82886179Y-179384172D01*
X82888983Y-179068635D01*
X82854429Y-179071963D01*
X82828614Y-179078287D01*
X82817640Y-179093249D01*
X82816520Y-179098893D01*
X82806063Y-179121996D01*
X82785989Y-179143872D01*
X82780811Y-179147646D01*
X82774590Y-179150948D01*
X82765957Y-179153808D01*
X82753546Y-179156260D01*
X82735990Y-179158333D01*
X82711922Y-179160061D01*
X82679973Y-179161474D01*
X82638778Y-179162604D01*
X82586968Y-179163483D01*
X82523178Y-179164142D01*
X82446039Y-179164613D01*
X82354184Y-179164927D01*
X82246247Y-179165116D01*
X82120859Y-179165212D01*
X81976655Y-179165246D01*
X81860656Y-179165250D01*
X80962500Y-179165250D01*
X80962656Y-178009021D01*
X80962729Y-177819353D01*
X80962904Y-177649852D01*
X80963192Y-177499520D01*
X80963604Y-177367355D01*
X80964151Y-177252360D01*
X80964845Y-177153534D01*
X80965697Y-177069878D01*
X80966719Y-177000394D01*
X80967922Y-176944081D01*
X80969317Y-176899940D01*
X80970915Y-176866972D01*
X80972729Y-176844177D01*
X80974769Y-176830556D01*
X80976126Y-176826333D01*
X80996751Y-176803994D01*
X81023595Y-176796558D01*
X81046762Y-176792114D01*
X81056098Y-176780264D01*
X81057750Y-176756871D01*
X81057750Y-176720500D01*
X80316916Y-176720500D01*
X77046076Y-176720500D01*
X76803250Y-176719605D01*
X76803250Y-176757094D01*
X75374500Y-176757094D01*
X75374500Y-168571333D01*
X75744916Y-168571333D01*
X75744916Y-175154167D01*
X101049666Y-175154167D01*
X101049666Y-168571333D01*
X75744916Y-168571333D01*
X75374500Y-168571333D01*
X75374500Y-168200917D01*
X101420083Y-168200917D01*
X101420083Y-181313667D01*
X101420083Y-181313667D01*
G37*
X101420083Y-181313667D02*
X75374500Y-181313667D01*
X75374500Y-180075417D01*
X83354333Y-180075417D01*
X83354333Y-180269444D01*
X83354701Y-180331495D01*
X83355722Y-180386108D01*
X83357276Y-180429813D01*
X83359241Y-180459138D01*
X83361388Y-180470528D01*
X83372604Y-180471345D01*
X83403808Y-180472135D01*
X83453822Y-180472893D01*
X83521467Y-180473614D01*
X83605564Y-180474292D01*
X83704937Y-180474921D01*
X83818406Y-180475497D01*
X83944792Y-180476015D01*
X84082917Y-180476468D01*
X84231603Y-180476851D01*
X84389672Y-180477160D01*
X84555945Y-180477388D01*
X84729243Y-180477531D01*
X84908388Y-180477583D01*
X86465833Y-180477583D01*
X86465833Y-180075417D01*
X83354333Y-180075417D01*
X75374500Y-180075417D01*
X75374500Y-176757094D01*
X76803250Y-176757094D01*
X76805088Y-176782263D01*
X76813767Y-176792659D01*
X76831520Y-176794583D01*
X76860664Y-176801092D01*
X76879145Y-176812098D01*
X76881965Y-176815305D01*
X76884498Y-176820280D01*
X76886758Y-176828117D01*
X76888761Y-176839907D01*
X76890524Y-176856743D01*
X76892060Y-176879720D01*
X76893386Y-176909928D01*
X76894516Y-176948462D01*
X76895468Y-176996413D01*
X76896255Y-177054875D01*
X76896893Y-177124941D01*
X76897398Y-177207702D01*
X76897785Y-177304253D01*
X76898070Y-177415686D01*
X76898268Y-177543093D01*
X76898394Y-177687567D01*
X76898465Y-177850202D01*
X76898495Y-178032090D01*
X76898500Y-178182040D01*
X76898500Y-179534466D01*
X76874978Y-179550941D01*
X76847901Y-179563689D01*
X76827353Y-179567417D01*
X76811049Y-179570605D01*
X76804327Y-179584190D01*
X76803250Y-179605028D01*
X76803250Y-179642639D01*
X77843062Y-179638729D01*
X78014821Y-179638071D01*
X78166764Y-179637446D01*
X78300241Y-179636823D01*
X78416602Y-179636172D01*
X78517198Y-179635462D01*
X78603378Y-179634663D01*
X78676493Y-179633744D01*
X78737894Y-179632675D01*
X78788930Y-179631425D01*
X78830951Y-179629963D01*
X78865309Y-179628258D01*
X78893353Y-179626281D01*
X78916433Y-179624001D01*
X78935900Y-179621387D01*
X78953104Y-179618408D01*
X78969395Y-179615034D01*
X78978354Y-179613022D01*
X79117579Y-179572529D01*
X79241148Y-179518328D01*
X79348784Y-179450690D01*
X79440207Y-179369886D01*
X79515138Y-179276187D01*
X79573299Y-179169864D01*
X79614410Y-179051186D01*
X79629706Y-178980447D01*
X79635278Y-178930188D01*
X79637764Y-178866030D01*
X79637388Y-178794032D01*
X79634373Y-178720253D01*
X79628943Y-178650751D01*
X79621322Y-178591587D01*
X79614053Y-178556708D01*
X79573343Y-178444865D01*
X79514445Y-178343849D01*
X79437363Y-178253665D01*
X79342099Y-178174314D01*
X79298446Y-178145324D01*
X79216600Y-178094361D01*
X79277566Y-178049480D01*
X79358276Y-177978271D01*
X79429139Y-177892405D01*
X79486850Y-177796844D01*
X79528103Y-177696548D01*
X79539040Y-177657125D01*
X79551750Y-177572346D01*
X79553561Y-177477194D01*
X79545097Y-177379052D01*
X79526983Y-177285300D01*
X79500806Y-177205591D01*
X79443499Y-177094992D01*
X79370299Y-176998236D01*
X79281135Y-176915265D01*
X79175932Y-176846020D01*
X79054616Y-176790444D01*
X78921780Y-176749614D01*
X78906001Y-176745850D01*
X78890301Y-176742522D01*
X78873316Y-176739600D01*
X78853680Y-176737050D01*
X78830028Y-176734841D01*
X78800995Y-176732939D01*
X78765215Y-176731312D01*
X78721324Y-176729928D01*
X78667956Y-176728755D01*
X78603745Y-176727759D01*
X78527328Y-176726909D01*
X78437338Y-176726172D01*
X78332410Y-176725515D01*
X78211179Y-176724906D01*
X78072281Y-176724313D01*
X77914349Y-176723703D01*
X77816604Y-176723340D01*
X77046076Y-176720500D01*
X80316916Y-176720500D01*
X80316916Y-176757542D01*
X80318694Y-176782433D01*
X80327662Y-176792642D01*
X80348422Y-176794583D01*
X80357627Y-176794159D01*
X80365909Y-176793592D01*
X80373315Y-176793940D01*
X80379891Y-176796263D01*
X80385684Y-176801619D01*
X80390740Y-176811066D01*
X80395105Y-176825663D01*
X80398826Y-176846470D01*
X80401949Y-176874544D01*
X80404521Y-176910943D01*
X80406588Y-176956728D01*
X80408196Y-177012956D01*
X80409392Y-177080686D01*
X80410223Y-177160977D01*
X80410734Y-177254886D01*
X80410972Y-177363474D01*
X80410984Y-177487798D01*
X80410817Y-177628917D01*
X80410515Y-177787890D01*
X80410126Y-177965775D01*
X80409697Y-178163631D01*
X80409641Y-178190763D01*
X80409231Y-178387204D01*
X80408839Y-178563574D01*
X80408446Y-178720967D01*
X80408034Y-178860479D01*
X80407583Y-178983205D01*
X80407075Y-179090240D01*
X80406492Y-179182679D01*
X80405813Y-179261617D01*
X80405022Y-179328149D01*
X80404098Y-179383371D01*
X80403023Y-179428377D01*
X80401779Y-179464264D01*
X80400346Y-179492125D01*
X80398707Y-179513055D01*
X80396841Y-179528151D01*
X80394731Y-179538508D01*
X80392357Y-179545219D01*
X80389702Y-179549381D01*
X80386745Y-179552088D01*
X80386331Y-179552396D01*
X80359415Y-179564598D01*
X80341352Y-179567417D01*
X80324724Y-179570604D01*
X80317952Y-179584223D01*
X80316916Y-179604328D01*
X80316916Y-179641240D01*
X81551379Y-179644016D01*
X82785843Y-179646792D01*
X82807921Y-179676365D01*
X82831402Y-179698535D01*
X82856687Y-179702824D01*
X82883375Y-179699708D01*
X82884289Y-179596771D01*
X83354323Y-179596771D01*
X83354949Y-179619570D01*
X83361532Y-179634588D01*
X83373496Y-179636255D01*
X83404051Y-179637614D01*
X83450625Y-179638632D01*
X83510645Y-179639277D01*
X83581538Y-179639516D01*
X83660732Y-179639317D01*
X83708137Y-179638998D01*
X84047541Y-179636208D01*
X84050858Y-179601812D01*
X84050894Y-179577820D01*
X84042574Y-179568455D01*
X84033093Y-179567417D01*
X84003425Y-179558430D01*
X83985241Y-179534058D01*
X83981256Y-179498179D01*
X83981747Y-179494084D01*
X83987279Y-179474411D01*
X84000808Y-179436193D01*
X84021963Y-179380327D01*
X84050373Y-179307711D01*
X84085668Y-179219240D01*
X84127478Y-179115813D01*
X84175431Y-178998328D01*
X84229157Y-178867680D01*
X84288285Y-178724768D01*
X84352445Y-178570488D01*
X84421265Y-178405738D01*
X84494376Y-178231416D01*
X84571407Y-178048418D01*
X84651987Y-177857641D01*
X84735745Y-177659984D01*
X84822311Y-177456343D01*
X84862033Y-177363107D01*
X84865026Y-177357866D01*
X84868806Y-177356268D01*
X84874021Y-177359680D01*
X84881324Y-177369468D01*
X84891363Y-177386998D01*
X84904790Y-177413636D01*
X84922255Y-177450750D01*
X84944407Y-177499705D01*
X84971898Y-177561867D01*
X85005377Y-177638603D01*
X85045495Y-177731279D01*
X85092902Y-177841262D01*
X85123960Y-177913440D01*
X85214430Y-178123851D01*
X85296825Y-178315661D01*
X85371488Y-178489691D01*
X85438761Y-178646761D01*
X85498988Y-178787690D01*
X85552511Y-178913299D01*
X85599674Y-179024407D01*
X85640819Y-179121836D01*
X85676290Y-179206405D01*
X85706430Y-179278933D01*
X85731581Y-179340242D01*
X85752087Y-179391150D01*
X85768291Y-179432479D01*
X85780535Y-179465048D01*
X85789163Y-179489677D01*
X85794517Y-179507187D01*
X85796942Y-179518397D01*
X85797102Y-179522754D01*
X85783939Y-179551591D01*
X85764068Y-179565566D01*
X85742549Y-179580601D01*
X85737082Y-179601249D01*
X85737610Y-179607978D01*
X85740875Y-179636208D01*
X86471125Y-179636208D01*
X86474421Y-179613046D01*
X86467845Y-179587366D01*
X86441789Y-179554014D01*
X86437379Y-179549519D01*
X86429939Y-179540951D01*
X86421209Y-179528447D01*
X86410685Y-179510903D01*
X86397865Y-179487213D01*
X86382244Y-179456272D01*
X86363319Y-179416976D01*
X86346727Y-179381388D01*
X86922412Y-179381388D01*
X86956644Y-179398866D01*
X86999240Y-179398483D01*
X87011860Y-179395576D01*
X87030078Y-179391446D01*
X87046788Y-179390738D01*
X87066033Y-179394704D01*
X87091858Y-179404595D01*
X87128308Y-179421663D01*
X87179426Y-179447160D01*
X87180845Y-179447875D01*
X87313431Y-179510514D01*
X87441829Y-179561988D01*
X87569792Y-179603119D01*
X87701070Y-179634731D01*
X87839412Y-179657647D01*
X87988570Y-179672691D01*
X88152293Y-179680685D01*
X88249125Y-179682370D01*
X88320143Y-179682182D01*
X88394519Y-179680694D01*
X88465113Y-179678129D01*
X88524784Y-179674714D01*
X88545458Y-179673026D01*
X88738927Y-179648279D01*
X88915859Y-179611473D01*
X89076032Y-179562689D01*
X89219229Y-179502011D01*
X89345227Y-179429519D01*
X89453809Y-179345297D01*
X89475100Y-179325432D01*
X89561767Y-179228126D01*
X89629748Y-179121301D01*
X89679272Y-179004454D01*
X89710566Y-178877081D01*
X89721911Y-178778958D01*
X89722960Y-178691783D01*
X89716140Y-178596633D01*
X89702486Y-178503590D01*
X89686648Y-178435000D01*
X89647498Y-178333605D01*
X89590268Y-178237791D01*
X89517958Y-178151204D01*
X89433565Y-178077489D01*
X89349359Y-178024958D01*
X89289137Y-177995777D01*
X89228085Y-177970283D01*
X89164221Y-177948158D01*
X89095564Y-177929088D01*
X89020131Y-177912758D01*
X88935942Y-177898851D01*
X88841016Y-177887052D01*
X88733371Y-177877046D01*
X88611025Y-177868517D01*
X88471997Y-177861149D01*
X88314307Y-177854626D01*
X88269815Y-177853024D01*
X88130782Y-177846969D01*
X88011182Y-177838989D01*
X87909333Y-177828641D01*
X87823553Y-177815483D01*
X87752161Y-177799070D01*
X87693474Y-177778960D01*
X87645811Y-177754710D01*
X87607490Y-177725877D01*
X87576829Y-177692018D01*
X87559489Y-177665884D01*
X87543211Y-177635011D01*
X87534119Y-177606566D01*
X87530284Y-177572098D01*
X87529703Y-177535417D01*
X87534636Y-177470236D01*
X87550959Y-177417109D01*
X87581641Y-177369383D01*
X87622861Y-177326582D01*
X87688690Y-177276325D01*
X87768309Y-177234723D01*
X87862935Y-177201438D01*
X87973785Y-177176129D01*
X88102080Y-177158456D01*
X88249035Y-177148079D01*
X88265000Y-177147422D01*
X88468325Y-177148521D01*
X88661360Y-177167967D01*
X88741250Y-177181969D01*
X88840199Y-177205106D01*
X88938772Y-177234561D01*
X89033205Y-177268777D01*
X89119731Y-177306198D01*
X89194586Y-177345268D01*
X89254004Y-177384428D01*
X89276369Y-177403203D01*
X89303411Y-177430361D01*
X89317591Y-177451914D01*
X89322835Y-177475151D01*
X89323333Y-177490410D01*
X89326520Y-177522407D01*
X89339635Y-177544985D01*
X89357729Y-177561180D01*
X89392125Y-177588477D01*
X89537521Y-177294718D01*
X89573461Y-177221917D01*
X89606178Y-177155288D01*
X89634535Y-177097174D01*
X89657395Y-177049918D01*
X89673621Y-177015865D01*
X89682075Y-176997357D01*
X89683042Y-176994719D01*
X89674269Y-176983941D01*
X89653851Y-176974924D01*
X89631278Y-176970599D01*
X89616037Y-176973897D01*
X89615940Y-176973993D01*
X89604092Y-176981818D01*
X89587780Y-176983474D01*
X89564011Y-176978073D01*
X89529794Y-176964728D01*
X89482134Y-176942549D01*
X89440358Y-176921888D01*
X89270259Y-176846199D01*
X89087193Y-176782417D01*
X88896715Y-176732203D01*
X88704378Y-176697216D01*
X88675912Y-176693410D01*
X88618778Y-176686957D01*
X88562379Y-176682536D01*
X88501961Y-176679997D01*
X88432775Y-176679185D01*
X88350067Y-176679949D01*
X88291939Y-176681101D01*
X88169020Y-176685314D01*
X88062716Y-176692409D01*
X87968585Y-176703088D01*
X87882190Y-176718048D01*
X87799090Y-176737989D01*
X87714846Y-176763610D01*
X87670209Y-176779018D01*
X87532258Y-176838011D01*
X87407829Y-176911209D01*
X87297966Y-176997558D01*
X87203713Y-177096000D01*
X87126114Y-177205480D01*
X87066212Y-177324941D01*
X87032467Y-177424292D01*
X87020450Y-177483726D01*
X87012238Y-177556217D01*
X87008038Y-177634859D01*
X87008058Y-177712743D01*
X87012506Y-177782962D01*
X87020185Y-177832653D01*
X87054350Y-177943613D01*
X87104152Y-178040486D01*
X87169476Y-178123085D01*
X87242556Y-178185864D01*
X87317636Y-178233462D01*
X87400922Y-178274380D01*
X87494253Y-178309056D01*
X87599466Y-178337927D01*
X87718399Y-178361432D01*
X87852891Y-178380009D01*
X88004777Y-178394096D01*
X88153875Y-178403106D01*
X88300635Y-178410363D01*
X88428011Y-178417147D01*
X88537773Y-178423637D01*
X88631693Y-178430014D01*
X88711542Y-178436459D01*
X88779093Y-178443151D01*
X88836116Y-178450272D01*
X88884384Y-178458002D01*
X88925667Y-178466520D01*
X88961737Y-178476009D01*
X88994366Y-178486648D01*
X89002205Y-178489513D01*
X89079289Y-178526655D01*
X89137609Y-178573572D01*
X89177151Y-178630241D01*
X89197900Y-178696640D01*
X89199844Y-178772745D01*
X89196341Y-178800077D01*
X89172342Y-178888982D01*
X89130903Y-178966773D01*
X89071681Y-179033820D01*
X88994329Y-179090498D01*
X88898504Y-179137177D01*
X88876256Y-179145652D01*
X88762151Y-179178725D01*
X88633500Y-179201001D01*
X88493793Y-179212758D01*
X88346525Y-179214273D01*
X88195186Y-179205822D01*
X88043269Y-179187682D01*
X87894265Y-179160132D01*
X87751668Y-179123447D01*
X87618969Y-179077905D01*
X87529458Y-179038791D01*
X87448233Y-178994709D01*
X87384072Y-178949841D01*
X87337855Y-178905104D01*
X87310463Y-178861420D01*
X87302777Y-178819706D01*
X87305168Y-178804708D01*
X87300666Y-178781157D01*
X87282762Y-178762394D01*
X87262894Y-178748615D01*
X87251293Y-178748218D01*
X87242896Y-178757112D01*
X87234257Y-178771604D01*
X87217938Y-178801422D01*
X87195313Y-178843891D01*
X87167755Y-178896336D01*
X87136637Y-178956081D01*
X87103333Y-179020452D01*
X87069216Y-179086774D01*
X87035659Y-179152371D01*
X87004035Y-179214569D01*
X86975718Y-179270693D01*
X86952081Y-179318068D01*
X86934497Y-179354018D01*
X86924340Y-179375869D01*
X86922412Y-179381388D01*
X86346727Y-179381388D01*
X86340587Y-179368219D01*
X86313544Y-179308896D01*
X86281686Y-179237903D01*
X86244510Y-179154135D01*
X86201512Y-179056486D01*
X86152189Y-178943852D01*
X86096037Y-178815127D01*
X86032553Y-178669207D01*
X85961233Y-178504987D01*
X85958406Y-178498472D01*
X85889660Y-178340002D01*
X85817297Y-178173066D01*
X85742537Y-178000485D01*
X85666601Y-177825082D01*
X85590709Y-177649680D01*
X85516081Y-177477099D01*
X85443939Y-177310162D01*
X85375501Y-177151692D01*
X85311989Y-177004511D01*
X85254623Y-176871440D01*
X85210267Y-176768419D01*
X85166842Y-176667583D01*
X90275493Y-176667583D01*
X90281125Y-177244375D01*
X90306441Y-177247954D01*
X90332089Y-177243214D01*
X90355702Y-177221496D01*
X90379645Y-177191458D01*
X91355333Y-177184494D01*
X91355333Y-178356601D01*
X91355314Y-178540057D01*
X91355248Y-178703514D01*
X91355115Y-178848139D01*
X91354901Y-178975098D01*
X91354586Y-179085559D01*
X91354154Y-179180690D01*
X91353589Y-179261656D01*
X91352872Y-179329626D01*
X91351987Y-179385767D01*
X91350916Y-179431245D01*
X91349642Y-179467228D01*
X91348149Y-179494883D01*
X91346418Y-179515377D01*
X91344433Y-179529877D01*
X91342177Y-179539550D01*
X91339633Y-179545564D01*
X91337818Y-179548062D01*
X91314129Y-179563432D01*
X91295484Y-179567417D01*
X91278637Y-179570505D01*
X91271753Y-179583844D01*
X91270666Y-179604458D01*
X91270666Y-179641500D01*
X92000916Y-179641500D01*
X92000916Y-179604458D01*
X91998847Y-179579313D01*
X91989910Y-179569039D01*
X91976098Y-179567417D01*
X91950588Y-179559817D01*
X91931119Y-179545141D01*
X91927972Y-179541120D01*
X91925165Y-179535615D01*
X91922677Y-179527443D01*
X91920483Y-179515420D01*
X91918562Y-179498361D01*
X91916891Y-179475082D01*
X91915446Y-179444399D01*
X91914206Y-179405129D01*
X91913146Y-179356087D01*
X91912245Y-179296088D01*
X91911479Y-179223950D01*
X91910826Y-179138487D01*
X91910263Y-179038516D01*
X91909767Y-178922853D01*
X91909316Y-178790313D01*
X91908886Y-178639712D01*
X91908454Y-178469868D01*
X91908175Y-178353758D01*
X91905392Y-177184652D01*
X92389717Y-177188423D01*
X92489473Y-177189378D01*
X92583085Y-177190620D01*
X92668352Y-177192093D01*
X92743073Y-177193745D01*
X92805049Y-177195520D01*
X92852079Y-177197365D01*
X92881963Y-177199227D01*
X92892159Y-177200741D01*
X92910637Y-177217643D01*
X92916685Y-177229478D01*
X92931271Y-177245820D01*
X92954129Y-177249667D01*
X92985166Y-177249667D01*
X92985166Y-176720754D01*
X93673083Y-176720754D01*
X93673083Y-176757668D01*
X93675095Y-176782682D01*
X93684058Y-176792896D01*
X93699169Y-176794583D01*
X93724563Y-176802639D01*
X93736210Y-176815054D01*
X93738058Y-176828558D01*
X93739732Y-176861922D01*
X93741234Y-176915270D01*
X93742564Y-176988729D01*
X93743723Y-177082422D01*
X93744712Y-177196475D01*
X93745533Y-177331013D01*
X93746186Y-177486160D01*
X93746673Y-177662042D01*
X93746993Y-177858783D01*
X93747149Y-178076508D01*
X93747166Y-178182117D01*
X93747151Y-178379426D01*
X93747095Y-178556656D01*
X93746984Y-178714893D01*
X93746806Y-178855224D01*
X93746545Y-178978736D01*
X93746188Y-179086516D01*
X93745721Y-179179650D01*
X93745130Y-179259227D01*
X93744401Y-179326331D01*
X93743520Y-179382052D01*
X93742474Y-179427474D01*
X93741247Y-179463686D01*
X93739827Y-179491775D01*
X93738199Y-179512826D01*
X93736350Y-179527927D01*
X93734265Y-179538165D01*
X93731931Y-179544628D01*
X93729651Y-179548062D01*
X93708373Y-179563284D01*
X93692609Y-179567417D01*
X93678984Y-179572301D01*
X93673568Y-179590398D01*
X93673083Y-179604458D01*
X93673083Y-179641500D01*
X96224423Y-179641500D01*
X96247857Y-179666841D01*
X96273456Y-179685316D01*
X96300395Y-179693299D01*
X96329500Y-179694417D01*
X96329500Y-179101750D01*
X96298984Y-179101750D01*
X96273351Y-179107313D01*
X96262966Y-179122789D01*
X96249585Y-179141917D01*
X96229293Y-179154539D01*
X96213087Y-179156598D01*
X96176091Y-179158447D01*
X96118679Y-179160084D01*
X96041227Y-179161503D01*
X95944110Y-179162702D01*
X95827702Y-179163675D01*
X95692379Y-179164419D01*
X95538516Y-179164929D01*
X95366488Y-179165202D01*
X95249311Y-179165250D01*
X94297500Y-179165250D01*
X94297500Y-177948167D01*
X94932500Y-177948167D01*
X94932500Y-178424417D01*
X95535750Y-178424417D01*
X95535750Y-177948167D01*
X94932500Y-177948167D01*
X94297500Y-177948167D01*
X94297500Y-177185405D01*
X95231952Y-177188431D01*
X95394354Y-177188976D01*
X95536926Y-177189512D01*
X95661004Y-177190069D01*
X95767926Y-177190678D01*
X95859028Y-177191370D01*
X95935646Y-177192175D01*
X95999118Y-177193124D01*
X96050779Y-177194249D01*
X96091968Y-177195578D01*
X96124019Y-177197144D01*
X96148270Y-177198976D01*
X96166058Y-177201106D01*
X96178719Y-177203563D01*
X96187589Y-177206380D01*
X96194006Y-177209586D01*
X96195508Y-177210532D01*
X96219417Y-177232149D01*
X96234460Y-177255512D01*
X96250759Y-177276775D01*
X96271029Y-177281417D01*
X96297750Y-177281417D01*
X96297750Y-176756871D01*
X97112666Y-176756871D01*
X97114727Y-176781742D01*
X97125004Y-176792681D01*
X97146821Y-176796558D01*
X97178267Y-176806881D01*
X97194290Y-176826333D01*
X97196265Y-176840713D01*
X97198100Y-176874684D01*
X97199794Y-176926687D01*
X97201346Y-176995162D01*
X97202756Y-177078549D01*
X97204022Y-177175286D01*
X97205145Y-177283815D01*
X97206122Y-177402575D01*
X97206953Y-177530005D01*
X97207637Y-177664545D01*
X97208174Y-177804636D01*
X97208562Y-177948717D01*
X97208801Y-178095227D01*
X97208890Y-178242607D01*
X97208828Y-178389297D01*
X97208614Y-178533735D01*
X97208247Y-178674363D01*
X97207727Y-178809619D01*
X97207053Y-178937944D01*
X97206223Y-179057777D01*
X97205238Y-179167559D01*
X97204095Y-179265728D01*
X97202795Y-179350725D01*
X97201336Y-179420989D01*
X97199717Y-179474961D01*
X97197939Y-179511079D01*
X97195999Y-179527785D01*
X97195748Y-179528425D01*
X97175895Y-179555497D01*
X97150105Y-179566355D01*
X97136479Y-179567254D01*
X97120254Y-179570717D01*
X97113643Y-179584828D01*
X97112666Y-179604458D01*
X97112666Y-179641500D01*
X97832333Y-179641500D01*
X97832333Y-179604458D01*
X97829422Y-179578043D01*
X97819340Y-179567914D01*
X97814645Y-179567417D01*
X97793261Y-179560667D01*
X97777604Y-179549901D01*
X97774588Y-179546485D01*
X97771903Y-179541223D01*
X97769529Y-179532938D01*
X97767446Y-179520456D01*
X97765636Y-179502602D01*
X97764080Y-179478202D01*
X97762759Y-179446079D01*
X97761653Y-179405060D01*
X97760744Y-179353969D01*
X97760012Y-179291631D01*
X97759438Y-179216871D01*
X97759003Y-179128514D01*
X97758689Y-179025386D01*
X97758476Y-178906311D01*
X97758344Y-178770114D01*
X97758276Y-178615620D01*
X97758251Y-178441655D01*
X97758250Y-178358148D01*
X97758250Y-177183911D01*
X98358854Y-177189142D01*
X98496838Y-177190409D01*
X98615501Y-177191738D01*
X98716688Y-177193288D01*
X98802246Y-177195221D01*
X98874020Y-177197699D01*
X98933854Y-177200883D01*
X98983595Y-177204934D01*
X99025088Y-177210014D01*
X99060179Y-177216285D01*
X99090713Y-177223906D01*
X99118536Y-177233040D01*
X99145493Y-177243849D01*
X99173430Y-177256492D01*
X99183487Y-177261242D01*
X99246433Y-177299884D01*
X99300541Y-177350032D01*
X99341421Y-177406940D01*
X99361520Y-177453699D01*
X99374320Y-177522300D01*
X99376603Y-177600023D01*
X99368532Y-177677715D01*
X99356699Y-177727530D01*
X99336829Y-177778308D01*
X99310034Y-177818110D01*
X99290553Y-177838619D01*
X99263489Y-177863564D01*
X99237083Y-177884413D01*
X99209196Y-177901532D01*
X99177691Y-177915284D01*
X99140428Y-177926037D01*
X99095270Y-177934154D01*
X99040077Y-177940001D01*
X98972711Y-177943943D01*
X98891033Y-177946346D01*
X98792906Y-177947573D01*
X98676190Y-177947991D01*
X98649895Y-177948010D01*
X98560906Y-177948273D01*
X98478943Y-177948953D01*
X98406326Y-177949998D01*
X98345377Y-177951356D01*
X98298417Y-177952972D01*
X98267770Y-177954796D01*
X98255754Y-177956774D01*
X98255666Y-177956960D01*
X98261160Y-177968035D01*
X98276553Y-177994210D01*
X98300212Y-178032833D01*
X98330503Y-178081256D01*
X98365793Y-178136829D01*
X98384489Y-178165981D01*
X98410467Y-178206577D01*
X98446285Y-178262871D01*
X98490534Y-178332632D01*
X98541810Y-178413627D01*
X98598703Y-178503623D01*
X98659809Y-178600387D01*
X98723719Y-178701686D01*
X98789028Y-178805289D01*
X98854328Y-178908961D01*
X98918212Y-179010471D01*
X98979273Y-179107585D01*
X99036105Y-179198071D01*
X99087301Y-179279696D01*
X99131453Y-179350228D01*
X99167155Y-179407433D01*
X99193001Y-179449079D01*
X99193802Y-179450377D01*
X99218327Y-179496869D01*
X99228338Y-179532597D01*
X99223571Y-179556038D01*
X99213458Y-179563589D01*
X99201469Y-179578728D01*
X99197583Y-179605590D01*
X99197583Y-179641500D01*
X100012500Y-179641500D01*
X100012500Y-179605781D01*
X100009756Y-179580360D01*
X99998016Y-179568188D01*
X99983395Y-179563858D01*
X99964838Y-179559081D01*
X99947386Y-179552039D01*
X99929768Y-179541171D01*
X99910713Y-179524919D01*
X99888951Y-179501723D01*
X99863212Y-179470026D01*
X99832224Y-179428267D01*
X99794717Y-179374888D01*
X99749420Y-179308330D01*
X99695062Y-179227034D01*
X99634843Y-179136196D01*
X99576661Y-179048191D01*
X99517732Y-178958966D01*
X99460051Y-178871551D01*
X99405616Y-178788973D01*
X99356423Y-178714264D01*
X99314470Y-178650453D01*
X99281753Y-178600569D01*
X99275800Y-178591468D01*
X99167066Y-178425144D01*
X99206137Y-178418595D01*
X99344472Y-178386192D01*
X99470431Y-178337736D01*
X99583191Y-178273808D01*
X99681930Y-178194987D01*
X99765824Y-178101856D01*
X99834053Y-177994995D01*
X99849597Y-177964042D01*
X99879858Y-177893429D01*
X99901084Y-177825414D01*
X99914874Y-177752997D01*
X99922828Y-177669178D01*
X99924524Y-177635958D01*
X99926281Y-177570229D01*
X99924771Y-177516530D01*
X99919333Y-177465886D01*
X99909306Y-177409323D01*
X99907000Y-177398002D01*
X99879095Y-177290707D01*
X99841740Y-177198425D01*
X99792325Y-177116133D01*
X99728240Y-177038815D01*
X99711002Y-177021058D01*
X99666819Y-176978456D01*
X99628183Y-176946364D01*
X99587595Y-176919426D01*
X99537558Y-176892289D01*
X99514772Y-176880940D01*
X99413898Y-176836374D01*
X99308961Y-176800345D01*
X99195957Y-176771871D01*
X99070881Y-176749968D01*
X98929728Y-176733653D01*
X98906541Y-176731595D01*
X98873683Y-176729717D01*
X98821359Y-176727961D01*
X98751268Y-176726345D01*
X98665111Y-176724890D01*
X98564587Y-176723615D01*
X98451396Y-176722539D01*
X98327239Y-176721681D01*
X98193815Y-176721061D01*
X98052824Y-176720699D01*
X97946104Y-176720609D01*
X97112666Y-176720500D01*
X97112666Y-176756871D01*
X96297750Y-176756871D01*
X96297750Y-176667583D01*
X96270342Y-176667583D01*
X96242107Y-176676093D01*
X96223653Y-176691396D01*
X96204372Y-176715208D01*
X94938727Y-176717981D01*
X93673083Y-176720754D01*
X92985166Y-176720754D01*
X92985166Y-176667583D01*
X92957758Y-176667583D01*
X92929523Y-176676093D01*
X92911070Y-176691396D01*
X92891789Y-176715208D01*
X91648338Y-176717983D01*
X91440984Y-176718355D01*
X91250828Y-176718510D01*
X91078264Y-176718450D01*
X90923684Y-176718177D01*
X90787479Y-176717694D01*
X90670042Y-176717004D01*
X90571765Y-176716108D01*
X90493040Y-176715008D01*
X90434259Y-176713709D01*
X90395814Y-176712210D01*
X90378097Y-176710516D01*
X90377402Y-176710307D01*
X90357227Y-176697431D01*
X90349916Y-176683720D01*
X90342272Y-176671889D01*
X90317511Y-176667641D01*
X90312704Y-176667583D01*
X90275493Y-176667583D01*
X85166842Y-176667583D01*
X85165557Y-176664599D01*
X99810947Y-176664599D01*
X99820502Y-176733085D01*
X99845074Y-176796046D01*
X99882736Y-176851279D01*
X99931556Y-176896578D01*
X99989606Y-176929740D01*
X100054956Y-176948560D01*
X100125678Y-176950835D01*
X100199840Y-176934360D01*
X100205591Y-176932268D01*
X100260088Y-176902921D01*
X100311887Y-176859164D01*
X100354070Y-176807329D01*
X100367597Y-176784000D01*
X100378066Y-176753733D01*
X100386683Y-176711646D01*
X100391230Y-176671409D01*
X100392756Y-176626330D01*
X100389315Y-176592547D01*
X100379380Y-176560470D01*
X100370125Y-176539053D01*
X100328444Y-176470706D01*
X100274058Y-176417555D01*
X100209377Y-176381199D01*
X100136811Y-176363235D01*
X100102458Y-176361575D01*
X100022356Y-176371513D01*
X99953536Y-176399305D01*
X99896310Y-176444758D01*
X99850992Y-176507681D01*
X99844610Y-176519871D01*
X99818340Y-176592793D01*
X99810947Y-176664599D01*
X85165557Y-176664599D01*
X85151435Y-176631808D01*
X85100330Y-176513480D01*
X85056401Y-176412236D01*
X85019096Y-176326880D01*
X84987861Y-176256214D01*
X84962145Y-176199041D01*
X84941395Y-176154163D01*
X84925060Y-176120382D01*
X84912587Y-176096502D01*
X84903423Y-176081324D01*
X84897016Y-176073652D01*
X84892815Y-176072287D01*
X84890558Y-176075211D01*
X84883274Y-176093102D01*
X84868282Y-176129257D01*
X84846102Y-176182436D01*
X84817256Y-176251403D01*
X84782264Y-176334919D01*
X84741647Y-176431745D01*
X84695926Y-176540643D01*
X84645621Y-176660376D01*
X84591253Y-176789705D01*
X84533343Y-176927392D01*
X84472413Y-177072199D01*
X84408982Y-177222887D01*
X84343572Y-177378218D01*
X84276703Y-177536955D01*
X84208896Y-177697858D01*
X84140672Y-177859691D01*
X84072552Y-178021214D01*
X84005056Y-178181189D01*
X83938706Y-178338379D01*
X83918018Y-178387375D01*
X83858535Y-178528290D01*
X83801106Y-178664441D01*
X83746301Y-178794470D01*
X83694690Y-178917022D01*
X83646842Y-179030740D01*
X83603328Y-179134266D01*
X83564717Y-179226244D01*
X83531580Y-179305318D01*
X83504487Y-179370130D01*
X83484007Y-179419323D01*
X83470711Y-179451542D01*
X83465462Y-179464625D01*
X83446277Y-179502252D01*
X83420638Y-179535314D01*
X83393294Y-179558728D01*
X83369396Y-179567417D01*
X83359500Y-179576299D01*
X83354323Y-179596771D01*
X82884289Y-179596771D01*
X82886179Y-179384172D01*
X82888983Y-179068635D01*
X82854429Y-179071963D01*
X82828614Y-179078287D01*
X82817640Y-179093249D01*
X82816520Y-179098893D01*
X82806063Y-179121996D01*
X82785989Y-179143872D01*
X82780811Y-179147646D01*
X82774590Y-179150948D01*
X82765957Y-179153808D01*
X82753546Y-179156260D01*
X82735990Y-179158333D01*
X82711922Y-179160061D01*
X82679973Y-179161474D01*
X82638778Y-179162604D01*
X82586968Y-179163483D01*
X82523178Y-179164142D01*
X82446039Y-179164613D01*
X82354184Y-179164927D01*
X82246247Y-179165116D01*
X82120859Y-179165212D01*
X81976655Y-179165246D01*
X81860656Y-179165250D01*
X80962500Y-179165250D01*
X80962656Y-178009021D01*
X80962729Y-177819353D01*
X80962904Y-177649852D01*
X80963192Y-177499520D01*
X80963604Y-177367355D01*
X80964151Y-177252360D01*
X80964845Y-177153534D01*
X80965697Y-177069878D01*
X80966719Y-177000394D01*
X80967922Y-176944081D01*
X80969317Y-176899940D01*
X80970915Y-176866972D01*
X80972729Y-176844177D01*
X80974769Y-176830556D01*
X80976126Y-176826333D01*
X80996751Y-176803994D01*
X81023595Y-176796558D01*
X81046762Y-176792114D01*
X81056098Y-176780264D01*
X81057750Y-176756871D01*
X81057750Y-176720500D01*
X80316916Y-176720500D01*
X77046076Y-176720500D01*
X76803250Y-176719605D01*
X76803250Y-176757094D01*
X75374500Y-176757094D01*
X75374500Y-168571333D01*
X75744916Y-168571333D01*
X75744916Y-175154167D01*
X101049666Y-175154167D01*
X101049666Y-168571333D01*
X75744916Y-168571333D01*
X75374500Y-168571333D01*
X75374500Y-168200917D01*
X101420083Y-168200917D01*
X101420083Y-181313667D01*
G36*
X78075895Y-178350517D02*
G01*
X78215830Y-178350614D01*
X78336380Y-178350899D01*
X78439330Y-178351497D01*
X78526462Y-178352533D01*
X78599559Y-178354131D01*
X78660404Y-178356417D01*
X78710779Y-178359515D01*
X78752468Y-178363550D01*
X78787254Y-178368647D01*
X78816919Y-178374930D01*
X78843246Y-178382525D01*
X78868019Y-178391555D01*
X78893019Y-178402146D01*
X78907584Y-178408714D01*
X78959190Y-178438330D01*
X79009171Y-178477523D01*
X79051083Y-178520624D01*
X79075872Y-178556708D01*
X79104655Y-178632199D01*
X79118510Y-178717257D01*
X79117040Y-178806060D01*
X79099850Y-178892786D01*
X79098911Y-178895868D01*
X79065016Y-178971204D01*
X79013632Y-179034824D01*
X78945045Y-179086504D01*
X78859542Y-179126019D01*
X78774565Y-179149708D01*
X78755044Y-179153038D01*
X78729273Y-179155874D01*
X78695627Y-179158252D01*
X78652483Y-179160206D01*
X78598218Y-179161774D01*
X78531208Y-179162990D01*
X78449830Y-179163891D01*
X78352460Y-179164511D01*
X78237474Y-179164887D01*
X78103249Y-179165055D01*
X78075895Y-179165066D01*
X77448833Y-179165250D01*
X77448833Y-178350333D01*
X78075895Y-178350517D01*
X78075895Y-178350517D01*
G37*
X78075895Y-178350517D02*
X78215830Y-178350614D01*
X78336380Y-178350899D01*
X78439330Y-178351497D01*
X78526462Y-178352533D01*
X78599559Y-178354131D01*
X78660404Y-178356417D01*
X78710779Y-178359515D01*
X78752468Y-178363550D01*
X78787254Y-178368647D01*
X78816919Y-178374930D01*
X78843246Y-178382525D01*
X78868019Y-178391555D01*
X78893019Y-178402146D01*
X78907584Y-178408714D01*
X78959190Y-178438330D01*
X79009171Y-178477523D01*
X79051083Y-178520624D01*
X79075872Y-178556708D01*
X79104655Y-178632199D01*
X79118510Y-178717257D01*
X79117040Y-178806060D01*
X79099850Y-178892786D01*
X79098911Y-178895868D01*
X79065016Y-178971204D01*
X79013632Y-179034824D01*
X78945045Y-179086504D01*
X78859542Y-179126019D01*
X78774565Y-179149708D01*
X78755044Y-179153038D01*
X78729273Y-179155874D01*
X78695627Y-179158252D01*
X78652483Y-179160206D01*
X78598218Y-179161774D01*
X78531208Y-179162990D01*
X78449830Y-179163891D01*
X78352460Y-179164511D01*
X78237474Y-179164887D01*
X78103249Y-179165055D01*
X78075895Y-179165066D01*
X77448833Y-179165250D01*
X77448833Y-178350333D01*
X78075895Y-178350517D01*
G36*
X78097062Y-177188579D02*
G01*
X78230334Y-177189436D01*
X78344180Y-177190237D01*
X78440341Y-177191050D01*
X78520557Y-177191941D01*
X78586568Y-177192981D01*
X78640116Y-177194236D01*
X78682941Y-177195774D01*
X78716783Y-177197665D01*
X78743382Y-177199975D01*
X78764480Y-177202774D01*
X78781817Y-177206128D01*
X78797132Y-177210107D01*
X78812168Y-177214779D01*
X78818343Y-177216807D01*
X78893445Y-177251577D01*
X78953391Y-177300641D01*
X78997441Y-177362793D01*
X79024854Y-177436828D01*
X79034891Y-177521539D01*
X79033229Y-177566729D01*
X79017675Y-177652997D01*
X78986582Y-177724903D01*
X78939787Y-177782635D01*
X78877125Y-177826380D01*
X78798431Y-177856325D01*
X78773874Y-177862183D01*
X78749441Y-177865128D01*
X78705732Y-177867645D01*
X78642462Y-177869741D01*
X78559349Y-177871419D01*
X78456109Y-177872685D01*
X78332457Y-177873544D01*
X78188111Y-177874000D01*
X78083312Y-177874083D01*
X77448833Y-177874083D01*
X77448833Y-177184474D01*
X78097062Y-177188579D01*
X78097062Y-177188579D01*
G37*
X78097062Y-177188579D02*
X78230334Y-177189436D01*
X78344180Y-177190237D01*
X78440341Y-177191050D01*
X78520557Y-177191941D01*
X78586568Y-177192981D01*
X78640116Y-177194236D01*
X78682941Y-177195774D01*
X78716783Y-177197665D01*
X78743382Y-177199975D01*
X78764480Y-177202774D01*
X78781817Y-177206128D01*
X78797132Y-177210107D01*
X78812168Y-177214779D01*
X78818343Y-177216807D01*
X78893445Y-177251577D01*
X78953391Y-177300641D01*
X78997441Y-177362793D01*
X79024854Y-177436828D01*
X79034891Y-177521539D01*
X79033229Y-177566729D01*
X79017675Y-177652997D01*
X78986582Y-177724903D01*
X78939787Y-177782635D01*
X78877125Y-177826380D01*
X78798431Y-177856325D01*
X78773874Y-177862183D01*
X78749441Y-177865128D01*
X78705732Y-177867645D01*
X78642462Y-177869741D01*
X78559349Y-177871419D01*
X78456109Y-177872685D01*
X78332457Y-177873544D01*
X78188111Y-177874000D01*
X78083312Y-177874083D01*
X77448833Y-177874083D01*
X77448833Y-177184474D01*
X78097062Y-177188579D01*
G36*
X100157290Y-176450934D02*
G01*
X100213107Y-176472553D01*
X100260051Y-176509597D01*
X100270562Y-176522156D01*
X100303026Y-176580474D01*
X100316521Y-176642309D01*
X100311765Y-176703911D01*
X100289477Y-176761530D01*
X100250373Y-176811417D01*
X100209316Y-176842167D01*
X100153778Y-176863607D01*
X100092034Y-176869394D01*
X100031714Y-176859440D01*
X99997065Y-176844590D01*
X99947752Y-176805573D01*
X99912681Y-176755013D01*
X99892677Y-176697222D01*
X99888568Y-176636512D01*
X99901179Y-176577196D01*
X99931339Y-176523585D01*
X99934734Y-176519434D01*
X99971327Y-176487667D01*
X99980750Y-176487667D01*
X99980750Y-176815750D01*
X100044250Y-176815750D01*
X100044250Y-176746958D01*
X100044731Y-176709968D01*
X100047374Y-176689363D01*
X100053975Y-176680367D01*
X100066331Y-176678201D01*
X100070124Y-176678167D01*
X100086214Y-176681813D01*
X100101347Y-176695308D01*
X100119048Y-176722484D01*
X100130978Y-176744312D01*
X100156959Y-176786612D01*
X100181464Y-176810132D01*
X100207359Y-176816810D01*
X100230503Y-176811521D01*
X100238194Y-176804618D01*
X100234996Y-176790474D01*
X100220818Y-176765705D01*
X100196202Y-176726049D01*
X100182260Y-176700342D01*
X100178478Y-176684568D01*
X100184339Y-176674708D01*
X100199329Y-176666747D01*
X100207672Y-176663232D01*
X100238653Y-176642234D01*
X100253417Y-176610598D01*
X100252935Y-176565959D01*
X100251367Y-176556693D01*
X100243050Y-176528715D01*
X100228141Y-176509265D01*
X100203287Y-176496913D01*
X100165139Y-176490230D01*
X100110344Y-176487787D01*
X100089520Y-176487667D01*
X99980750Y-176487667D01*
X99971327Y-176487667D01*
X99981323Y-176478990D01*
X100036927Y-176454117D01*
X100097073Y-176444777D01*
X100157290Y-176450934D01*
X100157290Y-176450934D01*
G37*
X100157290Y-176450934D02*
X100213107Y-176472553D01*
X100260051Y-176509597D01*
X100270562Y-176522156D01*
X100303026Y-176580474D01*
X100316521Y-176642309D01*
X100311765Y-176703911D01*
X100289477Y-176761530D01*
X100250373Y-176811417D01*
X100209316Y-176842167D01*
X100153778Y-176863607D01*
X100092034Y-176869394D01*
X100031714Y-176859440D01*
X99997065Y-176844590D01*
X99947752Y-176805573D01*
X99912681Y-176755013D01*
X99892677Y-176697222D01*
X99888568Y-176636512D01*
X99901179Y-176577196D01*
X99931339Y-176523585D01*
X99934734Y-176519434D01*
X99971327Y-176487667D01*
X99980750Y-176487667D01*
X99980750Y-176815750D01*
X100044250Y-176815750D01*
X100044250Y-176746958D01*
X100044731Y-176709968D01*
X100047374Y-176689363D01*
X100053975Y-176680367D01*
X100066331Y-176678201D01*
X100070124Y-176678167D01*
X100086214Y-176681813D01*
X100101347Y-176695308D01*
X100119048Y-176722484D01*
X100130978Y-176744312D01*
X100156959Y-176786612D01*
X100181464Y-176810132D01*
X100207359Y-176816810D01*
X100230503Y-176811521D01*
X100238194Y-176804618D01*
X100234996Y-176790474D01*
X100220818Y-176765705D01*
X100196202Y-176726049D01*
X100182260Y-176700342D01*
X100178478Y-176684568D01*
X100184339Y-176674708D01*
X100199329Y-176666747D01*
X100207672Y-176663232D01*
X100238653Y-176642234D01*
X100253417Y-176610598D01*
X100252935Y-176565959D01*
X100251367Y-176556693D01*
X100243050Y-176528715D01*
X100228141Y-176509265D01*
X100203287Y-176496913D01*
X100165139Y-176490230D01*
X100110344Y-176487787D01*
X100089520Y-176487667D01*
X99980750Y-176487667D01*
X99971327Y-176487667D01*
X99981323Y-176478990D01*
X100036927Y-176454117D01*
X100097073Y-176444777D01*
X100157290Y-176450934D01*
G36*
X78902044Y-169343615D02*
G01*
X78997668Y-169345694D01*
X79082338Y-169349207D01*
X79150335Y-169354101D01*
X79372019Y-169382595D01*
X79577521Y-169424053D01*
X79766712Y-169478426D01*
X79939460Y-169545664D01*
X80095636Y-169625714D01*
X80235110Y-169718527D01*
X80357477Y-169823783D01*
X80461111Y-169937783D01*
X80545978Y-170058962D01*
X80612552Y-170188515D01*
X80661312Y-170327639D01*
X80692732Y-170477530D01*
X80707290Y-170639383D01*
X80708500Y-170705261D01*
X80708500Y-170846750D01*
X79396166Y-170846750D01*
X79396010Y-170796479D01*
X79385387Y-170697454D01*
X79355219Y-170602065D01*
X79307126Y-170514194D01*
X79248786Y-170443676D01*
X79176427Y-170382569D01*
X79094744Y-170335546D01*
X79001672Y-170301901D01*
X78895146Y-170280927D01*
X78773102Y-170271919D01*
X78745291Y-170271481D01*
X78684152Y-170271403D01*
X78638663Y-170272577D01*
X78603316Y-170275678D01*
X78572601Y-170281381D01*
X78541011Y-170290361D01*
X78512458Y-170299989D01*
X78406628Y-170345871D01*
X78317668Y-170403742D01*
X78245973Y-170473289D01*
X78192734Y-170552682D01*
X78178525Y-170582048D01*
X78169758Y-170608672D01*
X78165156Y-170639333D01*
X78163443Y-170680808D01*
X78163270Y-170709167D01*
X78163935Y-170759010D01*
X78166872Y-170794737D01*
X78173423Y-170823378D01*
X78184930Y-170851962D01*
X78194122Y-170870728D01*
X78242236Y-170943267D01*
X78310153Y-171009772D01*
X78398054Y-171070381D01*
X78506122Y-171125233D01*
X78556054Y-171145993D01*
X78609763Y-171166367D01*
X78665647Y-171185936D01*
X78726011Y-171205332D01*
X78793160Y-171225188D01*
X78869399Y-171246136D01*
X78957034Y-171268808D01*
X79058371Y-171293837D01*
X79175713Y-171321856D01*
X79311368Y-171353496D01*
X79318436Y-171355130D01*
X79506853Y-171400734D01*
X79675814Y-171446201D01*
X79827012Y-171492252D01*
X79962141Y-171539609D01*
X80082893Y-171588994D01*
X80190963Y-171641129D01*
X80288043Y-171696736D01*
X80375826Y-171756537D01*
X80456006Y-171821253D01*
X80494758Y-171856614D01*
X80598145Y-171967542D01*
X80684221Y-172087894D01*
X80753329Y-172218561D01*
X80805812Y-172360438D01*
X80842015Y-172514418D01*
X80862281Y-172681395D01*
X80867250Y-172825499D01*
X80865723Y-172913590D01*
X80861377Y-172994305D01*
X80854566Y-173062033D01*
X80850867Y-173086338D01*
X80813317Y-173242292D01*
X80756945Y-173389401D01*
X80682331Y-173527279D01*
X80590055Y-173655541D01*
X80480699Y-173773800D01*
X80354842Y-173881670D01*
X80213065Y-173978765D01*
X80055949Y-174064700D01*
X79884074Y-174139087D01*
X79698021Y-174201542D01*
X79498370Y-174251677D01*
X79285703Y-174289107D01*
X79060598Y-174313446D01*
X78999291Y-174317631D01*
X78917338Y-174322218D01*
X78847308Y-174325155D01*
X78783292Y-174326439D01*
X78719381Y-174326067D01*
X78649666Y-174324037D01*
X78568236Y-174320345D01*
X78512458Y-174317394D01*
X78288018Y-174299032D01*
X78080106Y-174269200D01*
X77887228Y-174227529D01*
X77707887Y-174173649D01*
X77540590Y-174107190D01*
X77417360Y-174046307D01*
X77281354Y-173961444D01*
X77156161Y-173860228D01*
X77044004Y-173744996D01*
X76947107Y-173618083D01*
X76867693Y-173481824D01*
X76855087Y-173455760D01*
X76807121Y-173338021D01*
X76765991Y-173206541D01*
X76733192Y-173068061D01*
X76710220Y-172929324D01*
X76698572Y-172797070D01*
X76697416Y-172745337D01*
X76697416Y-172698833D01*
X78009750Y-172698833D01*
X78009750Y-172740236D01*
X78015108Y-172805403D01*
X78029792Y-172879912D01*
X78051717Y-172955280D01*
X78078796Y-173023020D01*
X78079769Y-173025060D01*
X78135218Y-173116433D01*
X78208029Y-173196739D01*
X78296994Y-173265070D01*
X78400908Y-173320520D01*
X78518563Y-173362179D01*
X78533625Y-173366229D01*
X78600173Y-173379646D01*
X78678400Y-173389287D01*
X78761294Y-173394793D01*
X78841845Y-173395807D01*
X78913044Y-173391972D01*
X78947548Y-173387339D01*
X79075320Y-173356970D01*
X79189026Y-173314005D01*
X79287265Y-173259093D01*
X79368635Y-173192886D01*
X79370226Y-173191306D01*
X79421967Y-173133422D01*
X79456998Y-173077432D01*
X79478183Y-173017168D01*
X79488383Y-172946464D01*
X79489111Y-172935144D01*
X79485352Y-172835833D01*
X79462378Y-172745351D01*
X79420173Y-172663676D01*
X79358723Y-172590784D01*
X79278013Y-172526653D01*
X79189791Y-172476840D01*
X79144934Y-172456141D01*
X79097835Y-172436609D01*
X79046046Y-172417496D01*
X78987118Y-172398053D01*
X78918604Y-172377531D01*
X78838055Y-172355182D01*
X78743023Y-172330257D01*
X78631061Y-172302008D01*
X78563359Y-172285270D01*
X78407493Y-172246454D01*
X78270030Y-172211126D01*
X78148618Y-172178618D01*
X78040904Y-172148265D01*
X77944536Y-172119401D01*
X77857163Y-172091360D01*
X77776431Y-172063477D01*
X77764253Y-172059088D01*
X77636993Y-172011139D01*
X77527590Y-171965653D01*
X77433135Y-171921006D01*
X77350716Y-171875575D01*
X77277423Y-171827734D01*
X77210345Y-171775861D01*
X77146572Y-171718331D01*
X77137292Y-171709292D01*
X77032341Y-171591748D01*
X76945503Y-171463338D01*
X76876874Y-171324298D01*
X76826545Y-171174865D01*
X76794611Y-171015276D01*
X76781165Y-170845769D01*
X76780697Y-170805718D01*
X76790510Y-170630365D01*
X76819528Y-170463435D01*
X76867335Y-170305630D01*
X76933516Y-170157653D01*
X77017657Y-170020207D01*
X77119342Y-169893994D01*
X77238158Y-169779719D01*
X77373689Y-169678084D01*
X77485875Y-169610674D01*
X77639999Y-169537016D01*
X77811120Y-169474476D01*
X77998025Y-169423379D01*
X78199503Y-169384052D01*
X78414342Y-169356821D01*
X78438375Y-169354610D01*
X78512155Y-169349571D01*
X78600520Y-169345948D01*
X78698362Y-169343745D01*
X78800572Y-169342966D01*
X78902044Y-169343615D01*
X78902044Y-169343615D01*
G37*
X78902044Y-169343615D02*
X78997668Y-169345694D01*
X79082338Y-169349207D01*
X79150335Y-169354101D01*
X79372019Y-169382595D01*
X79577521Y-169424053D01*
X79766712Y-169478426D01*
X79939460Y-169545664D01*
X80095636Y-169625714D01*
X80235110Y-169718527D01*
X80357477Y-169823783D01*
X80461111Y-169937783D01*
X80545978Y-170058962D01*
X80612552Y-170188515D01*
X80661312Y-170327639D01*
X80692732Y-170477530D01*
X80707290Y-170639383D01*
X80708500Y-170705261D01*
X80708500Y-170846750D01*
X79396166Y-170846750D01*
X79396010Y-170796479D01*
X79385387Y-170697454D01*
X79355219Y-170602065D01*
X79307126Y-170514194D01*
X79248786Y-170443676D01*
X79176427Y-170382569D01*
X79094744Y-170335546D01*
X79001672Y-170301901D01*
X78895146Y-170280927D01*
X78773102Y-170271919D01*
X78745291Y-170271481D01*
X78684152Y-170271403D01*
X78638663Y-170272577D01*
X78603316Y-170275678D01*
X78572601Y-170281381D01*
X78541011Y-170290361D01*
X78512458Y-170299989D01*
X78406628Y-170345871D01*
X78317668Y-170403742D01*
X78245973Y-170473289D01*
X78192734Y-170552682D01*
X78178525Y-170582048D01*
X78169758Y-170608672D01*
X78165156Y-170639333D01*
X78163443Y-170680808D01*
X78163270Y-170709167D01*
X78163935Y-170759010D01*
X78166872Y-170794737D01*
X78173423Y-170823378D01*
X78184930Y-170851962D01*
X78194122Y-170870728D01*
X78242236Y-170943267D01*
X78310153Y-171009772D01*
X78398054Y-171070381D01*
X78506122Y-171125233D01*
X78556054Y-171145993D01*
X78609763Y-171166367D01*
X78665647Y-171185936D01*
X78726011Y-171205332D01*
X78793160Y-171225188D01*
X78869399Y-171246136D01*
X78957034Y-171268808D01*
X79058371Y-171293837D01*
X79175713Y-171321856D01*
X79311368Y-171353496D01*
X79318436Y-171355130D01*
X79506853Y-171400734D01*
X79675814Y-171446201D01*
X79827012Y-171492252D01*
X79962141Y-171539609D01*
X80082893Y-171588994D01*
X80190963Y-171641129D01*
X80288043Y-171696736D01*
X80375826Y-171756537D01*
X80456006Y-171821253D01*
X80494758Y-171856614D01*
X80598145Y-171967542D01*
X80684221Y-172087894D01*
X80753329Y-172218561D01*
X80805812Y-172360438D01*
X80842015Y-172514418D01*
X80862281Y-172681395D01*
X80867250Y-172825499D01*
X80865723Y-172913590D01*
X80861377Y-172994305D01*
X80854566Y-173062033D01*
X80850867Y-173086338D01*
X80813317Y-173242292D01*
X80756945Y-173389401D01*
X80682331Y-173527279D01*
X80590055Y-173655541D01*
X80480699Y-173773800D01*
X80354842Y-173881670D01*
X80213065Y-173978765D01*
X80055949Y-174064700D01*
X79884074Y-174139087D01*
X79698021Y-174201542D01*
X79498370Y-174251677D01*
X79285703Y-174289107D01*
X79060598Y-174313446D01*
X78999291Y-174317631D01*
X78917338Y-174322218D01*
X78847308Y-174325155D01*
X78783292Y-174326439D01*
X78719381Y-174326067D01*
X78649666Y-174324037D01*
X78568236Y-174320345D01*
X78512458Y-174317394D01*
X78288018Y-174299032D01*
X78080106Y-174269200D01*
X77887228Y-174227529D01*
X77707887Y-174173649D01*
X77540590Y-174107190D01*
X77417360Y-174046307D01*
X77281354Y-173961444D01*
X77156161Y-173860228D01*
X77044004Y-173744996D01*
X76947107Y-173618083D01*
X76867693Y-173481824D01*
X76855087Y-173455760D01*
X76807121Y-173338021D01*
X76765991Y-173206541D01*
X76733192Y-173068061D01*
X76710220Y-172929324D01*
X76698572Y-172797070D01*
X76697416Y-172745337D01*
X76697416Y-172698833D01*
X78009750Y-172698833D01*
X78009750Y-172740236D01*
X78015108Y-172805403D01*
X78029792Y-172879912D01*
X78051717Y-172955280D01*
X78078796Y-173023020D01*
X78079769Y-173025060D01*
X78135218Y-173116433D01*
X78208029Y-173196739D01*
X78296994Y-173265070D01*
X78400908Y-173320520D01*
X78518563Y-173362179D01*
X78533625Y-173366229D01*
X78600173Y-173379646D01*
X78678400Y-173389287D01*
X78761294Y-173394793D01*
X78841845Y-173395807D01*
X78913044Y-173391972D01*
X78947548Y-173387339D01*
X79075320Y-173356970D01*
X79189026Y-173314005D01*
X79287265Y-173259093D01*
X79368635Y-173192886D01*
X79370226Y-173191306D01*
X79421967Y-173133422D01*
X79456998Y-173077432D01*
X79478183Y-173017168D01*
X79488383Y-172946464D01*
X79489111Y-172935144D01*
X79485352Y-172835833D01*
X79462378Y-172745351D01*
X79420173Y-172663676D01*
X79358723Y-172590784D01*
X79278013Y-172526653D01*
X79189791Y-172476840D01*
X79144934Y-172456141D01*
X79097835Y-172436609D01*
X79046046Y-172417496D01*
X78987118Y-172398053D01*
X78918604Y-172377531D01*
X78838055Y-172355182D01*
X78743023Y-172330257D01*
X78631061Y-172302008D01*
X78563359Y-172285270D01*
X78407493Y-172246454D01*
X78270030Y-172211126D01*
X78148618Y-172178618D01*
X78040904Y-172148265D01*
X77944536Y-172119401D01*
X77857163Y-172091360D01*
X77776431Y-172063477D01*
X77764253Y-172059088D01*
X77636993Y-172011139D01*
X77527590Y-171965653D01*
X77433135Y-171921006D01*
X77350716Y-171875575D01*
X77277423Y-171827734D01*
X77210345Y-171775861D01*
X77146572Y-171718331D01*
X77137292Y-171709292D01*
X77032341Y-171591748D01*
X76945503Y-171463338D01*
X76876874Y-171324298D01*
X76826545Y-171174865D01*
X76794611Y-171015276D01*
X76781165Y-170845769D01*
X76780697Y-170805718D01*
X76790510Y-170630365D01*
X76819528Y-170463435D01*
X76867335Y-170305630D01*
X76933516Y-170157653D01*
X77017657Y-170020207D01*
X77119342Y-169893994D01*
X77238158Y-169779719D01*
X77373689Y-169678084D01*
X77485875Y-169610674D01*
X77639999Y-169537016D01*
X77811120Y-169474476D01*
X77998025Y-169423379D01*
X78199503Y-169384052D01*
X78414342Y-169356821D01*
X78438375Y-169354610D01*
X78512155Y-169349571D01*
X78600520Y-169345948D01*
X78698362Y-169343745D01*
X78800572Y-169342966D01*
X78902044Y-169343615D01*
G36*
X84033418Y-170812450D02*
G01*
X84238954Y-170840758D01*
X84434822Y-170885132D01*
X84619919Y-170945250D01*
X84793143Y-171020791D01*
X84953393Y-171111434D01*
X85099565Y-171216858D01*
X85146818Y-171256855D01*
X85273018Y-171381971D01*
X85382144Y-171519582D01*
X85474179Y-171669650D01*
X85549104Y-171832138D01*
X85606903Y-172007005D01*
X85647557Y-172194214D01*
X85671049Y-172393725D01*
X85671856Y-172405243D01*
X85677164Y-172611205D01*
X85664934Y-172809095D01*
X85635454Y-172998019D01*
X85589011Y-173177085D01*
X85525890Y-173345397D01*
X85446380Y-173502064D01*
X85350766Y-173646192D01*
X85239336Y-173776886D01*
X85227820Y-173788690D01*
X85093608Y-173910806D01*
X84947870Y-174016683D01*
X84790030Y-174106559D01*
X84619511Y-174180671D01*
X84435735Y-174239257D01*
X84238127Y-174282554D01*
X84026109Y-174310798D01*
X83941708Y-174317629D01*
X83873120Y-174322087D01*
X83818475Y-174324987D01*
X83771707Y-174326319D01*
X83726749Y-174326075D01*
X83677534Y-174324245D01*
X83617996Y-174320819D01*
X83560708Y-174317049D01*
X83348510Y-174294118D01*
X83147926Y-174254969D01*
X82959515Y-174200044D01*
X82783832Y-174129789D01*
X82621435Y-174044649D01*
X82472882Y-173945067D01*
X82338729Y-173831489D01*
X82219534Y-173704360D01*
X82115853Y-173564123D01*
X82028245Y-173411224D01*
X81957266Y-173246106D01*
X81903474Y-173069216D01*
X81883653Y-172978868D01*
X81861340Y-172828647D01*
X81849479Y-172667879D01*
X81848943Y-172606551D01*
X83126676Y-172606551D01*
X83131585Y-172716313D01*
X83146075Y-172872024D01*
X83168059Y-173009240D01*
X83198036Y-173129447D01*
X83236505Y-173234129D01*
X83283967Y-173324770D01*
X83340921Y-173402853D01*
X83375139Y-173439667D01*
X83458135Y-173507747D01*
X83549999Y-173556927D01*
X83649326Y-173586811D01*
X83754710Y-173597003D01*
X83864744Y-173587109D01*
X83885337Y-173583080D01*
X83985828Y-173551479D01*
X84075826Y-173501655D01*
X84155110Y-173433890D01*
X84223462Y-173348467D01*
X84280662Y-173245668D01*
X84326489Y-173125778D01*
X84360725Y-172989077D01*
X84365139Y-172965512D01*
X84379593Y-172864485D01*
X84389807Y-172749945D01*
X84395435Y-172629187D01*
X84396130Y-172509504D01*
X84391881Y-172403087D01*
X84374953Y-172235753D01*
X84347788Y-172086719D01*
X84310244Y-171955681D01*
X84262181Y-171842338D01*
X84203458Y-171746385D01*
X84133935Y-171667519D01*
X84053472Y-171605436D01*
X84010715Y-171581406D01*
X83972193Y-171565903D01*
X83921746Y-171550822D01*
X83868496Y-171538827D01*
X83859305Y-171537199D01*
X83748452Y-171528329D01*
X83642097Y-171539382D01*
X83541931Y-171569921D01*
X83449648Y-171619514D01*
X83403721Y-171654037D01*
X83338952Y-171721046D01*
X83281943Y-171806249D01*
X83233120Y-171907985D01*
X83192907Y-172024595D01*
X83161731Y-172154417D01*
X83140017Y-172295791D01*
X83128190Y-172447056D01*
X83126676Y-172606551D01*
X81848943Y-172606551D01*
X81848039Y-172503119D01*
X81856989Y-172340921D01*
X81876297Y-172187838D01*
X81887757Y-172126542D01*
X81935855Y-171942768D01*
X82000895Y-171771423D01*
X82082453Y-171612834D01*
X82180105Y-171467330D01*
X82293425Y-171335238D01*
X82421988Y-171216888D01*
X82565372Y-171112605D01*
X82723150Y-171022720D01*
X82894899Y-170947559D01*
X83080194Y-170887452D01*
X83278610Y-170842724D01*
X83489723Y-170813706D01*
X83597750Y-170805317D01*
X83819316Y-170800529D01*
X84033418Y-170812450D01*
X84033418Y-170812450D01*
G37*
X84033418Y-170812450D02*
X84238954Y-170840758D01*
X84434822Y-170885132D01*
X84619919Y-170945250D01*
X84793143Y-171020791D01*
X84953393Y-171111434D01*
X85099565Y-171216858D01*
X85146818Y-171256855D01*
X85273018Y-171381971D01*
X85382144Y-171519582D01*
X85474179Y-171669650D01*
X85549104Y-171832138D01*
X85606903Y-172007005D01*
X85647557Y-172194214D01*
X85671049Y-172393725D01*
X85671856Y-172405243D01*
X85677164Y-172611205D01*
X85664934Y-172809095D01*
X85635454Y-172998019D01*
X85589011Y-173177085D01*
X85525890Y-173345397D01*
X85446380Y-173502064D01*
X85350766Y-173646192D01*
X85239336Y-173776886D01*
X85227820Y-173788690D01*
X85093608Y-173910806D01*
X84947870Y-174016683D01*
X84790030Y-174106559D01*
X84619511Y-174180671D01*
X84435735Y-174239257D01*
X84238127Y-174282554D01*
X84026109Y-174310798D01*
X83941708Y-174317629D01*
X83873120Y-174322087D01*
X83818475Y-174324987D01*
X83771707Y-174326319D01*
X83726749Y-174326075D01*
X83677534Y-174324245D01*
X83617996Y-174320819D01*
X83560708Y-174317049D01*
X83348510Y-174294118D01*
X83147926Y-174254969D01*
X82959515Y-174200044D01*
X82783832Y-174129789D01*
X82621435Y-174044649D01*
X82472882Y-173945067D01*
X82338729Y-173831489D01*
X82219534Y-173704360D01*
X82115853Y-173564123D01*
X82028245Y-173411224D01*
X81957266Y-173246106D01*
X81903474Y-173069216D01*
X81883653Y-172978868D01*
X81861340Y-172828647D01*
X81849479Y-172667879D01*
X81848943Y-172606551D01*
X83126676Y-172606551D01*
X83131585Y-172716313D01*
X83146075Y-172872024D01*
X83168059Y-173009240D01*
X83198036Y-173129447D01*
X83236505Y-173234129D01*
X83283967Y-173324770D01*
X83340921Y-173402853D01*
X83375139Y-173439667D01*
X83458135Y-173507747D01*
X83549999Y-173556927D01*
X83649326Y-173586811D01*
X83754710Y-173597003D01*
X83864744Y-173587109D01*
X83885337Y-173583080D01*
X83985828Y-173551479D01*
X84075826Y-173501655D01*
X84155110Y-173433890D01*
X84223462Y-173348467D01*
X84280662Y-173245668D01*
X84326489Y-173125778D01*
X84360725Y-172989077D01*
X84365139Y-172965512D01*
X84379593Y-172864485D01*
X84389807Y-172749945D01*
X84395435Y-172629187D01*
X84396130Y-172509504D01*
X84391881Y-172403087D01*
X84374953Y-172235753D01*
X84347788Y-172086719D01*
X84310244Y-171955681D01*
X84262181Y-171842338D01*
X84203458Y-171746385D01*
X84133935Y-171667519D01*
X84053472Y-171605436D01*
X84010715Y-171581406D01*
X83972193Y-171565903D01*
X83921746Y-171550822D01*
X83868496Y-171538827D01*
X83859305Y-171537199D01*
X83748452Y-171528329D01*
X83642097Y-171539382D01*
X83541931Y-171569921D01*
X83449648Y-171619514D01*
X83403721Y-171654037D01*
X83338952Y-171721046D01*
X83281943Y-171806249D01*
X83233120Y-171907985D01*
X83192907Y-172024595D01*
X83161731Y-172154417D01*
X83140017Y-172295791D01*
X83128190Y-172447056D01*
X83126676Y-172606551D01*
X81848943Y-172606551D01*
X81848039Y-172503119D01*
X81856989Y-172340921D01*
X81876297Y-172187838D01*
X81887757Y-172126542D01*
X81935855Y-171942768D01*
X82000895Y-171771423D01*
X82082453Y-171612834D01*
X82180105Y-171467330D01*
X82293425Y-171335238D01*
X82421988Y-171216888D01*
X82565372Y-171112605D01*
X82723150Y-171022720D01*
X82894899Y-170947559D01*
X83080194Y-170887452D01*
X83278610Y-170842724D01*
X83489723Y-170813706D01*
X83597750Y-170805317D01*
X83819316Y-170800529D01*
X84033418Y-170812450D01*
G36*
X89588202Y-170899667D02*
G01*
X90212333Y-170899667D01*
X90212642Y-172325771D01*
X90212753Y-172500544D01*
X90213005Y-172671215D01*
X90213389Y-172836401D01*
X90213896Y-172994719D01*
X90214516Y-173144787D01*
X90215241Y-173285222D01*
X90216061Y-173414641D01*
X90216967Y-173531662D01*
X90217951Y-173634903D01*
X90219003Y-173722980D01*
X90220113Y-173794512D01*
X90221275Y-173848115D01*
X90222477Y-173882407D01*
X90222896Y-173889458D01*
X90227498Y-173953130D01*
X90232359Y-174020399D01*
X90236853Y-174082592D01*
X90239912Y-174124937D01*
X90246983Y-174222833D01*
X88987436Y-174222833D01*
X88980876Y-174183146D01*
X88976850Y-174147655D01*
X88974466Y-174105230D01*
X88974199Y-174089492D01*
X88973188Y-174050960D01*
X88970649Y-174002022D01*
X88967172Y-173953767D01*
X88960260Y-173872008D01*
X88879859Y-173950780D01*
X88763769Y-174054763D01*
X88646216Y-174139578D01*
X88524078Y-174206650D01*
X88394228Y-174257402D01*
X88253543Y-174293260D01*
X88098898Y-174315648D01*
X88074500Y-174317916D01*
X88009262Y-174323189D01*
X87957567Y-174326054D01*
X87911926Y-174326492D01*
X87864851Y-174324483D01*
X87808852Y-174320007D01*
X87778259Y-174317136D01*
X87612659Y-174291677D01*
X87458399Y-174248652D01*
X87316172Y-174188710D01*
X87186670Y-174112501D01*
X87070586Y-174020678D01*
X86968613Y-173913891D01*
X86881442Y-173792791D01*
X86809768Y-173658029D01*
X86754282Y-173510255D01*
X86715678Y-173350121D01*
X86709422Y-173312667D01*
X86707688Y-173290532D01*
X86706087Y-173247983D01*
X86704626Y-173185770D01*
X86703311Y-173104645D01*
X86702149Y-173005360D01*
X86701147Y-172888666D01*
X86700309Y-172755314D01*
X86699644Y-172606056D01*
X86699158Y-172441644D01*
X86698856Y-172262828D01*
X86698746Y-172071771D01*
X86698666Y-170899667D01*
X87947500Y-170899667D01*
X87947542Y-171923604D01*
X87947573Y-172101533D01*
X87947685Y-172259671D01*
X87947930Y-172399392D01*
X87948362Y-172522072D01*
X87949031Y-172629086D01*
X87949991Y-172721809D01*
X87951294Y-172801617D01*
X87952992Y-172869884D01*
X87955137Y-172927986D01*
X87957783Y-172977298D01*
X87960981Y-173019195D01*
X87964784Y-173055052D01*
X87969243Y-173086245D01*
X87974413Y-173114148D01*
X87980344Y-173140137D01*
X87987089Y-173165586D01*
X87994701Y-173191872D01*
X87996003Y-173196250D01*
X88034454Y-173293837D01*
X88086302Y-173375336D01*
X88150634Y-173440257D01*
X88226539Y-173488111D01*
X88313105Y-173518407D01*
X88409421Y-173530657D01*
X88514575Y-173524371D01*
X88582500Y-173511265D01*
X88675767Y-173478678D01*
X88757007Y-173428724D01*
X88826076Y-173361557D01*
X88882829Y-173277325D01*
X88927122Y-173176181D01*
X88939296Y-173138042D01*
X88942318Y-173126516D01*
X88945006Y-173112935D01*
X88947383Y-173096029D01*
X88949475Y-173074528D01*
X88951304Y-173047162D01*
X88952895Y-173012661D01*
X88954271Y-172969753D01*
X88955456Y-172917170D01*
X88956475Y-172853641D01*
X88957352Y-172777895D01*
X88958109Y-172688662D01*
X88958772Y-172584673D01*
X88959364Y-172464657D01*
X88959909Y-172327343D01*
X88960430Y-172171463D01*
X88960953Y-171995744D01*
X88960978Y-171987104D01*
X88964072Y-170899666D01*
X89588202Y-170899667D01*
X89588202Y-170899667D01*
G37*
X89588202Y-170899667D02*
X90212333Y-170899667D01*
X90212642Y-172325771D01*
X90212753Y-172500544D01*
X90213005Y-172671215D01*
X90213389Y-172836401D01*
X90213896Y-172994719D01*
X90214516Y-173144787D01*
X90215241Y-173285222D01*
X90216061Y-173414641D01*
X90216967Y-173531662D01*
X90217951Y-173634903D01*
X90219003Y-173722980D01*
X90220113Y-173794512D01*
X90221275Y-173848115D01*
X90222477Y-173882407D01*
X90222896Y-173889458D01*
X90227498Y-173953130D01*
X90232359Y-174020399D01*
X90236853Y-174082592D01*
X90239912Y-174124937D01*
X90246983Y-174222833D01*
X88987436Y-174222833D01*
X88980876Y-174183146D01*
X88976850Y-174147655D01*
X88974466Y-174105230D01*
X88974199Y-174089492D01*
X88973188Y-174050960D01*
X88970649Y-174002022D01*
X88967172Y-173953767D01*
X88960260Y-173872008D01*
X88879859Y-173950780D01*
X88763769Y-174054763D01*
X88646216Y-174139578D01*
X88524078Y-174206650D01*
X88394228Y-174257402D01*
X88253543Y-174293260D01*
X88098898Y-174315648D01*
X88074500Y-174317916D01*
X88009262Y-174323189D01*
X87957567Y-174326054D01*
X87911926Y-174326492D01*
X87864851Y-174324483D01*
X87808852Y-174320007D01*
X87778259Y-174317136D01*
X87612659Y-174291677D01*
X87458399Y-174248652D01*
X87316172Y-174188710D01*
X87186670Y-174112501D01*
X87070586Y-174020678D01*
X86968613Y-173913891D01*
X86881442Y-173792791D01*
X86809768Y-173658029D01*
X86754282Y-173510255D01*
X86715678Y-173350121D01*
X86709422Y-173312667D01*
X86707688Y-173290532D01*
X86706087Y-173247983D01*
X86704626Y-173185770D01*
X86703311Y-173104645D01*
X86702149Y-173005360D01*
X86701147Y-172888666D01*
X86700309Y-172755314D01*
X86699644Y-172606056D01*
X86699158Y-172441644D01*
X86698856Y-172262828D01*
X86698746Y-172071771D01*
X86698666Y-170899667D01*
X87947500Y-170899667D01*
X87947542Y-171923604D01*
X87947573Y-172101533D01*
X87947685Y-172259671D01*
X87947930Y-172399392D01*
X87948362Y-172522072D01*
X87949031Y-172629086D01*
X87949991Y-172721809D01*
X87951294Y-172801617D01*
X87952992Y-172869884D01*
X87955137Y-172927986D01*
X87957783Y-172977298D01*
X87960981Y-173019195D01*
X87964784Y-173055052D01*
X87969243Y-173086245D01*
X87974413Y-173114148D01*
X87980344Y-173140137D01*
X87987089Y-173165586D01*
X87994701Y-173191872D01*
X87996003Y-173196250D01*
X88034454Y-173293837D01*
X88086302Y-173375336D01*
X88150634Y-173440257D01*
X88226539Y-173488111D01*
X88313105Y-173518407D01*
X88409421Y-173530657D01*
X88514575Y-173524371D01*
X88582500Y-173511265D01*
X88675767Y-173478678D01*
X88757007Y-173428724D01*
X88826076Y-173361557D01*
X88882829Y-173277325D01*
X88927122Y-173176181D01*
X88939296Y-173138042D01*
X88942318Y-173126516D01*
X88945006Y-173112935D01*
X88947383Y-173096029D01*
X88949475Y-173074528D01*
X88951304Y-173047162D01*
X88952895Y-173012661D01*
X88954271Y-172969753D01*
X88955456Y-172917170D01*
X88956475Y-172853641D01*
X88957352Y-172777895D01*
X88958109Y-172688662D01*
X88958772Y-172584673D01*
X88959364Y-172464657D01*
X88959909Y-172327343D01*
X88960430Y-172171463D01*
X88960953Y-171995744D01*
X88960978Y-171987104D01*
X88964072Y-170899666D01*
X89588202Y-170899667D01*
G36*
X99864333Y-174222833D02*
G01*
X98658236Y-174222833D01*
X98653214Y-174199021D01*
X98651098Y-174181539D01*
X98648095Y-174146489D01*
X98644463Y-174097442D01*
X98640465Y-174037963D01*
X98636360Y-173971623D01*
X98635419Y-173955604D01*
X98630411Y-173874960D01*
X98625572Y-173814153D01*
X98620298Y-173771865D01*
X98613987Y-173746781D01*
X98606035Y-173737583D01*
X98595840Y-173742957D01*
X98582799Y-173761584D01*
X98566309Y-173792149D01*
X98563290Y-173798099D01*
X98500310Y-173899935D01*
X98419665Y-173992882D01*
X98323253Y-174076137D01*
X98212969Y-174148895D01*
X98090710Y-174210354D01*
X97958373Y-174259710D01*
X97817853Y-174296161D01*
X97671049Y-174318903D01*
X97519856Y-174327133D01*
X97366171Y-174320048D01*
X97337938Y-174317032D01*
X97184580Y-174288742D01*
X97037912Y-174240617D01*
X96898634Y-174173119D01*
X96767442Y-174086712D01*
X96645033Y-173981860D01*
X96532107Y-173859027D01*
X96429359Y-173718677D01*
X96422714Y-173708438D01*
X96384982Y-173643918D01*
X96344778Y-173564845D01*
X96304838Y-173477180D01*
X96267899Y-173386886D01*
X96240537Y-173311436D01*
X96184189Y-173113289D01*
X96145804Y-172907575D01*
X96125344Y-172697193D01*
X96122766Y-172485041D01*
X96123636Y-172473015D01*
X97400874Y-172473015D01*
X97401346Y-172620187D01*
X97409372Y-172766224D01*
X97424998Y-172906929D01*
X97448265Y-173038103D01*
X97461968Y-173095708D01*
X97487255Y-173173954D01*
X97522030Y-173255164D01*
X97562910Y-173332659D01*
X97606515Y-173399760D01*
X97632066Y-173431675D01*
X97705031Y-173498686D01*
X97789446Y-173548892D01*
X97882954Y-173581534D01*
X97983199Y-173595851D01*
X98087824Y-173591083D01*
X98113493Y-173586983D01*
X98208613Y-173559265D01*
X98294659Y-173512566D01*
X98371245Y-173447205D01*
X98437986Y-173363504D01*
X98487403Y-173276706D01*
X98529462Y-173179294D01*
X98562567Y-173076841D01*
X98587271Y-172966287D01*
X98604125Y-172844571D01*
X98613683Y-172708632D01*
X98616506Y-172561250D01*
X98615861Y-172488718D01*
X98614191Y-172415512D01*
X98611698Y-172347314D01*
X98608583Y-172289807D01*
X98605620Y-172253791D01*
X98583259Y-172101332D01*
X98550316Y-171967150D01*
X98506707Y-171851140D01*
X98452347Y-171753200D01*
X98387152Y-171673226D01*
X98311039Y-171611114D01*
X98223922Y-171566762D01*
X98125719Y-171540065D01*
X98017541Y-171530926D01*
X97906276Y-171538762D01*
X97806881Y-171563667D01*
X97718966Y-171605945D01*
X97642144Y-171665900D01*
X97576028Y-171743836D01*
X97520228Y-171840056D01*
X97474357Y-171954866D01*
X97473678Y-171956927D01*
X97444360Y-172066663D01*
X97422424Y-172192055D01*
X97407915Y-172328905D01*
X97400874Y-172473015D01*
X96123636Y-172473015D01*
X96138033Y-172274018D01*
X96171103Y-172067021D01*
X96221937Y-171866950D01*
X96262066Y-171748438D01*
X96335487Y-171576790D01*
X96421409Y-171420991D01*
X96519370Y-171281492D01*
X96628906Y-171158740D01*
X96749556Y-171053186D01*
X96880858Y-170965278D01*
X97022348Y-170895466D01*
X97173566Y-170844200D01*
X97199000Y-170837658D01*
X97333617Y-170812993D01*
X97479011Y-170801546D01*
X97629630Y-170803072D01*
X97779920Y-170817322D01*
X97924328Y-170844051D01*
X98033416Y-170874759D01*
X98118523Y-170907452D01*
X98208848Y-170949603D01*
X98294147Y-170996218D01*
X98334852Y-171021713D01*
X98378926Y-171054037D01*
X98428574Y-171095321D01*
X98478864Y-171140972D01*
X98524863Y-171186396D01*
X98561638Y-171227000D01*
X98577742Y-171247884D01*
X98596530Y-171271511D01*
X98611621Y-171284395D01*
X98616810Y-171285148D01*
X98618234Y-171273907D01*
X98619585Y-171242948D01*
X98620849Y-171193722D01*
X98622011Y-171127678D01*
X98623056Y-171046265D01*
X98623971Y-170950933D01*
X98624740Y-170843131D01*
X98625350Y-170724308D01*
X98625785Y-170595914D01*
X98626031Y-170459399D01*
X98626083Y-170359292D01*
X98626083Y-169439167D01*
X99864333Y-169439167D01*
X99864333Y-174222833D01*
X99864333Y-174222833D01*
G37*
X99864333Y-174222833D02*
X98658236Y-174222833D01*
X98653214Y-174199021D01*
X98651098Y-174181539D01*
X98648095Y-174146489D01*
X98644463Y-174097442D01*
X98640465Y-174037963D01*
X98636360Y-173971623D01*
X98635419Y-173955604D01*
X98630411Y-173874960D01*
X98625572Y-173814153D01*
X98620298Y-173771865D01*
X98613987Y-173746781D01*
X98606035Y-173737583D01*
X98595840Y-173742957D01*
X98582799Y-173761584D01*
X98566309Y-173792149D01*
X98563290Y-173798099D01*
X98500310Y-173899935D01*
X98419665Y-173992882D01*
X98323253Y-174076137D01*
X98212969Y-174148895D01*
X98090710Y-174210354D01*
X97958373Y-174259710D01*
X97817853Y-174296161D01*
X97671049Y-174318903D01*
X97519856Y-174327133D01*
X97366171Y-174320048D01*
X97337938Y-174317032D01*
X97184580Y-174288742D01*
X97037912Y-174240617D01*
X96898634Y-174173119D01*
X96767442Y-174086712D01*
X96645033Y-173981860D01*
X96532107Y-173859027D01*
X96429359Y-173718677D01*
X96422714Y-173708438D01*
X96384982Y-173643918D01*
X96344778Y-173564845D01*
X96304838Y-173477180D01*
X96267899Y-173386886D01*
X96240537Y-173311436D01*
X96184189Y-173113289D01*
X96145804Y-172907575D01*
X96125344Y-172697193D01*
X96122766Y-172485041D01*
X96123636Y-172473015D01*
X97400874Y-172473015D01*
X97401346Y-172620187D01*
X97409372Y-172766224D01*
X97424998Y-172906929D01*
X97448265Y-173038103D01*
X97461968Y-173095708D01*
X97487255Y-173173954D01*
X97522030Y-173255164D01*
X97562910Y-173332659D01*
X97606515Y-173399760D01*
X97632066Y-173431675D01*
X97705031Y-173498686D01*
X97789446Y-173548892D01*
X97882954Y-173581534D01*
X97983199Y-173595851D01*
X98087824Y-173591083D01*
X98113493Y-173586983D01*
X98208613Y-173559265D01*
X98294659Y-173512566D01*
X98371245Y-173447205D01*
X98437986Y-173363504D01*
X98487403Y-173276706D01*
X98529462Y-173179294D01*
X98562567Y-173076841D01*
X98587271Y-172966287D01*
X98604125Y-172844571D01*
X98613683Y-172708632D01*
X98616506Y-172561250D01*
X98615861Y-172488718D01*
X98614191Y-172415512D01*
X98611698Y-172347314D01*
X98608583Y-172289807D01*
X98605620Y-172253791D01*
X98583259Y-172101332D01*
X98550316Y-171967150D01*
X98506707Y-171851140D01*
X98452347Y-171753200D01*
X98387152Y-171673226D01*
X98311039Y-171611114D01*
X98223922Y-171566762D01*
X98125719Y-171540065D01*
X98017541Y-171530926D01*
X97906276Y-171538762D01*
X97806881Y-171563667D01*
X97718966Y-171605945D01*
X97642144Y-171665900D01*
X97576028Y-171743836D01*
X97520228Y-171840056D01*
X97474357Y-171954866D01*
X97473678Y-171956927D01*
X97444360Y-172066663D01*
X97422424Y-172192055D01*
X97407915Y-172328905D01*
X97400874Y-172473015D01*
X96123636Y-172473015D01*
X96138033Y-172274018D01*
X96171103Y-172067021D01*
X96221937Y-171866950D01*
X96262066Y-171748438D01*
X96335487Y-171576790D01*
X96421409Y-171420991D01*
X96519370Y-171281492D01*
X96628906Y-171158740D01*
X96749556Y-171053186D01*
X96880858Y-170965278D01*
X97022348Y-170895466D01*
X97173566Y-170844200D01*
X97199000Y-170837658D01*
X97333617Y-170812993D01*
X97479011Y-170801546D01*
X97629630Y-170803072D01*
X97779920Y-170817322D01*
X97924328Y-170844051D01*
X98033416Y-170874759D01*
X98118523Y-170907452D01*
X98208848Y-170949603D01*
X98294147Y-170996218D01*
X98334852Y-171021713D01*
X98378926Y-171054037D01*
X98428574Y-171095321D01*
X98478864Y-171140972D01*
X98524863Y-171186396D01*
X98561638Y-171227000D01*
X98577742Y-171247884D01*
X98596530Y-171271511D01*
X98611621Y-171284395D01*
X98616810Y-171285148D01*
X98618234Y-171273907D01*
X98619585Y-171242948D01*
X98620849Y-171193722D01*
X98622011Y-171127678D01*
X98623056Y-171046265D01*
X98623971Y-170950933D01*
X98624740Y-170843131D01*
X98625350Y-170724308D01*
X98625785Y-170595914D01*
X98626031Y-170459399D01*
X98626083Y-170359292D01*
X98626083Y-169439167D01*
X99864333Y-169439167D01*
X99864333Y-174222833D01*
G36*
X93995929Y-170816235D02*
G01*
X94156616Y-170849888D01*
X94307507Y-170902056D01*
X94376238Y-170933608D01*
X94510724Y-171011921D01*
X94630237Y-171105046D01*
X94734249Y-171212324D01*
X94822233Y-171333094D01*
X94893660Y-171466696D01*
X94948002Y-171612470D01*
X94963068Y-171666958D01*
X94969674Y-171694845D01*
X94975585Y-171724229D01*
X94980841Y-171756368D01*
X94985478Y-171792519D01*
X94989534Y-171833941D01*
X94993047Y-171881891D01*
X94996054Y-171937628D01*
X94998593Y-172002410D01*
X95000702Y-172077495D01*
X95002417Y-172164140D01*
X95003777Y-172263604D01*
X95004819Y-172377144D01*
X95005581Y-172506019D01*
X95006100Y-172651487D01*
X95006414Y-172814806D01*
X95006560Y-172997234D01*
X95006583Y-173123703D01*
X95006583Y-174222833D01*
X93758793Y-174222833D01*
X93754520Y-173172437D01*
X93753630Y-172976804D01*
X93752631Y-172801764D01*
X93751515Y-172646746D01*
X93750274Y-172511178D01*
X93748899Y-172394486D01*
X93747381Y-172296099D01*
X93745711Y-172215445D01*
X93743883Y-172151950D01*
X93741886Y-172105043D01*
X93739712Y-172074152D01*
X93738002Y-172061349D01*
X93707496Y-171941006D01*
X93668070Y-171839556D01*
X93619190Y-171756460D01*
X93560324Y-171691178D01*
X93490939Y-171643170D01*
X93410503Y-171611896D01*
X93318482Y-171596816D01*
X93278146Y-171595196D01*
X93166194Y-171602976D01*
X93066132Y-171628199D01*
X92978354Y-171670535D01*
X92903256Y-171729654D01*
X92841231Y-171805227D01*
X92792675Y-171896924D01*
X92757983Y-172004414D01*
X92751094Y-172035848D01*
X92749111Y-172056867D01*
X92747348Y-172098689D01*
X92745808Y-172160953D01*
X92744494Y-172243296D01*
X92743410Y-172345357D01*
X92742557Y-172466773D01*
X92741940Y-172607182D01*
X92741562Y-172766222D01*
X92741425Y-172943531D01*
X92741532Y-173138747D01*
X92741553Y-173156562D01*
X92742862Y-174222833D01*
X91494356Y-174222833D01*
X91489802Y-172743812D01*
X91489000Y-172511177D01*
X91488082Y-172295133D01*
X91487051Y-172096104D01*
X91485912Y-171914511D01*
X91484668Y-171750777D01*
X91483325Y-171605324D01*
X91481886Y-171478573D01*
X91480355Y-171370947D01*
X91478737Y-171282868D01*
X91477037Y-171214758D01*
X91475257Y-171167040D01*
X91473710Y-171143083D01*
X91468352Y-171087088D01*
X91462989Y-171031936D01*
X91458348Y-170985059D01*
X91455852Y-170960521D01*
X91449532Y-170899666D01*
X92083449Y-170899667D01*
X92717366Y-170899667D01*
X92724266Y-171012438D01*
X92727249Y-171067295D01*
X92729582Y-171121859D01*
X92730946Y-171167991D01*
X92731166Y-171187063D01*
X92732169Y-171220064D01*
X92734771Y-171242504D01*
X92737628Y-171248917D01*
X92747214Y-171242015D01*
X92769130Y-171223058D01*
X92800453Y-171194665D01*
X92838259Y-171159455D01*
X92852773Y-171145729D01*
X92968656Y-171046127D01*
X93087841Y-170965170D01*
X93213050Y-170901692D01*
X93347005Y-170854524D01*
X93492426Y-170822497D01*
X93646989Y-170804795D01*
X93825902Y-170801177D01*
X93995929Y-170816235D01*
X93995929Y-170816235D01*
G37*
X93995929Y-170816235D02*
X94156616Y-170849888D01*
X94307507Y-170902056D01*
X94376238Y-170933608D01*
X94510724Y-171011921D01*
X94630237Y-171105046D01*
X94734249Y-171212324D01*
X94822233Y-171333094D01*
X94893660Y-171466696D01*
X94948002Y-171612470D01*
X94963068Y-171666958D01*
X94969674Y-171694845D01*
X94975585Y-171724229D01*
X94980841Y-171756368D01*
X94985478Y-171792519D01*
X94989534Y-171833941D01*
X94993047Y-171881891D01*
X94996054Y-171937628D01*
X94998593Y-172002410D01*
X95000702Y-172077495D01*
X95002417Y-172164140D01*
X95003777Y-172263604D01*
X95004819Y-172377144D01*
X95005581Y-172506019D01*
X95006100Y-172651487D01*
X95006414Y-172814806D01*
X95006560Y-172997234D01*
X95006583Y-173123703D01*
X95006583Y-174222833D01*
X93758793Y-174222833D01*
X93754520Y-173172437D01*
X93753630Y-172976804D01*
X93752631Y-172801764D01*
X93751515Y-172646746D01*
X93750274Y-172511178D01*
X93748899Y-172394486D01*
X93747381Y-172296099D01*
X93745711Y-172215445D01*
X93743883Y-172151950D01*
X93741886Y-172105043D01*
X93739712Y-172074152D01*
X93738002Y-172061349D01*
X93707496Y-171941006D01*
X93668070Y-171839556D01*
X93619190Y-171756460D01*
X93560324Y-171691178D01*
X93490939Y-171643170D01*
X93410503Y-171611896D01*
X93318482Y-171596816D01*
X93278146Y-171595196D01*
X93166194Y-171602976D01*
X93066132Y-171628199D01*
X92978354Y-171670535D01*
X92903256Y-171729654D01*
X92841231Y-171805227D01*
X92792675Y-171896924D01*
X92757983Y-172004414D01*
X92751094Y-172035848D01*
X92749111Y-172056867D01*
X92747348Y-172098689D01*
X92745808Y-172160953D01*
X92744494Y-172243296D01*
X92743410Y-172345357D01*
X92742557Y-172466773D01*
X92741940Y-172607182D01*
X92741562Y-172766222D01*
X92741425Y-172943531D01*
X92741532Y-173138747D01*
X92741553Y-173156562D01*
X92742862Y-174222833D01*
X91494356Y-174222833D01*
X91489802Y-172743812D01*
X91489000Y-172511177D01*
X91488082Y-172295133D01*
X91487051Y-172096104D01*
X91485912Y-171914511D01*
X91484668Y-171750777D01*
X91483325Y-171605324D01*
X91481886Y-171478573D01*
X91480355Y-171370947D01*
X91478737Y-171282868D01*
X91477037Y-171214758D01*
X91475257Y-171167040D01*
X91473710Y-171143083D01*
X91468352Y-171087088D01*
X91462989Y-171031936D01*
X91458348Y-170985059D01*
X91455852Y-170960521D01*
X91449532Y-170899666D01*
X92083449Y-170899667D01*
X92717366Y-170899667D01*
X92724266Y-171012438D01*
X92727249Y-171067295D01*
X92729582Y-171121859D01*
X92730946Y-171167991D01*
X92731166Y-171187063D01*
X92732169Y-171220064D01*
X92734771Y-171242504D01*
X92737628Y-171248917D01*
X92747214Y-171242015D01*
X92769130Y-171223058D01*
X92800453Y-171194665D01*
X92838259Y-171159455D01*
X92852773Y-171145729D01*
X92968656Y-171046127D01*
X93087841Y-170965170D01*
X93213050Y-170901692D01*
X93347005Y-170854524D01*
X93492426Y-170822497D01*
X93646989Y-170804795D01*
X93825902Y-170801177D01*
X93995929Y-170816235D01*
G36*
X100130045Y-176543886D02*
G01*
X100161675Y-176554239D01*
X100178458Y-176572102D01*
X100179921Y-176585579D01*
X100175925Y-176598730D01*
X100165277Y-176606361D01*
X100142934Y-176610411D01*
X100109686Y-176612544D01*
X100042830Y-176615713D01*
X100046186Y-176580794D01*
X100050766Y-176557108D01*
X100062966Y-176546519D01*
X100087181Y-176542712D01*
X100130045Y-176543886D01*
X100130045Y-176543886D01*
G37*
X100130045Y-176543886D02*
X100161675Y-176554239D01*
X100178458Y-176572102D01*
X100179921Y-176585579D01*
X100175925Y-176598730D01*
X100165277Y-176606361D01*
X100142934Y-176610411D01*
X100109686Y-176612544D01*
X100042830Y-176615713D01*
X100046186Y-176580794D01*
X100050766Y-176557108D01*
X100062966Y-176546519D01*
X100087181Y-176542712D01*
X100130045Y-176543886D01*
D12*
X87666000Y-132674000D02*
X90116000Y-132674000D01*
X89466000Y-129454000D02*
X87666000Y-129454000D01*
X153268000Y-117253936D02*
X153268000Y-118458064D01*
X155088000Y-117253936D02*
X155088000Y-118458064D01*
X155759564Y-95102000D02*
X154555436Y-95102000D01*
X155759564Y-96922000D02*
X154555436Y-96922000D01*
X142388000Y-182023936D02*
X142388000Y-183228064D01*
X140568000Y-182023936D02*
X140568000Y-183228064D01*
D10*
X144229000Y-121984000D02*
X143104000Y-121984000D01*
X144229000Y-130459000D02*
X148379000Y-130459000D01*
X144229000Y-121509000D02*
X148379000Y-121509000D01*
X144229000Y-130459000D02*
X144229000Y-129901500D01*
X148379000Y-130459000D02*
X148379000Y-129901500D01*
X148379000Y-121509000D02*
X148379000Y-122066500D01*
X144229000Y-121509000D02*
X144229000Y-121984000D01*
X109685000Y-126081000D02*
X109685000Y-126556000D01*
X113835000Y-126081000D02*
X113835000Y-126638500D01*
X113835000Y-135031000D02*
X113835000Y-134473500D01*
X109685000Y-135031000D02*
X109685000Y-134473500D01*
X109685000Y-126081000D02*
X113835000Y-126081000D01*
X109685000Y-135031000D02*
X113835000Y-135031000D01*
X109685000Y-126556000D02*
X108560000Y-126556000D01*
X109685000Y-105728000D02*
X108560000Y-105728000D01*
X109685000Y-114203000D02*
X113835000Y-114203000D01*
X109685000Y-105253000D02*
X113835000Y-105253000D01*
X109685000Y-114203000D02*
X109685000Y-113645500D01*
X113835000Y-114203000D02*
X113835000Y-113645500D01*
X113835000Y-105253000D02*
X113835000Y-105810500D01*
X109685000Y-105253000D02*
X109685000Y-105728000D01*
D12*
X128672000Y-126143936D02*
X128672000Y-127348064D01*
X126852000Y-126143936D02*
X126852000Y-127348064D01*
D14*
X101962000Y-87408000D02*
X101962000Y-85758000D01*
X101962000Y-85758000D02*
X115462000Y-85758000D01*
X115462000Y-85758000D02*
X115462000Y-87408000D01*
X115462000Y-91458000D02*
X115462000Y-93058000D01*
X115462000Y-93058000D02*
X101962000Y-93058000D01*
X101962000Y-93058000D02*
X101962000Y-91458000D01*
X101962000Y-84930000D02*
X101962000Y-83330000D01*
X115462000Y-84930000D02*
X101962000Y-84930000D01*
X115462000Y-83330000D02*
X115462000Y-84930000D01*
X115462000Y-77630000D02*
X115462000Y-79280000D01*
X101962000Y-77630000D02*
X115462000Y-77630000D01*
X101962000Y-79280000D02*
X101962000Y-77630000D01*
D12*
X105770000Y-122268064D02*
X105770000Y-121063936D01*
X107590000Y-122268064D02*
X107590000Y-121063936D01*
X105770000Y-101222564D02*
X105770000Y-100018436D01*
X107590000Y-101222564D02*
X107590000Y-100018436D01*
X119793936Y-123296000D02*
X120998064Y-123296000D01*
X119793936Y-125116000D02*
X120998064Y-125116000D01*
X115930000Y-101186064D02*
X115930000Y-99981936D01*
X117750000Y-101186064D02*
X117750000Y-99981936D01*
D14*
X101962000Y-76802000D02*
X101962000Y-75202000D01*
X115462000Y-76802000D02*
X101962000Y-76802000D01*
X115462000Y-75202000D02*
X115462000Y-76802000D01*
X115462000Y-69502000D02*
X115462000Y-71152000D01*
X101962000Y-69502000D02*
X115462000Y-69502000D01*
X101962000Y-71152000D02*
X101962000Y-69502000D01*
X101962000Y-68674000D02*
X101962000Y-67074000D01*
X115462000Y-68674000D02*
X101962000Y-68674000D01*
X115462000Y-67074000D02*
X115462000Y-68674000D01*
X115462000Y-61374000D02*
X115462000Y-63024000D01*
X101962000Y-61374000D02*
X115462000Y-61374000D01*
X101962000Y-63024000D02*
X101962000Y-61374000D01*
D12*
X106532000Y-143161936D02*
X106532000Y-144366064D01*
X108352000Y-143161936D02*
X108352000Y-144366064D01*
X80624000Y-120490064D02*
X80624000Y-119285936D01*
X82444000Y-120490064D02*
X82444000Y-119285936D01*
X141318064Y-91842000D02*
X140113936Y-91842000D01*
X141318064Y-90022000D02*
X140113936Y-90022000D01*
X147934000Y-118458064D02*
X147934000Y-117253936D01*
X149754000Y-118458064D02*
X149754000Y-117253936D01*
X80624000Y-137065936D02*
X80624000Y-138270064D01*
X82444000Y-137065936D02*
X82444000Y-138270064D01*
D14*
X81134000Y-68674000D02*
X81134000Y-67074000D01*
X94634000Y-68674000D02*
X81134000Y-68674000D01*
X94634000Y-67074000D02*
X94634000Y-68674000D01*
X94634000Y-61374000D02*
X94634000Y-63024000D01*
X81134000Y-61374000D02*
X94634000Y-61374000D01*
X81134000Y-63024000D02*
X81134000Y-61374000D01*
X81134000Y-76802000D02*
X81134000Y-75202000D01*
X94634000Y-76802000D02*
X81134000Y-76802000D01*
X94634000Y-75202000D02*
X94634000Y-76802000D01*
X94634000Y-69502000D02*
X94634000Y-71152000D01*
X81134000Y-69502000D02*
X94634000Y-69502000D01*
X81134000Y-71152000D02*
X81134000Y-69502000D01*
X81134000Y-84930000D02*
X81134000Y-83330000D01*
X94634000Y-84930000D02*
X81134000Y-84930000D01*
X94634000Y-83330000D02*
X94634000Y-84930000D01*
X94634000Y-77630000D02*
X94634000Y-79280000D01*
X81134000Y-77630000D02*
X94634000Y-77630000D01*
X81134000Y-79280000D02*
X81134000Y-77630000D01*
X81134000Y-93058000D02*
X81134000Y-91458000D01*
X94634000Y-93058000D02*
X81134000Y-93058000D01*
X94634000Y-91458000D02*
X94634000Y-93058000D01*
X94634000Y-85758000D02*
X94634000Y-87408000D01*
X81134000Y-85758000D02*
X94634000Y-85758000D01*
X81134000Y-87408000D02*
X81134000Y-85758000D01*
D12*
X95344064Y-58780000D02*
X94139936Y-58780000D01*
X95344064Y-60600000D02*
X94139936Y-60600000D01*
X99219936Y-60600000D02*
X100424064Y-60600000D01*
X99219936Y-58780000D02*
X100424064Y-58780000D01*
X100598000Y-49858000D02*
X126508000Y-49858000D01*
X126508000Y-49858000D02*
X126508000Y-40038000D01*
X126508000Y-40038000D02*
X102408000Y-40038000D01*
X102408000Y-40038000D02*
X102408000Y-38638000D01*
X102408000Y-38638000D02*
X100598000Y-38638000D01*
X100598000Y-49858000D02*
X74688000Y-49858000D01*
X74688000Y-49858000D02*
X74688000Y-40038000D01*
X74688000Y-40038000D02*
X98788000Y-40038000D01*
X98788000Y-40038000D02*
X98788000Y-38638000D01*
X98788000Y-38638000D02*
X100598000Y-38638000D01*
X123898000Y-50098000D02*
X126748000Y-50098000D01*
X126748000Y-50098000D02*
X126748000Y-47248000D01*
X108577000Y-140969000D02*
X108577000Y-137084000D01*
X106307000Y-140969000D02*
X108577000Y-140969000D01*
X106307000Y-137084000D02*
X106307000Y-140969000D01*
X84404000Y-124341000D02*
X80519000Y-124341000D01*
X80519000Y-124341000D02*
X80519000Y-126611000D01*
X80519000Y-126611000D02*
X84404000Y-126611000D01*
X84404000Y-130945000D02*
X80519000Y-130945000D01*
X80519000Y-130945000D02*
X80519000Y-133215000D01*
X80519000Y-133215000D02*
X84404000Y-133215000D01*
X92845000Y-53902000D02*
X92845000Y-57787000D01*
X92845000Y-57787000D02*
X95115000Y-57787000D01*
X95115000Y-57787000D02*
X95115000Y-53902000D01*
X97163000Y-53902000D02*
X97163000Y-57787000D01*
X97163000Y-57787000D02*
X99433000Y-57787000D01*
X99433000Y-57787000D02*
X99433000Y-53902000D01*
X110130000Y-122268064D02*
X110130000Y-121063936D01*
X108310000Y-122268064D02*
X108310000Y-121063936D01*
X110130000Y-101222564D02*
X110130000Y-100018436D01*
X108310000Y-101222564D02*
X108310000Y-100018436D01*
X115210000Y-101222564D02*
X115210000Y-100018436D01*
X113390000Y-101222564D02*
X113390000Y-100018436D01*
X115210000Y-122268064D02*
X115210000Y-121063936D01*
X113390000Y-122268064D02*
X113390000Y-121063936D01*
X112670000Y-101186064D02*
X112670000Y-99981936D01*
X110850000Y-101186064D02*
X110850000Y-99981936D01*
X112670000Y-122268064D02*
X112670000Y-121063936D01*
X110850000Y-122268064D02*
X110850000Y-121063936D01*
X151236000Y-183801936D02*
X151236000Y-185006064D01*
X153056000Y-183801936D02*
X153056000Y-185006064D01*
X149765936Y-73554000D02*
X150970064Y-73554000D01*
X149765936Y-71734000D02*
X150970064Y-71734000D01*
X146960000Y-76105936D02*
X146960000Y-77310064D01*
X145140000Y-76105936D02*
X145140000Y-77310064D01*
X148992000Y-183801936D02*
X148992000Y-185006064D01*
X147172000Y-183801936D02*
X147172000Y-185006064D01*
X149754000Y-76105936D02*
X149754000Y-77310064D01*
X147934000Y-76105936D02*
X147934000Y-77310064D01*
X146198000Y-183838436D02*
X146198000Y-185042564D01*
X144378000Y-183838436D02*
X144378000Y-185042564D01*
X152548000Y-118458064D02*
X152548000Y-117253936D01*
X150728000Y-118458064D02*
X150728000Y-117253936D01*
X149754000Y-91788064D02*
X149754000Y-90583936D01*
X147934000Y-91788064D02*
X147934000Y-90583936D01*
X145394000Y-87724064D02*
X145394000Y-86519936D01*
X147214000Y-87724064D02*
X147214000Y-86519936D01*
X145902000Y-112870064D02*
X145902000Y-111665936D01*
X147722000Y-112870064D02*
X147722000Y-111665936D01*
X143362000Y-112870064D02*
X143362000Y-111665936D01*
X145182000Y-112870064D02*
X145182000Y-111665936D01*
X142854000Y-87724064D02*
X142854000Y-86519936D01*
X144674000Y-87724064D02*
X144674000Y-86519936D01*
D10*
X87804095Y-122134380D02*
X87804095Y-122943904D01*
X87851714Y-123039142D01*
X87899333Y-123086761D01*
X87994571Y-123134380D01*
X88185047Y-123134380D01*
X88280285Y-123086761D01*
X88327904Y-123039142D01*
X88375523Y-122943904D01*
X88375523Y-122134380D01*
X89375523Y-123134380D02*
X88804095Y-123134380D01*
X89089809Y-123134380D02*
X89089809Y-122134380D01*
X88994571Y-122277238D01*
X88899333Y-122372476D01*
X88804095Y-122420095D01*
X127103142Y-133484857D02*
X127150761Y-133532476D01*
X127198380Y-133675333D01*
X127198380Y-133770571D01*
X127150761Y-133913428D01*
X127055523Y-134008666D01*
X126960285Y-134056285D01*
X126769809Y-134103904D01*
X126626952Y-134103904D01*
X126436476Y-134056285D01*
X126341238Y-134008666D01*
X126246000Y-133913428D01*
X126198380Y-133770571D01*
X126198380Y-133675333D01*
X126246000Y-133532476D01*
X126293619Y-133484857D01*
X127198380Y-132532476D02*
X127198380Y-133103904D01*
X127198380Y-132818190D02*
X126198380Y-132818190D01*
X126341238Y-132913428D01*
X126436476Y-133008666D01*
X126484095Y-133103904D01*
X127198380Y-131580095D02*
X127198380Y-132151523D01*
X127198380Y-131865809D02*
X126198380Y-131865809D01*
X126341238Y-131961047D01*
X126436476Y-132056285D01*
X126484095Y-132151523D01*
X128525142Y-61602857D02*
X128572761Y-61650476D01*
X128620380Y-61793333D01*
X128620380Y-61888571D01*
X128572761Y-62031428D01*
X128477523Y-62126666D01*
X128382285Y-62174285D01*
X128191809Y-62221904D01*
X128048952Y-62221904D01*
X127858476Y-62174285D01*
X127763238Y-62126666D01*
X127668000Y-62031428D01*
X127620380Y-61888571D01*
X127620380Y-61793333D01*
X127668000Y-61650476D01*
X127715619Y-61602857D01*
X127715619Y-61221904D02*
X127668000Y-61174285D01*
X127620380Y-61079047D01*
X127620380Y-60840952D01*
X127668000Y-60745714D01*
X127715619Y-60698095D01*
X127810857Y-60650476D01*
X127906095Y-60650476D01*
X128048952Y-60698095D01*
X128620380Y-61269523D01*
X128620380Y-60650476D01*
X127715619Y-60269523D02*
X127668000Y-60221904D01*
X127620380Y-60126666D01*
X127620380Y-59888571D01*
X127668000Y-59793333D01*
X127715619Y-59745714D01*
X127810857Y-59698095D01*
X127906095Y-59698095D01*
X128048952Y-59745714D01*
X128620380Y-60317142D01*
X128620380Y-59698095D01*
X128525142Y-77096857D02*
X128572761Y-77144476D01*
X128620380Y-77287333D01*
X128620380Y-77382571D01*
X128572761Y-77525428D01*
X128477523Y-77620666D01*
X128382285Y-77668285D01*
X128191809Y-77715904D01*
X128048952Y-77715904D01*
X127858476Y-77668285D01*
X127763238Y-77620666D01*
X127668000Y-77525428D01*
X127620380Y-77382571D01*
X127620380Y-77287333D01*
X127668000Y-77144476D01*
X127715619Y-77096857D01*
X127715619Y-76715904D02*
X127668000Y-76668285D01*
X127620380Y-76573047D01*
X127620380Y-76334952D01*
X127668000Y-76239714D01*
X127715619Y-76192095D01*
X127810857Y-76144476D01*
X127906095Y-76144476D01*
X128048952Y-76192095D01*
X128620380Y-76763523D01*
X128620380Y-76144476D01*
X128620380Y-75192095D02*
X128620380Y-75763523D01*
X128620380Y-75477809D02*
X127620380Y-75477809D01*
X127763238Y-75573047D01*
X127858476Y-75668285D01*
X127906095Y-75763523D01*
X87812571Y-55959333D02*
X87812571Y-56292666D01*
X88336380Y-56292666D02*
X87336380Y-56292666D01*
X87336380Y-55816476D01*
X87431619Y-55483142D02*
X87384000Y-55435523D01*
X87336380Y-55340285D01*
X87336380Y-55102190D01*
X87384000Y-55006952D01*
X87431619Y-54959333D01*
X87526857Y-54911714D01*
X87622095Y-54911714D01*
X87764952Y-54959333D01*
X88336380Y-55530761D01*
X88336380Y-54911714D01*
X118792666Y-57290571D02*
X118459333Y-57290571D01*
X118459333Y-57814380D02*
X118459333Y-56814380D01*
X118935523Y-56814380D01*
X119840285Y-57814380D02*
X119268857Y-57814380D01*
X119554571Y-57814380D02*
X119554571Y-56814380D01*
X119459333Y-56957238D01*
X119364095Y-57052476D01*
X119268857Y-57100095D01*
X142692380Y-81414857D02*
X142216190Y-81748190D01*
X142692380Y-81986285D02*
X141692380Y-81986285D01*
X141692380Y-81605333D01*
X141740000Y-81510095D01*
X141787619Y-81462476D01*
X141882857Y-81414857D01*
X142025714Y-81414857D01*
X142120952Y-81462476D01*
X142168571Y-81510095D01*
X142216190Y-81605333D01*
X142216190Y-81986285D01*
X141787619Y-81033904D02*
X141740000Y-80986285D01*
X141692380Y-80891047D01*
X141692380Y-80652952D01*
X141740000Y-80557714D01*
X141787619Y-80510095D01*
X141882857Y-80462476D01*
X141978095Y-80462476D01*
X142120952Y-80510095D01*
X142692380Y-81081523D01*
X142692380Y-80462476D01*
X141692380Y-79843428D02*
X141692380Y-79748190D01*
X141740000Y-79652952D01*
X141787619Y-79605333D01*
X141882857Y-79557714D01*
X142073333Y-79510095D01*
X142311428Y-79510095D01*
X142501904Y-79557714D01*
X142597142Y-79605333D01*
X142644761Y-79652952D01*
X142692380Y-79748190D01*
X142692380Y-79843428D01*
X142644761Y-79938666D01*
X142597142Y-79986285D01*
X142501904Y-80033904D01*
X142311428Y-80081523D01*
X142073333Y-80081523D01*
X141882857Y-80033904D01*
X141787619Y-79986285D01*
X141740000Y-79938666D01*
X141692380Y-79843428D01*
X145327809Y-181620380D02*
X145327809Y-180620380D01*
X146375428Y-181525142D02*
X146327809Y-181572761D01*
X146184952Y-181620380D01*
X146089714Y-181620380D01*
X145946857Y-181572761D01*
X145851619Y-181477523D01*
X145804000Y-181382285D01*
X145756380Y-181191809D01*
X145756380Y-181048952D01*
X145804000Y-180858476D01*
X145851619Y-180763238D01*
X145946857Y-180668000D01*
X146089714Y-180620380D01*
X146184952Y-180620380D01*
X146327809Y-180668000D01*
X146375428Y-180715619D01*
X147232571Y-180620380D02*
X147042095Y-180620380D01*
X146946857Y-180668000D01*
X146899238Y-180715619D01*
X146804000Y-180858476D01*
X146756380Y-181048952D01*
X146756380Y-181429904D01*
X146804000Y-181525142D01*
X146851619Y-181572761D01*
X146946857Y-181620380D01*
X147137333Y-181620380D01*
X147232571Y-181572761D01*
X147280190Y-181525142D01*
X147327809Y-181429904D01*
X147327809Y-181191809D01*
X147280190Y-181096571D01*
X147232571Y-181048952D01*
X147137333Y-181001333D01*
X146946857Y-181001333D01*
X146851619Y-181048952D01*
X146804000Y-181096571D01*
X146756380Y-181191809D01*
X145327809Y-94874380D02*
X145327809Y-93874380D01*
X146375428Y-94779142D02*
X146327809Y-94826761D01*
X146184952Y-94874380D01*
X146089714Y-94874380D01*
X145946857Y-94826761D01*
X145851619Y-94731523D01*
X145804000Y-94636285D01*
X145756380Y-94445809D01*
X145756380Y-94302952D01*
X145804000Y-94112476D01*
X145851619Y-94017238D01*
X145946857Y-93922000D01*
X146089714Y-93874380D01*
X146184952Y-93874380D01*
X146327809Y-93922000D01*
X146375428Y-93969619D01*
X147232571Y-94207714D02*
X147232571Y-94874380D01*
X146994476Y-93826761D02*
X146756380Y-94541047D01*
X147375428Y-94541047D01*
X145327809Y-71130380D02*
X145327809Y-70130380D01*
X146375428Y-71035142D02*
X146327809Y-71082761D01*
X146184952Y-71130380D01*
X146089714Y-71130380D01*
X145946857Y-71082761D01*
X145851619Y-70987523D01*
X145804000Y-70892285D01*
X145756380Y-70701809D01*
X145756380Y-70558952D01*
X145804000Y-70368476D01*
X145851619Y-70273238D01*
X145946857Y-70178000D01*
X146089714Y-70130380D01*
X146184952Y-70130380D01*
X146327809Y-70178000D01*
X146375428Y-70225619D01*
X146708761Y-70130380D02*
X147327809Y-70130380D01*
X146994476Y-70511333D01*
X147137333Y-70511333D01*
X147232571Y-70558952D01*
X147280190Y-70606571D01*
X147327809Y-70701809D01*
X147327809Y-70939904D01*
X147280190Y-71035142D01*
X147232571Y-71082761D01*
X147137333Y-71130380D01*
X146851619Y-71130380D01*
X146756380Y-71082761D01*
X146708761Y-71035142D01*
X87804095Y-133416380D02*
X87804095Y-134225904D01*
X87851714Y-134321142D01*
X87899333Y-134368761D01*
X87994571Y-134416380D01*
X88185047Y-134416380D01*
X88280285Y-134368761D01*
X88327904Y-134321142D01*
X88375523Y-134225904D01*
X88375523Y-133416380D01*
X88804095Y-133511619D02*
X88851714Y-133464000D01*
X88946952Y-133416380D01*
X89185047Y-133416380D01*
X89280285Y-133464000D01*
X89327904Y-133511619D01*
X89375523Y-133606857D01*
X89375523Y-133702095D01*
X89327904Y-133844952D01*
X88756476Y-134416380D01*
X89375523Y-134416380D01*
X154630380Y-114434857D02*
X154154190Y-114768190D01*
X154630380Y-115006285D02*
X153630380Y-115006285D01*
X153630380Y-114625333D01*
X153678000Y-114530095D01*
X153725619Y-114482476D01*
X153820857Y-114434857D01*
X153963714Y-114434857D01*
X154058952Y-114482476D01*
X154106571Y-114530095D01*
X154154190Y-114625333D01*
X154154190Y-115006285D01*
X153725619Y-114053904D02*
X153678000Y-114006285D01*
X153630380Y-113911047D01*
X153630380Y-113672952D01*
X153678000Y-113577714D01*
X153725619Y-113530095D01*
X153820857Y-113482476D01*
X153916095Y-113482476D01*
X154058952Y-113530095D01*
X154630380Y-114101523D01*
X154630380Y-113482476D01*
X153630380Y-113149142D02*
X153630380Y-112530095D01*
X154011333Y-112863428D01*
X154011333Y-112720571D01*
X154058952Y-112625333D01*
X154106571Y-112577714D01*
X154201809Y-112530095D01*
X154439904Y-112530095D01*
X154535142Y-112577714D01*
X154582761Y-112625333D01*
X154630380Y-112720571D01*
X154630380Y-113006285D01*
X154582761Y-113101523D01*
X154535142Y-113149142D01*
X154514642Y-98284380D02*
X154181309Y-97808190D01*
X153943214Y-98284380D02*
X153943214Y-97284380D01*
X154324166Y-97284380D01*
X154419404Y-97332000D01*
X154467023Y-97379619D01*
X154514642Y-97474857D01*
X154514642Y-97617714D01*
X154467023Y-97712952D01*
X154419404Y-97760571D01*
X154324166Y-97808190D01*
X153943214Y-97808190D01*
X154895595Y-97379619D02*
X154943214Y-97332000D01*
X155038452Y-97284380D01*
X155276547Y-97284380D01*
X155371785Y-97332000D01*
X155419404Y-97379619D01*
X155467023Y-97474857D01*
X155467023Y-97570095D01*
X155419404Y-97712952D01*
X154847976Y-98284380D01*
X155467023Y-98284380D01*
X155847976Y-97379619D02*
X155895595Y-97332000D01*
X155990833Y-97284380D01*
X156228928Y-97284380D01*
X156324166Y-97332000D01*
X156371785Y-97379619D01*
X156419404Y-97474857D01*
X156419404Y-97570095D01*
X156371785Y-97712952D01*
X155800357Y-98284380D01*
X156419404Y-98284380D01*
X143750380Y-183268857D02*
X143274190Y-183602190D01*
X143750380Y-183840285D02*
X142750380Y-183840285D01*
X142750380Y-183459333D01*
X142798000Y-183364095D01*
X142845619Y-183316476D01*
X142940857Y-183268857D01*
X143083714Y-183268857D01*
X143178952Y-183316476D01*
X143226571Y-183364095D01*
X143274190Y-183459333D01*
X143274190Y-183840285D01*
X142845619Y-182887904D02*
X142798000Y-182840285D01*
X142750380Y-182745047D01*
X142750380Y-182506952D01*
X142798000Y-182411714D01*
X142845619Y-182364095D01*
X142940857Y-182316476D01*
X143036095Y-182316476D01*
X143178952Y-182364095D01*
X143750380Y-182935523D01*
X143750380Y-182316476D01*
X143750380Y-181364095D02*
X143750380Y-181935523D01*
X143750380Y-181649809D02*
X142750380Y-181649809D01*
X142893238Y-181745047D01*
X142988476Y-181840285D01*
X143036095Y-181935523D01*
X160616666Y-95680380D02*
X160616666Y-96394666D01*
X160569047Y-96537523D01*
X160473809Y-96632761D01*
X160330952Y-96680380D01*
X160235714Y-96680380D01*
X161521428Y-96013714D02*
X161521428Y-96680380D01*
X161283333Y-95632761D02*
X161045238Y-96347047D01*
X161664285Y-96347047D01*
X133270666Y-51014380D02*
X133270666Y-51728666D01*
X133223047Y-51871523D01*
X133127809Y-51966761D01*
X132984952Y-52014380D01*
X132889714Y-52014380D01*
X133651619Y-51014380D02*
X134270666Y-51014380D01*
X133937333Y-51395333D01*
X134080190Y-51395333D01*
X134175428Y-51442952D01*
X134223047Y-51490571D01*
X134270666Y-51585809D01*
X134270666Y-51823904D01*
X134223047Y-51919142D01*
X134175428Y-51966761D01*
X134080190Y-52014380D01*
X133794476Y-52014380D01*
X133699238Y-51966761D01*
X133651619Y-51919142D01*
X95366666Y-95680380D02*
X95366666Y-96394666D01*
X95319047Y-96537523D01*
X95223809Y-96632761D01*
X95080952Y-96680380D01*
X94985714Y-96680380D01*
X96366666Y-96680380D02*
X95795238Y-96680380D01*
X96080952Y-96680380D02*
X96080952Y-95680380D01*
X95985714Y-95823238D01*
X95890476Y-95918476D01*
X95795238Y-95966095D01*
X145327809Y-121036380D02*
X145327809Y-120036380D01*
X146375428Y-120941142D02*
X146327809Y-120988761D01*
X146184952Y-121036380D01*
X146089714Y-121036380D01*
X145946857Y-120988761D01*
X145851619Y-120893523D01*
X145804000Y-120798285D01*
X145756380Y-120607809D01*
X145756380Y-120464952D01*
X145804000Y-120274476D01*
X145851619Y-120179238D01*
X145946857Y-120084000D01*
X146089714Y-120036380D01*
X146184952Y-120036380D01*
X146327809Y-120084000D01*
X146375428Y-120131619D01*
X147280190Y-120036380D02*
X146804000Y-120036380D01*
X146756380Y-120512571D01*
X146804000Y-120464952D01*
X146899238Y-120417333D01*
X147137333Y-120417333D01*
X147232571Y-120464952D01*
X147280190Y-120512571D01*
X147327809Y-120607809D01*
X147327809Y-120845904D01*
X147280190Y-120941142D01*
X147232571Y-120988761D01*
X147137333Y-121036380D01*
X146899238Y-121036380D01*
X146804000Y-120988761D01*
X146756380Y-120941142D01*
X110783809Y-125608380D02*
X110783809Y-124608380D01*
X111831428Y-125513142D02*
X111783809Y-125560761D01*
X111640952Y-125608380D01*
X111545714Y-125608380D01*
X111402857Y-125560761D01*
X111307619Y-125465523D01*
X111260000Y-125370285D01*
X111212380Y-125179809D01*
X111212380Y-125036952D01*
X111260000Y-124846476D01*
X111307619Y-124751238D01*
X111402857Y-124656000D01*
X111545714Y-124608380D01*
X111640952Y-124608380D01*
X111783809Y-124656000D01*
X111831428Y-124703619D01*
X112212380Y-124703619D02*
X112260000Y-124656000D01*
X112355238Y-124608380D01*
X112593333Y-124608380D01*
X112688571Y-124656000D01*
X112736190Y-124703619D01*
X112783809Y-124798857D01*
X112783809Y-124894095D01*
X112736190Y-125036952D01*
X112164761Y-125608380D01*
X112783809Y-125608380D01*
X110783809Y-104780380D02*
X110783809Y-103780380D01*
X111831428Y-104685142D02*
X111783809Y-104732761D01*
X111640952Y-104780380D01*
X111545714Y-104780380D01*
X111402857Y-104732761D01*
X111307619Y-104637523D01*
X111260000Y-104542285D01*
X111212380Y-104351809D01*
X111212380Y-104208952D01*
X111260000Y-104018476D01*
X111307619Y-103923238D01*
X111402857Y-103828000D01*
X111545714Y-103780380D01*
X111640952Y-103780380D01*
X111783809Y-103828000D01*
X111831428Y-103875619D01*
X112783809Y-104780380D02*
X112212380Y-104780380D01*
X112498095Y-104780380D02*
X112498095Y-103780380D01*
X112402857Y-103923238D01*
X112307619Y-104018476D01*
X112212380Y-104066095D01*
X126087142Y-127642857D02*
X126134761Y-127690476D01*
X126182380Y-127833333D01*
X126182380Y-127928571D01*
X126134761Y-128071428D01*
X126039523Y-128166666D01*
X125944285Y-128214285D01*
X125753809Y-128261904D01*
X125610952Y-128261904D01*
X125420476Y-128214285D01*
X125325238Y-128166666D01*
X125230000Y-128071428D01*
X125182380Y-127928571D01*
X125182380Y-127833333D01*
X125230000Y-127690476D01*
X125277619Y-127642857D01*
X126182380Y-126690476D02*
X126182380Y-127261904D01*
X126182380Y-126976190D02*
X125182380Y-126976190D01*
X125325238Y-127071428D01*
X125420476Y-127166666D01*
X125468095Y-127261904D01*
X125277619Y-126309523D02*
X125230000Y-126261904D01*
X125182380Y-126166666D01*
X125182380Y-125928571D01*
X125230000Y-125833333D01*
X125277619Y-125785714D01*
X125372857Y-125738095D01*
X125468095Y-125738095D01*
X125610952Y-125785714D01*
X126182380Y-126357142D01*
X126182380Y-125738095D01*
D15*
X108478205Y-90042586D02*
X108010615Y-89374600D01*
X107676622Y-90042586D02*
X107676622Y-88639816D01*
X108211010Y-88639816D01*
X108344607Y-88706615D01*
X108411406Y-88773413D01*
X108478205Y-88907010D01*
X108478205Y-89107406D01*
X108411406Y-89241003D01*
X108344607Y-89307802D01*
X108211010Y-89374600D01*
X107676622Y-89374600D01*
X108945795Y-88639816D02*
X109880975Y-88639816D01*
X109279787Y-90042586D01*
X108478205Y-81660586D02*
X108010615Y-80992600D01*
X107676622Y-81660586D02*
X107676622Y-80257816D01*
X108211010Y-80257816D01*
X108344607Y-80324615D01*
X108411406Y-80391413D01*
X108478205Y-80525010D01*
X108478205Y-80725406D01*
X108411406Y-80859003D01*
X108344607Y-80925802D01*
X108211010Y-80992600D01*
X107676622Y-80992600D01*
X109279787Y-80859003D02*
X109146190Y-80792205D01*
X109079392Y-80725406D01*
X109012593Y-80591809D01*
X109012593Y-80525010D01*
X109079392Y-80391413D01*
X109146190Y-80324615D01*
X109279787Y-80257816D01*
X109546982Y-80257816D01*
X109680579Y-80324615D01*
X109747377Y-80391413D01*
X109814176Y-80525010D01*
X109814176Y-80591809D01*
X109747377Y-80725406D01*
X109680579Y-80792205D01*
X109546982Y-80859003D01*
X109279787Y-80859003D01*
X109146190Y-80925802D01*
X109079392Y-80992600D01*
X109012593Y-81126197D01*
X109012593Y-81393392D01*
X109079392Y-81526989D01*
X109146190Y-81593787D01*
X109279787Y-81660586D01*
X109546982Y-81660586D01*
X109680579Y-81593787D01*
X109747377Y-81526989D01*
X109814176Y-81393392D01*
X109814176Y-81126197D01*
X109747377Y-80992600D01*
X109680579Y-80925802D01*
X109546982Y-80859003D01*
D10*
X107132380Y-118244857D02*
X106656190Y-118578190D01*
X107132380Y-118816285D02*
X106132380Y-118816285D01*
X106132380Y-118435333D01*
X106180000Y-118340095D01*
X106227619Y-118292476D01*
X106322857Y-118244857D01*
X106465714Y-118244857D01*
X106560952Y-118292476D01*
X106608571Y-118340095D01*
X106656190Y-118435333D01*
X106656190Y-118816285D01*
X107132380Y-117292476D02*
X107132380Y-117863904D01*
X107132380Y-117578190D02*
X106132380Y-117578190D01*
X106275238Y-117673428D01*
X106370476Y-117768666D01*
X106418095Y-117863904D01*
X107132380Y-116816285D02*
X107132380Y-116625809D01*
X107084761Y-116530571D01*
X107037142Y-116482952D01*
X106894285Y-116387714D01*
X106703809Y-116340095D01*
X106322857Y-116340095D01*
X106227619Y-116387714D01*
X106180000Y-116435333D01*
X106132380Y-116530571D01*
X106132380Y-116721047D01*
X106180000Y-116816285D01*
X106227619Y-116863904D01*
X106322857Y-116911523D01*
X106560952Y-116911523D01*
X106656190Y-116863904D01*
X106703809Y-116816285D01*
X106751428Y-116721047D01*
X106751428Y-116530571D01*
X106703809Y-116435333D01*
X106656190Y-116387714D01*
X106560952Y-116340095D01*
X107132380Y-97162857D02*
X106656190Y-97496190D01*
X107132380Y-97734285D02*
X106132380Y-97734285D01*
X106132380Y-97353333D01*
X106180000Y-97258095D01*
X106227619Y-97210476D01*
X106322857Y-97162857D01*
X106465714Y-97162857D01*
X106560952Y-97210476D01*
X106608571Y-97258095D01*
X106656190Y-97353333D01*
X106656190Y-97734285D01*
X107132380Y-96210476D02*
X107132380Y-96781904D01*
X107132380Y-96496190D02*
X106132380Y-96496190D01*
X106275238Y-96591428D01*
X106370476Y-96686666D01*
X106418095Y-96781904D01*
X106560952Y-95639047D02*
X106513333Y-95734285D01*
X106465714Y-95781904D01*
X106370476Y-95829523D01*
X106322857Y-95829523D01*
X106227619Y-95781904D01*
X106180000Y-95734285D01*
X106132380Y-95639047D01*
X106132380Y-95448571D01*
X106180000Y-95353333D01*
X106227619Y-95305714D01*
X106322857Y-95258095D01*
X106370476Y-95258095D01*
X106465714Y-95305714D01*
X106513333Y-95353333D01*
X106560952Y-95448571D01*
X106560952Y-95639047D01*
X106608571Y-95734285D01*
X106656190Y-95781904D01*
X106751428Y-95829523D01*
X106941904Y-95829523D01*
X107037142Y-95781904D01*
X107084761Y-95734285D01*
X107132380Y-95639047D01*
X107132380Y-95448571D01*
X107084761Y-95353333D01*
X107037142Y-95305714D01*
X106941904Y-95258095D01*
X106751428Y-95258095D01*
X106656190Y-95305714D01*
X106608571Y-95353333D01*
X106560952Y-95448571D01*
X119753142Y-122838380D02*
X119419809Y-122362190D01*
X119181714Y-122838380D02*
X119181714Y-121838380D01*
X119562666Y-121838380D01*
X119657904Y-121886000D01*
X119705523Y-121933619D01*
X119753142Y-122028857D01*
X119753142Y-122171714D01*
X119705523Y-122266952D01*
X119657904Y-122314571D01*
X119562666Y-122362190D01*
X119181714Y-122362190D01*
X120705523Y-122838380D02*
X120134095Y-122838380D01*
X120419809Y-122838380D02*
X120419809Y-121838380D01*
X120324571Y-121981238D01*
X120229333Y-122076476D01*
X120134095Y-122124095D01*
X121038857Y-121838380D02*
X121705523Y-121838380D01*
X121276952Y-122838380D01*
X119324380Y-101226857D02*
X118848190Y-101560190D01*
X119324380Y-101798285D02*
X118324380Y-101798285D01*
X118324380Y-101417333D01*
X118372000Y-101322095D01*
X118419619Y-101274476D01*
X118514857Y-101226857D01*
X118657714Y-101226857D01*
X118752952Y-101274476D01*
X118800571Y-101322095D01*
X118848190Y-101417333D01*
X118848190Y-101798285D01*
X119324380Y-100274476D02*
X119324380Y-100845904D01*
X119324380Y-100560190D02*
X118324380Y-100560190D01*
X118467238Y-100655428D01*
X118562476Y-100750666D01*
X118610095Y-100845904D01*
X118324380Y-99417333D02*
X118324380Y-99607809D01*
X118372000Y-99703047D01*
X118419619Y-99750666D01*
X118562476Y-99845904D01*
X118752952Y-99893523D01*
X119133904Y-99893523D01*
X119229142Y-99845904D01*
X119276761Y-99798285D01*
X119324380Y-99703047D01*
X119324380Y-99512571D01*
X119276761Y-99417333D01*
X119229142Y-99369714D01*
X119133904Y-99322095D01*
X118895809Y-99322095D01*
X118800571Y-99369714D01*
X118752952Y-99417333D01*
X118705333Y-99512571D01*
X118705333Y-99703047D01*
X118752952Y-99798285D01*
X118800571Y-99845904D01*
X118895809Y-99893523D01*
D15*
X107810219Y-73786586D02*
X107342629Y-73118600D01*
X107008636Y-73786586D02*
X107008636Y-72383816D01*
X107543025Y-72383816D01*
X107676622Y-72450615D01*
X107743420Y-72517413D01*
X107810219Y-72651010D01*
X107810219Y-72851406D01*
X107743420Y-72985003D01*
X107676622Y-73051802D01*
X107543025Y-73118600D01*
X107008636Y-73118600D01*
X109146190Y-73786586D02*
X108344607Y-73786586D01*
X108745399Y-73786586D02*
X108745399Y-72383816D01*
X108611802Y-72584212D01*
X108478205Y-72717809D01*
X108344607Y-72784607D01*
X110415363Y-72383816D02*
X109747377Y-72383816D01*
X109680579Y-73051802D01*
X109747377Y-72985003D01*
X109880975Y-72918205D01*
X110214967Y-72918205D01*
X110348565Y-72985003D01*
X110415363Y-73051802D01*
X110482162Y-73185399D01*
X110482162Y-73519392D01*
X110415363Y-73652989D01*
X110348565Y-73719787D01*
X110214967Y-73786586D01*
X109880975Y-73786586D01*
X109747377Y-73719787D01*
X109680579Y-73652989D01*
X107810219Y-65658586D02*
X107342629Y-64990600D01*
X107008636Y-65658586D02*
X107008636Y-64255816D01*
X107543025Y-64255816D01*
X107676622Y-64322615D01*
X107743420Y-64389413D01*
X107810219Y-64523010D01*
X107810219Y-64723406D01*
X107743420Y-64857003D01*
X107676622Y-64923802D01*
X107543025Y-64990600D01*
X107008636Y-64990600D01*
X109146190Y-65658586D02*
X108344607Y-65658586D01*
X108745399Y-65658586D02*
X108745399Y-64255816D01*
X108611802Y-64456212D01*
X108478205Y-64589809D01*
X108344607Y-64656607D01*
X110348565Y-64723406D02*
X110348565Y-65658586D01*
X110014572Y-64189017D02*
X109680579Y-65190996D01*
X110548960Y-65190996D01*
D10*
X109926380Y-144406857D02*
X109450190Y-144740190D01*
X109926380Y-144978285D02*
X108926380Y-144978285D01*
X108926380Y-144597333D01*
X108974000Y-144502095D01*
X109021619Y-144454476D01*
X109116857Y-144406857D01*
X109259714Y-144406857D01*
X109354952Y-144454476D01*
X109402571Y-144502095D01*
X109450190Y-144597333D01*
X109450190Y-144978285D01*
X109926380Y-143454476D02*
X109926380Y-144025904D01*
X109926380Y-143740190D02*
X108926380Y-143740190D01*
X109069238Y-143835428D01*
X109164476Y-143930666D01*
X109212095Y-144025904D01*
X108926380Y-143121142D02*
X108926380Y-142502095D01*
X109307333Y-142835428D01*
X109307333Y-142692571D01*
X109354952Y-142597333D01*
X109402571Y-142549714D01*
X109497809Y-142502095D01*
X109735904Y-142502095D01*
X109831142Y-142549714D01*
X109878761Y-142597333D01*
X109926380Y-142692571D01*
X109926380Y-142978285D01*
X109878761Y-143073523D01*
X109831142Y-143121142D01*
X80166380Y-120530857D02*
X79690190Y-120864190D01*
X80166380Y-121102285D02*
X79166380Y-121102285D01*
X79166380Y-120721333D01*
X79214000Y-120626095D01*
X79261619Y-120578476D01*
X79356857Y-120530857D01*
X79499714Y-120530857D01*
X79594952Y-120578476D01*
X79642571Y-120626095D01*
X79690190Y-120721333D01*
X79690190Y-121102285D01*
X80166380Y-119578476D02*
X80166380Y-120149904D01*
X80166380Y-119864190D02*
X79166380Y-119864190D01*
X79309238Y-119959428D01*
X79404476Y-120054666D01*
X79452095Y-120149904D01*
X79261619Y-119197523D02*
X79214000Y-119149904D01*
X79166380Y-119054666D01*
X79166380Y-118816571D01*
X79214000Y-118721333D01*
X79261619Y-118673714D01*
X79356857Y-118626095D01*
X79452095Y-118626095D01*
X79594952Y-118673714D01*
X80166380Y-119245142D01*
X80166380Y-118626095D01*
X140073142Y-93204380D02*
X139739809Y-92728190D01*
X139501714Y-93204380D02*
X139501714Y-92204380D01*
X139882666Y-92204380D01*
X139977904Y-92252000D01*
X140025523Y-92299619D01*
X140073142Y-92394857D01*
X140073142Y-92537714D01*
X140025523Y-92632952D01*
X139977904Y-92680571D01*
X139882666Y-92728190D01*
X139501714Y-92728190D01*
X141025523Y-93204380D02*
X140454095Y-93204380D01*
X140739809Y-93204380D02*
X140739809Y-92204380D01*
X140644571Y-92347238D01*
X140549333Y-92442476D01*
X140454095Y-92490095D01*
X141977904Y-93204380D02*
X141406476Y-93204380D01*
X141692190Y-93204380D02*
X141692190Y-92204380D01*
X141596952Y-92347238D01*
X141501714Y-92442476D01*
X141406476Y-92490095D01*
X147476380Y-118498857D02*
X147000190Y-118832190D01*
X147476380Y-119070285D02*
X146476380Y-119070285D01*
X146476380Y-118689333D01*
X146524000Y-118594095D01*
X146571619Y-118546476D01*
X146666857Y-118498857D01*
X146809714Y-118498857D01*
X146904952Y-118546476D01*
X146952571Y-118594095D01*
X147000190Y-118689333D01*
X147000190Y-119070285D01*
X147476380Y-117546476D02*
X147476380Y-118117904D01*
X147476380Y-117832190D02*
X146476380Y-117832190D01*
X146619238Y-117927428D01*
X146714476Y-118022666D01*
X146762095Y-118117904D01*
X146476380Y-116927428D02*
X146476380Y-116832190D01*
X146524000Y-116736952D01*
X146571619Y-116689333D01*
X146666857Y-116641714D01*
X146857333Y-116594095D01*
X147095428Y-116594095D01*
X147285904Y-116641714D01*
X147381142Y-116689333D01*
X147428761Y-116736952D01*
X147476380Y-116832190D01*
X147476380Y-116927428D01*
X147428761Y-117022666D01*
X147381142Y-117070285D01*
X147285904Y-117117904D01*
X147095428Y-117165523D01*
X146857333Y-117165523D01*
X146666857Y-117117904D01*
X146571619Y-117070285D01*
X146524000Y-117022666D01*
X146476380Y-116927428D01*
X83806380Y-137834666D02*
X83330190Y-138168000D01*
X83806380Y-138406095D02*
X82806380Y-138406095D01*
X82806380Y-138025142D01*
X82854000Y-137929904D01*
X82901619Y-137882285D01*
X82996857Y-137834666D01*
X83139714Y-137834666D01*
X83234952Y-137882285D01*
X83282571Y-137929904D01*
X83330190Y-138025142D01*
X83330190Y-138406095D01*
X83806380Y-137358476D02*
X83806380Y-137168000D01*
X83758761Y-137072761D01*
X83711142Y-137025142D01*
X83568285Y-136929904D01*
X83377809Y-136882285D01*
X82996857Y-136882285D01*
X82901619Y-136929904D01*
X82854000Y-136977523D01*
X82806380Y-137072761D01*
X82806380Y-137263238D01*
X82854000Y-137358476D01*
X82901619Y-137406095D01*
X82996857Y-137453714D01*
X83234952Y-137453714D01*
X83330190Y-137406095D01*
X83377809Y-137358476D01*
X83425428Y-137263238D01*
X83425428Y-137072761D01*
X83377809Y-136977523D01*
X83330190Y-136929904D01*
X83234952Y-136882285D01*
D15*
X87650205Y-65658586D02*
X87182615Y-64990600D01*
X86848622Y-65658586D02*
X86848622Y-64255816D01*
X87383010Y-64255816D01*
X87516607Y-64322615D01*
X87583406Y-64389413D01*
X87650205Y-64523010D01*
X87650205Y-64723406D01*
X87583406Y-64857003D01*
X87516607Y-64923802D01*
X87383010Y-64990600D01*
X86848622Y-64990600D01*
X88852579Y-64255816D02*
X88585385Y-64255816D01*
X88451787Y-64322615D01*
X88384989Y-64389413D01*
X88251392Y-64589809D01*
X88184593Y-64857003D01*
X88184593Y-65391392D01*
X88251392Y-65524989D01*
X88318190Y-65591787D01*
X88451787Y-65658586D01*
X88718982Y-65658586D01*
X88852579Y-65591787D01*
X88919377Y-65524989D01*
X88986176Y-65391392D01*
X88986176Y-65057399D01*
X88919377Y-64923802D01*
X88852579Y-64857003D01*
X88718982Y-64790205D01*
X88451787Y-64790205D01*
X88318190Y-64857003D01*
X88251392Y-64923802D01*
X88184593Y-65057399D01*
X87396205Y-73786586D02*
X86928615Y-73118600D01*
X86594622Y-73786586D02*
X86594622Y-72383816D01*
X87129010Y-72383816D01*
X87262607Y-72450615D01*
X87329406Y-72517413D01*
X87396205Y-72651010D01*
X87396205Y-72851406D01*
X87329406Y-72985003D01*
X87262607Y-73051802D01*
X87129010Y-73118600D01*
X86594622Y-73118600D01*
X88665377Y-72383816D02*
X87997392Y-72383816D01*
X87930593Y-73051802D01*
X87997392Y-72985003D01*
X88130989Y-72918205D01*
X88464982Y-72918205D01*
X88598579Y-72985003D01*
X88665377Y-73051802D01*
X88732176Y-73185399D01*
X88732176Y-73519392D01*
X88665377Y-73652989D01*
X88598579Y-73719787D01*
X88464982Y-73786586D01*
X88130989Y-73786586D01*
X87997392Y-73719787D01*
X87930593Y-73652989D01*
X87396205Y-81660586D02*
X86928615Y-80992600D01*
X86594622Y-81660586D02*
X86594622Y-80257816D01*
X87129010Y-80257816D01*
X87262607Y-80324615D01*
X87329406Y-80391413D01*
X87396205Y-80525010D01*
X87396205Y-80725406D01*
X87329406Y-80859003D01*
X87262607Y-80925802D01*
X87129010Y-80992600D01*
X86594622Y-80992600D01*
X88598579Y-80725406D02*
X88598579Y-81660586D01*
X88264586Y-80191017D02*
X87930593Y-81192996D01*
X88798975Y-81192996D01*
X87396205Y-90042586D02*
X86928615Y-89374600D01*
X86594622Y-90042586D02*
X86594622Y-88639816D01*
X87129010Y-88639816D01*
X87262607Y-88706615D01*
X87329406Y-88773413D01*
X87396205Y-88907010D01*
X87396205Y-89107406D01*
X87329406Y-89241003D01*
X87262607Y-89307802D01*
X87129010Y-89374600D01*
X86594622Y-89374600D01*
X87863795Y-88639816D02*
X88732176Y-88639816D01*
X88264586Y-89174205D01*
X88464982Y-89174205D01*
X88598579Y-89241003D01*
X88665377Y-89307802D01*
X88732176Y-89441399D01*
X88732176Y-89775392D01*
X88665377Y-89908989D01*
X88598579Y-89975787D01*
X88464982Y-90042586D01*
X88064190Y-90042586D01*
X87930593Y-89975787D01*
X87863795Y-89908989D01*
D10*
X96099333Y-62174380D02*
X95766000Y-61698190D01*
X95527904Y-62174380D02*
X95527904Y-61174380D01*
X95908857Y-61174380D01*
X96004095Y-61222000D01*
X96051714Y-61269619D01*
X96099333Y-61364857D01*
X96099333Y-61507714D01*
X96051714Y-61602952D01*
X96004095Y-61650571D01*
X95908857Y-61698190D01*
X95527904Y-61698190D01*
X96480285Y-61269619D02*
X96527904Y-61222000D01*
X96623142Y-61174380D01*
X96861238Y-61174380D01*
X96956476Y-61222000D01*
X97004095Y-61269619D01*
X97051714Y-61364857D01*
X97051714Y-61460095D01*
X97004095Y-61602952D01*
X96432666Y-62174380D01*
X97051714Y-62174380D01*
X98385333Y-62174380D02*
X98052000Y-61698190D01*
X97813904Y-62174380D02*
X97813904Y-61174380D01*
X98194857Y-61174380D01*
X98290095Y-61222000D01*
X98337714Y-61269619D01*
X98385333Y-61364857D01*
X98385333Y-61507714D01*
X98337714Y-61602952D01*
X98290095Y-61650571D01*
X98194857Y-61698190D01*
X97813904Y-61698190D01*
X99337714Y-62174380D02*
X98766285Y-62174380D01*
X99052000Y-62174380D02*
X99052000Y-61174380D01*
X98956761Y-61317238D01*
X98861523Y-61412476D01*
X98766285Y-61460095D01*
X100264666Y-50400380D02*
X100264666Y-51114666D01*
X100217047Y-51257523D01*
X100121809Y-51352761D01*
X99978952Y-51400380D01*
X99883714Y-51400380D01*
X100693238Y-50495619D02*
X100740857Y-50448000D01*
X100836095Y-50400380D01*
X101074190Y-50400380D01*
X101169428Y-50448000D01*
X101217047Y-50495619D01*
X101264666Y-50590857D01*
X101264666Y-50686095D01*
X101217047Y-50828952D01*
X100645619Y-51400380D01*
X101264666Y-51400380D01*
X105862380Y-139422095D02*
X104862380Y-139422095D01*
X104862380Y-139184000D01*
X104910000Y-139041142D01*
X105005238Y-138945904D01*
X105100476Y-138898285D01*
X105290952Y-138850666D01*
X105433809Y-138850666D01*
X105624285Y-138898285D01*
X105719523Y-138945904D01*
X105814761Y-139041142D01*
X105862380Y-139184000D01*
X105862380Y-139422095D01*
X104862380Y-137945904D02*
X104862380Y-138422095D01*
X105338571Y-138469714D01*
X105290952Y-138422095D01*
X105243333Y-138326857D01*
X105243333Y-138088761D01*
X105290952Y-137993523D01*
X105338571Y-137945904D01*
X105433809Y-137898285D01*
X105671904Y-137898285D01*
X105767142Y-137945904D01*
X105814761Y-137993523D01*
X105862380Y-138088761D01*
X105862380Y-138326857D01*
X105814761Y-138422095D01*
X105767142Y-138469714D01*
X82065904Y-124108380D02*
X82065904Y-123108380D01*
X82304000Y-123108380D01*
X82446857Y-123156000D01*
X82542095Y-123251238D01*
X82589714Y-123346476D01*
X82637333Y-123536952D01*
X82637333Y-123679809D01*
X82589714Y-123870285D01*
X82542095Y-123965523D01*
X82446857Y-124060761D01*
X82304000Y-124108380D01*
X82065904Y-124108380D01*
X83494476Y-123441714D02*
X83494476Y-124108380D01*
X83256380Y-123060761D02*
X83018285Y-123775047D01*
X83637333Y-123775047D01*
X82065904Y-130712380D02*
X82065904Y-129712380D01*
X82304000Y-129712380D01*
X82446857Y-129760000D01*
X82542095Y-129855238D01*
X82589714Y-129950476D01*
X82637333Y-130140952D01*
X82637333Y-130283809D01*
X82589714Y-130474285D01*
X82542095Y-130569523D01*
X82446857Y-130664761D01*
X82304000Y-130712380D01*
X82065904Y-130712380D01*
X82970666Y-129712380D02*
X83589714Y-129712380D01*
X83256380Y-130093333D01*
X83399238Y-130093333D01*
X83494476Y-130140952D01*
X83542095Y-130188571D01*
X83589714Y-130283809D01*
X83589714Y-130521904D01*
X83542095Y-130617142D01*
X83494476Y-130664761D01*
X83399238Y-130712380D01*
X83113523Y-130712380D01*
X83018285Y-130664761D01*
X82970666Y-130617142D01*
X92400380Y-56240095D02*
X91400380Y-56240095D01*
X91400380Y-56002000D01*
X91448000Y-55859142D01*
X91543238Y-55763904D01*
X91638476Y-55716285D01*
X91828952Y-55668666D01*
X91971809Y-55668666D01*
X92162285Y-55716285D01*
X92257523Y-55763904D01*
X92352761Y-55859142D01*
X92400380Y-56002000D01*
X92400380Y-56240095D01*
X91495619Y-55287714D02*
X91448000Y-55240095D01*
X91400380Y-55144857D01*
X91400380Y-54906761D01*
X91448000Y-54811523D01*
X91495619Y-54763904D01*
X91590857Y-54716285D01*
X91686095Y-54716285D01*
X91828952Y-54763904D01*
X92400380Y-55335333D01*
X92400380Y-54716285D01*
X96718380Y-56240095D02*
X95718380Y-56240095D01*
X95718380Y-56002000D01*
X95766000Y-55859142D01*
X95861238Y-55763904D01*
X95956476Y-55716285D01*
X96146952Y-55668666D01*
X96289809Y-55668666D01*
X96480285Y-55716285D01*
X96575523Y-55763904D01*
X96670761Y-55859142D01*
X96718380Y-56002000D01*
X96718380Y-56240095D01*
X96718380Y-54716285D02*
X96718380Y-55287714D01*
X96718380Y-55002000D02*
X95718380Y-55002000D01*
X95861238Y-55097238D01*
X95956476Y-55192476D01*
X96004095Y-55287714D01*
X109577142Y-118244857D02*
X109624761Y-118292476D01*
X109672380Y-118435333D01*
X109672380Y-118530571D01*
X109624761Y-118673428D01*
X109529523Y-118768666D01*
X109434285Y-118816285D01*
X109243809Y-118863904D01*
X109100952Y-118863904D01*
X108910476Y-118816285D01*
X108815238Y-118768666D01*
X108720000Y-118673428D01*
X108672380Y-118530571D01*
X108672380Y-118435333D01*
X108720000Y-118292476D01*
X108767619Y-118244857D01*
X108767619Y-117863904D02*
X108720000Y-117816285D01*
X108672380Y-117721047D01*
X108672380Y-117482952D01*
X108720000Y-117387714D01*
X108767619Y-117340095D01*
X108862857Y-117292476D01*
X108958095Y-117292476D01*
X109100952Y-117340095D01*
X109672380Y-117911523D01*
X109672380Y-117292476D01*
X108672380Y-116673428D02*
X108672380Y-116578190D01*
X108720000Y-116482952D01*
X108767619Y-116435333D01*
X108862857Y-116387714D01*
X109053333Y-116340095D01*
X109291428Y-116340095D01*
X109481904Y-116387714D01*
X109577142Y-116435333D01*
X109624761Y-116482952D01*
X109672380Y-116578190D01*
X109672380Y-116673428D01*
X109624761Y-116768666D01*
X109577142Y-116816285D01*
X109481904Y-116863904D01*
X109291428Y-116911523D01*
X109053333Y-116911523D01*
X108862857Y-116863904D01*
X108767619Y-116816285D01*
X108720000Y-116768666D01*
X108672380Y-116673428D01*
X109577142Y-97162857D02*
X109624761Y-97210476D01*
X109672380Y-97353333D01*
X109672380Y-97448571D01*
X109624761Y-97591428D01*
X109529523Y-97686666D01*
X109434285Y-97734285D01*
X109243809Y-97781904D01*
X109100952Y-97781904D01*
X108910476Y-97734285D01*
X108815238Y-97686666D01*
X108720000Y-97591428D01*
X108672380Y-97448571D01*
X108672380Y-97353333D01*
X108720000Y-97210476D01*
X108767619Y-97162857D01*
X109672380Y-96210476D02*
X109672380Y-96781904D01*
X109672380Y-96496190D02*
X108672380Y-96496190D01*
X108815238Y-96591428D01*
X108910476Y-96686666D01*
X108958095Y-96781904D01*
X109672380Y-95734285D02*
X109672380Y-95543809D01*
X109624761Y-95448571D01*
X109577142Y-95400952D01*
X109434285Y-95305714D01*
X109243809Y-95258095D01*
X108862857Y-95258095D01*
X108767619Y-95305714D01*
X108720000Y-95353333D01*
X108672380Y-95448571D01*
X108672380Y-95639047D01*
X108720000Y-95734285D01*
X108767619Y-95781904D01*
X108862857Y-95829523D01*
X109100952Y-95829523D01*
X109196190Y-95781904D01*
X109243809Y-95734285D01*
X109291428Y-95639047D01*
X109291428Y-95448571D01*
X109243809Y-95353333D01*
X109196190Y-95305714D01*
X109100952Y-95258095D01*
X114657142Y-97162857D02*
X114704761Y-97210476D01*
X114752380Y-97353333D01*
X114752380Y-97448571D01*
X114704761Y-97591428D01*
X114609523Y-97686666D01*
X114514285Y-97734285D01*
X114323809Y-97781904D01*
X114180952Y-97781904D01*
X113990476Y-97734285D01*
X113895238Y-97686666D01*
X113800000Y-97591428D01*
X113752380Y-97448571D01*
X113752380Y-97353333D01*
X113800000Y-97210476D01*
X113847619Y-97162857D01*
X114752380Y-96210476D02*
X114752380Y-96781904D01*
X114752380Y-96496190D02*
X113752380Y-96496190D01*
X113895238Y-96591428D01*
X113990476Y-96686666D01*
X114038095Y-96781904D01*
X114180952Y-95639047D02*
X114133333Y-95734285D01*
X114085714Y-95781904D01*
X113990476Y-95829523D01*
X113942857Y-95829523D01*
X113847619Y-95781904D01*
X113800000Y-95734285D01*
X113752380Y-95639047D01*
X113752380Y-95448571D01*
X113800000Y-95353333D01*
X113847619Y-95305714D01*
X113942857Y-95258095D01*
X113990476Y-95258095D01*
X114085714Y-95305714D01*
X114133333Y-95353333D01*
X114180952Y-95448571D01*
X114180952Y-95639047D01*
X114228571Y-95734285D01*
X114276190Y-95781904D01*
X114371428Y-95829523D01*
X114561904Y-95829523D01*
X114657142Y-95781904D01*
X114704761Y-95734285D01*
X114752380Y-95639047D01*
X114752380Y-95448571D01*
X114704761Y-95353333D01*
X114657142Y-95305714D01*
X114561904Y-95258095D01*
X114371428Y-95258095D01*
X114276190Y-95305714D01*
X114228571Y-95353333D01*
X114180952Y-95448571D01*
X114657142Y-118244857D02*
X114704761Y-118292476D01*
X114752380Y-118435333D01*
X114752380Y-118530571D01*
X114704761Y-118673428D01*
X114609523Y-118768666D01*
X114514285Y-118816285D01*
X114323809Y-118863904D01*
X114180952Y-118863904D01*
X113990476Y-118816285D01*
X113895238Y-118768666D01*
X113800000Y-118673428D01*
X113752380Y-118530571D01*
X113752380Y-118435333D01*
X113800000Y-118292476D01*
X113847619Y-118244857D01*
X114752380Y-117292476D02*
X114752380Y-117863904D01*
X114752380Y-117578190D02*
X113752380Y-117578190D01*
X113895238Y-117673428D01*
X113990476Y-117768666D01*
X114038095Y-117863904D01*
X113752380Y-116959142D02*
X113752380Y-116292476D01*
X114752380Y-116721047D01*
X112117142Y-97162857D02*
X112164761Y-97210476D01*
X112212380Y-97353333D01*
X112212380Y-97448571D01*
X112164761Y-97591428D01*
X112069523Y-97686666D01*
X111974285Y-97734285D01*
X111783809Y-97781904D01*
X111640952Y-97781904D01*
X111450476Y-97734285D01*
X111355238Y-97686666D01*
X111260000Y-97591428D01*
X111212380Y-97448571D01*
X111212380Y-97353333D01*
X111260000Y-97210476D01*
X111307619Y-97162857D01*
X112212380Y-96210476D02*
X112212380Y-96781904D01*
X112212380Y-96496190D02*
X111212380Y-96496190D01*
X111355238Y-96591428D01*
X111450476Y-96686666D01*
X111498095Y-96781904D01*
X111212380Y-95353333D02*
X111212380Y-95543809D01*
X111260000Y-95639047D01*
X111307619Y-95686666D01*
X111450476Y-95781904D01*
X111640952Y-95829523D01*
X112021904Y-95829523D01*
X112117142Y-95781904D01*
X112164761Y-95734285D01*
X112212380Y-95639047D01*
X112212380Y-95448571D01*
X112164761Y-95353333D01*
X112117142Y-95305714D01*
X112021904Y-95258095D01*
X111783809Y-95258095D01*
X111688571Y-95305714D01*
X111640952Y-95353333D01*
X111593333Y-95448571D01*
X111593333Y-95639047D01*
X111640952Y-95734285D01*
X111688571Y-95781904D01*
X111783809Y-95829523D01*
X112117142Y-118244857D02*
X112164761Y-118292476D01*
X112212380Y-118435333D01*
X112212380Y-118530571D01*
X112164761Y-118673428D01*
X112069523Y-118768666D01*
X111974285Y-118816285D01*
X111783809Y-118863904D01*
X111640952Y-118863904D01*
X111450476Y-118816285D01*
X111355238Y-118768666D01*
X111260000Y-118673428D01*
X111212380Y-118530571D01*
X111212380Y-118435333D01*
X111260000Y-118292476D01*
X111307619Y-118244857D01*
X112212380Y-117292476D02*
X112212380Y-117863904D01*
X112212380Y-117578190D02*
X111212380Y-117578190D01*
X111355238Y-117673428D01*
X111450476Y-117768666D01*
X111498095Y-117863904D01*
X111212380Y-116387714D02*
X111212380Y-116863904D01*
X111688571Y-116911523D01*
X111640952Y-116863904D01*
X111593333Y-116768666D01*
X111593333Y-116530571D01*
X111640952Y-116435333D01*
X111688571Y-116387714D01*
X111783809Y-116340095D01*
X112021904Y-116340095D01*
X112117142Y-116387714D01*
X112164761Y-116435333D01*
X112212380Y-116530571D01*
X112212380Y-116768666D01*
X112164761Y-116863904D01*
X112117142Y-116911523D01*
X151503142Y-181459142D02*
X151455523Y-181506761D01*
X151312666Y-181554380D01*
X151217428Y-181554380D01*
X151074571Y-181506761D01*
X150979333Y-181411523D01*
X150931714Y-181316285D01*
X150884095Y-181125809D01*
X150884095Y-180982952D01*
X150931714Y-180792476D01*
X150979333Y-180697238D01*
X151074571Y-180602000D01*
X151217428Y-180554380D01*
X151312666Y-180554380D01*
X151455523Y-180602000D01*
X151503142Y-180649619D01*
X152455523Y-181554380D02*
X151884095Y-181554380D01*
X152169809Y-181554380D02*
X152169809Y-180554380D01*
X152074571Y-180697238D01*
X151979333Y-180792476D01*
X151884095Y-180840095D01*
X153312666Y-180887714D02*
X153312666Y-181554380D01*
X153074571Y-180506761D02*
X152836476Y-181221047D01*
X153455523Y-181221047D01*
X149725142Y-71181142D02*
X149677523Y-71228761D01*
X149534666Y-71276380D01*
X149439428Y-71276380D01*
X149296571Y-71228761D01*
X149201333Y-71133523D01*
X149153714Y-71038285D01*
X149106095Y-70847809D01*
X149106095Y-70704952D01*
X149153714Y-70514476D01*
X149201333Y-70419238D01*
X149296571Y-70324000D01*
X149439428Y-70276380D01*
X149534666Y-70276380D01*
X149677523Y-70324000D01*
X149725142Y-70371619D01*
X150677523Y-71276380D02*
X150106095Y-71276380D01*
X150391809Y-71276380D02*
X150391809Y-70276380D01*
X150296571Y-70419238D01*
X150201333Y-70514476D01*
X150106095Y-70562095D01*
X151010857Y-70276380D02*
X151629904Y-70276380D01*
X151296571Y-70657333D01*
X151439428Y-70657333D01*
X151534666Y-70704952D01*
X151582285Y-70752571D01*
X151629904Y-70847809D01*
X151629904Y-71085904D01*
X151582285Y-71181142D01*
X151534666Y-71228761D01*
X151439428Y-71276380D01*
X151153714Y-71276380D01*
X151058476Y-71228761D01*
X151010857Y-71181142D01*
X146407142Y-81414857D02*
X146454761Y-81462476D01*
X146502380Y-81605333D01*
X146502380Y-81700571D01*
X146454761Y-81843428D01*
X146359523Y-81938666D01*
X146264285Y-81986285D01*
X146073809Y-82033904D01*
X145930952Y-82033904D01*
X145740476Y-81986285D01*
X145645238Y-81938666D01*
X145550000Y-81843428D01*
X145502380Y-81700571D01*
X145502380Y-81605333D01*
X145550000Y-81462476D01*
X145597619Y-81414857D01*
X146502380Y-80462476D02*
X146502380Y-81033904D01*
X146502380Y-80748190D02*
X145502380Y-80748190D01*
X145645238Y-80843428D01*
X145740476Y-80938666D01*
X145788095Y-81033904D01*
X145502380Y-79843428D02*
X145502380Y-79748190D01*
X145550000Y-79652952D01*
X145597619Y-79605333D01*
X145692857Y-79557714D01*
X145883333Y-79510095D01*
X146121428Y-79510095D01*
X146311904Y-79557714D01*
X146407142Y-79605333D01*
X146454761Y-79652952D01*
X146502380Y-79748190D01*
X146502380Y-79843428D01*
X146454761Y-79938666D01*
X146407142Y-79986285D01*
X146311904Y-80033904D01*
X146121428Y-80081523D01*
X145883333Y-80081523D01*
X145692857Y-80033904D01*
X145597619Y-79986285D01*
X145550000Y-79938666D01*
X145502380Y-79843428D01*
X150471142Y-186094666D02*
X150518761Y-186142285D01*
X150566380Y-186285142D01*
X150566380Y-186380380D01*
X150518761Y-186523238D01*
X150423523Y-186618476D01*
X150328285Y-186666095D01*
X150137809Y-186713714D01*
X149994952Y-186713714D01*
X149804476Y-186666095D01*
X149709238Y-186618476D01*
X149614000Y-186523238D01*
X149566380Y-186380380D01*
X149566380Y-186285142D01*
X149614000Y-186142285D01*
X149661619Y-186094666D01*
X150566380Y-185618476D02*
X150566380Y-185428000D01*
X150518761Y-185332761D01*
X150471142Y-185285142D01*
X150328285Y-185189904D01*
X150137809Y-185142285D01*
X149756857Y-185142285D01*
X149661619Y-185189904D01*
X149614000Y-185237523D01*
X149566380Y-185332761D01*
X149566380Y-185523238D01*
X149614000Y-185618476D01*
X149661619Y-185666095D01*
X149756857Y-185713714D01*
X149994952Y-185713714D01*
X150090190Y-185666095D01*
X150137809Y-185618476D01*
X150185428Y-185523238D01*
X150185428Y-185332761D01*
X150137809Y-185237523D01*
X150090190Y-185189904D01*
X149994952Y-185142285D01*
X149201142Y-80430666D02*
X149248761Y-80478285D01*
X149296380Y-80621142D01*
X149296380Y-80716380D01*
X149248761Y-80859238D01*
X149153523Y-80954476D01*
X149058285Y-81002095D01*
X148867809Y-81049714D01*
X148724952Y-81049714D01*
X148534476Y-81002095D01*
X148439238Y-80954476D01*
X148344000Y-80859238D01*
X148296380Y-80716380D01*
X148296380Y-80621142D01*
X148344000Y-80478285D01*
X148391619Y-80430666D01*
X148724952Y-79859238D02*
X148677333Y-79954476D01*
X148629714Y-80002095D01*
X148534476Y-80049714D01*
X148486857Y-80049714D01*
X148391619Y-80002095D01*
X148344000Y-79954476D01*
X148296380Y-79859238D01*
X148296380Y-79668761D01*
X148344000Y-79573523D01*
X148391619Y-79525904D01*
X148486857Y-79478285D01*
X148534476Y-79478285D01*
X148629714Y-79525904D01*
X148677333Y-79573523D01*
X148724952Y-79668761D01*
X148724952Y-79859238D01*
X148772571Y-79954476D01*
X148820190Y-80002095D01*
X148915428Y-80049714D01*
X149105904Y-80049714D01*
X149201142Y-80002095D01*
X149248761Y-79954476D01*
X149296380Y-79859238D01*
X149296380Y-79668761D01*
X149248761Y-79573523D01*
X149201142Y-79525904D01*
X149105904Y-79478285D01*
X148915428Y-79478285D01*
X148820190Y-79525904D01*
X148772571Y-79573523D01*
X148724952Y-79668761D01*
X143867142Y-186094666D02*
X143914761Y-186142285D01*
X143962380Y-186285142D01*
X143962380Y-186380380D01*
X143914761Y-186523238D01*
X143819523Y-186618476D01*
X143724285Y-186666095D01*
X143533809Y-186713714D01*
X143390952Y-186713714D01*
X143200476Y-186666095D01*
X143105238Y-186618476D01*
X143010000Y-186523238D01*
X142962380Y-186380380D01*
X142962380Y-186285142D01*
X143010000Y-186142285D01*
X143057619Y-186094666D01*
X142962380Y-185761333D02*
X142962380Y-185094666D01*
X143962380Y-185523238D01*
X151995142Y-114466666D02*
X152042761Y-114514285D01*
X152090380Y-114657142D01*
X152090380Y-114752380D01*
X152042761Y-114895238D01*
X151947523Y-114990476D01*
X151852285Y-115038095D01*
X151661809Y-115085714D01*
X151518952Y-115085714D01*
X151328476Y-115038095D01*
X151233238Y-114990476D01*
X151138000Y-114895238D01*
X151090380Y-114752380D01*
X151090380Y-114657142D01*
X151138000Y-114514285D01*
X151185619Y-114466666D01*
X151090380Y-113609523D02*
X151090380Y-113800000D01*
X151138000Y-113895238D01*
X151185619Y-113942857D01*
X151328476Y-114038095D01*
X151518952Y-114085714D01*
X151899904Y-114085714D01*
X151995142Y-114038095D01*
X152042761Y-113990476D01*
X152090380Y-113895238D01*
X152090380Y-113704761D01*
X152042761Y-113609523D01*
X151995142Y-113561904D01*
X151899904Y-113514285D01*
X151661809Y-113514285D01*
X151566571Y-113561904D01*
X151518952Y-113609523D01*
X151471333Y-113704761D01*
X151471333Y-113895238D01*
X151518952Y-113990476D01*
X151566571Y-114038095D01*
X151661809Y-114085714D01*
X151233142Y-91352666D02*
X151280761Y-91400285D01*
X151328380Y-91543142D01*
X151328380Y-91638380D01*
X151280761Y-91781238D01*
X151185523Y-91876476D01*
X151090285Y-91924095D01*
X150899809Y-91971714D01*
X150756952Y-91971714D01*
X150566476Y-91924095D01*
X150471238Y-91876476D01*
X150376000Y-91781238D01*
X150328380Y-91638380D01*
X150328380Y-91543142D01*
X150376000Y-91400285D01*
X150423619Y-91352666D01*
X150328380Y-90447904D02*
X150328380Y-90924095D01*
X150804571Y-90971714D01*
X150756952Y-90924095D01*
X150709333Y-90828857D01*
X150709333Y-90590761D01*
X150756952Y-90495523D01*
X150804571Y-90447904D01*
X150899809Y-90400285D01*
X151137904Y-90400285D01*
X151233142Y-90447904D01*
X151280761Y-90495523D01*
X151328380Y-90590761D01*
X151328380Y-90828857D01*
X151280761Y-90924095D01*
X151233142Y-90971714D01*
X146661142Y-83732666D02*
X146708761Y-83780285D01*
X146756380Y-83923142D01*
X146756380Y-84018380D01*
X146708761Y-84161238D01*
X146613523Y-84256476D01*
X146518285Y-84304095D01*
X146327809Y-84351714D01*
X146184952Y-84351714D01*
X145994476Y-84304095D01*
X145899238Y-84256476D01*
X145804000Y-84161238D01*
X145756380Y-84018380D01*
X145756380Y-83923142D01*
X145804000Y-83780285D01*
X145851619Y-83732666D01*
X146089714Y-82875523D02*
X146756380Y-82875523D01*
X145708761Y-83113619D02*
X146423047Y-83351714D01*
X146423047Y-82732666D01*
X149201142Y-112434666D02*
X149248761Y-112482285D01*
X149296380Y-112625142D01*
X149296380Y-112720380D01*
X149248761Y-112863238D01*
X149153523Y-112958476D01*
X149058285Y-113006095D01*
X148867809Y-113053714D01*
X148724952Y-113053714D01*
X148534476Y-113006095D01*
X148439238Y-112958476D01*
X148344000Y-112863238D01*
X148296380Y-112720380D01*
X148296380Y-112625142D01*
X148344000Y-112482285D01*
X148391619Y-112434666D01*
X148296380Y-112101333D02*
X148296380Y-111482285D01*
X148677333Y-111815619D01*
X148677333Y-111672761D01*
X148724952Y-111577523D01*
X148772571Y-111529904D01*
X148867809Y-111482285D01*
X149105904Y-111482285D01*
X149201142Y-111529904D01*
X149248761Y-111577523D01*
X149296380Y-111672761D01*
X149296380Y-111958476D01*
X149248761Y-112053714D01*
X149201142Y-112101333D01*
X142809142Y-112434666D02*
X142856761Y-112482285D01*
X142904380Y-112625142D01*
X142904380Y-112720380D01*
X142856761Y-112863238D01*
X142761523Y-112958476D01*
X142666285Y-113006095D01*
X142475809Y-113053714D01*
X142332952Y-113053714D01*
X142142476Y-113006095D01*
X142047238Y-112958476D01*
X141952000Y-112863238D01*
X141904380Y-112720380D01*
X141904380Y-112625142D01*
X141952000Y-112482285D01*
X141999619Y-112434666D01*
X141999619Y-112053714D02*
X141952000Y-112006095D01*
X141904380Y-111910857D01*
X141904380Y-111672761D01*
X141952000Y-111577523D01*
X141999619Y-111529904D01*
X142094857Y-111482285D01*
X142190095Y-111482285D01*
X142332952Y-111529904D01*
X142904380Y-112101333D01*
X142904380Y-111482285D01*
X144121142Y-83732666D02*
X144168761Y-83780285D01*
X144216380Y-83923142D01*
X144216380Y-84018380D01*
X144168761Y-84161238D01*
X144073523Y-84256476D01*
X143978285Y-84304095D01*
X143787809Y-84351714D01*
X143644952Y-84351714D01*
X143454476Y-84304095D01*
X143359238Y-84256476D01*
X143264000Y-84161238D01*
X143216380Y-84018380D01*
X143216380Y-83923142D01*
X143264000Y-83780285D01*
X143311619Y-83732666D01*
X144216380Y-82780285D02*
X144216380Y-83351714D01*
X144216380Y-83066000D02*
X143216380Y-83066000D01*
X143359238Y-83161238D01*
X143454476Y-83256476D01*
X143502095Y-83351714D01*
M02*
