%TF.GenerationSoftware,KiCad,Pcbnew,(5.1.0)-1*%
%TF.CreationDate,2019-04-29T18:51:34+10:00*%
%TF.ProjectId,CT2960_Riser,43543239-3630-45f5-9269-7365722e6b69,rev?*%
%TF.SameCoordinates,Original*%
%TF.FileFunction,Soldermask,Top*%
%TF.FilePolarity,Negative*%
%FSLAX46Y46*%
G04 Gerber Fmt 4.6, Leading zero omitted, Abs format (unit mm)*
G04 Created by KiCad (PCBNEW (5.1.0)-1) date 2019-04-29 18:51:34*
%MOMM*%
%LPD*%
G04 APERTURE LIST*
%ADD10O,1.750000X1.750000*%
%ADD11C,0.150000*%
%ADD12C,1.600000*%
%ADD13R,1.700000X1.700000*%
%ADD14O,1.700000X1.700000*%
%ADD15R,1.560000X0.650000*%
%ADD16C,1.425000*%
%ADD17R,1.200000X0.400000*%
%ADD18R,4.500000X3.400000*%
%ADD19C,2.700000*%
%ADD20O,2.700000X3.300000*%
%ADD21C,1.250000*%
G04 APERTURE END LIST*
D10*
X135890000Y-183642000D03*
X135890000Y-181102000D03*
X135890000Y-178562000D03*
X135890000Y-176022000D03*
X135890000Y-173482000D03*
X135890000Y-170942000D03*
X135890000Y-168402000D03*
X135890000Y-165862000D03*
X135890000Y-163322000D03*
X135890000Y-160782000D03*
X135890000Y-158242000D03*
X135890000Y-155702000D03*
X135890000Y-153162000D03*
X135890000Y-150622000D03*
X135890000Y-148082000D03*
X135890000Y-145542000D03*
X135890000Y-143002000D03*
X135890000Y-140462000D03*
X130810000Y-183642000D03*
X130810000Y-181102000D03*
X130810000Y-178562000D03*
X130810000Y-176022000D03*
X130810000Y-173482000D03*
X130810000Y-170942000D03*
X130810000Y-168402000D03*
X130810000Y-165862000D03*
X130810000Y-163322000D03*
X130810000Y-160782000D03*
X130810000Y-158242000D03*
X130810000Y-155702000D03*
X130810000Y-153162000D03*
X130810000Y-150622000D03*
X130810000Y-148082000D03*
X130810000Y-145542000D03*
X130810000Y-143002000D03*
X130810000Y-140462000D03*
X135890000Y-130302000D03*
X135890000Y-127762000D03*
X135890000Y-125222000D03*
X135890000Y-122682000D03*
X135890000Y-120142000D03*
X135890000Y-117602000D03*
X135890000Y-115062000D03*
X135890000Y-112522000D03*
X135890000Y-109982000D03*
X135890000Y-107442000D03*
X135890000Y-104902000D03*
X135890000Y-102362000D03*
X135890000Y-99822000D03*
X135890000Y-79502000D03*
X135890000Y-66802000D03*
X135890000Y-97282000D03*
X135890000Y-76962000D03*
X135890000Y-89662000D03*
X135890000Y-92202000D03*
X135890000Y-94742000D03*
X135890000Y-82042000D03*
X135890000Y-74422000D03*
X135890000Y-71882000D03*
X135890000Y-69342000D03*
X135890000Y-84582000D03*
X135890000Y-87122000D03*
X135890000Y-59182000D03*
X135890000Y-64262000D03*
X135890000Y-61722000D03*
X135890000Y-54102000D03*
X135890000Y-56642000D03*
X130810000Y-130302000D03*
X130810000Y-127762000D03*
X130810000Y-125222000D03*
X130810000Y-122682000D03*
X130810000Y-120142000D03*
X130810000Y-117602000D03*
X130810000Y-115062000D03*
X130810000Y-112522000D03*
X130810000Y-109982000D03*
X130810000Y-107442000D03*
X130810000Y-104902000D03*
X130810000Y-102362000D03*
X130810000Y-99822000D03*
X130810000Y-97282000D03*
X130810000Y-94742000D03*
X130810000Y-92202000D03*
X130810000Y-89662000D03*
X130810000Y-87122000D03*
X130810000Y-84582000D03*
X130810000Y-82042000D03*
X130810000Y-79502000D03*
X130810000Y-76962000D03*
X130810000Y-74422000D03*
X130810000Y-71882000D03*
X130810000Y-69342000D03*
X130810000Y-66802000D03*
X130810000Y-64262000D03*
X130810000Y-61722000D03*
X130810000Y-59182000D03*
X130810000Y-56642000D03*
X130810000Y-54102000D03*
D11*
G36*
X125542504Y-61461204D02*
G01*
X125566773Y-61464804D01*
X125590571Y-61470765D01*
X125613671Y-61479030D01*
X125635849Y-61489520D01*
X125656893Y-61502133D01*
X125676598Y-61516747D01*
X125694777Y-61533223D01*
X125711253Y-61551402D01*
X125725867Y-61571107D01*
X125738480Y-61592151D01*
X125748970Y-61614329D01*
X125757235Y-61637429D01*
X125763196Y-61661227D01*
X125766796Y-61685496D01*
X125768000Y-61710000D01*
X125768000Y-63810000D01*
X125766796Y-63834504D01*
X125763196Y-63858773D01*
X125757235Y-63882571D01*
X125748970Y-63905671D01*
X125738480Y-63927849D01*
X125725867Y-63948893D01*
X125711253Y-63968598D01*
X125694777Y-63986777D01*
X125676598Y-64003253D01*
X125656893Y-64017867D01*
X125635849Y-64030480D01*
X125613671Y-64040970D01*
X125590571Y-64049235D01*
X125566773Y-64055196D01*
X125542504Y-64058796D01*
X125518000Y-64060000D01*
X124418000Y-64060000D01*
X124393496Y-64058796D01*
X124369227Y-64055196D01*
X124345429Y-64049235D01*
X124322329Y-64040970D01*
X124300151Y-64030480D01*
X124279107Y-64017867D01*
X124259402Y-64003253D01*
X124241223Y-63986777D01*
X124224747Y-63968598D01*
X124210133Y-63948893D01*
X124197520Y-63927849D01*
X124187030Y-63905671D01*
X124178765Y-63882571D01*
X124172804Y-63858773D01*
X124169204Y-63834504D01*
X124168000Y-63810000D01*
X124168000Y-61710000D01*
X124169204Y-61685496D01*
X124172804Y-61661227D01*
X124178765Y-61637429D01*
X124187030Y-61614329D01*
X124197520Y-61592151D01*
X124210133Y-61571107D01*
X124224747Y-61551402D01*
X124241223Y-61533223D01*
X124259402Y-61516747D01*
X124279107Y-61502133D01*
X124300151Y-61489520D01*
X124322329Y-61479030D01*
X124345429Y-61470765D01*
X124369227Y-61464804D01*
X124393496Y-61461204D01*
X124418000Y-61460000D01*
X125518000Y-61460000D01*
X125542504Y-61461204D01*
X125542504Y-61461204D01*
G37*
D12*
X124968000Y-62760000D03*
D11*
G36*
X125542504Y-57861204D02*
G01*
X125566773Y-57864804D01*
X125590571Y-57870765D01*
X125613671Y-57879030D01*
X125635849Y-57889520D01*
X125656893Y-57902133D01*
X125676598Y-57916747D01*
X125694777Y-57933223D01*
X125711253Y-57951402D01*
X125725867Y-57971107D01*
X125738480Y-57992151D01*
X125748970Y-58014329D01*
X125757235Y-58037429D01*
X125763196Y-58061227D01*
X125766796Y-58085496D01*
X125768000Y-58110000D01*
X125768000Y-60210000D01*
X125766796Y-60234504D01*
X125763196Y-60258773D01*
X125757235Y-60282571D01*
X125748970Y-60305671D01*
X125738480Y-60327849D01*
X125725867Y-60348893D01*
X125711253Y-60368598D01*
X125694777Y-60386777D01*
X125676598Y-60403253D01*
X125656893Y-60417867D01*
X125635849Y-60430480D01*
X125613671Y-60440970D01*
X125590571Y-60449235D01*
X125566773Y-60455196D01*
X125542504Y-60458796D01*
X125518000Y-60460000D01*
X124418000Y-60460000D01*
X124393496Y-60458796D01*
X124369227Y-60455196D01*
X124345429Y-60449235D01*
X124322329Y-60440970D01*
X124300151Y-60430480D01*
X124279107Y-60417867D01*
X124259402Y-60403253D01*
X124241223Y-60386777D01*
X124224747Y-60368598D01*
X124210133Y-60348893D01*
X124197520Y-60327849D01*
X124187030Y-60305671D01*
X124178765Y-60282571D01*
X124172804Y-60258773D01*
X124169204Y-60234504D01*
X124168000Y-60210000D01*
X124168000Y-58110000D01*
X124169204Y-58085496D01*
X124172804Y-58061227D01*
X124178765Y-58037429D01*
X124187030Y-58014329D01*
X124197520Y-57992151D01*
X124210133Y-57971107D01*
X124224747Y-57951402D01*
X124241223Y-57933223D01*
X124259402Y-57916747D01*
X124279107Y-57902133D01*
X124300151Y-57889520D01*
X124322329Y-57879030D01*
X124345429Y-57870765D01*
X124369227Y-57864804D01*
X124393496Y-57861204D01*
X124418000Y-57860000D01*
X125518000Y-57860000D01*
X125542504Y-57861204D01*
X125542504Y-57861204D01*
G37*
D12*
X124968000Y-59160000D03*
D11*
G36*
X125542504Y-76955204D02*
G01*
X125566773Y-76958804D01*
X125590571Y-76964765D01*
X125613671Y-76973030D01*
X125635849Y-76983520D01*
X125656893Y-76996133D01*
X125676598Y-77010747D01*
X125694777Y-77027223D01*
X125711253Y-77045402D01*
X125725867Y-77065107D01*
X125738480Y-77086151D01*
X125748970Y-77108329D01*
X125757235Y-77131429D01*
X125763196Y-77155227D01*
X125766796Y-77179496D01*
X125768000Y-77204000D01*
X125768000Y-79304000D01*
X125766796Y-79328504D01*
X125763196Y-79352773D01*
X125757235Y-79376571D01*
X125748970Y-79399671D01*
X125738480Y-79421849D01*
X125725867Y-79442893D01*
X125711253Y-79462598D01*
X125694777Y-79480777D01*
X125676598Y-79497253D01*
X125656893Y-79511867D01*
X125635849Y-79524480D01*
X125613671Y-79534970D01*
X125590571Y-79543235D01*
X125566773Y-79549196D01*
X125542504Y-79552796D01*
X125518000Y-79554000D01*
X124418000Y-79554000D01*
X124393496Y-79552796D01*
X124369227Y-79549196D01*
X124345429Y-79543235D01*
X124322329Y-79534970D01*
X124300151Y-79524480D01*
X124279107Y-79511867D01*
X124259402Y-79497253D01*
X124241223Y-79480777D01*
X124224747Y-79462598D01*
X124210133Y-79442893D01*
X124197520Y-79421849D01*
X124187030Y-79399671D01*
X124178765Y-79376571D01*
X124172804Y-79352773D01*
X124169204Y-79328504D01*
X124168000Y-79304000D01*
X124168000Y-77204000D01*
X124169204Y-77179496D01*
X124172804Y-77155227D01*
X124178765Y-77131429D01*
X124187030Y-77108329D01*
X124197520Y-77086151D01*
X124210133Y-77065107D01*
X124224747Y-77045402D01*
X124241223Y-77027223D01*
X124259402Y-77010747D01*
X124279107Y-76996133D01*
X124300151Y-76983520D01*
X124322329Y-76973030D01*
X124345429Y-76964765D01*
X124369227Y-76958804D01*
X124393496Y-76955204D01*
X124418000Y-76954000D01*
X125518000Y-76954000D01*
X125542504Y-76955204D01*
X125542504Y-76955204D01*
G37*
D12*
X124968000Y-78254000D03*
D11*
G36*
X125542504Y-73355204D02*
G01*
X125566773Y-73358804D01*
X125590571Y-73364765D01*
X125613671Y-73373030D01*
X125635849Y-73383520D01*
X125656893Y-73396133D01*
X125676598Y-73410747D01*
X125694777Y-73427223D01*
X125711253Y-73445402D01*
X125725867Y-73465107D01*
X125738480Y-73486151D01*
X125748970Y-73508329D01*
X125757235Y-73531429D01*
X125763196Y-73555227D01*
X125766796Y-73579496D01*
X125768000Y-73604000D01*
X125768000Y-75704000D01*
X125766796Y-75728504D01*
X125763196Y-75752773D01*
X125757235Y-75776571D01*
X125748970Y-75799671D01*
X125738480Y-75821849D01*
X125725867Y-75842893D01*
X125711253Y-75862598D01*
X125694777Y-75880777D01*
X125676598Y-75897253D01*
X125656893Y-75911867D01*
X125635849Y-75924480D01*
X125613671Y-75934970D01*
X125590571Y-75943235D01*
X125566773Y-75949196D01*
X125542504Y-75952796D01*
X125518000Y-75954000D01*
X124418000Y-75954000D01*
X124393496Y-75952796D01*
X124369227Y-75949196D01*
X124345429Y-75943235D01*
X124322329Y-75934970D01*
X124300151Y-75924480D01*
X124279107Y-75911867D01*
X124259402Y-75897253D01*
X124241223Y-75880777D01*
X124224747Y-75862598D01*
X124210133Y-75842893D01*
X124197520Y-75821849D01*
X124187030Y-75799671D01*
X124178765Y-75776571D01*
X124172804Y-75752773D01*
X124169204Y-75728504D01*
X124168000Y-75704000D01*
X124168000Y-73604000D01*
X124169204Y-73579496D01*
X124172804Y-73555227D01*
X124178765Y-73531429D01*
X124187030Y-73508329D01*
X124197520Y-73486151D01*
X124210133Y-73465107D01*
X124224747Y-73445402D01*
X124241223Y-73427223D01*
X124259402Y-73410747D01*
X124279107Y-73396133D01*
X124300151Y-73383520D01*
X124322329Y-73373030D01*
X124345429Y-73364765D01*
X124369227Y-73358804D01*
X124393496Y-73355204D01*
X124418000Y-73354000D01*
X125518000Y-73354000D01*
X125542504Y-73355204D01*
X125542504Y-73355204D01*
G37*
D12*
X124968000Y-74654000D03*
D13*
X157680000Y-98998000D03*
D14*
X160220000Y-98998000D03*
X157680000Y-101538000D03*
X160220000Y-101538000D03*
X157680000Y-104078000D03*
X160220000Y-104078000D03*
X157680000Y-106618000D03*
X160220000Y-106618000D03*
X157680000Y-109158000D03*
X160220000Y-109158000D03*
X157680000Y-111698000D03*
X160220000Y-111698000D03*
X157680000Y-114238000D03*
X160220000Y-114238000D03*
X157680000Y-116778000D03*
X160220000Y-116778000D03*
X157680000Y-119318000D03*
X160220000Y-119318000D03*
X157680000Y-121858000D03*
X160220000Y-121858000D03*
X157680000Y-124398000D03*
X160220000Y-124398000D03*
X157680000Y-126938000D03*
X160220000Y-126938000D03*
X157680000Y-129478000D03*
X160220000Y-129478000D03*
X157680000Y-132018000D03*
X160220000Y-132018000D03*
X157680000Y-134558000D03*
X160220000Y-134558000D03*
X157680000Y-137098000D03*
X160220000Y-137098000D03*
X157680000Y-139638000D03*
X160220000Y-139638000D03*
X157680000Y-142178000D03*
X160220000Y-142178000D03*
X157680000Y-144718000D03*
X160220000Y-144718000D03*
X157680000Y-147258000D03*
X160220000Y-147258000D03*
D15*
X87216000Y-126426000D03*
X87216000Y-124526000D03*
X89916000Y-124526000D03*
X89916000Y-125476000D03*
X89916000Y-126426000D03*
D11*
G36*
X124018865Y-129235202D02*
G01*
X124043095Y-129238796D01*
X124066855Y-129244748D01*
X124089918Y-129253000D01*
X124112061Y-129263472D01*
X124133070Y-129276065D01*
X124152745Y-129290657D01*
X124170894Y-129307106D01*
X124187343Y-129325255D01*
X124201935Y-129344930D01*
X124214528Y-129365939D01*
X124225000Y-129388082D01*
X124233252Y-129411145D01*
X124239204Y-129434905D01*
X124242798Y-129459135D01*
X124244000Y-129483600D01*
X124244000Y-131584400D01*
X124242798Y-131608865D01*
X124239204Y-131633095D01*
X124233252Y-131656855D01*
X124225000Y-131679918D01*
X124214528Y-131702061D01*
X124201935Y-131723070D01*
X124187343Y-131742745D01*
X124170894Y-131760894D01*
X124152745Y-131777343D01*
X124133070Y-131791935D01*
X124112061Y-131804528D01*
X124089918Y-131815000D01*
X124066855Y-131823252D01*
X124043095Y-131829204D01*
X124018865Y-131832798D01*
X123994400Y-131834000D01*
X122893600Y-131834000D01*
X122869135Y-131832798D01*
X122844905Y-131829204D01*
X122821145Y-131823252D01*
X122798082Y-131815000D01*
X122775939Y-131804528D01*
X122754930Y-131791935D01*
X122735255Y-131777343D01*
X122717106Y-131760894D01*
X122700657Y-131742745D01*
X122686065Y-131723070D01*
X122673472Y-131702061D01*
X122663000Y-131679918D01*
X122654748Y-131656855D01*
X122648796Y-131633095D01*
X122645202Y-131608865D01*
X122644000Y-131584400D01*
X122644000Y-129483600D01*
X122645202Y-129459135D01*
X122648796Y-129434905D01*
X122654748Y-129411145D01*
X122663000Y-129388082D01*
X122673472Y-129365939D01*
X122686065Y-129344930D01*
X122700657Y-129325255D01*
X122717106Y-129307106D01*
X122735255Y-129290657D01*
X122754930Y-129276065D01*
X122775939Y-129263472D01*
X122798082Y-129253000D01*
X122821145Y-129244748D01*
X122844905Y-129238796D01*
X122869135Y-129235202D01*
X122893600Y-129234000D01*
X123994400Y-129234000D01*
X124018865Y-129235202D01*
X124018865Y-129235202D01*
G37*
D12*
X123444000Y-130534000D03*
D11*
G36*
X124018504Y-132835204D02*
G01*
X124042773Y-132838804D01*
X124066571Y-132844765D01*
X124089671Y-132853030D01*
X124111849Y-132863520D01*
X124132893Y-132876133D01*
X124152598Y-132890747D01*
X124170777Y-132907223D01*
X124187253Y-132925402D01*
X124201867Y-132945107D01*
X124214480Y-132966151D01*
X124224970Y-132988329D01*
X124233235Y-133011429D01*
X124239196Y-133035227D01*
X124242796Y-133059496D01*
X124244000Y-133084000D01*
X124244000Y-135184000D01*
X124242796Y-135208504D01*
X124239196Y-135232773D01*
X124233235Y-135256571D01*
X124224970Y-135279671D01*
X124214480Y-135301849D01*
X124201867Y-135322893D01*
X124187253Y-135342598D01*
X124170777Y-135360777D01*
X124152598Y-135377253D01*
X124132893Y-135391867D01*
X124111849Y-135404480D01*
X124089671Y-135414970D01*
X124066571Y-135423235D01*
X124042773Y-135429196D01*
X124018504Y-135432796D01*
X123994000Y-135434000D01*
X122894000Y-135434000D01*
X122869496Y-135432796D01*
X122845227Y-135429196D01*
X122821429Y-135423235D01*
X122798329Y-135414970D01*
X122776151Y-135404480D01*
X122755107Y-135391867D01*
X122735402Y-135377253D01*
X122717223Y-135360777D01*
X122700747Y-135342598D01*
X122686133Y-135322893D01*
X122673520Y-135301849D01*
X122663030Y-135279671D01*
X122654765Y-135256571D01*
X122648804Y-135232773D01*
X122645204Y-135208504D01*
X122644000Y-135184000D01*
X122644000Y-133084000D01*
X122645204Y-133059496D01*
X122648804Y-133035227D01*
X122654765Y-133011429D01*
X122663030Y-132988329D01*
X122673520Y-132966151D01*
X122686133Y-132945107D01*
X122700747Y-132925402D01*
X122717223Y-132907223D01*
X122735402Y-132890747D01*
X122755107Y-132876133D01*
X122776151Y-132863520D01*
X122798329Y-132853030D01*
X122821429Y-132844765D01*
X122845227Y-132838804D01*
X122869496Y-132835204D01*
X122894000Y-132834000D01*
X123994000Y-132834000D01*
X124018504Y-132835204D01*
X124018504Y-132835204D01*
G37*
D12*
X123444000Y-134134000D03*
D11*
G36*
X86502069Y-56402201D02*
G01*
X86526276Y-56405792D01*
X86550015Y-56411738D01*
X86573057Y-56419982D01*
X86595180Y-56430446D01*
X86616171Y-56443027D01*
X86635827Y-56457605D01*
X86653960Y-56474040D01*
X86670395Y-56492173D01*
X86684973Y-56511829D01*
X86697554Y-56532820D01*
X86708018Y-56554943D01*
X86716262Y-56577985D01*
X86722208Y-56601724D01*
X86725799Y-56625931D01*
X86727000Y-56650374D01*
X86727000Y-57576626D01*
X86725799Y-57601069D01*
X86722208Y-57625276D01*
X86716262Y-57649015D01*
X86708018Y-57672057D01*
X86697554Y-57694180D01*
X86684973Y-57715171D01*
X86670395Y-57734827D01*
X86653960Y-57752960D01*
X86635827Y-57769395D01*
X86616171Y-57783973D01*
X86595180Y-57796554D01*
X86573057Y-57807018D01*
X86550015Y-57815262D01*
X86526276Y-57821208D01*
X86502069Y-57824799D01*
X86477626Y-57826000D01*
X85226374Y-57826000D01*
X85201931Y-57824799D01*
X85177724Y-57821208D01*
X85153985Y-57815262D01*
X85130943Y-57807018D01*
X85108820Y-57796554D01*
X85087829Y-57783973D01*
X85068173Y-57769395D01*
X85050040Y-57752960D01*
X85033605Y-57734827D01*
X85019027Y-57715171D01*
X85006446Y-57694180D01*
X84995982Y-57672057D01*
X84987738Y-57649015D01*
X84981792Y-57625276D01*
X84978201Y-57601069D01*
X84977000Y-57576626D01*
X84977000Y-56650374D01*
X84978201Y-56625931D01*
X84981792Y-56601724D01*
X84987738Y-56577985D01*
X84995982Y-56554943D01*
X85006446Y-56532820D01*
X85019027Y-56511829D01*
X85033605Y-56492173D01*
X85050040Y-56474040D01*
X85068173Y-56457605D01*
X85087829Y-56443027D01*
X85108820Y-56430446D01*
X85130943Y-56419982D01*
X85153985Y-56411738D01*
X85177724Y-56405792D01*
X85201931Y-56402201D01*
X85226374Y-56401000D01*
X86477626Y-56401000D01*
X86502069Y-56402201D01*
X86502069Y-56402201D01*
G37*
D16*
X85852000Y-57113500D03*
D11*
G36*
X86501504Y-53427204D02*
G01*
X86525773Y-53430804D01*
X86549571Y-53436765D01*
X86572671Y-53445030D01*
X86594849Y-53455520D01*
X86615893Y-53468133D01*
X86635598Y-53482747D01*
X86653777Y-53499223D01*
X86670253Y-53517402D01*
X86684867Y-53537107D01*
X86697480Y-53558151D01*
X86707970Y-53580329D01*
X86716235Y-53603429D01*
X86722196Y-53627227D01*
X86725796Y-53651496D01*
X86727000Y-53676000D01*
X86727000Y-54601000D01*
X86725796Y-54625504D01*
X86722196Y-54649773D01*
X86716235Y-54673571D01*
X86707970Y-54696671D01*
X86697480Y-54718849D01*
X86684867Y-54739893D01*
X86670253Y-54759598D01*
X86653777Y-54777777D01*
X86635598Y-54794253D01*
X86615893Y-54808867D01*
X86594849Y-54821480D01*
X86572671Y-54831970D01*
X86549571Y-54840235D01*
X86525773Y-54846196D01*
X86501504Y-54849796D01*
X86477000Y-54851000D01*
X85227000Y-54851000D01*
X85202496Y-54849796D01*
X85178227Y-54846196D01*
X85154429Y-54840235D01*
X85131329Y-54831970D01*
X85109151Y-54821480D01*
X85088107Y-54808867D01*
X85068402Y-54794253D01*
X85050223Y-54777777D01*
X85033747Y-54759598D01*
X85019133Y-54739893D01*
X85006520Y-54718849D01*
X84996030Y-54696671D01*
X84987765Y-54673571D01*
X84981804Y-54649773D01*
X84978204Y-54625504D01*
X84977000Y-54601000D01*
X84977000Y-53676000D01*
X84978204Y-53651496D01*
X84981804Y-53627227D01*
X84987765Y-53603429D01*
X84996030Y-53580329D01*
X85006520Y-53558151D01*
X85019133Y-53537107D01*
X85033747Y-53517402D01*
X85050223Y-53499223D01*
X85068402Y-53482747D01*
X85088107Y-53468133D01*
X85109151Y-53455520D01*
X85131329Y-53445030D01*
X85154429Y-53436765D01*
X85178227Y-53430804D01*
X85202496Y-53427204D01*
X85227000Y-53426000D01*
X86477000Y-53426000D01*
X86501504Y-53427204D01*
X86501504Y-53427204D01*
G37*
D16*
X85852000Y-54138500D03*
D11*
G36*
X121101069Y-58308201D02*
G01*
X121125276Y-58311792D01*
X121149015Y-58317738D01*
X121172057Y-58325982D01*
X121194180Y-58336446D01*
X121215171Y-58349027D01*
X121234827Y-58363605D01*
X121252960Y-58380040D01*
X121269395Y-58398173D01*
X121283973Y-58417829D01*
X121296554Y-58438820D01*
X121307018Y-58460943D01*
X121315262Y-58483985D01*
X121321208Y-58507724D01*
X121324799Y-58531931D01*
X121326000Y-58556374D01*
X121326000Y-59807626D01*
X121324799Y-59832069D01*
X121321208Y-59856276D01*
X121315262Y-59880015D01*
X121307018Y-59903057D01*
X121296554Y-59925180D01*
X121283973Y-59946171D01*
X121269395Y-59965827D01*
X121252960Y-59983960D01*
X121234827Y-60000395D01*
X121215171Y-60014973D01*
X121194180Y-60027554D01*
X121172057Y-60038018D01*
X121149015Y-60046262D01*
X121125276Y-60052208D01*
X121101069Y-60055799D01*
X121076626Y-60057000D01*
X120150374Y-60057000D01*
X120125931Y-60055799D01*
X120101724Y-60052208D01*
X120077985Y-60046262D01*
X120054943Y-60038018D01*
X120032820Y-60027554D01*
X120011829Y-60014973D01*
X119992173Y-60000395D01*
X119974040Y-59983960D01*
X119957605Y-59965827D01*
X119943027Y-59946171D01*
X119930446Y-59925180D01*
X119919982Y-59903057D01*
X119911738Y-59880015D01*
X119905792Y-59856276D01*
X119902201Y-59832069D01*
X119901000Y-59807626D01*
X119901000Y-58556374D01*
X119902201Y-58531931D01*
X119905792Y-58507724D01*
X119911738Y-58483985D01*
X119919982Y-58460943D01*
X119930446Y-58438820D01*
X119943027Y-58417829D01*
X119957605Y-58398173D01*
X119974040Y-58380040D01*
X119992173Y-58363605D01*
X120011829Y-58349027D01*
X120032820Y-58336446D01*
X120054943Y-58325982D01*
X120077985Y-58317738D01*
X120101724Y-58311792D01*
X120125931Y-58308201D01*
X120150374Y-58307000D01*
X121076626Y-58307000D01*
X121101069Y-58308201D01*
X121101069Y-58308201D01*
G37*
D16*
X120613500Y-59182000D03*
D11*
G36*
X118125504Y-58308204D02*
G01*
X118149773Y-58311804D01*
X118173571Y-58317765D01*
X118196671Y-58326030D01*
X118218849Y-58336520D01*
X118239893Y-58349133D01*
X118259598Y-58363747D01*
X118277777Y-58380223D01*
X118294253Y-58398402D01*
X118308867Y-58418107D01*
X118321480Y-58439151D01*
X118331970Y-58461329D01*
X118340235Y-58484429D01*
X118346196Y-58508227D01*
X118349796Y-58532496D01*
X118351000Y-58557000D01*
X118351000Y-59807000D01*
X118349796Y-59831504D01*
X118346196Y-59855773D01*
X118340235Y-59879571D01*
X118331970Y-59902671D01*
X118321480Y-59924849D01*
X118308867Y-59945893D01*
X118294253Y-59965598D01*
X118277777Y-59983777D01*
X118259598Y-60000253D01*
X118239893Y-60014867D01*
X118218849Y-60027480D01*
X118196671Y-60037970D01*
X118173571Y-60046235D01*
X118149773Y-60052196D01*
X118125504Y-60055796D01*
X118101000Y-60057000D01*
X117176000Y-60057000D01*
X117151496Y-60055796D01*
X117127227Y-60052196D01*
X117103429Y-60046235D01*
X117080329Y-60037970D01*
X117058151Y-60027480D01*
X117037107Y-60014867D01*
X117017402Y-60000253D01*
X116999223Y-59983777D01*
X116982747Y-59965598D01*
X116968133Y-59945893D01*
X116955520Y-59924849D01*
X116945030Y-59902671D01*
X116936765Y-59879571D01*
X116930804Y-59855773D01*
X116927204Y-59831504D01*
X116926000Y-59807000D01*
X116926000Y-58557000D01*
X116927204Y-58532496D01*
X116930804Y-58508227D01*
X116936765Y-58484429D01*
X116945030Y-58461329D01*
X116955520Y-58439151D01*
X116968133Y-58418107D01*
X116982747Y-58398402D01*
X116999223Y-58380223D01*
X117017402Y-58363747D01*
X117037107Y-58349133D01*
X117058151Y-58336520D01*
X117080329Y-58326030D01*
X117103429Y-58317765D01*
X117127227Y-58311804D01*
X117151496Y-58308204D01*
X117176000Y-58307000D01*
X118101000Y-58307000D01*
X118125504Y-58308204D01*
X118125504Y-58308204D01*
G37*
D16*
X117638500Y-59182000D03*
D11*
G36*
X142889504Y-74509204D02*
G01*
X142913773Y-74512804D01*
X142937571Y-74518765D01*
X142960671Y-74527030D01*
X142982849Y-74537520D01*
X143003893Y-74550133D01*
X143023598Y-74564747D01*
X143041777Y-74581223D01*
X143058253Y-74599402D01*
X143072867Y-74619107D01*
X143085480Y-74640151D01*
X143095970Y-74662329D01*
X143104235Y-74685429D01*
X143110196Y-74709227D01*
X143113796Y-74733496D01*
X143115000Y-74758000D01*
X143115000Y-75683000D01*
X143113796Y-75707504D01*
X143110196Y-75731773D01*
X143104235Y-75755571D01*
X143095970Y-75778671D01*
X143085480Y-75800849D01*
X143072867Y-75821893D01*
X143058253Y-75841598D01*
X143041777Y-75859777D01*
X143023598Y-75876253D01*
X143003893Y-75890867D01*
X142982849Y-75903480D01*
X142960671Y-75913970D01*
X142937571Y-75922235D01*
X142913773Y-75928196D01*
X142889504Y-75931796D01*
X142865000Y-75933000D01*
X141615000Y-75933000D01*
X141590496Y-75931796D01*
X141566227Y-75928196D01*
X141542429Y-75922235D01*
X141519329Y-75913970D01*
X141497151Y-75903480D01*
X141476107Y-75890867D01*
X141456402Y-75876253D01*
X141438223Y-75859777D01*
X141421747Y-75841598D01*
X141407133Y-75821893D01*
X141394520Y-75800849D01*
X141384030Y-75778671D01*
X141375765Y-75755571D01*
X141369804Y-75731773D01*
X141366204Y-75707504D01*
X141365000Y-75683000D01*
X141365000Y-74758000D01*
X141366204Y-74733496D01*
X141369804Y-74709227D01*
X141375765Y-74685429D01*
X141384030Y-74662329D01*
X141394520Y-74640151D01*
X141407133Y-74619107D01*
X141421747Y-74599402D01*
X141438223Y-74581223D01*
X141456402Y-74564747D01*
X141476107Y-74550133D01*
X141497151Y-74537520D01*
X141519329Y-74527030D01*
X141542429Y-74518765D01*
X141566227Y-74512804D01*
X141590496Y-74509204D01*
X141615000Y-74508000D01*
X142865000Y-74508000D01*
X142889504Y-74509204D01*
X142889504Y-74509204D01*
G37*
D16*
X142240000Y-75220500D03*
D11*
G36*
X142889504Y-77484204D02*
G01*
X142913773Y-77487804D01*
X142937571Y-77493765D01*
X142960671Y-77502030D01*
X142982849Y-77512520D01*
X143003893Y-77525133D01*
X143023598Y-77539747D01*
X143041777Y-77556223D01*
X143058253Y-77574402D01*
X143072867Y-77594107D01*
X143085480Y-77615151D01*
X143095970Y-77637329D01*
X143104235Y-77660429D01*
X143110196Y-77684227D01*
X143113796Y-77708496D01*
X143115000Y-77733000D01*
X143115000Y-78658000D01*
X143113796Y-78682504D01*
X143110196Y-78706773D01*
X143104235Y-78730571D01*
X143095970Y-78753671D01*
X143085480Y-78775849D01*
X143072867Y-78796893D01*
X143058253Y-78816598D01*
X143041777Y-78834777D01*
X143023598Y-78851253D01*
X143003893Y-78865867D01*
X142982849Y-78878480D01*
X142960671Y-78888970D01*
X142937571Y-78897235D01*
X142913773Y-78903196D01*
X142889504Y-78906796D01*
X142865000Y-78908000D01*
X141615000Y-78908000D01*
X141590496Y-78906796D01*
X141566227Y-78903196D01*
X141542429Y-78897235D01*
X141519329Y-78888970D01*
X141497151Y-78878480D01*
X141476107Y-78865867D01*
X141456402Y-78851253D01*
X141438223Y-78834777D01*
X141421747Y-78816598D01*
X141407133Y-78796893D01*
X141394520Y-78775849D01*
X141384030Y-78753671D01*
X141375765Y-78730571D01*
X141369804Y-78706773D01*
X141366204Y-78682504D01*
X141365000Y-78658000D01*
X141365000Y-77733000D01*
X141366204Y-77708496D01*
X141369804Y-77684227D01*
X141375765Y-77660429D01*
X141384030Y-77637329D01*
X141394520Y-77615151D01*
X141407133Y-77594107D01*
X141421747Y-77574402D01*
X141438223Y-77556223D01*
X141456402Y-77539747D01*
X141476107Y-77525133D01*
X141497151Y-77512520D01*
X141519329Y-77502030D01*
X141542429Y-77493765D01*
X141566227Y-77487804D01*
X141590496Y-77484204D01*
X141615000Y-77483000D01*
X142865000Y-77483000D01*
X142889504Y-77484204D01*
X142889504Y-77484204D01*
G37*
D16*
X142240000Y-78195500D03*
D17*
X143704000Y-179260500D03*
X143704000Y-178625500D03*
X143704000Y-177990500D03*
X143704000Y-177355500D03*
X143704000Y-176720500D03*
X143704000Y-176085500D03*
X143704000Y-175450500D03*
X143704000Y-174815500D03*
X143704000Y-174180500D03*
X143704000Y-173545500D03*
X143704000Y-172910500D03*
X143704000Y-172275500D03*
X148904000Y-172275500D03*
X148904000Y-172910500D03*
X148904000Y-173545500D03*
X148904000Y-174180500D03*
X148904000Y-174815500D03*
X148904000Y-175450500D03*
X148904000Y-176085500D03*
X148904000Y-176720500D03*
X148904000Y-177355500D03*
X148904000Y-177990500D03*
X148904000Y-178625500D03*
X148904000Y-179260500D03*
X148904000Y-96329500D03*
X148904000Y-96964500D03*
X148904000Y-97599500D03*
X148904000Y-98234500D03*
X148904000Y-98869500D03*
X148904000Y-99504500D03*
X148904000Y-100139500D03*
X148904000Y-100774500D03*
X148904000Y-101409500D03*
X148904000Y-102044500D03*
X148904000Y-102679500D03*
X148904000Y-103314500D03*
X143704000Y-103314500D03*
X143704000Y-102679500D03*
X143704000Y-102044500D03*
X143704000Y-101409500D03*
X143704000Y-100774500D03*
X143704000Y-100139500D03*
X143704000Y-99504500D03*
X143704000Y-98869500D03*
X143704000Y-98234500D03*
X143704000Y-97599500D03*
X143704000Y-96964500D03*
X143704000Y-96329500D03*
X143704000Y-68770500D03*
X143704000Y-68135500D03*
X143704000Y-67500500D03*
X143704000Y-66865500D03*
X143704000Y-66230500D03*
X143704000Y-65595500D03*
X143704000Y-64960500D03*
X143704000Y-64325500D03*
X143704000Y-63690500D03*
X143704000Y-63055500D03*
X143704000Y-62420500D03*
X143704000Y-61785500D03*
X148904000Y-61785500D03*
X148904000Y-62420500D03*
X148904000Y-63055500D03*
X148904000Y-63690500D03*
X148904000Y-64325500D03*
X148904000Y-64960500D03*
X148904000Y-65595500D03*
X148904000Y-66230500D03*
X148904000Y-66865500D03*
X148904000Y-67500500D03*
X148904000Y-68135500D03*
X148904000Y-68770500D03*
D15*
X87216000Y-132014000D03*
X87216000Y-130114000D03*
X89916000Y-130114000D03*
X89916000Y-131064000D03*
X89916000Y-132014000D03*
D11*
G36*
X154827504Y-118632204D02*
G01*
X154851773Y-118635804D01*
X154875571Y-118641765D01*
X154898671Y-118650030D01*
X154920849Y-118660520D01*
X154941893Y-118673133D01*
X154961598Y-118687747D01*
X154979777Y-118704223D01*
X154996253Y-118722402D01*
X155010867Y-118742107D01*
X155023480Y-118763151D01*
X155033970Y-118785329D01*
X155042235Y-118808429D01*
X155048196Y-118832227D01*
X155051796Y-118856496D01*
X155053000Y-118881000D01*
X155053000Y-119806000D01*
X155051796Y-119830504D01*
X155048196Y-119854773D01*
X155042235Y-119878571D01*
X155033970Y-119901671D01*
X155023480Y-119923849D01*
X155010867Y-119944893D01*
X154996253Y-119964598D01*
X154979777Y-119982777D01*
X154961598Y-119999253D01*
X154941893Y-120013867D01*
X154920849Y-120026480D01*
X154898671Y-120036970D01*
X154875571Y-120045235D01*
X154851773Y-120051196D01*
X154827504Y-120054796D01*
X154803000Y-120056000D01*
X153553000Y-120056000D01*
X153528496Y-120054796D01*
X153504227Y-120051196D01*
X153480429Y-120045235D01*
X153457329Y-120036970D01*
X153435151Y-120026480D01*
X153414107Y-120013867D01*
X153394402Y-119999253D01*
X153376223Y-119982777D01*
X153359747Y-119964598D01*
X153345133Y-119944893D01*
X153332520Y-119923849D01*
X153322030Y-119901671D01*
X153313765Y-119878571D01*
X153307804Y-119854773D01*
X153304204Y-119830504D01*
X153303000Y-119806000D01*
X153303000Y-118881000D01*
X153304204Y-118856496D01*
X153307804Y-118832227D01*
X153313765Y-118808429D01*
X153322030Y-118785329D01*
X153332520Y-118763151D01*
X153345133Y-118742107D01*
X153359747Y-118722402D01*
X153376223Y-118704223D01*
X153394402Y-118687747D01*
X153414107Y-118673133D01*
X153435151Y-118660520D01*
X153457329Y-118650030D01*
X153480429Y-118641765D01*
X153504227Y-118635804D01*
X153528496Y-118632204D01*
X153553000Y-118631000D01*
X154803000Y-118631000D01*
X154827504Y-118632204D01*
X154827504Y-118632204D01*
G37*
D16*
X154178000Y-119343500D03*
D11*
G36*
X154827504Y-115657204D02*
G01*
X154851773Y-115660804D01*
X154875571Y-115666765D01*
X154898671Y-115675030D01*
X154920849Y-115685520D01*
X154941893Y-115698133D01*
X154961598Y-115712747D01*
X154979777Y-115729223D01*
X154996253Y-115747402D01*
X155010867Y-115767107D01*
X155023480Y-115788151D01*
X155033970Y-115810329D01*
X155042235Y-115833429D01*
X155048196Y-115857227D01*
X155051796Y-115881496D01*
X155053000Y-115906000D01*
X155053000Y-116831000D01*
X155051796Y-116855504D01*
X155048196Y-116879773D01*
X155042235Y-116903571D01*
X155033970Y-116926671D01*
X155023480Y-116948849D01*
X155010867Y-116969893D01*
X154996253Y-116989598D01*
X154979777Y-117007777D01*
X154961598Y-117024253D01*
X154941893Y-117038867D01*
X154920849Y-117051480D01*
X154898671Y-117061970D01*
X154875571Y-117070235D01*
X154851773Y-117076196D01*
X154827504Y-117079796D01*
X154803000Y-117081000D01*
X153553000Y-117081000D01*
X153528496Y-117079796D01*
X153504227Y-117076196D01*
X153480429Y-117070235D01*
X153457329Y-117061970D01*
X153435151Y-117051480D01*
X153414107Y-117038867D01*
X153394402Y-117024253D01*
X153376223Y-117007777D01*
X153359747Y-116989598D01*
X153345133Y-116969893D01*
X153332520Y-116948849D01*
X153322030Y-116926671D01*
X153313765Y-116903571D01*
X153307804Y-116879773D01*
X153304204Y-116855504D01*
X153303000Y-116831000D01*
X153303000Y-115906000D01*
X153304204Y-115881496D01*
X153307804Y-115857227D01*
X153313765Y-115833429D01*
X153322030Y-115810329D01*
X153332520Y-115788151D01*
X153345133Y-115767107D01*
X153359747Y-115747402D01*
X153376223Y-115729223D01*
X153394402Y-115712747D01*
X153414107Y-115698133D01*
X153435151Y-115685520D01*
X153457329Y-115675030D01*
X153480429Y-115666765D01*
X153504227Y-115660804D01*
X153528496Y-115657204D01*
X153553000Y-115656000D01*
X154803000Y-115656000D01*
X154827504Y-115657204D01*
X154827504Y-115657204D01*
G37*
D16*
X154178000Y-116368500D03*
D11*
G36*
X154157004Y-95138204D02*
G01*
X154181273Y-95141804D01*
X154205071Y-95147765D01*
X154228171Y-95156030D01*
X154250349Y-95166520D01*
X154271393Y-95179133D01*
X154291098Y-95193747D01*
X154309277Y-95210223D01*
X154325753Y-95228402D01*
X154340367Y-95248107D01*
X154352980Y-95269151D01*
X154363470Y-95291329D01*
X154371735Y-95314429D01*
X154377696Y-95338227D01*
X154381296Y-95362496D01*
X154382500Y-95387000D01*
X154382500Y-96637000D01*
X154381296Y-96661504D01*
X154377696Y-96685773D01*
X154371735Y-96709571D01*
X154363470Y-96732671D01*
X154352980Y-96754849D01*
X154340367Y-96775893D01*
X154325753Y-96795598D01*
X154309277Y-96813777D01*
X154291098Y-96830253D01*
X154271393Y-96844867D01*
X154250349Y-96857480D01*
X154228171Y-96867970D01*
X154205071Y-96876235D01*
X154181273Y-96882196D01*
X154157004Y-96885796D01*
X154132500Y-96887000D01*
X153207500Y-96887000D01*
X153182996Y-96885796D01*
X153158727Y-96882196D01*
X153134929Y-96876235D01*
X153111829Y-96867970D01*
X153089651Y-96857480D01*
X153068607Y-96844867D01*
X153048902Y-96830253D01*
X153030723Y-96813777D01*
X153014247Y-96795598D01*
X152999633Y-96775893D01*
X152987020Y-96754849D01*
X152976530Y-96732671D01*
X152968265Y-96709571D01*
X152962304Y-96685773D01*
X152958704Y-96661504D01*
X152957500Y-96637000D01*
X152957500Y-95387000D01*
X152958704Y-95362496D01*
X152962304Y-95338227D01*
X152968265Y-95314429D01*
X152976530Y-95291329D01*
X152987020Y-95269151D01*
X152999633Y-95248107D01*
X153014247Y-95228402D01*
X153030723Y-95210223D01*
X153048902Y-95193747D01*
X153068607Y-95179133D01*
X153089651Y-95166520D01*
X153111829Y-95156030D01*
X153134929Y-95147765D01*
X153158727Y-95141804D01*
X153182996Y-95138204D01*
X153207500Y-95137000D01*
X154132500Y-95137000D01*
X154157004Y-95138204D01*
X154157004Y-95138204D01*
G37*
D16*
X153670000Y-96012000D03*
D11*
G36*
X157132004Y-95138204D02*
G01*
X157156273Y-95141804D01*
X157180071Y-95147765D01*
X157203171Y-95156030D01*
X157225349Y-95166520D01*
X157246393Y-95179133D01*
X157266098Y-95193747D01*
X157284277Y-95210223D01*
X157300753Y-95228402D01*
X157315367Y-95248107D01*
X157327980Y-95269151D01*
X157338470Y-95291329D01*
X157346735Y-95314429D01*
X157352696Y-95338227D01*
X157356296Y-95362496D01*
X157357500Y-95387000D01*
X157357500Y-96637000D01*
X157356296Y-96661504D01*
X157352696Y-96685773D01*
X157346735Y-96709571D01*
X157338470Y-96732671D01*
X157327980Y-96754849D01*
X157315367Y-96775893D01*
X157300753Y-96795598D01*
X157284277Y-96813777D01*
X157266098Y-96830253D01*
X157246393Y-96844867D01*
X157225349Y-96857480D01*
X157203171Y-96867970D01*
X157180071Y-96876235D01*
X157156273Y-96882196D01*
X157132004Y-96885796D01*
X157107500Y-96887000D01*
X156182500Y-96887000D01*
X156157996Y-96885796D01*
X156133727Y-96882196D01*
X156109929Y-96876235D01*
X156086829Y-96867970D01*
X156064651Y-96857480D01*
X156043607Y-96844867D01*
X156023902Y-96830253D01*
X156005723Y-96813777D01*
X155989247Y-96795598D01*
X155974633Y-96775893D01*
X155962020Y-96754849D01*
X155951530Y-96732671D01*
X155943265Y-96709571D01*
X155937304Y-96685773D01*
X155933704Y-96661504D01*
X155932500Y-96637000D01*
X155932500Y-95387000D01*
X155933704Y-95362496D01*
X155937304Y-95338227D01*
X155943265Y-95314429D01*
X155951530Y-95291329D01*
X155962020Y-95269151D01*
X155974633Y-95248107D01*
X155989247Y-95228402D01*
X156005723Y-95210223D01*
X156023902Y-95193747D01*
X156043607Y-95179133D01*
X156064651Y-95166520D01*
X156086829Y-95156030D01*
X156109929Y-95147765D01*
X156133727Y-95141804D01*
X156157996Y-95138204D01*
X156182500Y-95137000D01*
X157107500Y-95137000D01*
X157132004Y-95138204D01*
X157132004Y-95138204D01*
G37*
D16*
X156645000Y-96012000D03*
D11*
G36*
X142127504Y-180427204D02*
G01*
X142151773Y-180430804D01*
X142175571Y-180436765D01*
X142198671Y-180445030D01*
X142220849Y-180455520D01*
X142241893Y-180468133D01*
X142261598Y-180482747D01*
X142279777Y-180499223D01*
X142296253Y-180517402D01*
X142310867Y-180537107D01*
X142323480Y-180558151D01*
X142333970Y-180580329D01*
X142342235Y-180603429D01*
X142348196Y-180627227D01*
X142351796Y-180651496D01*
X142353000Y-180676000D01*
X142353000Y-181601000D01*
X142351796Y-181625504D01*
X142348196Y-181649773D01*
X142342235Y-181673571D01*
X142333970Y-181696671D01*
X142323480Y-181718849D01*
X142310867Y-181739893D01*
X142296253Y-181759598D01*
X142279777Y-181777777D01*
X142261598Y-181794253D01*
X142241893Y-181808867D01*
X142220849Y-181821480D01*
X142198671Y-181831970D01*
X142175571Y-181840235D01*
X142151773Y-181846196D01*
X142127504Y-181849796D01*
X142103000Y-181851000D01*
X140853000Y-181851000D01*
X140828496Y-181849796D01*
X140804227Y-181846196D01*
X140780429Y-181840235D01*
X140757329Y-181831970D01*
X140735151Y-181821480D01*
X140714107Y-181808867D01*
X140694402Y-181794253D01*
X140676223Y-181777777D01*
X140659747Y-181759598D01*
X140645133Y-181739893D01*
X140632520Y-181718849D01*
X140622030Y-181696671D01*
X140613765Y-181673571D01*
X140607804Y-181649773D01*
X140604204Y-181625504D01*
X140603000Y-181601000D01*
X140603000Y-180676000D01*
X140604204Y-180651496D01*
X140607804Y-180627227D01*
X140613765Y-180603429D01*
X140622030Y-180580329D01*
X140632520Y-180558151D01*
X140645133Y-180537107D01*
X140659747Y-180517402D01*
X140676223Y-180499223D01*
X140694402Y-180482747D01*
X140714107Y-180468133D01*
X140735151Y-180455520D01*
X140757329Y-180445030D01*
X140780429Y-180436765D01*
X140804227Y-180430804D01*
X140828496Y-180427204D01*
X140853000Y-180426000D01*
X142103000Y-180426000D01*
X142127504Y-180427204D01*
X142127504Y-180427204D01*
G37*
D16*
X141478000Y-181138500D03*
D11*
G36*
X142127504Y-183402204D02*
G01*
X142151773Y-183405804D01*
X142175571Y-183411765D01*
X142198671Y-183420030D01*
X142220849Y-183430520D01*
X142241893Y-183443133D01*
X142261598Y-183457747D01*
X142279777Y-183474223D01*
X142296253Y-183492402D01*
X142310867Y-183512107D01*
X142323480Y-183533151D01*
X142333970Y-183555329D01*
X142342235Y-183578429D01*
X142348196Y-183602227D01*
X142351796Y-183626496D01*
X142353000Y-183651000D01*
X142353000Y-184576000D01*
X142351796Y-184600504D01*
X142348196Y-184624773D01*
X142342235Y-184648571D01*
X142333970Y-184671671D01*
X142323480Y-184693849D01*
X142310867Y-184714893D01*
X142296253Y-184734598D01*
X142279777Y-184752777D01*
X142261598Y-184769253D01*
X142241893Y-184783867D01*
X142220849Y-184796480D01*
X142198671Y-184806970D01*
X142175571Y-184815235D01*
X142151773Y-184821196D01*
X142127504Y-184824796D01*
X142103000Y-184826000D01*
X140853000Y-184826000D01*
X140828496Y-184824796D01*
X140804227Y-184821196D01*
X140780429Y-184815235D01*
X140757329Y-184806970D01*
X140735151Y-184796480D01*
X140714107Y-184783867D01*
X140694402Y-184769253D01*
X140676223Y-184752777D01*
X140659747Y-184734598D01*
X140645133Y-184714893D01*
X140632520Y-184693849D01*
X140622030Y-184671671D01*
X140613765Y-184648571D01*
X140607804Y-184624773D01*
X140604204Y-184600504D01*
X140603000Y-184576000D01*
X140603000Y-183651000D01*
X140604204Y-183626496D01*
X140607804Y-183602227D01*
X140613765Y-183578429D01*
X140622030Y-183555329D01*
X140632520Y-183533151D01*
X140645133Y-183512107D01*
X140659747Y-183492402D01*
X140676223Y-183474223D01*
X140694402Y-183457747D01*
X140714107Y-183443133D01*
X140735151Y-183430520D01*
X140757329Y-183420030D01*
X140780429Y-183411765D01*
X140804227Y-183405804D01*
X140828496Y-183402204D01*
X140853000Y-183401000D01*
X142103000Y-183401000D01*
X142127504Y-183402204D01*
X142127504Y-183402204D01*
G37*
D16*
X141478000Y-184113500D03*
D13*
X94680000Y-98998000D03*
D14*
X97220000Y-98998000D03*
X94680000Y-101538000D03*
X97220000Y-101538000D03*
X94680000Y-104078000D03*
X97220000Y-104078000D03*
X94680000Y-106618000D03*
X97220000Y-106618000D03*
X94680000Y-109158000D03*
X97220000Y-109158000D03*
X94680000Y-111698000D03*
X97220000Y-111698000D03*
X94680000Y-114238000D03*
X97220000Y-114238000D03*
X94680000Y-116778000D03*
X97220000Y-116778000D03*
X94680000Y-119318000D03*
X97220000Y-119318000D03*
X94680000Y-121858000D03*
X97220000Y-121858000D03*
X94680000Y-124398000D03*
X97220000Y-124398000D03*
X94680000Y-126938000D03*
X97220000Y-126938000D03*
X94680000Y-129478000D03*
X97220000Y-129478000D03*
X94680000Y-132018000D03*
X97220000Y-132018000D03*
X94680000Y-134558000D03*
X97220000Y-134558000D03*
X94680000Y-137098000D03*
X97220000Y-137098000D03*
X94680000Y-139638000D03*
X97220000Y-139638000D03*
X94680000Y-142178000D03*
X97220000Y-142178000D03*
X94680000Y-144718000D03*
X97220000Y-144718000D03*
X94680000Y-147258000D03*
X97220000Y-147258000D03*
D17*
X148904000Y-122491500D03*
X148904000Y-123126500D03*
X148904000Y-123761500D03*
X148904000Y-124396500D03*
X148904000Y-125031500D03*
X148904000Y-125666500D03*
X148904000Y-126301500D03*
X148904000Y-126936500D03*
X148904000Y-127571500D03*
X148904000Y-128206500D03*
X148904000Y-128841500D03*
X148904000Y-129476500D03*
X143704000Y-129476500D03*
X143704000Y-128841500D03*
X143704000Y-128206500D03*
X143704000Y-127571500D03*
X143704000Y-126936500D03*
X143704000Y-126301500D03*
X143704000Y-125666500D03*
X143704000Y-125031500D03*
X143704000Y-124396500D03*
X143704000Y-123761500D03*
X143704000Y-123126500D03*
X143704000Y-122491500D03*
X109160000Y-127063500D03*
X109160000Y-127698500D03*
X109160000Y-128333500D03*
X109160000Y-128968500D03*
X109160000Y-129603500D03*
X109160000Y-130238500D03*
X109160000Y-130873500D03*
X109160000Y-131508500D03*
X109160000Y-132143500D03*
X109160000Y-132778500D03*
X109160000Y-133413500D03*
X109160000Y-134048500D03*
X114360000Y-134048500D03*
X114360000Y-133413500D03*
X114360000Y-132778500D03*
X114360000Y-132143500D03*
X114360000Y-131508500D03*
X114360000Y-130873500D03*
X114360000Y-130238500D03*
X114360000Y-129603500D03*
X114360000Y-128968500D03*
X114360000Y-128333500D03*
X114360000Y-127698500D03*
X114360000Y-127063500D03*
X114360000Y-106235500D03*
X114360000Y-106870500D03*
X114360000Y-107505500D03*
X114360000Y-108140500D03*
X114360000Y-108775500D03*
X114360000Y-109410500D03*
X114360000Y-110045500D03*
X114360000Y-110680500D03*
X114360000Y-111315500D03*
X114360000Y-111950500D03*
X114360000Y-112585500D03*
X114360000Y-113220500D03*
X109160000Y-113220500D03*
X109160000Y-112585500D03*
X109160000Y-111950500D03*
X109160000Y-111315500D03*
X109160000Y-110680500D03*
X109160000Y-110045500D03*
X109160000Y-109410500D03*
X109160000Y-108775500D03*
X109160000Y-108140500D03*
X109160000Y-107505500D03*
X109160000Y-106870500D03*
X109160000Y-106235500D03*
D11*
G36*
X128412069Y-124547201D02*
G01*
X128436276Y-124550792D01*
X128460015Y-124556738D01*
X128483057Y-124564982D01*
X128505180Y-124575446D01*
X128526171Y-124588027D01*
X128545827Y-124602605D01*
X128563960Y-124619040D01*
X128580395Y-124637173D01*
X128594973Y-124656829D01*
X128607554Y-124677820D01*
X128618018Y-124699943D01*
X128626262Y-124722985D01*
X128632208Y-124746724D01*
X128635799Y-124770931D01*
X128637000Y-124795374D01*
X128637000Y-125721626D01*
X128635799Y-125746069D01*
X128632208Y-125770276D01*
X128626262Y-125794015D01*
X128618018Y-125817057D01*
X128607554Y-125839180D01*
X128594973Y-125860171D01*
X128580395Y-125879827D01*
X128563960Y-125897960D01*
X128545827Y-125914395D01*
X128526171Y-125928973D01*
X128505180Y-125941554D01*
X128483057Y-125952018D01*
X128460015Y-125960262D01*
X128436276Y-125966208D01*
X128412069Y-125969799D01*
X128387626Y-125971000D01*
X127136374Y-125971000D01*
X127111931Y-125969799D01*
X127087724Y-125966208D01*
X127063985Y-125960262D01*
X127040943Y-125952018D01*
X127018820Y-125941554D01*
X126997829Y-125928973D01*
X126978173Y-125914395D01*
X126960040Y-125897960D01*
X126943605Y-125879827D01*
X126929027Y-125860171D01*
X126916446Y-125839180D01*
X126905982Y-125817057D01*
X126897738Y-125794015D01*
X126891792Y-125770276D01*
X126888201Y-125746069D01*
X126887000Y-125721626D01*
X126887000Y-124795374D01*
X126888201Y-124770931D01*
X126891792Y-124746724D01*
X126897738Y-124722985D01*
X126905982Y-124699943D01*
X126916446Y-124677820D01*
X126929027Y-124656829D01*
X126943605Y-124637173D01*
X126960040Y-124619040D01*
X126978173Y-124602605D01*
X126997829Y-124588027D01*
X127018820Y-124575446D01*
X127040943Y-124564982D01*
X127063985Y-124556738D01*
X127087724Y-124550792D01*
X127111931Y-124547201D01*
X127136374Y-124546000D01*
X128387626Y-124546000D01*
X128412069Y-124547201D01*
X128412069Y-124547201D01*
G37*
D16*
X127762000Y-125258500D03*
D11*
G36*
X128411504Y-127522204D02*
G01*
X128435773Y-127525804D01*
X128459571Y-127531765D01*
X128482671Y-127540030D01*
X128504849Y-127550520D01*
X128525893Y-127563133D01*
X128545598Y-127577747D01*
X128563777Y-127594223D01*
X128580253Y-127612402D01*
X128594867Y-127632107D01*
X128607480Y-127653151D01*
X128617970Y-127675329D01*
X128626235Y-127698429D01*
X128632196Y-127722227D01*
X128635796Y-127746496D01*
X128637000Y-127771000D01*
X128637000Y-128696000D01*
X128635796Y-128720504D01*
X128632196Y-128744773D01*
X128626235Y-128768571D01*
X128617970Y-128791671D01*
X128607480Y-128813849D01*
X128594867Y-128834893D01*
X128580253Y-128854598D01*
X128563777Y-128872777D01*
X128545598Y-128889253D01*
X128525893Y-128903867D01*
X128504849Y-128916480D01*
X128482671Y-128926970D01*
X128459571Y-128935235D01*
X128435773Y-128941196D01*
X128411504Y-128944796D01*
X128387000Y-128946000D01*
X127137000Y-128946000D01*
X127112496Y-128944796D01*
X127088227Y-128941196D01*
X127064429Y-128935235D01*
X127041329Y-128926970D01*
X127019151Y-128916480D01*
X126998107Y-128903867D01*
X126978402Y-128889253D01*
X126960223Y-128872777D01*
X126943747Y-128854598D01*
X126929133Y-128834893D01*
X126916520Y-128813849D01*
X126906030Y-128791671D01*
X126897765Y-128768571D01*
X126891804Y-128744773D01*
X126888204Y-128720504D01*
X126887000Y-128696000D01*
X126887000Y-127771000D01*
X126888204Y-127746496D01*
X126891804Y-127722227D01*
X126897765Y-127698429D01*
X126906030Y-127675329D01*
X126916520Y-127653151D01*
X126929133Y-127632107D01*
X126943747Y-127612402D01*
X126960223Y-127594223D01*
X126978402Y-127577747D01*
X126998107Y-127563133D01*
X127019151Y-127550520D01*
X127041329Y-127540030D01*
X127064429Y-127531765D01*
X127088227Y-127525804D01*
X127112496Y-127522204D01*
X127137000Y-127521000D01*
X128387000Y-127521000D01*
X128411504Y-127522204D01*
X128411504Y-127522204D01*
G37*
D16*
X127762000Y-128233500D03*
D18*
X116462000Y-81280000D03*
X100962000Y-81280000D03*
X100962000Y-89408000D03*
X116462000Y-89408000D03*
D11*
G36*
X107329504Y-122442204D02*
G01*
X107353773Y-122445804D01*
X107377571Y-122451765D01*
X107400671Y-122460030D01*
X107422849Y-122470520D01*
X107443893Y-122483133D01*
X107463598Y-122497747D01*
X107481777Y-122514223D01*
X107498253Y-122532402D01*
X107512867Y-122552107D01*
X107525480Y-122573151D01*
X107535970Y-122595329D01*
X107544235Y-122618429D01*
X107550196Y-122642227D01*
X107553796Y-122666496D01*
X107555000Y-122691000D01*
X107555000Y-123616000D01*
X107553796Y-123640504D01*
X107550196Y-123664773D01*
X107544235Y-123688571D01*
X107535970Y-123711671D01*
X107525480Y-123733849D01*
X107512867Y-123754893D01*
X107498253Y-123774598D01*
X107481777Y-123792777D01*
X107463598Y-123809253D01*
X107443893Y-123823867D01*
X107422849Y-123836480D01*
X107400671Y-123846970D01*
X107377571Y-123855235D01*
X107353773Y-123861196D01*
X107329504Y-123864796D01*
X107305000Y-123866000D01*
X106055000Y-123866000D01*
X106030496Y-123864796D01*
X106006227Y-123861196D01*
X105982429Y-123855235D01*
X105959329Y-123846970D01*
X105937151Y-123836480D01*
X105916107Y-123823867D01*
X105896402Y-123809253D01*
X105878223Y-123792777D01*
X105861747Y-123774598D01*
X105847133Y-123754893D01*
X105834520Y-123733849D01*
X105824030Y-123711671D01*
X105815765Y-123688571D01*
X105809804Y-123664773D01*
X105806204Y-123640504D01*
X105805000Y-123616000D01*
X105805000Y-122691000D01*
X105806204Y-122666496D01*
X105809804Y-122642227D01*
X105815765Y-122618429D01*
X105824030Y-122595329D01*
X105834520Y-122573151D01*
X105847133Y-122552107D01*
X105861747Y-122532402D01*
X105878223Y-122514223D01*
X105896402Y-122497747D01*
X105916107Y-122483133D01*
X105937151Y-122470520D01*
X105959329Y-122460030D01*
X105982429Y-122451765D01*
X106006227Y-122445804D01*
X106030496Y-122442204D01*
X106055000Y-122441000D01*
X107305000Y-122441000D01*
X107329504Y-122442204D01*
X107329504Y-122442204D01*
G37*
D16*
X106680000Y-123153500D03*
D11*
G36*
X107329504Y-119467204D02*
G01*
X107353773Y-119470804D01*
X107377571Y-119476765D01*
X107400671Y-119485030D01*
X107422849Y-119495520D01*
X107443893Y-119508133D01*
X107463598Y-119522747D01*
X107481777Y-119539223D01*
X107498253Y-119557402D01*
X107512867Y-119577107D01*
X107525480Y-119598151D01*
X107535970Y-119620329D01*
X107544235Y-119643429D01*
X107550196Y-119667227D01*
X107553796Y-119691496D01*
X107555000Y-119716000D01*
X107555000Y-120641000D01*
X107553796Y-120665504D01*
X107550196Y-120689773D01*
X107544235Y-120713571D01*
X107535970Y-120736671D01*
X107525480Y-120758849D01*
X107512867Y-120779893D01*
X107498253Y-120799598D01*
X107481777Y-120817777D01*
X107463598Y-120834253D01*
X107443893Y-120848867D01*
X107422849Y-120861480D01*
X107400671Y-120871970D01*
X107377571Y-120880235D01*
X107353773Y-120886196D01*
X107329504Y-120889796D01*
X107305000Y-120891000D01*
X106055000Y-120891000D01*
X106030496Y-120889796D01*
X106006227Y-120886196D01*
X105982429Y-120880235D01*
X105959329Y-120871970D01*
X105937151Y-120861480D01*
X105916107Y-120848867D01*
X105896402Y-120834253D01*
X105878223Y-120817777D01*
X105861747Y-120799598D01*
X105847133Y-120779893D01*
X105834520Y-120758849D01*
X105824030Y-120736671D01*
X105815765Y-120713571D01*
X105809804Y-120689773D01*
X105806204Y-120665504D01*
X105805000Y-120641000D01*
X105805000Y-119716000D01*
X105806204Y-119691496D01*
X105809804Y-119667227D01*
X105815765Y-119643429D01*
X105824030Y-119620329D01*
X105834520Y-119598151D01*
X105847133Y-119577107D01*
X105861747Y-119557402D01*
X105878223Y-119539223D01*
X105896402Y-119522747D01*
X105916107Y-119508133D01*
X105937151Y-119495520D01*
X105959329Y-119485030D01*
X105982429Y-119476765D01*
X106006227Y-119470804D01*
X106030496Y-119467204D01*
X106055000Y-119466000D01*
X107305000Y-119466000D01*
X107329504Y-119467204D01*
X107329504Y-119467204D01*
G37*
D16*
X106680000Y-120178500D03*
D11*
G36*
X107329504Y-101396704D02*
G01*
X107353773Y-101400304D01*
X107377571Y-101406265D01*
X107400671Y-101414530D01*
X107422849Y-101425020D01*
X107443893Y-101437633D01*
X107463598Y-101452247D01*
X107481777Y-101468723D01*
X107498253Y-101486902D01*
X107512867Y-101506607D01*
X107525480Y-101527651D01*
X107535970Y-101549829D01*
X107544235Y-101572929D01*
X107550196Y-101596727D01*
X107553796Y-101620996D01*
X107555000Y-101645500D01*
X107555000Y-102570500D01*
X107553796Y-102595004D01*
X107550196Y-102619273D01*
X107544235Y-102643071D01*
X107535970Y-102666171D01*
X107525480Y-102688349D01*
X107512867Y-102709393D01*
X107498253Y-102729098D01*
X107481777Y-102747277D01*
X107463598Y-102763753D01*
X107443893Y-102778367D01*
X107422849Y-102790980D01*
X107400671Y-102801470D01*
X107377571Y-102809735D01*
X107353773Y-102815696D01*
X107329504Y-102819296D01*
X107305000Y-102820500D01*
X106055000Y-102820500D01*
X106030496Y-102819296D01*
X106006227Y-102815696D01*
X105982429Y-102809735D01*
X105959329Y-102801470D01*
X105937151Y-102790980D01*
X105916107Y-102778367D01*
X105896402Y-102763753D01*
X105878223Y-102747277D01*
X105861747Y-102729098D01*
X105847133Y-102709393D01*
X105834520Y-102688349D01*
X105824030Y-102666171D01*
X105815765Y-102643071D01*
X105809804Y-102619273D01*
X105806204Y-102595004D01*
X105805000Y-102570500D01*
X105805000Y-101645500D01*
X105806204Y-101620996D01*
X105809804Y-101596727D01*
X105815765Y-101572929D01*
X105824030Y-101549829D01*
X105834520Y-101527651D01*
X105847133Y-101506607D01*
X105861747Y-101486902D01*
X105878223Y-101468723D01*
X105896402Y-101452247D01*
X105916107Y-101437633D01*
X105937151Y-101425020D01*
X105959329Y-101414530D01*
X105982429Y-101406265D01*
X106006227Y-101400304D01*
X106030496Y-101396704D01*
X106055000Y-101395500D01*
X107305000Y-101395500D01*
X107329504Y-101396704D01*
X107329504Y-101396704D01*
G37*
D16*
X106680000Y-102108000D03*
D11*
G36*
X107329504Y-98421704D02*
G01*
X107353773Y-98425304D01*
X107377571Y-98431265D01*
X107400671Y-98439530D01*
X107422849Y-98450020D01*
X107443893Y-98462633D01*
X107463598Y-98477247D01*
X107481777Y-98493723D01*
X107498253Y-98511902D01*
X107512867Y-98531607D01*
X107525480Y-98552651D01*
X107535970Y-98574829D01*
X107544235Y-98597929D01*
X107550196Y-98621727D01*
X107553796Y-98645996D01*
X107555000Y-98670500D01*
X107555000Y-99595500D01*
X107553796Y-99620004D01*
X107550196Y-99644273D01*
X107544235Y-99668071D01*
X107535970Y-99691171D01*
X107525480Y-99713349D01*
X107512867Y-99734393D01*
X107498253Y-99754098D01*
X107481777Y-99772277D01*
X107463598Y-99788753D01*
X107443893Y-99803367D01*
X107422849Y-99815980D01*
X107400671Y-99826470D01*
X107377571Y-99834735D01*
X107353773Y-99840696D01*
X107329504Y-99844296D01*
X107305000Y-99845500D01*
X106055000Y-99845500D01*
X106030496Y-99844296D01*
X106006227Y-99840696D01*
X105982429Y-99834735D01*
X105959329Y-99826470D01*
X105937151Y-99815980D01*
X105916107Y-99803367D01*
X105896402Y-99788753D01*
X105878223Y-99772277D01*
X105861747Y-99754098D01*
X105847133Y-99734393D01*
X105834520Y-99713349D01*
X105824030Y-99691171D01*
X105815765Y-99668071D01*
X105809804Y-99644273D01*
X105806204Y-99620004D01*
X105805000Y-99595500D01*
X105805000Y-98670500D01*
X105806204Y-98645996D01*
X105809804Y-98621727D01*
X105815765Y-98597929D01*
X105824030Y-98574829D01*
X105834520Y-98552651D01*
X105847133Y-98531607D01*
X105861747Y-98511902D01*
X105878223Y-98493723D01*
X105896402Y-98477247D01*
X105916107Y-98462633D01*
X105937151Y-98450020D01*
X105959329Y-98439530D01*
X105982429Y-98431265D01*
X106006227Y-98425304D01*
X106030496Y-98421704D01*
X106055000Y-98420500D01*
X107305000Y-98420500D01*
X107329504Y-98421704D01*
X107329504Y-98421704D01*
G37*
D16*
X106680000Y-99133000D03*
D11*
G36*
X119395504Y-123332204D02*
G01*
X119419773Y-123335804D01*
X119443571Y-123341765D01*
X119466671Y-123350030D01*
X119488849Y-123360520D01*
X119509893Y-123373133D01*
X119529598Y-123387747D01*
X119547777Y-123404223D01*
X119564253Y-123422402D01*
X119578867Y-123442107D01*
X119591480Y-123463151D01*
X119601970Y-123485329D01*
X119610235Y-123508429D01*
X119616196Y-123532227D01*
X119619796Y-123556496D01*
X119621000Y-123581000D01*
X119621000Y-124831000D01*
X119619796Y-124855504D01*
X119616196Y-124879773D01*
X119610235Y-124903571D01*
X119601970Y-124926671D01*
X119591480Y-124948849D01*
X119578867Y-124969893D01*
X119564253Y-124989598D01*
X119547777Y-125007777D01*
X119529598Y-125024253D01*
X119509893Y-125038867D01*
X119488849Y-125051480D01*
X119466671Y-125061970D01*
X119443571Y-125070235D01*
X119419773Y-125076196D01*
X119395504Y-125079796D01*
X119371000Y-125081000D01*
X118446000Y-125081000D01*
X118421496Y-125079796D01*
X118397227Y-125076196D01*
X118373429Y-125070235D01*
X118350329Y-125061970D01*
X118328151Y-125051480D01*
X118307107Y-125038867D01*
X118287402Y-125024253D01*
X118269223Y-125007777D01*
X118252747Y-124989598D01*
X118238133Y-124969893D01*
X118225520Y-124948849D01*
X118215030Y-124926671D01*
X118206765Y-124903571D01*
X118200804Y-124879773D01*
X118197204Y-124855504D01*
X118196000Y-124831000D01*
X118196000Y-123581000D01*
X118197204Y-123556496D01*
X118200804Y-123532227D01*
X118206765Y-123508429D01*
X118215030Y-123485329D01*
X118225520Y-123463151D01*
X118238133Y-123442107D01*
X118252747Y-123422402D01*
X118269223Y-123404223D01*
X118287402Y-123387747D01*
X118307107Y-123373133D01*
X118328151Y-123360520D01*
X118350329Y-123350030D01*
X118373429Y-123341765D01*
X118397227Y-123335804D01*
X118421496Y-123332204D01*
X118446000Y-123331000D01*
X119371000Y-123331000D01*
X119395504Y-123332204D01*
X119395504Y-123332204D01*
G37*
D16*
X118908500Y-124206000D03*
D11*
G36*
X122370504Y-123332204D02*
G01*
X122394773Y-123335804D01*
X122418571Y-123341765D01*
X122441671Y-123350030D01*
X122463849Y-123360520D01*
X122484893Y-123373133D01*
X122504598Y-123387747D01*
X122522777Y-123404223D01*
X122539253Y-123422402D01*
X122553867Y-123442107D01*
X122566480Y-123463151D01*
X122576970Y-123485329D01*
X122585235Y-123508429D01*
X122591196Y-123532227D01*
X122594796Y-123556496D01*
X122596000Y-123581000D01*
X122596000Y-124831000D01*
X122594796Y-124855504D01*
X122591196Y-124879773D01*
X122585235Y-124903571D01*
X122576970Y-124926671D01*
X122566480Y-124948849D01*
X122553867Y-124969893D01*
X122539253Y-124989598D01*
X122522777Y-125007777D01*
X122504598Y-125024253D01*
X122484893Y-125038867D01*
X122463849Y-125051480D01*
X122441671Y-125061970D01*
X122418571Y-125070235D01*
X122394773Y-125076196D01*
X122370504Y-125079796D01*
X122346000Y-125081000D01*
X121421000Y-125081000D01*
X121396496Y-125079796D01*
X121372227Y-125076196D01*
X121348429Y-125070235D01*
X121325329Y-125061970D01*
X121303151Y-125051480D01*
X121282107Y-125038867D01*
X121262402Y-125024253D01*
X121244223Y-125007777D01*
X121227747Y-124989598D01*
X121213133Y-124969893D01*
X121200520Y-124948849D01*
X121190030Y-124926671D01*
X121181765Y-124903571D01*
X121175804Y-124879773D01*
X121172204Y-124855504D01*
X121171000Y-124831000D01*
X121171000Y-123581000D01*
X121172204Y-123556496D01*
X121175804Y-123532227D01*
X121181765Y-123508429D01*
X121190030Y-123485329D01*
X121200520Y-123463151D01*
X121213133Y-123442107D01*
X121227747Y-123422402D01*
X121244223Y-123404223D01*
X121262402Y-123387747D01*
X121282107Y-123373133D01*
X121303151Y-123360520D01*
X121325329Y-123350030D01*
X121348429Y-123341765D01*
X121372227Y-123335804D01*
X121396496Y-123332204D01*
X121421000Y-123331000D01*
X122346000Y-123331000D01*
X122370504Y-123332204D01*
X122370504Y-123332204D01*
G37*
D16*
X121883500Y-124206000D03*
D11*
G36*
X117489504Y-101360204D02*
G01*
X117513773Y-101363804D01*
X117537571Y-101369765D01*
X117560671Y-101378030D01*
X117582849Y-101388520D01*
X117603893Y-101401133D01*
X117623598Y-101415747D01*
X117641777Y-101432223D01*
X117658253Y-101450402D01*
X117672867Y-101470107D01*
X117685480Y-101491151D01*
X117695970Y-101513329D01*
X117704235Y-101536429D01*
X117710196Y-101560227D01*
X117713796Y-101584496D01*
X117715000Y-101609000D01*
X117715000Y-102534000D01*
X117713796Y-102558504D01*
X117710196Y-102582773D01*
X117704235Y-102606571D01*
X117695970Y-102629671D01*
X117685480Y-102651849D01*
X117672867Y-102672893D01*
X117658253Y-102692598D01*
X117641777Y-102710777D01*
X117623598Y-102727253D01*
X117603893Y-102741867D01*
X117582849Y-102754480D01*
X117560671Y-102764970D01*
X117537571Y-102773235D01*
X117513773Y-102779196D01*
X117489504Y-102782796D01*
X117465000Y-102784000D01*
X116215000Y-102784000D01*
X116190496Y-102782796D01*
X116166227Y-102779196D01*
X116142429Y-102773235D01*
X116119329Y-102764970D01*
X116097151Y-102754480D01*
X116076107Y-102741867D01*
X116056402Y-102727253D01*
X116038223Y-102710777D01*
X116021747Y-102692598D01*
X116007133Y-102672893D01*
X115994520Y-102651849D01*
X115984030Y-102629671D01*
X115975765Y-102606571D01*
X115969804Y-102582773D01*
X115966204Y-102558504D01*
X115965000Y-102534000D01*
X115965000Y-101609000D01*
X115966204Y-101584496D01*
X115969804Y-101560227D01*
X115975765Y-101536429D01*
X115984030Y-101513329D01*
X115994520Y-101491151D01*
X116007133Y-101470107D01*
X116021747Y-101450402D01*
X116038223Y-101432223D01*
X116056402Y-101415747D01*
X116076107Y-101401133D01*
X116097151Y-101388520D01*
X116119329Y-101378030D01*
X116142429Y-101369765D01*
X116166227Y-101363804D01*
X116190496Y-101360204D01*
X116215000Y-101359000D01*
X117465000Y-101359000D01*
X117489504Y-101360204D01*
X117489504Y-101360204D01*
G37*
D16*
X116840000Y-102071500D03*
D11*
G36*
X117489504Y-98385204D02*
G01*
X117513773Y-98388804D01*
X117537571Y-98394765D01*
X117560671Y-98403030D01*
X117582849Y-98413520D01*
X117603893Y-98426133D01*
X117623598Y-98440747D01*
X117641777Y-98457223D01*
X117658253Y-98475402D01*
X117672867Y-98495107D01*
X117685480Y-98516151D01*
X117695970Y-98538329D01*
X117704235Y-98561429D01*
X117710196Y-98585227D01*
X117713796Y-98609496D01*
X117715000Y-98634000D01*
X117715000Y-99559000D01*
X117713796Y-99583504D01*
X117710196Y-99607773D01*
X117704235Y-99631571D01*
X117695970Y-99654671D01*
X117685480Y-99676849D01*
X117672867Y-99697893D01*
X117658253Y-99717598D01*
X117641777Y-99735777D01*
X117623598Y-99752253D01*
X117603893Y-99766867D01*
X117582849Y-99779480D01*
X117560671Y-99789970D01*
X117537571Y-99798235D01*
X117513773Y-99804196D01*
X117489504Y-99807796D01*
X117465000Y-99809000D01*
X116215000Y-99809000D01*
X116190496Y-99807796D01*
X116166227Y-99804196D01*
X116142429Y-99798235D01*
X116119329Y-99789970D01*
X116097151Y-99779480D01*
X116076107Y-99766867D01*
X116056402Y-99752253D01*
X116038223Y-99735777D01*
X116021747Y-99717598D01*
X116007133Y-99697893D01*
X115994520Y-99676849D01*
X115984030Y-99654671D01*
X115975765Y-99631571D01*
X115969804Y-99607773D01*
X115966204Y-99583504D01*
X115965000Y-99559000D01*
X115965000Y-98634000D01*
X115966204Y-98609496D01*
X115969804Y-98585227D01*
X115975765Y-98561429D01*
X115984030Y-98538329D01*
X115994520Y-98516151D01*
X116007133Y-98495107D01*
X116021747Y-98475402D01*
X116038223Y-98457223D01*
X116056402Y-98440747D01*
X116076107Y-98426133D01*
X116097151Y-98413520D01*
X116119329Y-98403030D01*
X116142429Y-98394765D01*
X116166227Y-98388804D01*
X116190496Y-98385204D01*
X116215000Y-98384000D01*
X117465000Y-98384000D01*
X117489504Y-98385204D01*
X117489504Y-98385204D01*
G37*
D16*
X116840000Y-99096500D03*
D18*
X116462000Y-73152000D03*
X100962000Y-73152000D03*
X116462000Y-65024000D03*
X100962000Y-65024000D03*
D11*
G36*
X108091504Y-144540204D02*
G01*
X108115773Y-144543804D01*
X108139571Y-144549765D01*
X108162671Y-144558030D01*
X108184849Y-144568520D01*
X108205893Y-144581133D01*
X108225598Y-144595747D01*
X108243777Y-144612223D01*
X108260253Y-144630402D01*
X108274867Y-144650107D01*
X108287480Y-144671151D01*
X108297970Y-144693329D01*
X108306235Y-144716429D01*
X108312196Y-144740227D01*
X108315796Y-144764496D01*
X108317000Y-144789000D01*
X108317000Y-145714000D01*
X108315796Y-145738504D01*
X108312196Y-145762773D01*
X108306235Y-145786571D01*
X108297970Y-145809671D01*
X108287480Y-145831849D01*
X108274867Y-145852893D01*
X108260253Y-145872598D01*
X108243777Y-145890777D01*
X108225598Y-145907253D01*
X108205893Y-145921867D01*
X108184849Y-145934480D01*
X108162671Y-145944970D01*
X108139571Y-145953235D01*
X108115773Y-145959196D01*
X108091504Y-145962796D01*
X108067000Y-145964000D01*
X106817000Y-145964000D01*
X106792496Y-145962796D01*
X106768227Y-145959196D01*
X106744429Y-145953235D01*
X106721329Y-145944970D01*
X106699151Y-145934480D01*
X106678107Y-145921867D01*
X106658402Y-145907253D01*
X106640223Y-145890777D01*
X106623747Y-145872598D01*
X106609133Y-145852893D01*
X106596520Y-145831849D01*
X106586030Y-145809671D01*
X106577765Y-145786571D01*
X106571804Y-145762773D01*
X106568204Y-145738504D01*
X106567000Y-145714000D01*
X106567000Y-144789000D01*
X106568204Y-144764496D01*
X106571804Y-144740227D01*
X106577765Y-144716429D01*
X106586030Y-144693329D01*
X106596520Y-144671151D01*
X106609133Y-144650107D01*
X106623747Y-144630402D01*
X106640223Y-144612223D01*
X106658402Y-144595747D01*
X106678107Y-144581133D01*
X106699151Y-144568520D01*
X106721329Y-144558030D01*
X106744429Y-144549765D01*
X106768227Y-144543804D01*
X106792496Y-144540204D01*
X106817000Y-144539000D01*
X108067000Y-144539000D01*
X108091504Y-144540204D01*
X108091504Y-144540204D01*
G37*
D16*
X107442000Y-145251500D03*
D11*
G36*
X108091504Y-141565204D02*
G01*
X108115773Y-141568804D01*
X108139571Y-141574765D01*
X108162671Y-141583030D01*
X108184849Y-141593520D01*
X108205893Y-141606133D01*
X108225598Y-141620747D01*
X108243777Y-141637223D01*
X108260253Y-141655402D01*
X108274867Y-141675107D01*
X108287480Y-141696151D01*
X108297970Y-141718329D01*
X108306235Y-141741429D01*
X108312196Y-141765227D01*
X108315796Y-141789496D01*
X108317000Y-141814000D01*
X108317000Y-142739000D01*
X108315796Y-142763504D01*
X108312196Y-142787773D01*
X108306235Y-142811571D01*
X108297970Y-142834671D01*
X108287480Y-142856849D01*
X108274867Y-142877893D01*
X108260253Y-142897598D01*
X108243777Y-142915777D01*
X108225598Y-142932253D01*
X108205893Y-142946867D01*
X108184849Y-142959480D01*
X108162671Y-142969970D01*
X108139571Y-142978235D01*
X108115773Y-142984196D01*
X108091504Y-142987796D01*
X108067000Y-142989000D01*
X106817000Y-142989000D01*
X106792496Y-142987796D01*
X106768227Y-142984196D01*
X106744429Y-142978235D01*
X106721329Y-142969970D01*
X106699151Y-142959480D01*
X106678107Y-142946867D01*
X106658402Y-142932253D01*
X106640223Y-142915777D01*
X106623747Y-142897598D01*
X106609133Y-142877893D01*
X106596520Y-142856849D01*
X106586030Y-142834671D01*
X106577765Y-142811571D01*
X106571804Y-142787773D01*
X106568204Y-142763504D01*
X106567000Y-142739000D01*
X106567000Y-141814000D01*
X106568204Y-141789496D01*
X106571804Y-141765227D01*
X106577765Y-141741429D01*
X106586030Y-141718329D01*
X106596520Y-141696151D01*
X106609133Y-141675107D01*
X106623747Y-141655402D01*
X106640223Y-141637223D01*
X106658402Y-141620747D01*
X106678107Y-141606133D01*
X106699151Y-141593520D01*
X106721329Y-141583030D01*
X106744429Y-141574765D01*
X106768227Y-141568804D01*
X106792496Y-141565204D01*
X106817000Y-141564000D01*
X108067000Y-141564000D01*
X108091504Y-141565204D01*
X108091504Y-141565204D01*
G37*
D16*
X107442000Y-142276500D03*
D11*
G36*
X127395504Y-114568204D02*
G01*
X127419773Y-114571804D01*
X127443571Y-114577765D01*
X127466671Y-114586030D01*
X127488849Y-114596520D01*
X127509893Y-114609133D01*
X127529598Y-114623747D01*
X127547777Y-114640223D01*
X127564253Y-114658402D01*
X127578867Y-114678107D01*
X127591480Y-114699151D01*
X127601970Y-114721329D01*
X127610235Y-114744429D01*
X127616196Y-114768227D01*
X127619796Y-114792496D01*
X127621000Y-114817000D01*
X127621000Y-115742000D01*
X127619796Y-115766504D01*
X127616196Y-115790773D01*
X127610235Y-115814571D01*
X127601970Y-115837671D01*
X127591480Y-115859849D01*
X127578867Y-115880893D01*
X127564253Y-115900598D01*
X127547777Y-115918777D01*
X127529598Y-115935253D01*
X127509893Y-115949867D01*
X127488849Y-115962480D01*
X127466671Y-115972970D01*
X127443571Y-115981235D01*
X127419773Y-115987196D01*
X127395504Y-115990796D01*
X127371000Y-115992000D01*
X126121000Y-115992000D01*
X126096496Y-115990796D01*
X126072227Y-115987196D01*
X126048429Y-115981235D01*
X126025329Y-115972970D01*
X126003151Y-115962480D01*
X125982107Y-115949867D01*
X125962402Y-115935253D01*
X125944223Y-115918777D01*
X125927747Y-115900598D01*
X125913133Y-115880893D01*
X125900520Y-115859849D01*
X125890030Y-115837671D01*
X125881765Y-115814571D01*
X125875804Y-115790773D01*
X125872204Y-115766504D01*
X125871000Y-115742000D01*
X125871000Y-114817000D01*
X125872204Y-114792496D01*
X125875804Y-114768227D01*
X125881765Y-114744429D01*
X125890030Y-114721329D01*
X125900520Y-114699151D01*
X125913133Y-114678107D01*
X125927747Y-114658402D01*
X125944223Y-114640223D01*
X125962402Y-114623747D01*
X125982107Y-114609133D01*
X126003151Y-114596520D01*
X126025329Y-114586030D01*
X126048429Y-114577765D01*
X126072227Y-114571804D01*
X126096496Y-114568204D01*
X126121000Y-114567000D01*
X127371000Y-114567000D01*
X127395504Y-114568204D01*
X127395504Y-114568204D01*
G37*
D16*
X126746000Y-115279500D03*
D11*
G36*
X127395504Y-111593204D02*
G01*
X127419773Y-111596804D01*
X127443571Y-111602765D01*
X127466671Y-111611030D01*
X127488849Y-111621520D01*
X127509893Y-111634133D01*
X127529598Y-111648747D01*
X127547777Y-111665223D01*
X127564253Y-111683402D01*
X127578867Y-111703107D01*
X127591480Y-111724151D01*
X127601970Y-111746329D01*
X127610235Y-111769429D01*
X127616196Y-111793227D01*
X127619796Y-111817496D01*
X127621000Y-111842000D01*
X127621000Y-112767000D01*
X127619796Y-112791504D01*
X127616196Y-112815773D01*
X127610235Y-112839571D01*
X127601970Y-112862671D01*
X127591480Y-112884849D01*
X127578867Y-112905893D01*
X127564253Y-112925598D01*
X127547777Y-112943777D01*
X127529598Y-112960253D01*
X127509893Y-112974867D01*
X127488849Y-112987480D01*
X127466671Y-112997970D01*
X127443571Y-113006235D01*
X127419773Y-113012196D01*
X127395504Y-113015796D01*
X127371000Y-113017000D01*
X126121000Y-113017000D01*
X126096496Y-113015796D01*
X126072227Y-113012196D01*
X126048429Y-113006235D01*
X126025329Y-112997970D01*
X126003151Y-112987480D01*
X125982107Y-112974867D01*
X125962402Y-112960253D01*
X125944223Y-112943777D01*
X125927747Y-112925598D01*
X125913133Y-112905893D01*
X125900520Y-112884849D01*
X125890030Y-112862671D01*
X125881765Y-112839571D01*
X125875804Y-112815773D01*
X125872204Y-112791504D01*
X125871000Y-112767000D01*
X125871000Y-111842000D01*
X125872204Y-111817496D01*
X125875804Y-111793227D01*
X125881765Y-111769429D01*
X125890030Y-111746329D01*
X125900520Y-111724151D01*
X125913133Y-111703107D01*
X125927747Y-111683402D01*
X125944223Y-111665223D01*
X125962402Y-111648747D01*
X125982107Y-111634133D01*
X126003151Y-111621520D01*
X126025329Y-111611030D01*
X126048429Y-111602765D01*
X126072227Y-111596804D01*
X126096496Y-111593204D01*
X126121000Y-111592000D01*
X127371000Y-111592000D01*
X127395504Y-111593204D01*
X127395504Y-111593204D01*
G37*
D16*
X126746000Y-112304500D03*
D11*
G36*
X142690504Y-90058204D02*
G01*
X142714773Y-90061804D01*
X142738571Y-90067765D01*
X142761671Y-90076030D01*
X142783849Y-90086520D01*
X142804893Y-90099133D01*
X142824598Y-90113747D01*
X142842777Y-90130223D01*
X142859253Y-90148402D01*
X142873867Y-90168107D01*
X142886480Y-90189151D01*
X142896970Y-90211329D01*
X142905235Y-90234429D01*
X142911196Y-90258227D01*
X142914796Y-90282496D01*
X142916000Y-90307000D01*
X142916000Y-91557000D01*
X142914796Y-91581504D01*
X142911196Y-91605773D01*
X142905235Y-91629571D01*
X142896970Y-91652671D01*
X142886480Y-91674849D01*
X142873867Y-91695893D01*
X142859253Y-91715598D01*
X142842777Y-91733777D01*
X142824598Y-91750253D01*
X142804893Y-91764867D01*
X142783849Y-91777480D01*
X142761671Y-91787970D01*
X142738571Y-91796235D01*
X142714773Y-91802196D01*
X142690504Y-91805796D01*
X142666000Y-91807000D01*
X141741000Y-91807000D01*
X141716496Y-91805796D01*
X141692227Y-91802196D01*
X141668429Y-91796235D01*
X141645329Y-91787970D01*
X141623151Y-91777480D01*
X141602107Y-91764867D01*
X141582402Y-91750253D01*
X141564223Y-91733777D01*
X141547747Y-91715598D01*
X141533133Y-91695893D01*
X141520520Y-91674849D01*
X141510030Y-91652671D01*
X141501765Y-91629571D01*
X141495804Y-91605773D01*
X141492204Y-91581504D01*
X141491000Y-91557000D01*
X141491000Y-90307000D01*
X141492204Y-90282496D01*
X141495804Y-90258227D01*
X141501765Y-90234429D01*
X141510030Y-90211329D01*
X141520520Y-90189151D01*
X141533133Y-90168107D01*
X141547747Y-90148402D01*
X141564223Y-90130223D01*
X141582402Y-90113747D01*
X141602107Y-90099133D01*
X141623151Y-90086520D01*
X141645329Y-90076030D01*
X141668429Y-90067765D01*
X141692227Y-90061804D01*
X141716496Y-90058204D01*
X141741000Y-90057000D01*
X142666000Y-90057000D01*
X142690504Y-90058204D01*
X142690504Y-90058204D01*
G37*
D16*
X142203500Y-90932000D03*
D11*
G36*
X139715504Y-90058204D02*
G01*
X139739773Y-90061804D01*
X139763571Y-90067765D01*
X139786671Y-90076030D01*
X139808849Y-90086520D01*
X139829893Y-90099133D01*
X139849598Y-90113747D01*
X139867777Y-90130223D01*
X139884253Y-90148402D01*
X139898867Y-90168107D01*
X139911480Y-90189151D01*
X139921970Y-90211329D01*
X139930235Y-90234429D01*
X139936196Y-90258227D01*
X139939796Y-90282496D01*
X139941000Y-90307000D01*
X139941000Y-91557000D01*
X139939796Y-91581504D01*
X139936196Y-91605773D01*
X139930235Y-91629571D01*
X139921970Y-91652671D01*
X139911480Y-91674849D01*
X139898867Y-91695893D01*
X139884253Y-91715598D01*
X139867777Y-91733777D01*
X139849598Y-91750253D01*
X139829893Y-91764867D01*
X139808849Y-91777480D01*
X139786671Y-91787970D01*
X139763571Y-91796235D01*
X139739773Y-91802196D01*
X139715504Y-91805796D01*
X139691000Y-91807000D01*
X138766000Y-91807000D01*
X138741496Y-91805796D01*
X138717227Y-91802196D01*
X138693429Y-91796235D01*
X138670329Y-91787970D01*
X138648151Y-91777480D01*
X138627107Y-91764867D01*
X138607402Y-91750253D01*
X138589223Y-91733777D01*
X138572747Y-91715598D01*
X138558133Y-91695893D01*
X138545520Y-91674849D01*
X138535030Y-91652671D01*
X138526765Y-91629571D01*
X138520804Y-91605773D01*
X138517204Y-91581504D01*
X138516000Y-91557000D01*
X138516000Y-90307000D01*
X138517204Y-90282496D01*
X138520804Y-90258227D01*
X138526765Y-90234429D01*
X138535030Y-90211329D01*
X138545520Y-90189151D01*
X138558133Y-90168107D01*
X138572747Y-90148402D01*
X138589223Y-90130223D01*
X138607402Y-90113747D01*
X138627107Y-90099133D01*
X138648151Y-90086520D01*
X138670329Y-90076030D01*
X138693429Y-90067765D01*
X138717227Y-90061804D01*
X138741496Y-90058204D01*
X138766000Y-90057000D01*
X139691000Y-90057000D01*
X139715504Y-90058204D01*
X139715504Y-90058204D01*
G37*
D16*
X139228500Y-90932000D03*
D11*
G36*
X149493504Y-118632204D02*
G01*
X149517773Y-118635804D01*
X149541571Y-118641765D01*
X149564671Y-118650030D01*
X149586849Y-118660520D01*
X149607893Y-118673133D01*
X149627598Y-118687747D01*
X149645777Y-118704223D01*
X149662253Y-118722402D01*
X149676867Y-118742107D01*
X149689480Y-118763151D01*
X149699970Y-118785329D01*
X149708235Y-118808429D01*
X149714196Y-118832227D01*
X149717796Y-118856496D01*
X149719000Y-118881000D01*
X149719000Y-119806000D01*
X149717796Y-119830504D01*
X149714196Y-119854773D01*
X149708235Y-119878571D01*
X149699970Y-119901671D01*
X149689480Y-119923849D01*
X149676867Y-119944893D01*
X149662253Y-119964598D01*
X149645777Y-119982777D01*
X149627598Y-119999253D01*
X149607893Y-120013867D01*
X149586849Y-120026480D01*
X149564671Y-120036970D01*
X149541571Y-120045235D01*
X149517773Y-120051196D01*
X149493504Y-120054796D01*
X149469000Y-120056000D01*
X148219000Y-120056000D01*
X148194496Y-120054796D01*
X148170227Y-120051196D01*
X148146429Y-120045235D01*
X148123329Y-120036970D01*
X148101151Y-120026480D01*
X148080107Y-120013867D01*
X148060402Y-119999253D01*
X148042223Y-119982777D01*
X148025747Y-119964598D01*
X148011133Y-119944893D01*
X147998520Y-119923849D01*
X147988030Y-119901671D01*
X147979765Y-119878571D01*
X147973804Y-119854773D01*
X147970204Y-119830504D01*
X147969000Y-119806000D01*
X147969000Y-118881000D01*
X147970204Y-118856496D01*
X147973804Y-118832227D01*
X147979765Y-118808429D01*
X147988030Y-118785329D01*
X147998520Y-118763151D01*
X148011133Y-118742107D01*
X148025747Y-118722402D01*
X148042223Y-118704223D01*
X148060402Y-118687747D01*
X148080107Y-118673133D01*
X148101151Y-118660520D01*
X148123329Y-118650030D01*
X148146429Y-118641765D01*
X148170227Y-118635804D01*
X148194496Y-118632204D01*
X148219000Y-118631000D01*
X149469000Y-118631000D01*
X149493504Y-118632204D01*
X149493504Y-118632204D01*
G37*
D16*
X148844000Y-119343500D03*
D11*
G36*
X149493504Y-115657204D02*
G01*
X149517773Y-115660804D01*
X149541571Y-115666765D01*
X149564671Y-115675030D01*
X149586849Y-115685520D01*
X149607893Y-115698133D01*
X149627598Y-115712747D01*
X149645777Y-115729223D01*
X149662253Y-115747402D01*
X149676867Y-115767107D01*
X149689480Y-115788151D01*
X149699970Y-115810329D01*
X149708235Y-115833429D01*
X149714196Y-115857227D01*
X149717796Y-115881496D01*
X149719000Y-115906000D01*
X149719000Y-116831000D01*
X149717796Y-116855504D01*
X149714196Y-116879773D01*
X149708235Y-116903571D01*
X149699970Y-116926671D01*
X149689480Y-116948849D01*
X149676867Y-116969893D01*
X149662253Y-116989598D01*
X149645777Y-117007777D01*
X149627598Y-117024253D01*
X149607893Y-117038867D01*
X149586849Y-117051480D01*
X149564671Y-117061970D01*
X149541571Y-117070235D01*
X149517773Y-117076196D01*
X149493504Y-117079796D01*
X149469000Y-117081000D01*
X148219000Y-117081000D01*
X148194496Y-117079796D01*
X148170227Y-117076196D01*
X148146429Y-117070235D01*
X148123329Y-117061970D01*
X148101151Y-117051480D01*
X148080107Y-117038867D01*
X148060402Y-117024253D01*
X148042223Y-117007777D01*
X148025747Y-116989598D01*
X148011133Y-116969893D01*
X147998520Y-116948849D01*
X147988030Y-116926671D01*
X147979765Y-116903571D01*
X147973804Y-116879773D01*
X147970204Y-116855504D01*
X147969000Y-116831000D01*
X147969000Y-115906000D01*
X147970204Y-115881496D01*
X147973804Y-115857227D01*
X147979765Y-115833429D01*
X147988030Y-115810329D01*
X147998520Y-115788151D01*
X148011133Y-115767107D01*
X148025747Y-115747402D01*
X148042223Y-115729223D01*
X148060402Y-115712747D01*
X148080107Y-115698133D01*
X148101151Y-115685520D01*
X148123329Y-115675030D01*
X148146429Y-115666765D01*
X148170227Y-115660804D01*
X148194496Y-115657204D01*
X148219000Y-115656000D01*
X149469000Y-115656000D01*
X149493504Y-115657204D01*
X149493504Y-115657204D01*
G37*
D16*
X148844000Y-116368500D03*
D11*
G36*
X123839504Y-111593204D02*
G01*
X123863773Y-111596804D01*
X123887571Y-111602765D01*
X123910671Y-111611030D01*
X123932849Y-111621520D01*
X123953893Y-111634133D01*
X123973598Y-111648747D01*
X123991777Y-111665223D01*
X124008253Y-111683402D01*
X124022867Y-111703107D01*
X124035480Y-111724151D01*
X124045970Y-111746329D01*
X124054235Y-111769429D01*
X124060196Y-111793227D01*
X124063796Y-111817496D01*
X124065000Y-111842000D01*
X124065000Y-112767000D01*
X124063796Y-112791504D01*
X124060196Y-112815773D01*
X124054235Y-112839571D01*
X124045970Y-112862671D01*
X124035480Y-112884849D01*
X124022867Y-112905893D01*
X124008253Y-112925598D01*
X123991777Y-112943777D01*
X123973598Y-112960253D01*
X123953893Y-112974867D01*
X123932849Y-112987480D01*
X123910671Y-112997970D01*
X123887571Y-113006235D01*
X123863773Y-113012196D01*
X123839504Y-113015796D01*
X123815000Y-113017000D01*
X122565000Y-113017000D01*
X122540496Y-113015796D01*
X122516227Y-113012196D01*
X122492429Y-113006235D01*
X122469329Y-112997970D01*
X122447151Y-112987480D01*
X122426107Y-112974867D01*
X122406402Y-112960253D01*
X122388223Y-112943777D01*
X122371747Y-112925598D01*
X122357133Y-112905893D01*
X122344520Y-112884849D01*
X122334030Y-112862671D01*
X122325765Y-112839571D01*
X122319804Y-112815773D01*
X122316204Y-112791504D01*
X122315000Y-112767000D01*
X122315000Y-111842000D01*
X122316204Y-111817496D01*
X122319804Y-111793227D01*
X122325765Y-111769429D01*
X122334030Y-111746329D01*
X122344520Y-111724151D01*
X122357133Y-111703107D01*
X122371747Y-111683402D01*
X122388223Y-111665223D01*
X122406402Y-111648747D01*
X122426107Y-111634133D01*
X122447151Y-111621520D01*
X122469329Y-111611030D01*
X122492429Y-111602765D01*
X122516227Y-111596804D01*
X122540496Y-111593204D01*
X122565000Y-111592000D01*
X123815000Y-111592000D01*
X123839504Y-111593204D01*
X123839504Y-111593204D01*
G37*
D16*
X123190000Y-112304500D03*
D11*
G36*
X123839504Y-114568204D02*
G01*
X123863773Y-114571804D01*
X123887571Y-114577765D01*
X123910671Y-114586030D01*
X123932849Y-114596520D01*
X123953893Y-114609133D01*
X123973598Y-114623747D01*
X123991777Y-114640223D01*
X124008253Y-114658402D01*
X124022867Y-114678107D01*
X124035480Y-114699151D01*
X124045970Y-114721329D01*
X124054235Y-114744429D01*
X124060196Y-114768227D01*
X124063796Y-114792496D01*
X124065000Y-114817000D01*
X124065000Y-115742000D01*
X124063796Y-115766504D01*
X124060196Y-115790773D01*
X124054235Y-115814571D01*
X124045970Y-115837671D01*
X124035480Y-115859849D01*
X124022867Y-115880893D01*
X124008253Y-115900598D01*
X123991777Y-115918777D01*
X123973598Y-115935253D01*
X123953893Y-115949867D01*
X123932849Y-115962480D01*
X123910671Y-115972970D01*
X123887571Y-115981235D01*
X123863773Y-115987196D01*
X123839504Y-115990796D01*
X123815000Y-115992000D01*
X122565000Y-115992000D01*
X122540496Y-115990796D01*
X122516227Y-115987196D01*
X122492429Y-115981235D01*
X122469329Y-115972970D01*
X122447151Y-115962480D01*
X122426107Y-115949867D01*
X122406402Y-115935253D01*
X122388223Y-115918777D01*
X122371747Y-115900598D01*
X122357133Y-115880893D01*
X122344520Y-115859849D01*
X122334030Y-115837671D01*
X122325765Y-115814571D01*
X122319804Y-115790773D01*
X122316204Y-115766504D01*
X122315000Y-115742000D01*
X122315000Y-114817000D01*
X122316204Y-114792496D01*
X122319804Y-114768227D01*
X122325765Y-114744429D01*
X122334030Y-114721329D01*
X122344520Y-114699151D01*
X122357133Y-114678107D01*
X122371747Y-114658402D01*
X122388223Y-114640223D01*
X122406402Y-114623747D01*
X122426107Y-114609133D01*
X122447151Y-114596520D01*
X122469329Y-114586030D01*
X122492429Y-114577765D01*
X122516227Y-114571804D01*
X122540496Y-114568204D01*
X122565000Y-114567000D01*
X123815000Y-114567000D01*
X123839504Y-114568204D01*
X123839504Y-114568204D01*
G37*
D16*
X123190000Y-115279500D03*
D18*
X95634000Y-65024000D03*
X80134000Y-65024000D03*
X95634000Y-73152000D03*
X80134000Y-73152000D03*
X95634000Y-81280000D03*
X80134000Y-81280000D03*
X95634000Y-89408000D03*
X80134000Y-89408000D03*
D11*
G36*
X93741504Y-58816204D02*
G01*
X93765773Y-58819804D01*
X93789571Y-58825765D01*
X93812671Y-58834030D01*
X93834849Y-58844520D01*
X93855893Y-58857133D01*
X93875598Y-58871747D01*
X93893777Y-58888223D01*
X93910253Y-58906402D01*
X93924867Y-58926107D01*
X93937480Y-58947151D01*
X93947970Y-58969329D01*
X93956235Y-58992429D01*
X93962196Y-59016227D01*
X93965796Y-59040496D01*
X93967000Y-59065000D01*
X93967000Y-60315000D01*
X93965796Y-60339504D01*
X93962196Y-60363773D01*
X93956235Y-60387571D01*
X93947970Y-60410671D01*
X93937480Y-60432849D01*
X93924867Y-60453893D01*
X93910253Y-60473598D01*
X93893777Y-60491777D01*
X93875598Y-60508253D01*
X93855893Y-60522867D01*
X93834849Y-60535480D01*
X93812671Y-60545970D01*
X93789571Y-60554235D01*
X93765773Y-60560196D01*
X93741504Y-60563796D01*
X93717000Y-60565000D01*
X92792000Y-60565000D01*
X92767496Y-60563796D01*
X92743227Y-60560196D01*
X92719429Y-60554235D01*
X92696329Y-60545970D01*
X92674151Y-60535480D01*
X92653107Y-60522867D01*
X92633402Y-60508253D01*
X92615223Y-60491777D01*
X92598747Y-60473598D01*
X92584133Y-60453893D01*
X92571520Y-60432849D01*
X92561030Y-60410671D01*
X92552765Y-60387571D01*
X92546804Y-60363773D01*
X92543204Y-60339504D01*
X92542000Y-60315000D01*
X92542000Y-59065000D01*
X92543204Y-59040496D01*
X92546804Y-59016227D01*
X92552765Y-58992429D01*
X92561030Y-58969329D01*
X92571520Y-58947151D01*
X92584133Y-58926107D01*
X92598747Y-58906402D01*
X92615223Y-58888223D01*
X92633402Y-58871747D01*
X92653107Y-58857133D01*
X92674151Y-58844520D01*
X92696329Y-58834030D01*
X92719429Y-58825765D01*
X92743227Y-58819804D01*
X92767496Y-58816204D01*
X92792000Y-58815000D01*
X93717000Y-58815000D01*
X93741504Y-58816204D01*
X93741504Y-58816204D01*
G37*
D16*
X93254500Y-59690000D03*
D11*
G36*
X96716504Y-58816204D02*
G01*
X96740773Y-58819804D01*
X96764571Y-58825765D01*
X96787671Y-58834030D01*
X96809849Y-58844520D01*
X96830893Y-58857133D01*
X96850598Y-58871747D01*
X96868777Y-58888223D01*
X96885253Y-58906402D01*
X96899867Y-58926107D01*
X96912480Y-58947151D01*
X96922970Y-58969329D01*
X96931235Y-58992429D01*
X96937196Y-59016227D01*
X96940796Y-59040496D01*
X96942000Y-59065000D01*
X96942000Y-60315000D01*
X96940796Y-60339504D01*
X96937196Y-60363773D01*
X96931235Y-60387571D01*
X96922970Y-60410671D01*
X96912480Y-60432849D01*
X96899867Y-60453893D01*
X96885253Y-60473598D01*
X96868777Y-60491777D01*
X96850598Y-60508253D01*
X96830893Y-60522867D01*
X96809849Y-60535480D01*
X96787671Y-60545970D01*
X96764571Y-60554235D01*
X96740773Y-60560196D01*
X96716504Y-60563796D01*
X96692000Y-60565000D01*
X95767000Y-60565000D01*
X95742496Y-60563796D01*
X95718227Y-60560196D01*
X95694429Y-60554235D01*
X95671329Y-60545970D01*
X95649151Y-60535480D01*
X95628107Y-60522867D01*
X95608402Y-60508253D01*
X95590223Y-60491777D01*
X95573747Y-60473598D01*
X95559133Y-60453893D01*
X95546520Y-60432849D01*
X95536030Y-60410671D01*
X95527765Y-60387571D01*
X95521804Y-60363773D01*
X95518204Y-60339504D01*
X95517000Y-60315000D01*
X95517000Y-59065000D01*
X95518204Y-59040496D01*
X95521804Y-59016227D01*
X95527765Y-58992429D01*
X95536030Y-58969329D01*
X95546520Y-58947151D01*
X95559133Y-58926107D01*
X95573747Y-58906402D01*
X95590223Y-58888223D01*
X95608402Y-58871747D01*
X95628107Y-58857133D01*
X95649151Y-58844520D01*
X95671329Y-58834030D01*
X95694429Y-58825765D01*
X95718227Y-58819804D01*
X95742496Y-58816204D01*
X95767000Y-58815000D01*
X96692000Y-58815000D01*
X96716504Y-58816204D01*
X96716504Y-58816204D01*
G37*
D16*
X96229500Y-59690000D03*
D11*
G36*
X101796504Y-58816204D02*
G01*
X101820773Y-58819804D01*
X101844571Y-58825765D01*
X101867671Y-58834030D01*
X101889849Y-58844520D01*
X101910893Y-58857133D01*
X101930598Y-58871747D01*
X101948777Y-58888223D01*
X101965253Y-58906402D01*
X101979867Y-58926107D01*
X101992480Y-58947151D01*
X102002970Y-58969329D01*
X102011235Y-58992429D01*
X102017196Y-59016227D01*
X102020796Y-59040496D01*
X102022000Y-59065000D01*
X102022000Y-60315000D01*
X102020796Y-60339504D01*
X102017196Y-60363773D01*
X102011235Y-60387571D01*
X102002970Y-60410671D01*
X101992480Y-60432849D01*
X101979867Y-60453893D01*
X101965253Y-60473598D01*
X101948777Y-60491777D01*
X101930598Y-60508253D01*
X101910893Y-60522867D01*
X101889849Y-60535480D01*
X101867671Y-60545970D01*
X101844571Y-60554235D01*
X101820773Y-60560196D01*
X101796504Y-60563796D01*
X101772000Y-60565000D01*
X100847000Y-60565000D01*
X100822496Y-60563796D01*
X100798227Y-60560196D01*
X100774429Y-60554235D01*
X100751329Y-60545970D01*
X100729151Y-60535480D01*
X100708107Y-60522867D01*
X100688402Y-60508253D01*
X100670223Y-60491777D01*
X100653747Y-60473598D01*
X100639133Y-60453893D01*
X100626520Y-60432849D01*
X100616030Y-60410671D01*
X100607765Y-60387571D01*
X100601804Y-60363773D01*
X100598204Y-60339504D01*
X100597000Y-60315000D01*
X100597000Y-59065000D01*
X100598204Y-59040496D01*
X100601804Y-59016227D01*
X100607765Y-58992429D01*
X100616030Y-58969329D01*
X100626520Y-58947151D01*
X100639133Y-58926107D01*
X100653747Y-58906402D01*
X100670223Y-58888223D01*
X100688402Y-58871747D01*
X100708107Y-58857133D01*
X100729151Y-58844520D01*
X100751329Y-58834030D01*
X100774429Y-58825765D01*
X100798227Y-58819804D01*
X100822496Y-58816204D01*
X100847000Y-58815000D01*
X101772000Y-58815000D01*
X101796504Y-58816204D01*
X101796504Y-58816204D01*
G37*
D16*
X101309500Y-59690000D03*
D11*
G36*
X98821504Y-58816204D02*
G01*
X98845773Y-58819804D01*
X98869571Y-58825765D01*
X98892671Y-58834030D01*
X98914849Y-58844520D01*
X98935893Y-58857133D01*
X98955598Y-58871747D01*
X98973777Y-58888223D01*
X98990253Y-58906402D01*
X99004867Y-58926107D01*
X99017480Y-58947151D01*
X99027970Y-58969329D01*
X99036235Y-58992429D01*
X99042196Y-59016227D01*
X99045796Y-59040496D01*
X99047000Y-59065000D01*
X99047000Y-60315000D01*
X99045796Y-60339504D01*
X99042196Y-60363773D01*
X99036235Y-60387571D01*
X99027970Y-60410671D01*
X99017480Y-60432849D01*
X99004867Y-60453893D01*
X98990253Y-60473598D01*
X98973777Y-60491777D01*
X98955598Y-60508253D01*
X98935893Y-60522867D01*
X98914849Y-60535480D01*
X98892671Y-60545970D01*
X98869571Y-60554235D01*
X98845773Y-60560196D01*
X98821504Y-60563796D01*
X98797000Y-60565000D01*
X97872000Y-60565000D01*
X97847496Y-60563796D01*
X97823227Y-60560196D01*
X97799429Y-60554235D01*
X97776329Y-60545970D01*
X97754151Y-60535480D01*
X97733107Y-60522867D01*
X97713402Y-60508253D01*
X97695223Y-60491777D01*
X97678747Y-60473598D01*
X97664133Y-60453893D01*
X97651520Y-60432849D01*
X97641030Y-60410671D01*
X97632765Y-60387571D01*
X97626804Y-60363773D01*
X97623204Y-60339504D01*
X97622000Y-60315000D01*
X97622000Y-59065000D01*
X97623204Y-59040496D01*
X97626804Y-59016227D01*
X97632765Y-58992429D01*
X97641030Y-58969329D01*
X97651520Y-58947151D01*
X97664133Y-58926107D01*
X97678747Y-58906402D01*
X97695223Y-58888223D01*
X97713402Y-58871747D01*
X97733107Y-58857133D01*
X97754151Y-58844520D01*
X97776329Y-58834030D01*
X97799429Y-58825765D01*
X97823227Y-58819804D01*
X97847496Y-58816204D01*
X97872000Y-58815000D01*
X98797000Y-58815000D01*
X98821504Y-58816204D01*
X98821504Y-58816204D01*
G37*
D16*
X98334500Y-59690000D03*
D11*
G36*
X124821512Y-45849209D02*
G01*
X124845887Y-45852825D01*
X124869790Y-45858812D01*
X124892992Y-45867114D01*
X124915268Y-45877650D01*
X124936404Y-45890318D01*
X124956196Y-45904997D01*
X124974455Y-45921545D01*
X124991003Y-45939804D01*
X125005682Y-45959596D01*
X125018350Y-45980732D01*
X125028886Y-46003008D01*
X125037188Y-46026210D01*
X125043175Y-46050113D01*
X125046791Y-46074488D01*
X125048000Y-46099100D01*
X125048000Y-48896900D01*
X125046791Y-48921512D01*
X125043175Y-48945887D01*
X125037188Y-48969790D01*
X125028886Y-48992992D01*
X125018350Y-49015268D01*
X125005682Y-49036404D01*
X124991003Y-49056196D01*
X124974455Y-49074455D01*
X124956196Y-49091003D01*
X124936404Y-49105682D01*
X124915268Y-49118350D01*
X124892992Y-49128886D01*
X124869790Y-49137188D01*
X124845887Y-49143175D01*
X124821512Y-49146791D01*
X124796900Y-49148000D01*
X122599100Y-49148000D01*
X122574488Y-49146791D01*
X122550113Y-49143175D01*
X122526210Y-49137188D01*
X122503008Y-49128886D01*
X122480732Y-49118350D01*
X122459596Y-49105682D01*
X122439804Y-49091003D01*
X122421545Y-49074455D01*
X122404997Y-49056196D01*
X122390318Y-49036404D01*
X122377650Y-49015268D01*
X122367114Y-48992992D01*
X122358812Y-48969790D01*
X122352825Y-48945887D01*
X122349209Y-48921512D01*
X122348000Y-48896900D01*
X122348000Y-46099100D01*
X122349209Y-46074488D01*
X122352825Y-46050113D01*
X122358812Y-46026210D01*
X122367114Y-46003008D01*
X122377650Y-45980732D01*
X122390318Y-45959596D01*
X122404997Y-45939804D01*
X122421545Y-45921545D01*
X122439804Y-45904997D01*
X122459596Y-45890318D01*
X122480732Y-45877650D01*
X122503008Y-45867114D01*
X122526210Y-45858812D01*
X122550113Y-45852825D01*
X122574488Y-45849209D01*
X122599100Y-45848000D01*
X124796900Y-45848000D01*
X124821512Y-45849209D01*
X124821512Y-45849209D01*
G37*
D19*
X123698000Y-47498000D03*
D20*
X119498000Y-47498000D03*
X115298000Y-47498000D03*
X111098000Y-47498000D03*
X106898000Y-47498000D03*
X102698000Y-47498000D03*
X98498000Y-47498000D03*
X94298000Y-47498000D03*
X90098000Y-47498000D03*
X85898000Y-47498000D03*
X81698000Y-47498000D03*
X77498000Y-47498000D03*
X123698000Y-41998000D03*
X119498000Y-41998000D03*
X115298000Y-41998000D03*
X111098000Y-41998000D03*
X106898000Y-41998000D03*
X102698000Y-41998000D03*
X98498000Y-41998000D03*
X94298000Y-41998000D03*
X90098000Y-41998000D03*
X85898000Y-41998000D03*
X81698000Y-41998000D03*
X77498000Y-41998000D03*
D11*
G36*
X108091504Y-136660204D02*
G01*
X108115773Y-136663804D01*
X108139571Y-136669765D01*
X108162671Y-136678030D01*
X108184849Y-136688520D01*
X108205893Y-136701133D01*
X108225598Y-136715747D01*
X108243777Y-136732223D01*
X108260253Y-136750402D01*
X108274867Y-136770107D01*
X108287480Y-136791151D01*
X108297970Y-136813329D01*
X108306235Y-136836429D01*
X108312196Y-136860227D01*
X108315796Y-136884496D01*
X108317000Y-136909000D01*
X108317000Y-137659000D01*
X108315796Y-137683504D01*
X108312196Y-137707773D01*
X108306235Y-137731571D01*
X108297970Y-137754671D01*
X108287480Y-137776849D01*
X108274867Y-137797893D01*
X108260253Y-137817598D01*
X108243777Y-137835777D01*
X108225598Y-137852253D01*
X108205893Y-137866867D01*
X108184849Y-137879480D01*
X108162671Y-137889970D01*
X108139571Y-137898235D01*
X108115773Y-137904196D01*
X108091504Y-137907796D01*
X108067000Y-137909000D01*
X106817000Y-137909000D01*
X106792496Y-137907796D01*
X106768227Y-137904196D01*
X106744429Y-137898235D01*
X106721329Y-137889970D01*
X106699151Y-137879480D01*
X106678107Y-137866867D01*
X106658402Y-137852253D01*
X106640223Y-137835777D01*
X106623747Y-137817598D01*
X106609133Y-137797893D01*
X106596520Y-137776849D01*
X106586030Y-137754671D01*
X106577765Y-137731571D01*
X106571804Y-137707773D01*
X106568204Y-137683504D01*
X106567000Y-137659000D01*
X106567000Y-136909000D01*
X106568204Y-136884496D01*
X106571804Y-136860227D01*
X106577765Y-136836429D01*
X106586030Y-136813329D01*
X106596520Y-136791151D01*
X106609133Y-136770107D01*
X106623747Y-136750402D01*
X106640223Y-136732223D01*
X106658402Y-136715747D01*
X106678107Y-136701133D01*
X106699151Y-136688520D01*
X106721329Y-136678030D01*
X106744429Y-136669765D01*
X106768227Y-136663804D01*
X106792496Y-136660204D01*
X106817000Y-136659000D01*
X108067000Y-136659000D01*
X108091504Y-136660204D01*
X108091504Y-136660204D01*
G37*
D21*
X107442000Y-137284000D03*
D11*
G36*
X108091504Y-139460204D02*
G01*
X108115773Y-139463804D01*
X108139571Y-139469765D01*
X108162671Y-139478030D01*
X108184849Y-139488520D01*
X108205893Y-139501133D01*
X108225598Y-139515747D01*
X108243777Y-139532223D01*
X108260253Y-139550402D01*
X108274867Y-139570107D01*
X108287480Y-139591151D01*
X108297970Y-139613329D01*
X108306235Y-139636429D01*
X108312196Y-139660227D01*
X108315796Y-139684496D01*
X108317000Y-139709000D01*
X108317000Y-140459000D01*
X108315796Y-140483504D01*
X108312196Y-140507773D01*
X108306235Y-140531571D01*
X108297970Y-140554671D01*
X108287480Y-140576849D01*
X108274867Y-140597893D01*
X108260253Y-140617598D01*
X108243777Y-140635777D01*
X108225598Y-140652253D01*
X108205893Y-140666867D01*
X108184849Y-140679480D01*
X108162671Y-140689970D01*
X108139571Y-140698235D01*
X108115773Y-140704196D01*
X108091504Y-140707796D01*
X108067000Y-140709000D01*
X106817000Y-140709000D01*
X106792496Y-140707796D01*
X106768227Y-140704196D01*
X106744429Y-140698235D01*
X106721329Y-140689970D01*
X106699151Y-140679480D01*
X106678107Y-140666867D01*
X106658402Y-140652253D01*
X106640223Y-140635777D01*
X106623747Y-140617598D01*
X106609133Y-140597893D01*
X106596520Y-140576849D01*
X106586030Y-140554671D01*
X106577765Y-140531571D01*
X106571804Y-140507773D01*
X106568204Y-140483504D01*
X106567000Y-140459000D01*
X106567000Y-139709000D01*
X106568204Y-139684496D01*
X106571804Y-139660227D01*
X106577765Y-139636429D01*
X106586030Y-139613329D01*
X106596520Y-139591151D01*
X106609133Y-139570107D01*
X106623747Y-139550402D01*
X106640223Y-139532223D01*
X106658402Y-139515747D01*
X106678107Y-139501133D01*
X106699151Y-139488520D01*
X106721329Y-139478030D01*
X106744429Y-139469765D01*
X106768227Y-139463804D01*
X106792496Y-139460204D01*
X106817000Y-139459000D01*
X108067000Y-139459000D01*
X108091504Y-139460204D01*
X108091504Y-139460204D01*
G37*
D21*
X107442000Y-140084000D03*
D11*
G36*
X127395504Y-117102204D02*
G01*
X127419773Y-117105804D01*
X127443571Y-117111765D01*
X127466671Y-117120030D01*
X127488849Y-117130520D01*
X127509893Y-117143133D01*
X127529598Y-117157747D01*
X127547777Y-117174223D01*
X127564253Y-117192402D01*
X127578867Y-117212107D01*
X127591480Y-117233151D01*
X127601970Y-117255329D01*
X127610235Y-117278429D01*
X127616196Y-117302227D01*
X127619796Y-117326496D01*
X127621000Y-117351000D01*
X127621000Y-118101000D01*
X127619796Y-118125504D01*
X127616196Y-118149773D01*
X127610235Y-118173571D01*
X127601970Y-118196671D01*
X127591480Y-118218849D01*
X127578867Y-118239893D01*
X127564253Y-118259598D01*
X127547777Y-118277777D01*
X127529598Y-118294253D01*
X127509893Y-118308867D01*
X127488849Y-118321480D01*
X127466671Y-118331970D01*
X127443571Y-118340235D01*
X127419773Y-118346196D01*
X127395504Y-118349796D01*
X127371000Y-118351000D01*
X126121000Y-118351000D01*
X126096496Y-118349796D01*
X126072227Y-118346196D01*
X126048429Y-118340235D01*
X126025329Y-118331970D01*
X126003151Y-118321480D01*
X125982107Y-118308867D01*
X125962402Y-118294253D01*
X125944223Y-118277777D01*
X125927747Y-118259598D01*
X125913133Y-118239893D01*
X125900520Y-118218849D01*
X125890030Y-118196671D01*
X125881765Y-118173571D01*
X125875804Y-118149773D01*
X125872204Y-118125504D01*
X125871000Y-118101000D01*
X125871000Y-117351000D01*
X125872204Y-117326496D01*
X125875804Y-117302227D01*
X125881765Y-117278429D01*
X125890030Y-117255329D01*
X125900520Y-117233151D01*
X125913133Y-117212107D01*
X125927747Y-117192402D01*
X125944223Y-117174223D01*
X125962402Y-117157747D01*
X125982107Y-117143133D01*
X126003151Y-117130520D01*
X126025329Y-117120030D01*
X126048429Y-117111765D01*
X126072227Y-117105804D01*
X126096496Y-117102204D01*
X126121000Y-117101000D01*
X127371000Y-117101000D01*
X127395504Y-117102204D01*
X127395504Y-117102204D01*
G37*
D21*
X126746000Y-117726000D03*
D11*
G36*
X127395504Y-119902204D02*
G01*
X127419773Y-119905804D01*
X127443571Y-119911765D01*
X127466671Y-119920030D01*
X127488849Y-119930520D01*
X127509893Y-119943133D01*
X127529598Y-119957747D01*
X127547777Y-119974223D01*
X127564253Y-119992402D01*
X127578867Y-120012107D01*
X127591480Y-120033151D01*
X127601970Y-120055329D01*
X127610235Y-120078429D01*
X127616196Y-120102227D01*
X127619796Y-120126496D01*
X127621000Y-120151000D01*
X127621000Y-120901000D01*
X127619796Y-120925504D01*
X127616196Y-120949773D01*
X127610235Y-120973571D01*
X127601970Y-120996671D01*
X127591480Y-121018849D01*
X127578867Y-121039893D01*
X127564253Y-121059598D01*
X127547777Y-121077777D01*
X127529598Y-121094253D01*
X127509893Y-121108867D01*
X127488849Y-121121480D01*
X127466671Y-121131970D01*
X127443571Y-121140235D01*
X127419773Y-121146196D01*
X127395504Y-121149796D01*
X127371000Y-121151000D01*
X126121000Y-121151000D01*
X126096496Y-121149796D01*
X126072227Y-121146196D01*
X126048429Y-121140235D01*
X126025329Y-121131970D01*
X126003151Y-121121480D01*
X125982107Y-121108867D01*
X125962402Y-121094253D01*
X125944223Y-121077777D01*
X125927747Y-121059598D01*
X125913133Y-121039893D01*
X125900520Y-121018849D01*
X125890030Y-120996671D01*
X125881765Y-120973571D01*
X125875804Y-120949773D01*
X125872204Y-120925504D01*
X125871000Y-120901000D01*
X125871000Y-120151000D01*
X125872204Y-120126496D01*
X125875804Y-120102227D01*
X125881765Y-120078429D01*
X125890030Y-120055329D01*
X125900520Y-120033151D01*
X125913133Y-120012107D01*
X125927747Y-119992402D01*
X125944223Y-119974223D01*
X125962402Y-119957747D01*
X125982107Y-119943133D01*
X126003151Y-119930520D01*
X126025329Y-119920030D01*
X126048429Y-119911765D01*
X126072227Y-119905804D01*
X126096496Y-119902204D01*
X126121000Y-119901000D01*
X127371000Y-119901000D01*
X127395504Y-119902204D01*
X127395504Y-119902204D01*
G37*
D21*
X126746000Y-120526000D03*
D11*
G36*
X123839504Y-117102204D02*
G01*
X123863773Y-117105804D01*
X123887571Y-117111765D01*
X123910671Y-117120030D01*
X123932849Y-117130520D01*
X123953893Y-117143133D01*
X123973598Y-117157747D01*
X123991777Y-117174223D01*
X124008253Y-117192402D01*
X124022867Y-117212107D01*
X124035480Y-117233151D01*
X124045970Y-117255329D01*
X124054235Y-117278429D01*
X124060196Y-117302227D01*
X124063796Y-117326496D01*
X124065000Y-117351000D01*
X124065000Y-118101000D01*
X124063796Y-118125504D01*
X124060196Y-118149773D01*
X124054235Y-118173571D01*
X124045970Y-118196671D01*
X124035480Y-118218849D01*
X124022867Y-118239893D01*
X124008253Y-118259598D01*
X123991777Y-118277777D01*
X123973598Y-118294253D01*
X123953893Y-118308867D01*
X123932849Y-118321480D01*
X123910671Y-118331970D01*
X123887571Y-118340235D01*
X123863773Y-118346196D01*
X123839504Y-118349796D01*
X123815000Y-118351000D01*
X122565000Y-118351000D01*
X122540496Y-118349796D01*
X122516227Y-118346196D01*
X122492429Y-118340235D01*
X122469329Y-118331970D01*
X122447151Y-118321480D01*
X122426107Y-118308867D01*
X122406402Y-118294253D01*
X122388223Y-118277777D01*
X122371747Y-118259598D01*
X122357133Y-118239893D01*
X122344520Y-118218849D01*
X122334030Y-118196671D01*
X122325765Y-118173571D01*
X122319804Y-118149773D01*
X122316204Y-118125504D01*
X122315000Y-118101000D01*
X122315000Y-117351000D01*
X122316204Y-117326496D01*
X122319804Y-117302227D01*
X122325765Y-117278429D01*
X122334030Y-117255329D01*
X122344520Y-117233151D01*
X122357133Y-117212107D01*
X122371747Y-117192402D01*
X122388223Y-117174223D01*
X122406402Y-117157747D01*
X122426107Y-117143133D01*
X122447151Y-117130520D01*
X122469329Y-117120030D01*
X122492429Y-117111765D01*
X122516227Y-117105804D01*
X122540496Y-117102204D01*
X122565000Y-117101000D01*
X123815000Y-117101000D01*
X123839504Y-117102204D01*
X123839504Y-117102204D01*
G37*
D21*
X123190000Y-117726000D03*
D11*
G36*
X123839504Y-119902204D02*
G01*
X123863773Y-119905804D01*
X123887571Y-119911765D01*
X123910671Y-119920030D01*
X123932849Y-119930520D01*
X123953893Y-119943133D01*
X123973598Y-119957747D01*
X123991777Y-119974223D01*
X124008253Y-119992402D01*
X124022867Y-120012107D01*
X124035480Y-120033151D01*
X124045970Y-120055329D01*
X124054235Y-120078429D01*
X124060196Y-120102227D01*
X124063796Y-120126496D01*
X124065000Y-120151000D01*
X124065000Y-120901000D01*
X124063796Y-120925504D01*
X124060196Y-120949773D01*
X124054235Y-120973571D01*
X124045970Y-120996671D01*
X124035480Y-121018849D01*
X124022867Y-121039893D01*
X124008253Y-121059598D01*
X123991777Y-121077777D01*
X123973598Y-121094253D01*
X123953893Y-121108867D01*
X123932849Y-121121480D01*
X123910671Y-121131970D01*
X123887571Y-121140235D01*
X123863773Y-121146196D01*
X123839504Y-121149796D01*
X123815000Y-121151000D01*
X122565000Y-121151000D01*
X122540496Y-121149796D01*
X122516227Y-121146196D01*
X122492429Y-121140235D01*
X122469329Y-121131970D01*
X122447151Y-121121480D01*
X122426107Y-121108867D01*
X122406402Y-121094253D01*
X122388223Y-121077777D01*
X122371747Y-121059598D01*
X122357133Y-121039893D01*
X122344520Y-121018849D01*
X122334030Y-120996671D01*
X122325765Y-120973571D01*
X122319804Y-120949773D01*
X122316204Y-120925504D01*
X122315000Y-120901000D01*
X122315000Y-120151000D01*
X122316204Y-120126496D01*
X122319804Y-120102227D01*
X122325765Y-120078429D01*
X122334030Y-120055329D01*
X122344520Y-120033151D01*
X122357133Y-120012107D01*
X122371747Y-119992402D01*
X122388223Y-119974223D01*
X122406402Y-119957747D01*
X122426107Y-119943133D01*
X122447151Y-119930520D01*
X122469329Y-119920030D01*
X122492429Y-119911765D01*
X122516227Y-119905804D01*
X122540496Y-119902204D01*
X122565000Y-119901000D01*
X123815000Y-119901000D01*
X123839504Y-119902204D01*
X123839504Y-119902204D01*
G37*
D21*
X123190000Y-120526000D03*
D11*
G36*
X94629504Y-56278204D02*
G01*
X94653773Y-56281804D01*
X94677571Y-56287765D01*
X94700671Y-56296030D01*
X94722849Y-56306520D01*
X94743893Y-56319133D01*
X94763598Y-56333747D01*
X94781777Y-56350223D01*
X94798253Y-56368402D01*
X94812867Y-56388107D01*
X94825480Y-56409151D01*
X94835970Y-56431329D01*
X94844235Y-56454429D01*
X94850196Y-56478227D01*
X94853796Y-56502496D01*
X94855000Y-56527000D01*
X94855000Y-57277000D01*
X94853796Y-57301504D01*
X94850196Y-57325773D01*
X94844235Y-57349571D01*
X94835970Y-57372671D01*
X94825480Y-57394849D01*
X94812867Y-57415893D01*
X94798253Y-57435598D01*
X94781777Y-57453777D01*
X94763598Y-57470253D01*
X94743893Y-57484867D01*
X94722849Y-57497480D01*
X94700671Y-57507970D01*
X94677571Y-57516235D01*
X94653773Y-57522196D01*
X94629504Y-57525796D01*
X94605000Y-57527000D01*
X93355000Y-57527000D01*
X93330496Y-57525796D01*
X93306227Y-57522196D01*
X93282429Y-57516235D01*
X93259329Y-57507970D01*
X93237151Y-57497480D01*
X93216107Y-57484867D01*
X93196402Y-57470253D01*
X93178223Y-57453777D01*
X93161747Y-57435598D01*
X93147133Y-57415893D01*
X93134520Y-57394849D01*
X93124030Y-57372671D01*
X93115765Y-57349571D01*
X93109804Y-57325773D01*
X93106204Y-57301504D01*
X93105000Y-57277000D01*
X93105000Y-56527000D01*
X93106204Y-56502496D01*
X93109804Y-56478227D01*
X93115765Y-56454429D01*
X93124030Y-56431329D01*
X93134520Y-56409151D01*
X93147133Y-56388107D01*
X93161747Y-56368402D01*
X93178223Y-56350223D01*
X93196402Y-56333747D01*
X93216107Y-56319133D01*
X93237151Y-56306520D01*
X93259329Y-56296030D01*
X93282429Y-56287765D01*
X93306227Y-56281804D01*
X93330496Y-56278204D01*
X93355000Y-56277000D01*
X94605000Y-56277000D01*
X94629504Y-56278204D01*
X94629504Y-56278204D01*
G37*
D21*
X93980000Y-56902000D03*
D11*
G36*
X94629504Y-53478204D02*
G01*
X94653773Y-53481804D01*
X94677571Y-53487765D01*
X94700671Y-53496030D01*
X94722849Y-53506520D01*
X94743893Y-53519133D01*
X94763598Y-53533747D01*
X94781777Y-53550223D01*
X94798253Y-53568402D01*
X94812867Y-53588107D01*
X94825480Y-53609151D01*
X94835970Y-53631329D01*
X94844235Y-53654429D01*
X94850196Y-53678227D01*
X94853796Y-53702496D01*
X94855000Y-53727000D01*
X94855000Y-54477000D01*
X94853796Y-54501504D01*
X94850196Y-54525773D01*
X94844235Y-54549571D01*
X94835970Y-54572671D01*
X94825480Y-54594849D01*
X94812867Y-54615893D01*
X94798253Y-54635598D01*
X94781777Y-54653777D01*
X94763598Y-54670253D01*
X94743893Y-54684867D01*
X94722849Y-54697480D01*
X94700671Y-54707970D01*
X94677571Y-54716235D01*
X94653773Y-54722196D01*
X94629504Y-54725796D01*
X94605000Y-54727000D01*
X93355000Y-54727000D01*
X93330496Y-54725796D01*
X93306227Y-54722196D01*
X93282429Y-54716235D01*
X93259329Y-54707970D01*
X93237151Y-54697480D01*
X93216107Y-54684867D01*
X93196402Y-54670253D01*
X93178223Y-54653777D01*
X93161747Y-54635598D01*
X93147133Y-54615893D01*
X93134520Y-54594849D01*
X93124030Y-54572671D01*
X93115765Y-54549571D01*
X93109804Y-54525773D01*
X93106204Y-54501504D01*
X93105000Y-54477000D01*
X93105000Y-53727000D01*
X93106204Y-53702496D01*
X93109804Y-53678227D01*
X93115765Y-53654429D01*
X93124030Y-53631329D01*
X93134520Y-53609151D01*
X93147133Y-53588107D01*
X93161747Y-53568402D01*
X93178223Y-53550223D01*
X93196402Y-53533747D01*
X93216107Y-53519133D01*
X93237151Y-53506520D01*
X93259329Y-53496030D01*
X93282429Y-53487765D01*
X93306227Y-53481804D01*
X93330496Y-53478204D01*
X93355000Y-53477000D01*
X94605000Y-53477000D01*
X94629504Y-53478204D01*
X94629504Y-53478204D01*
G37*
D21*
X93980000Y-54102000D03*
D11*
G36*
X98947504Y-56278204D02*
G01*
X98971773Y-56281804D01*
X98995571Y-56287765D01*
X99018671Y-56296030D01*
X99040849Y-56306520D01*
X99061893Y-56319133D01*
X99081598Y-56333747D01*
X99099777Y-56350223D01*
X99116253Y-56368402D01*
X99130867Y-56388107D01*
X99143480Y-56409151D01*
X99153970Y-56431329D01*
X99162235Y-56454429D01*
X99168196Y-56478227D01*
X99171796Y-56502496D01*
X99173000Y-56527000D01*
X99173000Y-57277000D01*
X99171796Y-57301504D01*
X99168196Y-57325773D01*
X99162235Y-57349571D01*
X99153970Y-57372671D01*
X99143480Y-57394849D01*
X99130867Y-57415893D01*
X99116253Y-57435598D01*
X99099777Y-57453777D01*
X99081598Y-57470253D01*
X99061893Y-57484867D01*
X99040849Y-57497480D01*
X99018671Y-57507970D01*
X98995571Y-57516235D01*
X98971773Y-57522196D01*
X98947504Y-57525796D01*
X98923000Y-57527000D01*
X97673000Y-57527000D01*
X97648496Y-57525796D01*
X97624227Y-57522196D01*
X97600429Y-57516235D01*
X97577329Y-57507970D01*
X97555151Y-57497480D01*
X97534107Y-57484867D01*
X97514402Y-57470253D01*
X97496223Y-57453777D01*
X97479747Y-57435598D01*
X97465133Y-57415893D01*
X97452520Y-57394849D01*
X97442030Y-57372671D01*
X97433765Y-57349571D01*
X97427804Y-57325773D01*
X97424204Y-57301504D01*
X97423000Y-57277000D01*
X97423000Y-56527000D01*
X97424204Y-56502496D01*
X97427804Y-56478227D01*
X97433765Y-56454429D01*
X97442030Y-56431329D01*
X97452520Y-56409151D01*
X97465133Y-56388107D01*
X97479747Y-56368402D01*
X97496223Y-56350223D01*
X97514402Y-56333747D01*
X97534107Y-56319133D01*
X97555151Y-56306520D01*
X97577329Y-56296030D01*
X97600429Y-56287765D01*
X97624227Y-56281804D01*
X97648496Y-56278204D01*
X97673000Y-56277000D01*
X98923000Y-56277000D01*
X98947504Y-56278204D01*
X98947504Y-56278204D01*
G37*
D21*
X98298000Y-56902000D03*
D11*
G36*
X98947504Y-53478204D02*
G01*
X98971773Y-53481804D01*
X98995571Y-53487765D01*
X99018671Y-53496030D01*
X99040849Y-53506520D01*
X99061893Y-53519133D01*
X99081598Y-53533747D01*
X99099777Y-53550223D01*
X99116253Y-53568402D01*
X99130867Y-53588107D01*
X99143480Y-53609151D01*
X99153970Y-53631329D01*
X99162235Y-53654429D01*
X99168196Y-53678227D01*
X99171796Y-53702496D01*
X99173000Y-53727000D01*
X99173000Y-54477000D01*
X99171796Y-54501504D01*
X99168196Y-54525773D01*
X99162235Y-54549571D01*
X99153970Y-54572671D01*
X99143480Y-54594849D01*
X99130867Y-54615893D01*
X99116253Y-54635598D01*
X99099777Y-54653777D01*
X99081598Y-54670253D01*
X99061893Y-54684867D01*
X99040849Y-54697480D01*
X99018671Y-54707970D01*
X98995571Y-54716235D01*
X98971773Y-54722196D01*
X98947504Y-54725796D01*
X98923000Y-54727000D01*
X97673000Y-54727000D01*
X97648496Y-54725796D01*
X97624227Y-54722196D01*
X97600429Y-54716235D01*
X97577329Y-54707970D01*
X97555151Y-54697480D01*
X97534107Y-54684867D01*
X97514402Y-54670253D01*
X97496223Y-54653777D01*
X97479747Y-54635598D01*
X97465133Y-54615893D01*
X97452520Y-54594849D01*
X97442030Y-54572671D01*
X97433765Y-54549571D01*
X97427804Y-54525773D01*
X97424204Y-54501504D01*
X97423000Y-54477000D01*
X97423000Y-53727000D01*
X97424204Y-53702496D01*
X97427804Y-53678227D01*
X97433765Y-53654429D01*
X97442030Y-53631329D01*
X97452520Y-53609151D01*
X97465133Y-53588107D01*
X97479747Y-53568402D01*
X97496223Y-53550223D01*
X97514402Y-53533747D01*
X97534107Y-53519133D01*
X97555151Y-53506520D01*
X97577329Y-53496030D01*
X97600429Y-53487765D01*
X97624227Y-53481804D01*
X97648496Y-53478204D01*
X97673000Y-53477000D01*
X98923000Y-53477000D01*
X98947504Y-53478204D01*
X98947504Y-53478204D01*
G37*
D21*
X98298000Y-54102000D03*
D11*
G36*
X109869504Y-119467204D02*
G01*
X109893773Y-119470804D01*
X109917571Y-119476765D01*
X109940671Y-119485030D01*
X109962849Y-119495520D01*
X109983893Y-119508133D01*
X110003598Y-119522747D01*
X110021777Y-119539223D01*
X110038253Y-119557402D01*
X110052867Y-119577107D01*
X110065480Y-119598151D01*
X110075970Y-119620329D01*
X110084235Y-119643429D01*
X110090196Y-119667227D01*
X110093796Y-119691496D01*
X110095000Y-119716000D01*
X110095000Y-120641000D01*
X110093796Y-120665504D01*
X110090196Y-120689773D01*
X110084235Y-120713571D01*
X110075970Y-120736671D01*
X110065480Y-120758849D01*
X110052867Y-120779893D01*
X110038253Y-120799598D01*
X110021777Y-120817777D01*
X110003598Y-120834253D01*
X109983893Y-120848867D01*
X109962849Y-120861480D01*
X109940671Y-120871970D01*
X109917571Y-120880235D01*
X109893773Y-120886196D01*
X109869504Y-120889796D01*
X109845000Y-120891000D01*
X108595000Y-120891000D01*
X108570496Y-120889796D01*
X108546227Y-120886196D01*
X108522429Y-120880235D01*
X108499329Y-120871970D01*
X108477151Y-120861480D01*
X108456107Y-120848867D01*
X108436402Y-120834253D01*
X108418223Y-120817777D01*
X108401747Y-120799598D01*
X108387133Y-120779893D01*
X108374520Y-120758849D01*
X108364030Y-120736671D01*
X108355765Y-120713571D01*
X108349804Y-120689773D01*
X108346204Y-120665504D01*
X108345000Y-120641000D01*
X108345000Y-119716000D01*
X108346204Y-119691496D01*
X108349804Y-119667227D01*
X108355765Y-119643429D01*
X108364030Y-119620329D01*
X108374520Y-119598151D01*
X108387133Y-119577107D01*
X108401747Y-119557402D01*
X108418223Y-119539223D01*
X108436402Y-119522747D01*
X108456107Y-119508133D01*
X108477151Y-119495520D01*
X108499329Y-119485030D01*
X108522429Y-119476765D01*
X108546227Y-119470804D01*
X108570496Y-119467204D01*
X108595000Y-119466000D01*
X109845000Y-119466000D01*
X109869504Y-119467204D01*
X109869504Y-119467204D01*
G37*
D16*
X109220000Y-120178500D03*
D11*
G36*
X109869504Y-122442204D02*
G01*
X109893773Y-122445804D01*
X109917571Y-122451765D01*
X109940671Y-122460030D01*
X109962849Y-122470520D01*
X109983893Y-122483133D01*
X110003598Y-122497747D01*
X110021777Y-122514223D01*
X110038253Y-122532402D01*
X110052867Y-122552107D01*
X110065480Y-122573151D01*
X110075970Y-122595329D01*
X110084235Y-122618429D01*
X110090196Y-122642227D01*
X110093796Y-122666496D01*
X110095000Y-122691000D01*
X110095000Y-123616000D01*
X110093796Y-123640504D01*
X110090196Y-123664773D01*
X110084235Y-123688571D01*
X110075970Y-123711671D01*
X110065480Y-123733849D01*
X110052867Y-123754893D01*
X110038253Y-123774598D01*
X110021777Y-123792777D01*
X110003598Y-123809253D01*
X109983893Y-123823867D01*
X109962849Y-123836480D01*
X109940671Y-123846970D01*
X109917571Y-123855235D01*
X109893773Y-123861196D01*
X109869504Y-123864796D01*
X109845000Y-123866000D01*
X108595000Y-123866000D01*
X108570496Y-123864796D01*
X108546227Y-123861196D01*
X108522429Y-123855235D01*
X108499329Y-123846970D01*
X108477151Y-123836480D01*
X108456107Y-123823867D01*
X108436402Y-123809253D01*
X108418223Y-123792777D01*
X108401747Y-123774598D01*
X108387133Y-123754893D01*
X108374520Y-123733849D01*
X108364030Y-123711671D01*
X108355765Y-123688571D01*
X108349804Y-123664773D01*
X108346204Y-123640504D01*
X108345000Y-123616000D01*
X108345000Y-122691000D01*
X108346204Y-122666496D01*
X108349804Y-122642227D01*
X108355765Y-122618429D01*
X108364030Y-122595329D01*
X108374520Y-122573151D01*
X108387133Y-122552107D01*
X108401747Y-122532402D01*
X108418223Y-122514223D01*
X108436402Y-122497747D01*
X108456107Y-122483133D01*
X108477151Y-122470520D01*
X108499329Y-122460030D01*
X108522429Y-122451765D01*
X108546227Y-122445804D01*
X108570496Y-122442204D01*
X108595000Y-122441000D01*
X109845000Y-122441000D01*
X109869504Y-122442204D01*
X109869504Y-122442204D01*
G37*
D16*
X109220000Y-123153500D03*
D11*
G36*
X109869504Y-98421704D02*
G01*
X109893773Y-98425304D01*
X109917571Y-98431265D01*
X109940671Y-98439530D01*
X109962849Y-98450020D01*
X109983893Y-98462633D01*
X110003598Y-98477247D01*
X110021777Y-98493723D01*
X110038253Y-98511902D01*
X110052867Y-98531607D01*
X110065480Y-98552651D01*
X110075970Y-98574829D01*
X110084235Y-98597929D01*
X110090196Y-98621727D01*
X110093796Y-98645996D01*
X110095000Y-98670500D01*
X110095000Y-99595500D01*
X110093796Y-99620004D01*
X110090196Y-99644273D01*
X110084235Y-99668071D01*
X110075970Y-99691171D01*
X110065480Y-99713349D01*
X110052867Y-99734393D01*
X110038253Y-99754098D01*
X110021777Y-99772277D01*
X110003598Y-99788753D01*
X109983893Y-99803367D01*
X109962849Y-99815980D01*
X109940671Y-99826470D01*
X109917571Y-99834735D01*
X109893773Y-99840696D01*
X109869504Y-99844296D01*
X109845000Y-99845500D01*
X108595000Y-99845500D01*
X108570496Y-99844296D01*
X108546227Y-99840696D01*
X108522429Y-99834735D01*
X108499329Y-99826470D01*
X108477151Y-99815980D01*
X108456107Y-99803367D01*
X108436402Y-99788753D01*
X108418223Y-99772277D01*
X108401747Y-99754098D01*
X108387133Y-99734393D01*
X108374520Y-99713349D01*
X108364030Y-99691171D01*
X108355765Y-99668071D01*
X108349804Y-99644273D01*
X108346204Y-99620004D01*
X108345000Y-99595500D01*
X108345000Y-98670500D01*
X108346204Y-98645996D01*
X108349804Y-98621727D01*
X108355765Y-98597929D01*
X108364030Y-98574829D01*
X108374520Y-98552651D01*
X108387133Y-98531607D01*
X108401747Y-98511902D01*
X108418223Y-98493723D01*
X108436402Y-98477247D01*
X108456107Y-98462633D01*
X108477151Y-98450020D01*
X108499329Y-98439530D01*
X108522429Y-98431265D01*
X108546227Y-98425304D01*
X108570496Y-98421704D01*
X108595000Y-98420500D01*
X109845000Y-98420500D01*
X109869504Y-98421704D01*
X109869504Y-98421704D01*
G37*
D16*
X109220000Y-99133000D03*
D11*
G36*
X109869504Y-101396704D02*
G01*
X109893773Y-101400304D01*
X109917571Y-101406265D01*
X109940671Y-101414530D01*
X109962849Y-101425020D01*
X109983893Y-101437633D01*
X110003598Y-101452247D01*
X110021777Y-101468723D01*
X110038253Y-101486902D01*
X110052867Y-101506607D01*
X110065480Y-101527651D01*
X110075970Y-101549829D01*
X110084235Y-101572929D01*
X110090196Y-101596727D01*
X110093796Y-101620996D01*
X110095000Y-101645500D01*
X110095000Y-102570500D01*
X110093796Y-102595004D01*
X110090196Y-102619273D01*
X110084235Y-102643071D01*
X110075970Y-102666171D01*
X110065480Y-102688349D01*
X110052867Y-102709393D01*
X110038253Y-102729098D01*
X110021777Y-102747277D01*
X110003598Y-102763753D01*
X109983893Y-102778367D01*
X109962849Y-102790980D01*
X109940671Y-102801470D01*
X109917571Y-102809735D01*
X109893773Y-102815696D01*
X109869504Y-102819296D01*
X109845000Y-102820500D01*
X108595000Y-102820500D01*
X108570496Y-102819296D01*
X108546227Y-102815696D01*
X108522429Y-102809735D01*
X108499329Y-102801470D01*
X108477151Y-102790980D01*
X108456107Y-102778367D01*
X108436402Y-102763753D01*
X108418223Y-102747277D01*
X108401747Y-102729098D01*
X108387133Y-102709393D01*
X108374520Y-102688349D01*
X108364030Y-102666171D01*
X108355765Y-102643071D01*
X108349804Y-102619273D01*
X108346204Y-102595004D01*
X108345000Y-102570500D01*
X108345000Y-101645500D01*
X108346204Y-101620996D01*
X108349804Y-101596727D01*
X108355765Y-101572929D01*
X108364030Y-101549829D01*
X108374520Y-101527651D01*
X108387133Y-101506607D01*
X108401747Y-101486902D01*
X108418223Y-101468723D01*
X108436402Y-101452247D01*
X108456107Y-101437633D01*
X108477151Y-101425020D01*
X108499329Y-101414530D01*
X108522429Y-101406265D01*
X108546227Y-101400304D01*
X108570496Y-101396704D01*
X108595000Y-101395500D01*
X109845000Y-101395500D01*
X109869504Y-101396704D01*
X109869504Y-101396704D01*
G37*
D16*
X109220000Y-102108000D03*
D11*
G36*
X114949504Y-98421704D02*
G01*
X114973773Y-98425304D01*
X114997571Y-98431265D01*
X115020671Y-98439530D01*
X115042849Y-98450020D01*
X115063893Y-98462633D01*
X115083598Y-98477247D01*
X115101777Y-98493723D01*
X115118253Y-98511902D01*
X115132867Y-98531607D01*
X115145480Y-98552651D01*
X115155970Y-98574829D01*
X115164235Y-98597929D01*
X115170196Y-98621727D01*
X115173796Y-98645996D01*
X115175000Y-98670500D01*
X115175000Y-99595500D01*
X115173796Y-99620004D01*
X115170196Y-99644273D01*
X115164235Y-99668071D01*
X115155970Y-99691171D01*
X115145480Y-99713349D01*
X115132867Y-99734393D01*
X115118253Y-99754098D01*
X115101777Y-99772277D01*
X115083598Y-99788753D01*
X115063893Y-99803367D01*
X115042849Y-99815980D01*
X115020671Y-99826470D01*
X114997571Y-99834735D01*
X114973773Y-99840696D01*
X114949504Y-99844296D01*
X114925000Y-99845500D01*
X113675000Y-99845500D01*
X113650496Y-99844296D01*
X113626227Y-99840696D01*
X113602429Y-99834735D01*
X113579329Y-99826470D01*
X113557151Y-99815980D01*
X113536107Y-99803367D01*
X113516402Y-99788753D01*
X113498223Y-99772277D01*
X113481747Y-99754098D01*
X113467133Y-99734393D01*
X113454520Y-99713349D01*
X113444030Y-99691171D01*
X113435765Y-99668071D01*
X113429804Y-99644273D01*
X113426204Y-99620004D01*
X113425000Y-99595500D01*
X113425000Y-98670500D01*
X113426204Y-98645996D01*
X113429804Y-98621727D01*
X113435765Y-98597929D01*
X113444030Y-98574829D01*
X113454520Y-98552651D01*
X113467133Y-98531607D01*
X113481747Y-98511902D01*
X113498223Y-98493723D01*
X113516402Y-98477247D01*
X113536107Y-98462633D01*
X113557151Y-98450020D01*
X113579329Y-98439530D01*
X113602429Y-98431265D01*
X113626227Y-98425304D01*
X113650496Y-98421704D01*
X113675000Y-98420500D01*
X114925000Y-98420500D01*
X114949504Y-98421704D01*
X114949504Y-98421704D01*
G37*
D16*
X114300000Y-99133000D03*
D11*
G36*
X114949504Y-101396704D02*
G01*
X114973773Y-101400304D01*
X114997571Y-101406265D01*
X115020671Y-101414530D01*
X115042849Y-101425020D01*
X115063893Y-101437633D01*
X115083598Y-101452247D01*
X115101777Y-101468723D01*
X115118253Y-101486902D01*
X115132867Y-101506607D01*
X115145480Y-101527651D01*
X115155970Y-101549829D01*
X115164235Y-101572929D01*
X115170196Y-101596727D01*
X115173796Y-101620996D01*
X115175000Y-101645500D01*
X115175000Y-102570500D01*
X115173796Y-102595004D01*
X115170196Y-102619273D01*
X115164235Y-102643071D01*
X115155970Y-102666171D01*
X115145480Y-102688349D01*
X115132867Y-102709393D01*
X115118253Y-102729098D01*
X115101777Y-102747277D01*
X115083598Y-102763753D01*
X115063893Y-102778367D01*
X115042849Y-102790980D01*
X115020671Y-102801470D01*
X114997571Y-102809735D01*
X114973773Y-102815696D01*
X114949504Y-102819296D01*
X114925000Y-102820500D01*
X113675000Y-102820500D01*
X113650496Y-102819296D01*
X113626227Y-102815696D01*
X113602429Y-102809735D01*
X113579329Y-102801470D01*
X113557151Y-102790980D01*
X113536107Y-102778367D01*
X113516402Y-102763753D01*
X113498223Y-102747277D01*
X113481747Y-102729098D01*
X113467133Y-102709393D01*
X113454520Y-102688349D01*
X113444030Y-102666171D01*
X113435765Y-102643071D01*
X113429804Y-102619273D01*
X113426204Y-102595004D01*
X113425000Y-102570500D01*
X113425000Y-101645500D01*
X113426204Y-101620996D01*
X113429804Y-101596727D01*
X113435765Y-101572929D01*
X113444030Y-101549829D01*
X113454520Y-101527651D01*
X113467133Y-101506607D01*
X113481747Y-101486902D01*
X113498223Y-101468723D01*
X113516402Y-101452247D01*
X113536107Y-101437633D01*
X113557151Y-101425020D01*
X113579329Y-101414530D01*
X113602429Y-101406265D01*
X113626227Y-101400304D01*
X113650496Y-101396704D01*
X113675000Y-101395500D01*
X114925000Y-101395500D01*
X114949504Y-101396704D01*
X114949504Y-101396704D01*
G37*
D16*
X114300000Y-102108000D03*
D11*
G36*
X114949504Y-119467204D02*
G01*
X114973773Y-119470804D01*
X114997571Y-119476765D01*
X115020671Y-119485030D01*
X115042849Y-119495520D01*
X115063893Y-119508133D01*
X115083598Y-119522747D01*
X115101777Y-119539223D01*
X115118253Y-119557402D01*
X115132867Y-119577107D01*
X115145480Y-119598151D01*
X115155970Y-119620329D01*
X115164235Y-119643429D01*
X115170196Y-119667227D01*
X115173796Y-119691496D01*
X115175000Y-119716000D01*
X115175000Y-120641000D01*
X115173796Y-120665504D01*
X115170196Y-120689773D01*
X115164235Y-120713571D01*
X115155970Y-120736671D01*
X115145480Y-120758849D01*
X115132867Y-120779893D01*
X115118253Y-120799598D01*
X115101777Y-120817777D01*
X115083598Y-120834253D01*
X115063893Y-120848867D01*
X115042849Y-120861480D01*
X115020671Y-120871970D01*
X114997571Y-120880235D01*
X114973773Y-120886196D01*
X114949504Y-120889796D01*
X114925000Y-120891000D01*
X113675000Y-120891000D01*
X113650496Y-120889796D01*
X113626227Y-120886196D01*
X113602429Y-120880235D01*
X113579329Y-120871970D01*
X113557151Y-120861480D01*
X113536107Y-120848867D01*
X113516402Y-120834253D01*
X113498223Y-120817777D01*
X113481747Y-120799598D01*
X113467133Y-120779893D01*
X113454520Y-120758849D01*
X113444030Y-120736671D01*
X113435765Y-120713571D01*
X113429804Y-120689773D01*
X113426204Y-120665504D01*
X113425000Y-120641000D01*
X113425000Y-119716000D01*
X113426204Y-119691496D01*
X113429804Y-119667227D01*
X113435765Y-119643429D01*
X113444030Y-119620329D01*
X113454520Y-119598151D01*
X113467133Y-119577107D01*
X113481747Y-119557402D01*
X113498223Y-119539223D01*
X113516402Y-119522747D01*
X113536107Y-119508133D01*
X113557151Y-119495520D01*
X113579329Y-119485030D01*
X113602429Y-119476765D01*
X113626227Y-119470804D01*
X113650496Y-119467204D01*
X113675000Y-119466000D01*
X114925000Y-119466000D01*
X114949504Y-119467204D01*
X114949504Y-119467204D01*
G37*
D16*
X114300000Y-120178500D03*
D11*
G36*
X114949504Y-122442204D02*
G01*
X114973773Y-122445804D01*
X114997571Y-122451765D01*
X115020671Y-122460030D01*
X115042849Y-122470520D01*
X115063893Y-122483133D01*
X115083598Y-122497747D01*
X115101777Y-122514223D01*
X115118253Y-122532402D01*
X115132867Y-122552107D01*
X115145480Y-122573151D01*
X115155970Y-122595329D01*
X115164235Y-122618429D01*
X115170196Y-122642227D01*
X115173796Y-122666496D01*
X115175000Y-122691000D01*
X115175000Y-123616000D01*
X115173796Y-123640504D01*
X115170196Y-123664773D01*
X115164235Y-123688571D01*
X115155970Y-123711671D01*
X115145480Y-123733849D01*
X115132867Y-123754893D01*
X115118253Y-123774598D01*
X115101777Y-123792777D01*
X115083598Y-123809253D01*
X115063893Y-123823867D01*
X115042849Y-123836480D01*
X115020671Y-123846970D01*
X114997571Y-123855235D01*
X114973773Y-123861196D01*
X114949504Y-123864796D01*
X114925000Y-123866000D01*
X113675000Y-123866000D01*
X113650496Y-123864796D01*
X113626227Y-123861196D01*
X113602429Y-123855235D01*
X113579329Y-123846970D01*
X113557151Y-123836480D01*
X113536107Y-123823867D01*
X113516402Y-123809253D01*
X113498223Y-123792777D01*
X113481747Y-123774598D01*
X113467133Y-123754893D01*
X113454520Y-123733849D01*
X113444030Y-123711671D01*
X113435765Y-123688571D01*
X113429804Y-123664773D01*
X113426204Y-123640504D01*
X113425000Y-123616000D01*
X113425000Y-122691000D01*
X113426204Y-122666496D01*
X113429804Y-122642227D01*
X113435765Y-122618429D01*
X113444030Y-122595329D01*
X113454520Y-122573151D01*
X113467133Y-122552107D01*
X113481747Y-122532402D01*
X113498223Y-122514223D01*
X113516402Y-122497747D01*
X113536107Y-122483133D01*
X113557151Y-122470520D01*
X113579329Y-122460030D01*
X113602429Y-122451765D01*
X113626227Y-122445804D01*
X113650496Y-122442204D01*
X113675000Y-122441000D01*
X114925000Y-122441000D01*
X114949504Y-122442204D01*
X114949504Y-122442204D01*
G37*
D16*
X114300000Y-123153500D03*
D11*
G36*
X112409504Y-98385204D02*
G01*
X112433773Y-98388804D01*
X112457571Y-98394765D01*
X112480671Y-98403030D01*
X112502849Y-98413520D01*
X112523893Y-98426133D01*
X112543598Y-98440747D01*
X112561777Y-98457223D01*
X112578253Y-98475402D01*
X112592867Y-98495107D01*
X112605480Y-98516151D01*
X112615970Y-98538329D01*
X112624235Y-98561429D01*
X112630196Y-98585227D01*
X112633796Y-98609496D01*
X112635000Y-98634000D01*
X112635000Y-99559000D01*
X112633796Y-99583504D01*
X112630196Y-99607773D01*
X112624235Y-99631571D01*
X112615970Y-99654671D01*
X112605480Y-99676849D01*
X112592867Y-99697893D01*
X112578253Y-99717598D01*
X112561777Y-99735777D01*
X112543598Y-99752253D01*
X112523893Y-99766867D01*
X112502849Y-99779480D01*
X112480671Y-99789970D01*
X112457571Y-99798235D01*
X112433773Y-99804196D01*
X112409504Y-99807796D01*
X112385000Y-99809000D01*
X111135000Y-99809000D01*
X111110496Y-99807796D01*
X111086227Y-99804196D01*
X111062429Y-99798235D01*
X111039329Y-99789970D01*
X111017151Y-99779480D01*
X110996107Y-99766867D01*
X110976402Y-99752253D01*
X110958223Y-99735777D01*
X110941747Y-99717598D01*
X110927133Y-99697893D01*
X110914520Y-99676849D01*
X110904030Y-99654671D01*
X110895765Y-99631571D01*
X110889804Y-99607773D01*
X110886204Y-99583504D01*
X110885000Y-99559000D01*
X110885000Y-98634000D01*
X110886204Y-98609496D01*
X110889804Y-98585227D01*
X110895765Y-98561429D01*
X110904030Y-98538329D01*
X110914520Y-98516151D01*
X110927133Y-98495107D01*
X110941747Y-98475402D01*
X110958223Y-98457223D01*
X110976402Y-98440747D01*
X110996107Y-98426133D01*
X111017151Y-98413520D01*
X111039329Y-98403030D01*
X111062429Y-98394765D01*
X111086227Y-98388804D01*
X111110496Y-98385204D01*
X111135000Y-98384000D01*
X112385000Y-98384000D01*
X112409504Y-98385204D01*
X112409504Y-98385204D01*
G37*
D16*
X111760000Y-99096500D03*
D11*
G36*
X112409504Y-101360204D02*
G01*
X112433773Y-101363804D01*
X112457571Y-101369765D01*
X112480671Y-101378030D01*
X112502849Y-101388520D01*
X112523893Y-101401133D01*
X112543598Y-101415747D01*
X112561777Y-101432223D01*
X112578253Y-101450402D01*
X112592867Y-101470107D01*
X112605480Y-101491151D01*
X112615970Y-101513329D01*
X112624235Y-101536429D01*
X112630196Y-101560227D01*
X112633796Y-101584496D01*
X112635000Y-101609000D01*
X112635000Y-102534000D01*
X112633796Y-102558504D01*
X112630196Y-102582773D01*
X112624235Y-102606571D01*
X112615970Y-102629671D01*
X112605480Y-102651849D01*
X112592867Y-102672893D01*
X112578253Y-102692598D01*
X112561777Y-102710777D01*
X112543598Y-102727253D01*
X112523893Y-102741867D01*
X112502849Y-102754480D01*
X112480671Y-102764970D01*
X112457571Y-102773235D01*
X112433773Y-102779196D01*
X112409504Y-102782796D01*
X112385000Y-102784000D01*
X111135000Y-102784000D01*
X111110496Y-102782796D01*
X111086227Y-102779196D01*
X111062429Y-102773235D01*
X111039329Y-102764970D01*
X111017151Y-102754480D01*
X110996107Y-102741867D01*
X110976402Y-102727253D01*
X110958223Y-102710777D01*
X110941747Y-102692598D01*
X110927133Y-102672893D01*
X110914520Y-102651849D01*
X110904030Y-102629671D01*
X110895765Y-102606571D01*
X110889804Y-102582773D01*
X110886204Y-102558504D01*
X110885000Y-102534000D01*
X110885000Y-101609000D01*
X110886204Y-101584496D01*
X110889804Y-101560227D01*
X110895765Y-101536429D01*
X110904030Y-101513329D01*
X110914520Y-101491151D01*
X110927133Y-101470107D01*
X110941747Y-101450402D01*
X110958223Y-101432223D01*
X110976402Y-101415747D01*
X110996107Y-101401133D01*
X111017151Y-101388520D01*
X111039329Y-101378030D01*
X111062429Y-101369765D01*
X111086227Y-101363804D01*
X111110496Y-101360204D01*
X111135000Y-101359000D01*
X112385000Y-101359000D01*
X112409504Y-101360204D01*
X112409504Y-101360204D01*
G37*
D16*
X111760000Y-102071500D03*
D11*
G36*
X112409504Y-119467204D02*
G01*
X112433773Y-119470804D01*
X112457571Y-119476765D01*
X112480671Y-119485030D01*
X112502849Y-119495520D01*
X112523893Y-119508133D01*
X112543598Y-119522747D01*
X112561777Y-119539223D01*
X112578253Y-119557402D01*
X112592867Y-119577107D01*
X112605480Y-119598151D01*
X112615970Y-119620329D01*
X112624235Y-119643429D01*
X112630196Y-119667227D01*
X112633796Y-119691496D01*
X112635000Y-119716000D01*
X112635000Y-120641000D01*
X112633796Y-120665504D01*
X112630196Y-120689773D01*
X112624235Y-120713571D01*
X112615970Y-120736671D01*
X112605480Y-120758849D01*
X112592867Y-120779893D01*
X112578253Y-120799598D01*
X112561777Y-120817777D01*
X112543598Y-120834253D01*
X112523893Y-120848867D01*
X112502849Y-120861480D01*
X112480671Y-120871970D01*
X112457571Y-120880235D01*
X112433773Y-120886196D01*
X112409504Y-120889796D01*
X112385000Y-120891000D01*
X111135000Y-120891000D01*
X111110496Y-120889796D01*
X111086227Y-120886196D01*
X111062429Y-120880235D01*
X111039329Y-120871970D01*
X111017151Y-120861480D01*
X110996107Y-120848867D01*
X110976402Y-120834253D01*
X110958223Y-120817777D01*
X110941747Y-120799598D01*
X110927133Y-120779893D01*
X110914520Y-120758849D01*
X110904030Y-120736671D01*
X110895765Y-120713571D01*
X110889804Y-120689773D01*
X110886204Y-120665504D01*
X110885000Y-120641000D01*
X110885000Y-119716000D01*
X110886204Y-119691496D01*
X110889804Y-119667227D01*
X110895765Y-119643429D01*
X110904030Y-119620329D01*
X110914520Y-119598151D01*
X110927133Y-119577107D01*
X110941747Y-119557402D01*
X110958223Y-119539223D01*
X110976402Y-119522747D01*
X110996107Y-119508133D01*
X111017151Y-119495520D01*
X111039329Y-119485030D01*
X111062429Y-119476765D01*
X111086227Y-119470804D01*
X111110496Y-119467204D01*
X111135000Y-119466000D01*
X112385000Y-119466000D01*
X112409504Y-119467204D01*
X112409504Y-119467204D01*
G37*
D16*
X111760000Y-120178500D03*
D11*
G36*
X112409504Y-122442204D02*
G01*
X112433773Y-122445804D01*
X112457571Y-122451765D01*
X112480671Y-122460030D01*
X112502849Y-122470520D01*
X112523893Y-122483133D01*
X112543598Y-122497747D01*
X112561777Y-122514223D01*
X112578253Y-122532402D01*
X112592867Y-122552107D01*
X112605480Y-122573151D01*
X112615970Y-122595329D01*
X112624235Y-122618429D01*
X112630196Y-122642227D01*
X112633796Y-122666496D01*
X112635000Y-122691000D01*
X112635000Y-123616000D01*
X112633796Y-123640504D01*
X112630196Y-123664773D01*
X112624235Y-123688571D01*
X112615970Y-123711671D01*
X112605480Y-123733849D01*
X112592867Y-123754893D01*
X112578253Y-123774598D01*
X112561777Y-123792777D01*
X112543598Y-123809253D01*
X112523893Y-123823867D01*
X112502849Y-123836480D01*
X112480671Y-123846970D01*
X112457571Y-123855235D01*
X112433773Y-123861196D01*
X112409504Y-123864796D01*
X112385000Y-123866000D01*
X111135000Y-123866000D01*
X111110496Y-123864796D01*
X111086227Y-123861196D01*
X111062429Y-123855235D01*
X111039329Y-123846970D01*
X111017151Y-123836480D01*
X110996107Y-123823867D01*
X110976402Y-123809253D01*
X110958223Y-123792777D01*
X110941747Y-123774598D01*
X110927133Y-123754893D01*
X110914520Y-123733849D01*
X110904030Y-123711671D01*
X110895765Y-123688571D01*
X110889804Y-123664773D01*
X110886204Y-123640504D01*
X110885000Y-123616000D01*
X110885000Y-122691000D01*
X110886204Y-122666496D01*
X110889804Y-122642227D01*
X110895765Y-122618429D01*
X110904030Y-122595329D01*
X110914520Y-122573151D01*
X110927133Y-122552107D01*
X110941747Y-122532402D01*
X110958223Y-122514223D01*
X110976402Y-122497747D01*
X110996107Y-122483133D01*
X111017151Y-122470520D01*
X111039329Y-122460030D01*
X111062429Y-122451765D01*
X111086227Y-122445804D01*
X111110496Y-122442204D01*
X111135000Y-122441000D01*
X112385000Y-122441000D01*
X112409504Y-122442204D01*
X112409504Y-122442204D01*
G37*
D16*
X111760000Y-123153500D03*
D11*
G36*
X152795504Y-185180204D02*
G01*
X152819773Y-185183804D01*
X152843571Y-185189765D01*
X152866671Y-185198030D01*
X152888849Y-185208520D01*
X152909893Y-185221133D01*
X152929598Y-185235747D01*
X152947777Y-185252223D01*
X152964253Y-185270402D01*
X152978867Y-185290107D01*
X152991480Y-185311151D01*
X153001970Y-185333329D01*
X153010235Y-185356429D01*
X153016196Y-185380227D01*
X153019796Y-185404496D01*
X153021000Y-185429000D01*
X153021000Y-186354000D01*
X153019796Y-186378504D01*
X153016196Y-186402773D01*
X153010235Y-186426571D01*
X153001970Y-186449671D01*
X152991480Y-186471849D01*
X152978867Y-186492893D01*
X152964253Y-186512598D01*
X152947777Y-186530777D01*
X152929598Y-186547253D01*
X152909893Y-186561867D01*
X152888849Y-186574480D01*
X152866671Y-186584970D01*
X152843571Y-186593235D01*
X152819773Y-186599196D01*
X152795504Y-186602796D01*
X152771000Y-186604000D01*
X151521000Y-186604000D01*
X151496496Y-186602796D01*
X151472227Y-186599196D01*
X151448429Y-186593235D01*
X151425329Y-186584970D01*
X151403151Y-186574480D01*
X151382107Y-186561867D01*
X151362402Y-186547253D01*
X151344223Y-186530777D01*
X151327747Y-186512598D01*
X151313133Y-186492893D01*
X151300520Y-186471849D01*
X151290030Y-186449671D01*
X151281765Y-186426571D01*
X151275804Y-186402773D01*
X151272204Y-186378504D01*
X151271000Y-186354000D01*
X151271000Y-185429000D01*
X151272204Y-185404496D01*
X151275804Y-185380227D01*
X151281765Y-185356429D01*
X151290030Y-185333329D01*
X151300520Y-185311151D01*
X151313133Y-185290107D01*
X151327747Y-185270402D01*
X151344223Y-185252223D01*
X151362402Y-185235747D01*
X151382107Y-185221133D01*
X151403151Y-185208520D01*
X151425329Y-185198030D01*
X151448429Y-185189765D01*
X151472227Y-185183804D01*
X151496496Y-185180204D01*
X151521000Y-185179000D01*
X152771000Y-185179000D01*
X152795504Y-185180204D01*
X152795504Y-185180204D01*
G37*
D16*
X152146000Y-185891500D03*
D11*
G36*
X152795504Y-182205204D02*
G01*
X152819773Y-182208804D01*
X152843571Y-182214765D01*
X152866671Y-182223030D01*
X152888849Y-182233520D01*
X152909893Y-182246133D01*
X152929598Y-182260747D01*
X152947777Y-182277223D01*
X152964253Y-182295402D01*
X152978867Y-182315107D01*
X152991480Y-182336151D01*
X153001970Y-182358329D01*
X153010235Y-182381429D01*
X153016196Y-182405227D01*
X153019796Y-182429496D01*
X153021000Y-182454000D01*
X153021000Y-183379000D01*
X153019796Y-183403504D01*
X153016196Y-183427773D01*
X153010235Y-183451571D01*
X153001970Y-183474671D01*
X152991480Y-183496849D01*
X152978867Y-183517893D01*
X152964253Y-183537598D01*
X152947777Y-183555777D01*
X152929598Y-183572253D01*
X152909893Y-183586867D01*
X152888849Y-183599480D01*
X152866671Y-183609970D01*
X152843571Y-183618235D01*
X152819773Y-183624196D01*
X152795504Y-183627796D01*
X152771000Y-183629000D01*
X151521000Y-183629000D01*
X151496496Y-183627796D01*
X151472227Y-183624196D01*
X151448429Y-183618235D01*
X151425329Y-183609970D01*
X151403151Y-183599480D01*
X151382107Y-183586867D01*
X151362402Y-183572253D01*
X151344223Y-183555777D01*
X151327747Y-183537598D01*
X151313133Y-183517893D01*
X151300520Y-183496849D01*
X151290030Y-183474671D01*
X151281765Y-183451571D01*
X151275804Y-183427773D01*
X151272204Y-183403504D01*
X151271000Y-183379000D01*
X151271000Y-182454000D01*
X151272204Y-182429496D01*
X151275804Y-182405227D01*
X151281765Y-182381429D01*
X151290030Y-182358329D01*
X151300520Y-182336151D01*
X151313133Y-182315107D01*
X151327747Y-182295402D01*
X151344223Y-182277223D01*
X151362402Y-182260747D01*
X151382107Y-182246133D01*
X151403151Y-182233520D01*
X151425329Y-182223030D01*
X151448429Y-182214765D01*
X151472227Y-182208804D01*
X151496496Y-182205204D01*
X151521000Y-182204000D01*
X152771000Y-182204000D01*
X152795504Y-182205204D01*
X152795504Y-182205204D01*
G37*
D16*
X152146000Y-182916500D03*
D11*
G36*
X152342504Y-71770204D02*
G01*
X152366773Y-71773804D01*
X152390571Y-71779765D01*
X152413671Y-71788030D01*
X152435849Y-71798520D01*
X152456893Y-71811133D01*
X152476598Y-71825747D01*
X152494777Y-71842223D01*
X152511253Y-71860402D01*
X152525867Y-71880107D01*
X152538480Y-71901151D01*
X152548970Y-71923329D01*
X152557235Y-71946429D01*
X152563196Y-71970227D01*
X152566796Y-71994496D01*
X152568000Y-72019000D01*
X152568000Y-73269000D01*
X152566796Y-73293504D01*
X152563196Y-73317773D01*
X152557235Y-73341571D01*
X152548970Y-73364671D01*
X152538480Y-73386849D01*
X152525867Y-73407893D01*
X152511253Y-73427598D01*
X152494777Y-73445777D01*
X152476598Y-73462253D01*
X152456893Y-73476867D01*
X152435849Y-73489480D01*
X152413671Y-73499970D01*
X152390571Y-73508235D01*
X152366773Y-73514196D01*
X152342504Y-73517796D01*
X152318000Y-73519000D01*
X151393000Y-73519000D01*
X151368496Y-73517796D01*
X151344227Y-73514196D01*
X151320429Y-73508235D01*
X151297329Y-73499970D01*
X151275151Y-73489480D01*
X151254107Y-73476867D01*
X151234402Y-73462253D01*
X151216223Y-73445777D01*
X151199747Y-73427598D01*
X151185133Y-73407893D01*
X151172520Y-73386849D01*
X151162030Y-73364671D01*
X151153765Y-73341571D01*
X151147804Y-73317773D01*
X151144204Y-73293504D01*
X151143000Y-73269000D01*
X151143000Y-72019000D01*
X151144204Y-71994496D01*
X151147804Y-71970227D01*
X151153765Y-71946429D01*
X151162030Y-71923329D01*
X151172520Y-71901151D01*
X151185133Y-71880107D01*
X151199747Y-71860402D01*
X151216223Y-71842223D01*
X151234402Y-71825747D01*
X151254107Y-71811133D01*
X151275151Y-71798520D01*
X151297329Y-71788030D01*
X151320429Y-71779765D01*
X151344227Y-71773804D01*
X151368496Y-71770204D01*
X151393000Y-71769000D01*
X152318000Y-71769000D01*
X152342504Y-71770204D01*
X152342504Y-71770204D01*
G37*
D16*
X151855500Y-72644000D03*
D11*
G36*
X149367504Y-71770204D02*
G01*
X149391773Y-71773804D01*
X149415571Y-71779765D01*
X149438671Y-71788030D01*
X149460849Y-71798520D01*
X149481893Y-71811133D01*
X149501598Y-71825747D01*
X149519777Y-71842223D01*
X149536253Y-71860402D01*
X149550867Y-71880107D01*
X149563480Y-71901151D01*
X149573970Y-71923329D01*
X149582235Y-71946429D01*
X149588196Y-71970227D01*
X149591796Y-71994496D01*
X149593000Y-72019000D01*
X149593000Y-73269000D01*
X149591796Y-73293504D01*
X149588196Y-73317773D01*
X149582235Y-73341571D01*
X149573970Y-73364671D01*
X149563480Y-73386849D01*
X149550867Y-73407893D01*
X149536253Y-73427598D01*
X149519777Y-73445777D01*
X149501598Y-73462253D01*
X149481893Y-73476867D01*
X149460849Y-73489480D01*
X149438671Y-73499970D01*
X149415571Y-73508235D01*
X149391773Y-73514196D01*
X149367504Y-73517796D01*
X149343000Y-73519000D01*
X148418000Y-73519000D01*
X148393496Y-73517796D01*
X148369227Y-73514196D01*
X148345429Y-73508235D01*
X148322329Y-73499970D01*
X148300151Y-73489480D01*
X148279107Y-73476867D01*
X148259402Y-73462253D01*
X148241223Y-73445777D01*
X148224747Y-73427598D01*
X148210133Y-73407893D01*
X148197520Y-73386849D01*
X148187030Y-73364671D01*
X148178765Y-73341571D01*
X148172804Y-73317773D01*
X148169204Y-73293504D01*
X148168000Y-73269000D01*
X148168000Y-72019000D01*
X148169204Y-71994496D01*
X148172804Y-71970227D01*
X148178765Y-71946429D01*
X148187030Y-71923329D01*
X148197520Y-71901151D01*
X148210133Y-71880107D01*
X148224747Y-71860402D01*
X148241223Y-71842223D01*
X148259402Y-71825747D01*
X148279107Y-71811133D01*
X148300151Y-71798520D01*
X148322329Y-71788030D01*
X148345429Y-71779765D01*
X148369227Y-71773804D01*
X148393496Y-71770204D01*
X148418000Y-71769000D01*
X149343000Y-71769000D01*
X149367504Y-71770204D01*
X149367504Y-71770204D01*
G37*
D16*
X148880500Y-72644000D03*
D11*
G36*
X146699504Y-74509204D02*
G01*
X146723773Y-74512804D01*
X146747571Y-74518765D01*
X146770671Y-74527030D01*
X146792849Y-74537520D01*
X146813893Y-74550133D01*
X146833598Y-74564747D01*
X146851777Y-74581223D01*
X146868253Y-74599402D01*
X146882867Y-74619107D01*
X146895480Y-74640151D01*
X146905970Y-74662329D01*
X146914235Y-74685429D01*
X146920196Y-74709227D01*
X146923796Y-74733496D01*
X146925000Y-74758000D01*
X146925000Y-75683000D01*
X146923796Y-75707504D01*
X146920196Y-75731773D01*
X146914235Y-75755571D01*
X146905970Y-75778671D01*
X146895480Y-75800849D01*
X146882867Y-75821893D01*
X146868253Y-75841598D01*
X146851777Y-75859777D01*
X146833598Y-75876253D01*
X146813893Y-75890867D01*
X146792849Y-75903480D01*
X146770671Y-75913970D01*
X146747571Y-75922235D01*
X146723773Y-75928196D01*
X146699504Y-75931796D01*
X146675000Y-75933000D01*
X145425000Y-75933000D01*
X145400496Y-75931796D01*
X145376227Y-75928196D01*
X145352429Y-75922235D01*
X145329329Y-75913970D01*
X145307151Y-75903480D01*
X145286107Y-75890867D01*
X145266402Y-75876253D01*
X145248223Y-75859777D01*
X145231747Y-75841598D01*
X145217133Y-75821893D01*
X145204520Y-75800849D01*
X145194030Y-75778671D01*
X145185765Y-75755571D01*
X145179804Y-75731773D01*
X145176204Y-75707504D01*
X145175000Y-75683000D01*
X145175000Y-74758000D01*
X145176204Y-74733496D01*
X145179804Y-74709227D01*
X145185765Y-74685429D01*
X145194030Y-74662329D01*
X145204520Y-74640151D01*
X145217133Y-74619107D01*
X145231747Y-74599402D01*
X145248223Y-74581223D01*
X145266402Y-74564747D01*
X145286107Y-74550133D01*
X145307151Y-74537520D01*
X145329329Y-74527030D01*
X145352429Y-74518765D01*
X145376227Y-74512804D01*
X145400496Y-74509204D01*
X145425000Y-74508000D01*
X146675000Y-74508000D01*
X146699504Y-74509204D01*
X146699504Y-74509204D01*
G37*
D16*
X146050000Y-75220500D03*
D11*
G36*
X146699504Y-77484204D02*
G01*
X146723773Y-77487804D01*
X146747571Y-77493765D01*
X146770671Y-77502030D01*
X146792849Y-77512520D01*
X146813893Y-77525133D01*
X146833598Y-77539747D01*
X146851777Y-77556223D01*
X146868253Y-77574402D01*
X146882867Y-77594107D01*
X146895480Y-77615151D01*
X146905970Y-77637329D01*
X146914235Y-77660429D01*
X146920196Y-77684227D01*
X146923796Y-77708496D01*
X146925000Y-77733000D01*
X146925000Y-78658000D01*
X146923796Y-78682504D01*
X146920196Y-78706773D01*
X146914235Y-78730571D01*
X146905970Y-78753671D01*
X146895480Y-78775849D01*
X146882867Y-78796893D01*
X146868253Y-78816598D01*
X146851777Y-78834777D01*
X146833598Y-78851253D01*
X146813893Y-78865867D01*
X146792849Y-78878480D01*
X146770671Y-78888970D01*
X146747571Y-78897235D01*
X146723773Y-78903196D01*
X146699504Y-78906796D01*
X146675000Y-78908000D01*
X145425000Y-78908000D01*
X145400496Y-78906796D01*
X145376227Y-78903196D01*
X145352429Y-78897235D01*
X145329329Y-78888970D01*
X145307151Y-78878480D01*
X145286107Y-78865867D01*
X145266402Y-78851253D01*
X145248223Y-78834777D01*
X145231747Y-78816598D01*
X145217133Y-78796893D01*
X145204520Y-78775849D01*
X145194030Y-78753671D01*
X145185765Y-78730571D01*
X145179804Y-78706773D01*
X145176204Y-78682504D01*
X145175000Y-78658000D01*
X145175000Y-77733000D01*
X145176204Y-77708496D01*
X145179804Y-77684227D01*
X145185765Y-77660429D01*
X145194030Y-77637329D01*
X145204520Y-77615151D01*
X145217133Y-77594107D01*
X145231747Y-77574402D01*
X145248223Y-77556223D01*
X145266402Y-77539747D01*
X145286107Y-77525133D01*
X145307151Y-77512520D01*
X145329329Y-77502030D01*
X145352429Y-77493765D01*
X145376227Y-77487804D01*
X145400496Y-77484204D01*
X145425000Y-77483000D01*
X146675000Y-77483000D01*
X146699504Y-77484204D01*
X146699504Y-77484204D01*
G37*
D16*
X146050000Y-78195500D03*
D11*
G36*
X148731504Y-182205204D02*
G01*
X148755773Y-182208804D01*
X148779571Y-182214765D01*
X148802671Y-182223030D01*
X148824849Y-182233520D01*
X148845893Y-182246133D01*
X148865598Y-182260747D01*
X148883777Y-182277223D01*
X148900253Y-182295402D01*
X148914867Y-182315107D01*
X148927480Y-182336151D01*
X148937970Y-182358329D01*
X148946235Y-182381429D01*
X148952196Y-182405227D01*
X148955796Y-182429496D01*
X148957000Y-182454000D01*
X148957000Y-183379000D01*
X148955796Y-183403504D01*
X148952196Y-183427773D01*
X148946235Y-183451571D01*
X148937970Y-183474671D01*
X148927480Y-183496849D01*
X148914867Y-183517893D01*
X148900253Y-183537598D01*
X148883777Y-183555777D01*
X148865598Y-183572253D01*
X148845893Y-183586867D01*
X148824849Y-183599480D01*
X148802671Y-183609970D01*
X148779571Y-183618235D01*
X148755773Y-183624196D01*
X148731504Y-183627796D01*
X148707000Y-183629000D01*
X147457000Y-183629000D01*
X147432496Y-183627796D01*
X147408227Y-183624196D01*
X147384429Y-183618235D01*
X147361329Y-183609970D01*
X147339151Y-183599480D01*
X147318107Y-183586867D01*
X147298402Y-183572253D01*
X147280223Y-183555777D01*
X147263747Y-183537598D01*
X147249133Y-183517893D01*
X147236520Y-183496849D01*
X147226030Y-183474671D01*
X147217765Y-183451571D01*
X147211804Y-183427773D01*
X147208204Y-183403504D01*
X147207000Y-183379000D01*
X147207000Y-182454000D01*
X147208204Y-182429496D01*
X147211804Y-182405227D01*
X147217765Y-182381429D01*
X147226030Y-182358329D01*
X147236520Y-182336151D01*
X147249133Y-182315107D01*
X147263747Y-182295402D01*
X147280223Y-182277223D01*
X147298402Y-182260747D01*
X147318107Y-182246133D01*
X147339151Y-182233520D01*
X147361329Y-182223030D01*
X147384429Y-182214765D01*
X147408227Y-182208804D01*
X147432496Y-182205204D01*
X147457000Y-182204000D01*
X148707000Y-182204000D01*
X148731504Y-182205204D01*
X148731504Y-182205204D01*
G37*
D16*
X148082000Y-182916500D03*
D11*
G36*
X148731504Y-185180204D02*
G01*
X148755773Y-185183804D01*
X148779571Y-185189765D01*
X148802671Y-185198030D01*
X148824849Y-185208520D01*
X148845893Y-185221133D01*
X148865598Y-185235747D01*
X148883777Y-185252223D01*
X148900253Y-185270402D01*
X148914867Y-185290107D01*
X148927480Y-185311151D01*
X148937970Y-185333329D01*
X148946235Y-185356429D01*
X148952196Y-185380227D01*
X148955796Y-185404496D01*
X148957000Y-185429000D01*
X148957000Y-186354000D01*
X148955796Y-186378504D01*
X148952196Y-186402773D01*
X148946235Y-186426571D01*
X148937970Y-186449671D01*
X148927480Y-186471849D01*
X148914867Y-186492893D01*
X148900253Y-186512598D01*
X148883777Y-186530777D01*
X148865598Y-186547253D01*
X148845893Y-186561867D01*
X148824849Y-186574480D01*
X148802671Y-186584970D01*
X148779571Y-186593235D01*
X148755773Y-186599196D01*
X148731504Y-186602796D01*
X148707000Y-186604000D01*
X147457000Y-186604000D01*
X147432496Y-186602796D01*
X147408227Y-186599196D01*
X147384429Y-186593235D01*
X147361329Y-186584970D01*
X147339151Y-186574480D01*
X147318107Y-186561867D01*
X147298402Y-186547253D01*
X147280223Y-186530777D01*
X147263747Y-186512598D01*
X147249133Y-186492893D01*
X147236520Y-186471849D01*
X147226030Y-186449671D01*
X147217765Y-186426571D01*
X147211804Y-186402773D01*
X147208204Y-186378504D01*
X147207000Y-186354000D01*
X147207000Y-185429000D01*
X147208204Y-185404496D01*
X147211804Y-185380227D01*
X147217765Y-185356429D01*
X147226030Y-185333329D01*
X147236520Y-185311151D01*
X147249133Y-185290107D01*
X147263747Y-185270402D01*
X147280223Y-185252223D01*
X147298402Y-185235747D01*
X147318107Y-185221133D01*
X147339151Y-185208520D01*
X147361329Y-185198030D01*
X147384429Y-185189765D01*
X147408227Y-185183804D01*
X147432496Y-185180204D01*
X147457000Y-185179000D01*
X148707000Y-185179000D01*
X148731504Y-185180204D01*
X148731504Y-185180204D01*
G37*
D16*
X148082000Y-185891500D03*
D11*
G36*
X149493504Y-74509204D02*
G01*
X149517773Y-74512804D01*
X149541571Y-74518765D01*
X149564671Y-74527030D01*
X149586849Y-74537520D01*
X149607893Y-74550133D01*
X149627598Y-74564747D01*
X149645777Y-74581223D01*
X149662253Y-74599402D01*
X149676867Y-74619107D01*
X149689480Y-74640151D01*
X149699970Y-74662329D01*
X149708235Y-74685429D01*
X149714196Y-74709227D01*
X149717796Y-74733496D01*
X149719000Y-74758000D01*
X149719000Y-75683000D01*
X149717796Y-75707504D01*
X149714196Y-75731773D01*
X149708235Y-75755571D01*
X149699970Y-75778671D01*
X149689480Y-75800849D01*
X149676867Y-75821893D01*
X149662253Y-75841598D01*
X149645777Y-75859777D01*
X149627598Y-75876253D01*
X149607893Y-75890867D01*
X149586849Y-75903480D01*
X149564671Y-75913970D01*
X149541571Y-75922235D01*
X149517773Y-75928196D01*
X149493504Y-75931796D01*
X149469000Y-75933000D01*
X148219000Y-75933000D01*
X148194496Y-75931796D01*
X148170227Y-75928196D01*
X148146429Y-75922235D01*
X148123329Y-75913970D01*
X148101151Y-75903480D01*
X148080107Y-75890867D01*
X148060402Y-75876253D01*
X148042223Y-75859777D01*
X148025747Y-75841598D01*
X148011133Y-75821893D01*
X147998520Y-75800849D01*
X147988030Y-75778671D01*
X147979765Y-75755571D01*
X147973804Y-75731773D01*
X147970204Y-75707504D01*
X147969000Y-75683000D01*
X147969000Y-74758000D01*
X147970204Y-74733496D01*
X147973804Y-74709227D01*
X147979765Y-74685429D01*
X147988030Y-74662329D01*
X147998520Y-74640151D01*
X148011133Y-74619107D01*
X148025747Y-74599402D01*
X148042223Y-74581223D01*
X148060402Y-74564747D01*
X148080107Y-74550133D01*
X148101151Y-74537520D01*
X148123329Y-74527030D01*
X148146429Y-74518765D01*
X148170227Y-74512804D01*
X148194496Y-74509204D01*
X148219000Y-74508000D01*
X149469000Y-74508000D01*
X149493504Y-74509204D01*
X149493504Y-74509204D01*
G37*
D16*
X148844000Y-75220500D03*
D11*
G36*
X149493504Y-77484204D02*
G01*
X149517773Y-77487804D01*
X149541571Y-77493765D01*
X149564671Y-77502030D01*
X149586849Y-77512520D01*
X149607893Y-77525133D01*
X149627598Y-77539747D01*
X149645777Y-77556223D01*
X149662253Y-77574402D01*
X149676867Y-77594107D01*
X149689480Y-77615151D01*
X149699970Y-77637329D01*
X149708235Y-77660429D01*
X149714196Y-77684227D01*
X149717796Y-77708496D01*
X149719000Y-77733000D01*
X149719000Y-78658000D01*
X149717796Y-78682504D01*
X149714196Y-78706773D01*
X149708235Y-78730571D01*
X149699970Y-78753671D01*
X149689480Y-78775849D01*
X149676867Y-78796893D01*
X149662253Y-78816598D01*
X149645777Y-78834777D01*
X149627598Y-78851253D01*
X149607893Y-78865867D01*
X149586849Y-78878480D01*
X149564671Y-78888970D01*
X149541571Y-78897235D01*
X149517773Y-78903196D01*
X149493504Y-78906796D01*
X149469000Y-78908000D01*
X148219000Y-78908000D01*
X148194496Y-78906796D01*
X148170227Y-78903196D01*
X148146429Y-78897235D01*
X148123329Y-78888970D01*
X148101151Y-78878480D01*
X148080107Y-78865867D01*
X148060402Y-78851253D01*
X148042223Y-78834777D01*
X148025747Y-78816598D01*
X148011133Y-78796893D01*
X147998520Y-78775849D01*
X147988030Y-78753671D01*
X147979765Y-78730571D01*
X147973804Y-78706773D01*
X147970204Y-78682504D01*
X147969000Y-78658000D01*
X147969000Y-77733000D01*
X147970204Y-77708496D01*
X147973804Y-77684227D01*
X147979765Y-77660429D01*
X147988030Y-77637329D01*
X147998520Y-77615151D01*
X148011133Y-77594107D01*
X148025747Y-77574402D01*
X148042223Y-77556223D01*
X148060402Y-77539747D01*
X148080107Y-77525133D01*
X148101151Y-77512520D01*
X148123329Y-77502030D01*
X148146429Y-77493765D01*
X148170227Y-77487804D01*
X148194496Y-77484204D01*
X148219000Y-77483000D01*
X149469000Y-77483000D01*
X149493504Y-77484204D01*
X149493504Y-77484204D01*
G37*
D16*
X148844000Y-78195500D03*
D11*
G36*
X145937504Y-182241704D02*
G01*
X145961773Y-182245304D01*
X145985571Y-182251265D01*
X146008671Y-182259530D01*
X146030849Y-182270020D01*
X146051893Y-182282633D01*
X146071598Y-182297247D01*
X146089777Y-182313723D01*
X146106253Y-182331902D01*
X146120867Y-182351607D01*
X146133480Y-182372651D01*
X146143970Y-182394829D01*
X146152235Y-182417929D01*
X146158196Y-182441727D01*
X146161796Y-182465996D01*
X146163000Y-182490500D01*
X146163000Y-183415500D01*
X146161796Y-183440004D01*
X146158196Y-183464273D01*
X146152235Y-183488071D01*
X146143970Y-183511171D01*
X146133480Y-183533349D01*
X146120867Y-183554393D01*
X146106253Y-183574098D01*
X146089777Y-183592277D01*
X146071598Y-183608753D01*
X146051893Y-183623367D01*
X146030849Y-183635980D01*
X146008671Y-183646470D01*
X145985571Y-183654735D01*
X145961773Y-183660696D01*
X145937504Y-183664296D01*
X145913000Y-183665500D01*
X144663000Y-183665500D01*
X144638496Y-183664296D01*
X144614227Y-183660696D01*
X144590429Y-183654735D01*
X144567329Y-183646470D01*
X144545151Y-183635980D01*
X144524107Y-183623367D01*
X144504402Y-183608753D01*
X144486223Y-183592277D01*
X144469747Y-183574098D01*
X144455133Y-183554393D01*
X144442520Y-183533349D01*
X144432030Y-183511171D01*
X144423765Y-183488071D01*
X144417804Y-183464273D01*
X144414204Y-183440004D01*
X144413000Y-183415500D01*
X144413000Y-182490500D01*
X144414204Y-182465996D01*
X144417804Y-182441727D01*
X144423765Y-182417929D01*
X144432030Y-182394829D01*
X144442520Y-182372651D01*
X144455133Y-182351607D01*
X144469747Y-182331902D01*
X144486223Y-182313723D01*
X144504402Y-182297247D01*
X144524107Y-182282633D01*
X144545151Y-182270020D01*
X144567329Y-182259530D01*
X144590429Y-182251265D01*
X144614227Y-182245304D01*
X144638496Y-182241704D01*
X144663000Y-182240500D01*
X145913000Y-182240500D01*
X145937504Y-182241704D01*
X145937504Y-182241704D01*
G37*
D16*
X145288000Y-182953000D03*
D11*
G36*
X145937504Y-185216704D02*
G01*
X145961773Y-185220304D01*
X145985571Y-185226265D01*
X146008671Y-185234530D01*
X146030849Y-185245020D01*
X146051893Y-185257633D01*
X146071598Y-185272247D01*
X146089777Y-185288723D01*
X146106253Y-185306902D01*
X146120867Y-185326607D01*
X146133480Y-185347651D01*
X146143970Y-185369829D01*
X146152235Y-185392929D01*
X146158196Y-185416727D01*
X146161796Y-185440996D01*
X146163000Y-185465500D01*
X146163000Y-186390500D01*
X146161796Y-186415004D01*
X146158196Y-186439273D01*
X146152235Y-186463071D01*
X146143970Y-186486171D01*
X146133480Y-186508349D01*
X146120867Y-186529393D01*
X146106253Y-186549098D01*
X146089777Y-186567277D01*
X146071598Y-186583753D01*
X146051893Y-186598367D01*
X146030849Y-186610980D01*
X146008671Y-186621470D01*
X145985571Y-186629735D01*
X145961773Y-186635696D01*
X145937504Y-186639296D01*
X145913000Y-186640500D01*
X144663000Y-186640500D01*
X144638496Y-186639296D01*
X144614227Y-186635696D01*
X144590429Y-186629735D01*
X144567329Y-186621470D01*
X144545151Y-186610980D01*
X144524107Y-186598367D01*
X144504402Y-186583753D01*
X144486223Y-186567277D01*
X144469747Y-186549098D01*
X144455133Y-186529393D01*
X144442520Y-186508349D01*
X144432030Y-186486171D01*
X144423765Y-186463071D01*
X144417804Y-186439273D01*
X144414204Y-186415004D01*
X144413000Y-186390500D01*
X144413000Y-185465500D01*
X144414204Y-185440996D01*
X144417804Y-185416727D01*
X144423765Y-185392929D01*
X144432030Y-185369829D01*
X144442520Y-185347651D01*
X144455133Y-185326607D01*
X144469747Y-185306902D01*
X144486223Y-185288723D01*
X144504402Y-185272247D01*
X144524107Y-185257633D01*
X144545151Y-185245020D01*
X144567329Y-185234530D01*
X144590429Y-185226265D01*
X144614227Y-185220304D01*
X144638496Y-185216704D01*
X144663000Y-185215500D01*
X145913000Y-185215500D01*
X145937504Y-185216704D01*
X145937504Y-185216704D01*
G37*
D16*
X145288000Y-185928000D03*
D11*
G36*
X152287504Y-115657204D02*
G01*
X152311773Y-115660804D01*
X152335571Y-115666765D01*
X152358671Y-115675030D01*
X152380849Y-115685520D01*
X152401893Y-115698133D01*
X152421598Y-115712747D01*
X152439777Y-115729223D01*
X152456253Y-115747402D01*
X152470867Y-115767107D01*
X152483480Y-115788151D01*
X152493970Y-115810329D01*
X152502235Y-115833429D01*
X152508196Y-115857227D01*
X152511796Y-115881496D01*
X152513000Y-115906000D01*
X152513000Y-116831000D01*
X152511796Y-116855504D01*
X152508196Y-116879773D01*
X152502235Y-116903571D01*
X152493970Y-116926671D01*
X152483480Y-116948849D01*
X152470867Y-116969893D01*
X152456253Y-116989598D01*
X152439777Y-117007777D01*
X152421598Y-117024253D01*
X152401893Y-117038867D01*
X152380849Y-117051480D01*
X152358671Y-117061970D01*
X152335571Y-117070235D01*
X152311773Y-117076196D01*
X152287504Y-117079796D01*
X152263000Y-117081000D01*
X151013000Y-117081000D01*
X150988496Y-117079796D01*
X150964227Y-117076196D01*
X150940429Y-117070235D01*
X150917329Y-117061970D01*
X150895151Y-117051480D01*
X150874107Y-117038867D01*
X150854402Y-117024253D01*
X150836223Y-117007777D01*
X150819747Y-116989598D01*
X150805133Y-116969893D01*
X150792520Y-116948849D01*
X150782030Y-116926671D01*
X150773765Y-116903571D01*
X150767804Y-116879773D01*
X150764204Y-116855504D01*
X150763000Y-116831000D01*
X150763000Y-115906000D01*
X150764204Y-115881496D01*
X150767804Y-115857227D01*
X150773765Y-115833429D01*
X150782030Y-115810329D01*
X150792520Y-115788151D01*
X150805133Y-115767107D01*
X150819747Y-115747402D01*
X150836223Y-115729223D01*
X150854402Y-115712747D01*
X150874107Y-115698133D01*
X150895151Y-115685520D01*
X150917329Y-115675030D01*
X150940429Y-115666765D01*
X150964227Y-115660804D01*
X150988496Y-115657204D01*
X151013000Y-115656000D01*
X152263000Y-115656000D01*
X152287504Y-115657204D01*
X152287504Y-115657204D01*
G37*
D16*
X151638000Y-116368500D03*
D11*
G36*
X152287504Y-118632204D02*
G01*
X152311773Y-118635804D01*
X152335571Y-118641765D01*
X152358671Y-118650030D01*
X152380849Y-118660520D01*
X152401893Y-118673133D01*
X152421598Y-118687747D01*
X152439777Y-118704223D01*
X152456253Y-118722402D01*
X152470867Y-118742107D01*
X152483480Y-118763151D01*
X152493970Y-118785329D01*
X152502235Y-118808429D01*
X152508196Y-118832227D01*
X152511796Y-118856496D01*
X152513000Y-118881000D01*
X152513000Y-119806000D01*
X152511796Y-119830504D01*
X152508196Y-119854773D01*
X152502235Y-119878571D01*
X152493970Y-119901671D01*
X152483480Y-119923849D01*
X152470867Y-119944893D01*
X152456253Y-119964598D01*
X152439777Y-119982777D01*
X152421598Y-119999253D01*
X152401893Y-120013867D01*
X152380849Y-120026480D01*
X152358671Y-120036970D01*
X152335571Y-120045235D01*
X152311773Y-120051196D01*
X152287504Y-120054796D01*
X152263000Y-120056000D01*
X151013000Y-120056000D01*
X150988496Y-120054796D01*
X150964227Y-120051196D01*
X150940429Y-120045235D01*
X150917329Y-120036970D01*
X150895151Y-120026480D01*
X150874107Y-120013867D01*
X150854402Y-119999253D01*
X150836223Y-119982777D01*
X150819747Y-119964598D01*
X150805133Y-119944893D01*
X150792520Y-119923849D01*
X150782030Y-119901671D01*
X150773765Y-119878571D01*
X150767804Y-119854773D01*
X150764204Y-119830504D01*
X150763000Y-119806000D01*
X150763000Y-118881000D01*
X150764204Y-118856496D01*
X150767804Y-118832227D01*
X150773765Y-118808429D01*
X150782030Y-118785329D01*
X150792520Y-118763151D01*
X150805133Y-118742107D01*
X150819747Y-118722402D01*
X150836223Y-118704223D01*
X150854402Y-118687747D01*
X150874107Y-118673133D01*
X150895151Y-118660520D01*
X150917329Y-118650030D01*
X150940429Y-118641765D01*
X150964227Y-118635804D01*
X150988496Y-118632204D01*
X151013000Y-118631000D01*
X152263000Y-118631000D01*
X152287504Y-118632204D01*
X152287504Y-118632204D01*
G37*
D16*
X151638000Y-119343500D03*
D11*
G36*
X149493504Y-88987204D02*
G01*
X149517773Y-88990804D01*
X149541571Y-88996765D01*
X149564671Y-89005030D01*
X149586849Y-89015520D01*
X149607893Y-89028133D01*
X149627598Y-89042747D01*
X149645777Y-89059223D01*
X149662253Y-89077402D01*
X149676867Y-89097107D01*
X149689480Y-89118151D01*
X149699970Y-89140329D01*
X149708235Y-89163429D01*
X149714196Y-89187227D01*
X149717796Y-89211496D01*
X149719000Y-89236000D01*
X149719000Y-90161000D01*
X149717796Y-90185504D01*
X149714196Y-90209773D01*
X149708235Y-90233571D01*
X149699970Y-90256671D01*
X149689480Y-90278849D01*
X149676867Y-90299893D01*
X149662253Y-90319598D01*
X149645777Y-90337777D01*
X149627598Y-90354253D01*
X149607893Y-90368867D01*
X149586849Y-90381480D01*
X149564671Y-90391970D01*
X149541571Y-90400235D01*
X149517773Y-90406196D01*
X149493504Y-90409796D01*
X149469000Y-90411000D01*
X148219000Y-90411000D01*
X148194496Y-90409796D01*
X148170227Y-90406196D01*
X148146429Y-90400235D01*
X148123329Y-90391970D01*
X148101151Y-90381480D01*
X148080107Y-90368867D01*
X148060402Y-90354253D01*
X148042223Y-90337777D01*
X148025747Y-90319598D01*
X148011133Y-90299893D01*
X147998520Y-90278849D01*
X147988030Y-90256671D01*
X147979765Y-90233571D01*
X147973804Y-90209773D01*
X147970204Y-90185504D01*
X147969000Y-90161000D01*
X147969000Y-89236000D01*
X147970204Y-89211496D01*
X147973804Y-89187227D01*
X147979765Y-89163429D01*
X147988030Y-89140329D01*
X147998520Y-89118151D01*
X148011133Y-89097107D01*
X148025747Y-89077402D01*
X148042223Y-89059223D01*
X148060402Y-89042747D01*
X148080107Y-89028133D01*
X148101151Y-89015520D01*
X148123329Y-89005030D01*
X148146429Y-88996765D01*
X148170227Y-88990804D01*
X148194496Y-88987204D01*
X148219000Y-88986000D01*
X149469000Y-88986000D01*
X149493504Y-88987204D01*
X149493504Y-88987204D01*
G37*
D16*
X148844000Y-89698500D03*
D11*
G36*
X149493504Y-91962204D02*
G01*
X149517773Y-91965804D01*
X149541571Y-91971765D01*
X149564671Y-91980030D01*
X149586849Y-91990520D01*
X149607893Y-92003133D01*
X149627598Y-92017747D01*
X149645777Y-92034223D01*
X149662253Y-92052402D01*
X149676867Y-92072107D01*
X149689480Y-92093151D01*
X149699970Y-92115329D01*
X149708235Y-92138429D01*
X149714196Y-92162227D01*
X149717796Y-92186496D01*
X149719000Y-92211000D01*
X149719000Y-93136000D01*
X149717796Y-93160504D01*
X149714196Y-93184773D01*
X149708235Y-93208571D01*
X149699970Y-93231671D01*
X149689480Y-93253849D01*
X149676867Y-93274893D01*
X149662253Y-93294598D01*
X149645777Y-93312777D01*
X149627598Y-93329253D01*
X149607893Y-93343867D01*
X149586849Y-93356480D01*
X149564671Y-93366970D01*
X149541571Y-93375235D01*
X149517773Y-93381196D01*
X149493504Y-93384796D01*
X149469000Y-93386000D01*
X148219000Y-93386000D01*
X148194496Y-93384796D01*
X148170227Y-93381196D01*
X148146429Y-93375235D01*
X148123329Y-93366970D01*
X148101151Y-93356480D01*
X148080107Y-93343867D01*
X148060402Y-93329253D01*
X148042223Y-93312777D01*
X148025747Y-93294598D01*
X148011133Y-93274893D01*
X147998520Y-93253849D01*
X147988030Y-93231671D01*
X147979765Y-93208571D01*
X147973804Y-93184773D01*
X147970204Y-93160504D01*
X147969000Y-93136000D01*
X147969000Y-92211000D01*
X147970204Y-92186496D01*
X147973804Y-92162227D01*
X147979765Y-92138429D01*
X147988030Y-92115329D01*
X147998520Y-92093151D01*
X148011133Y-92072107D01*
X148025747Y-92052402D01*
X148042223Y-92034223D01*
X148060402Y-92017747D01*
X148080107Y-92003133D01*
X148101151Y-91990520D01*
X148123329Y-91980030D01*
X148146429Y-91971765D01*
X148170227Y-91965804D01*
X148194496Y-91962204D01*
X148219000Y-91961000D01*
X149469000Y-91961000D01*
X149493504Y-91962204D01*
X149493504Y-91962204D01*
G37*
D16*
X148844000Y-92673500D03*
D11*
G36*
X146953504Y-87898204D02*
G01*
X146977773Y-87901804D01*
X147001571Y-87907765D01*
X147024671Y-87916030D01*
X147046849Y-87926520D01*
X147067893Y-87939133D01*
X147087598Y-87953747D01*
X147105777Y-87970223D01*
X147122253Y-87988402D01*
X147136867Y-88008107D01*
X147149480Y-88029151D01*
X147159970Y-88051329D01*
X147168235Y-88074429D01*
X147174196Y-88098227D01*
X147177796Y-88122496D01*
X147179000Y-88147000D01*
X147179000Y-89072000D01*
X147177796Y-89096504D01*
X147174196Y-89120773D01*
X147168235Y-89144571D01*
X147159970Y-89167671D01*
X147149480Y-89189849D01*
X147136867Y-89210893D01*
X147122253Y-89230598D01*
X147105777Y-89248777D01*
X147087598Y-89265253D01*
X147067893Y-89279867D01*
X147046849Y-89292480D01*
X147024671Y-89302970D01*
X147001571Y-89311235D01*
X146977773Y-89317196D01*
X146953504Y-89320796D01*
X146929000Y-89322000D01*
X145679000Y-89322000D01*
X145654496Y-89320796D01*
X145630227Y-89317196D01*
X145606429Y-89311235D01*
X145583329Y-89302970D01*
X145561151Y-89292480D01*
X145540107Y-89279867D01*
X145520402Y-89265253D01*
X145502223Y-89248777D01*
X145485747Y-89230598D01*
X145471133Y-89210893D01*
X145458520Y-89189849D01*
X145448030Y-89167671D01*
X145439765Y-89144571D01*
X145433804Y-89120773D01*
X145430204Y-89096504D01*
X145429000Y-89072000D01*
X145429000Y-88147000D01*
X145430204Y-88122496D01*
X145433804Y-88098227D01*
X145439765Y-88074429D01*
X145448030Y-88051329D01*
X145458520Y-88029151D01*
X145471133Y-88008107D01*
X145485747Y-87988402D01*
X145502223Y-87970223D01*
X145520402Y-87953747D01*
X145540107Y-87939133D01*
X145561151Y-87926520D01*
X145583329Y-87916030D01*
X145606429Y-87907765D01*
X145630227Y-87901804D01*
X145654496Y-87898204D01*
X145679000Y-87897000D01*
X146929000Y-87897000D01*
X146953504Y-87898204D01*
X146953504Y-87898204D01*
G37*
D16*
X146304000Y-88609500D03*
D11*
G36*
X146953504Y-84923204D02*
G01*
X146977773Y-84926804D01*
X147001571Y-84932765D01*
X147024671Y-84941030D01*
X147046849Y-84951520D01*
X147067893Y-84964133D01*
X147087598Y-84978747D01*
X147105777Y-84995223D01*
X147122253Y-85013402D01*
X147136867Y-85033107D01*
X147149480Y-85054151D01*
X147159970Y-85076329D01*
X147168235Y-85099429D01*
X147174196Y-85123227D01*
X147177796Y-85147496D01*
X147179000Y-85172000D01*
X147179000Y-86097000D01*
X147177796Y-86121504D01*
X147174196Y-86145773D01*
X147168235Y-86169571D01*
X147159970Y-86192671D01*
X147149480Y-86214849D01*
X147136867Y-86235893D01*
X147122253Y-86255598D01*
X147105777Y-86273777D01*
X147087598Y-86290253D01*
X147067893Y-86304867D01*
X147046849Y-86317480D01*
X147024671Y-86327970D01*
X147001571Y-86336235D01*
X146977773Y-86342196D01*
X146953504Y-86345796D01*
X146929000Y-86347000D01*
X145679000Y-86347000D01*
X145654496Y-86345796D01*
X145630227Y-86342196D01*
X145606429Y-86336235D01*
X145583329Y-86327970D01*
X145561151Y-86317480D01*
X145540107Y-86304867D01*
X145520402Y-86290253D01*
X145502223Y-86273777D01*
X145485747Y-86255598D01*
X145471133Y-86235893D01*
X145458520Y-86214849D01*
X145448030Y-86192671D01*
X145439765Y-86169571D01*
X145433804Y-86145773D01*
X145430204Y-86121504D01*
X145429000Y-86097000D01*
X145429000Y-85172000D01*
X145430204Y-85147496D01*
X145433804Y-85123227D01*
X145439765Y-85099429D01*
X145448030Y-85076329D01*
X145458520Y-85054151D01*
X145471133Y-85033107D01*
X145485747Y-85013402D01*
X145502223Y-84995223D01*
X145520402Y-84978747D01*
X145540107Y-84964133D01*
X145561151Y-84951520D01*
X145583329Y-84941030D01*
X145606429Y-84932765D01*
X145630227Y-84926804D01*
X145654496Y-84923204D01*
X145679000Y-84922000D01*
X146929000Y-84922000D01*
X146953504Y-84923204D01*
X146953504Y-84923204D01*
G37*
D16*
X146304000Y-85634500D03*
D11*
G36*
X147461504Y-113044204D02*
G01*
X147485773Y-113047804D01*
X147509571Y-113053765D01*
X147532671Y-113062030D01*
X147554849Y-113072520D01*
X147575893Y-113085133D01*
X147595598Y-113099747D01*
X147613777Y-113116223D01*
X147630253Y-113134402D01*
X147644867Y-113154107D01*
X147657480Y-113175151D01*
X147667970Y-113197329D01*
X147676235Y-113220429D01*
X147682196Y-113244227D01*
X147685796Y-113268496D01*
X147687000Y-113293000D01*
X147687000Y-114218000D01*
X147685796Y-114242504D01*
X147682196Y-114266773D01*
X147676235Y-114290571D01*
X147667970Y-114313671D01*
X147657480Y-114335849D01*
X147644867Y-114356893D01*
X147630253Y-114376598D01*
X147613777Y-114394777D01*
X147595598Y-114411253D01*
X147575893Y-114425867D01*
X147554849Y-114438480D01*
X147532671Y-114448970D01*
X147509571Y-114457235D01*
X147485773Y-114463196D01*
X147461504Y-114466796D01*
X147437000Y-114468000D01*
X146187000Y-114468000D01*
X146162496Y-114466796D01*
X146138227Y-114463196D01*
X146114429Y-114457235D01*
X146091329Y-114448970D01*
X146069151Y-114438480D01*
X146048107Y-114425867D01*
X146028402Y-114411253D01*
X146010223Y-114394777D01*
X145993747Y-114376598D01*
X145979133Y-114356893D01*
X145966520Y-114335849D01*
X145956030Y-114313671D01*
X145947765Y-114290571D01*
X145941804Y-114266773D01*
X145938204Y-114242504D01*
X145937000Y-114218000D01*
X145937000Y-113293000D01*
X145938204Y-113268496D01*
X145941804Y-113244227D01*
X145947765Y-113220429D01*
X145956030Y-113197329D01*
X145966520Y-113175151D01*
X145979133Y-113154107D01*
X145993747Y-113134402D01*
X146010223Y-113116223D01*
X146028402Y-113099747D01*
X146048107Y-113085133D01*
X146069151Y-113072520D01*
X146091329Y-113062030D01*
X146114429Y-113053765D01*
X146138227Y-113047804D01*
X146162496Y-113044204D01*
X146187000Y-113043000D01*
X147437000Y-113043000D01*
X147461504Y-113044204D01*
X147461504Y-113044204D01*
G37*
D16*
X146812000Y-113755500D03*
D11*
G36*
X147461504Y-110069204D02*
G01*
X147485773Y-110072804D01*
X147509571Y-110078765D01*
X147532671Y-110087030D01*
X147554849Y-110097520D01*
X147575893Y-110110133D01*
X147595598Y-110124747D01*
X147613777Y-110141223D01*
X147630253Y-110159402D01*
X147644867Y-110179107D01*
X147657480Y-110200151D01*
X147667970Y-110222329D01*
X147676235Y-110245429D01*
X147682196Y-110269227D01*
X147685796Y-110293496D01*
X147687000Y-110318000D01*
X147687000Y-111243000D01*
X147685796Y-111267504D01*
X147682196Y-111291773D01*
X147676235Y-111315571D01*
X147667970Y-111338671D01*
X147657480Y-111360849D01*
X147644867Y-111381893D01*
X147630253Y-111401598D01*
X147613777Y-111419777D01*
X147595598Y-111436253D01*
X147575893Y-111450867D01*
X147554849Y-111463480D01*
X147532671Y-111473970D01*
X147509571Y-111482235D01*
X147485773Y-111488196D01*
X147461504Y-111491796D01*
X147437000Y-111493000D01*
X146187000Y-111493000D01*
X146162496Y-111491796D01*
X146138227Y-111488196D01*
X146114429Y-111482235D01*
X146091329Y-111473970D01*
X146069151Y-111463480D01*
X146048107Y-111450867D01*
X146028402Y-111436253D01*
X146010223Y-111419777D01*
X145993747Y-111401598D01*
X145979133Y-111381893D01*
X145966520Y-111360849D01*
X145956030Y-111338671D01*
X145947765Y-111315571D01*
X145941804Y-111291773D01*
X145938204Y-111267504D01*
X145937000Y-111243000D01*
X145937000Y-110318000D01*
X145938204Y-110293496D01*
X145941804Y-110269227D01*
X145947765Y-110245429D01*
X145956030Y-110222329D01*
X145966520Y-110200151D01*
X145979133Y-110179107D01*
X145993747Y-110159402D01*
X146010223Y-110141223D01*
X146028402Y-110124747D01*
X146048107Y-110110133D01*
X146069151Y-110097520D01*
X146091329Y-110087030D01*
X146114429Y-110078765D01*
X146138227Y-110072804D01*
X146162496Y-110069204D01*
X146187000Y-110068000D01*
X147437000Y-110068000D01*
X147461504Y-110069204D01*
X147461504Y-110069204D01*
G37*
D16*
X146812000Y-110780500D03*
D11*
G36*
X144921504Y-113044204D02*
G01*
X144945773Y-113047804D01*
X144969571Y-113053765D01*
X144992671Y-113062030D01*
X145014849Y-113072520D01*
X145035893Y-113085133D01*
X145055598Y-113099747D01*
X145073777Y-113116223D01*
X145090253Y-113134402D01*
X145104867Y-113154107D01*
X145117480Y-113175151D01*
X145127970Y-113197329D01*
X145136235Y-113220429D01*
X145142196Y-113244227D01*
X145145796Y-113268496D01*
X145147000Y-113293000D01*
X145147000Y-114218000D01*
X145145796Y-114242504D01*
X145142196Y-114266773D01*
X145136235Y-114290571D01*
X145127970Y-114313671D01*
X145117480Y-114335849D01*
X145104867Y-114356893D01*
X145090253Y-114376598D01*
X145073777Y-114394777D01*
X145055598Y-114411253D01*
X145035893Y-114425867D01*
X145014849Y-114438480D01*
X144992671Y-114448970D01*
X144969571Y-114457235D01*
X144945773Y-114463196D01*
X144921504Y-114466796D01*
X144897000Y-114468000D01*
X143647000Y-114468000D01*
X143622496Y-114466796D01*
X143598227Y-114463196D01*
X143574429Y-114457235D01*
X143551329Y-114448970D01*
X143529151Y-114438480D01*
X143508107Y-114425867D01*
X143488402Y-114411253D01*
X143470223Y-114394777D01*
X143453747Y-114376598D01*
X143439133Y-114356893D01*
X143426520Y-114335849D01*
X143416030Y-114313671D01*
X143407765Y-114290571D01*
X143401804Y-114266773D01*
X143398204Y-114242504D01*
X143397000Y-114218000D01*
X143397000Y-113293000D01*
X143398204Y-113268496D01*
X143401804Y-113244227D01*
X143407765Y-113220429D01*
X143416030Y-113197329D01*
X143426520Y-113175151D01*
X143439133Y-113154107D01*
X143453747Y-113134402D01*
X143470223Y-113116223D01*
X143488402Y-113099747D01*
X143508107Y-113085133D01*
X143529151Y-113072520D01*
X143551329Y-113062030D01*
X143574429Y-113053765D01*
X143598227Y-113047804D01*
X143622496Y-113044204D01*
X143647000Y-113043000D01*
X144897000Y-113043000D01*
X144921504Y-113044204D01*
X144921504Y-113044204D01*
G37*
D16*
X144272000Y-113755500D03*
D11*
G36*
X144921504Y-110069204D02*
G01*
X144945773Y-110072804D01*
X144969571Y-110078765D01*
X144992671Y-110087030D01*
X145014849Y-110097520D01*
X145035893Y-110110133D01*
X145055598Y-110124747D01*
X145073777Y-110141223D01*
X145090253Y-110159402D01*
X145104867Y-110179107D01*
X145117480Y-110200151D01*
X145127970Y-110222329D01*
X145136235Y-110245429D01*
X145142196Y-110269227D01*
X145145796Y-110293496D01*
X145147000Y-110318000D01*
X145147000Y-111243000D01*
X145145796Y-111267504D01*
X145142196Y-111291773D01*
X145136235Y-111315571D01*
X145127970Y-111338671D01*
X145117480Y-111360849D01*
X145104867Y-111381893D01*
X145090253Y-111401598D01*
X145073777Y-111419777D01*
X145055598Y-111436253D01*
X145035893Y-111450867D01*
X145014849Y-111463480D01*
X144992671Y-111473970D01*
X144969571Y-111482235D01*
X144945773Y-111488196D01*
X144921504Y-111491796D01*
X144897000Y-111493000D01*
X143647000Y-111493000D01*
X143622496Y-111491796D01*
X143598227Y-111488196D01*
X143574429Y-111482235D01*
X143551329Y-111473970D01*
X143529151Y-111463480D01*
X143508107Y-111450867D01*
X143488402Y-111436253D01*
X143470223Y-111419777D01*
X143453747Y-111401598D01*
X143439133Y-111381893D01*
X143426520Y-111360849D01*
X143416030Y-111338671D01*
X143407765Y-111315571D01*
X143401804Y-111291773D01*
X143398204Y-111267504D01*
X143397000Y-111243000D01*
X143397000Y-110318000D01*
X143398204Y-110293496D01*
X143401804Y-110269227D01*
X143407765Y-110245429D01*
X143416030Y-110222329D01*
X143426520Y-110200151D01*
X143439133Y-110179107D01*
X143453747Y-110159402D01*
X143470223Y-110141223D01*
X143488402Y-110124747D01*
X143508107Y-110110133D01*
X143529151Y-110097520D01*
X143551329Y-110087030D01*
X143574429Y-110078765D01*
X143598227Y-110072804D01*
X143622496Y-110069204D01*
X143647000Y-110068000D01*
X144897000Y-110068000D01*
X144921504Y-110069204D01*
X144921504Y-110069204D01*
G37*
D16*
X144272000Y-110780500D03*
D11*
G36*
X144413504Y-87898204D02*
G01*
X144437773Y-87901804D01*
X144461571Y-87907765D01*
X144484671Y-87916030D01*
X144506849Y-87926520D01*
X144527893Y-87939133D01*
X144547598Y-87953747D01*
X144565777Y-87970223D01*
X144582253Y-87988402D01*
X144596867Y-88008107D01*
X144609480Y-88029151D01*
X144619970Y-88051329D01*
X144628235Y-88074429D01*
X144634196Y-88098227D01*
X144637796Y-88122496D01*
X144639000Y-88147000D01*
X144639000Y-89072000D01*
X144637796Y-89096504D01*
X144634196Y-89120773D01*
X144628235Y-89144571D01*
X144619970Y-89167671D01*
X144609480Y-89189849D01*
X144596867Y-89210893D01*
X144582253Y-89230598D01*
X144565777Y-89248777D01*
X144547598Y-89265253D01*
X144527893Y-89279867D01*
X144506849Y-89292480D01*
X144484671Y-89302970D01*
X144461571Y-89311235D01*
X144437773Y-89317196D01*
X144413504Y-89320796D01*
X144389000Y-89322000D01*
X143139000Y-89322000D01*
X143114496Y-89320796D01*
X143090227Y-89317196D01*
X143066429Y-89311235D01*
X143043329Y-89302970D01*
X143021151Y-89292480D01*
X143000107Y-89279867D01*
X142980402Y-89265253D01*
X142962223Y-89248777D01*
X142945747Y-89230598D01*
X142931133Y-89210893D01*
X142918520Y-89189849D01*
X142908030Y-89167671D01*
X142899765Y-89144571D01*
X142893804Y-89120773D01*
X142890204Y-89096504D01*
X142889000Y-89072000D01*
X142889000Y-88147000D01*
X142890204Y-88122496D01*
X142893804Y-88098227D01*
X142899765Y-88074429D01*
X142908030Y-88051329D01*
X142918520Y-88029151D01*
X142931133Y-88008107D01*
X142945747Y-87988402D01*
X142962223Y-87970223D01*
X142980402Y-87953747D01*
X143000107Y-87939133D01*
X143021151Y-87926520D01*
X143043329Y-87916030D01*
X143066429Y-87907765D01*
X143090227Y-87901804D01*
X143114496Y-87898204D01*
X143139000Y-87897000D01*
X144389000Y-87897000D01*
X144413504Y-87898204D01*
X144413504Y-87898204D01*
G37*
D16*
X143764000Y-88609500D03*
D11*
G36*
X144413504Y-84923204D02*
G01*
X144437773Y-84926804D01*
X144461571Y-84932765D01*
X144484671Y-84941030D01*
X144506849Y-84951520D01*
X144527893Y-84964133D01*
X144547598Y-84978747D01*
X144565777Y-84995223D01*
X144582253Y-85013402D01*
X144596867Y-85033107D01*
X144609480Y-85054151D01*
X144619970Y-85076329D01*
X144628235Y-85099429D01*
X144634196Y-85123227D01*
X144637796Y-85147496D01*
X144639000Y-85172000D01*
X144639000Y-86097000D01*
X144637796Y-86121504D01*
X144634196Y-86145773D01*
X144628235Y-86169571D01*
X144619970Y-86192671D01*
X144609480Y-86214849D01*
X144596867Y-86235893D01*
X144582253Y-86255598D01*
X144565777Y-86273777D01*
X144547598Y-86290253D01*
X144527893Y-86304867D01*
X144506849Y-86317480D01*
X144484671Y-86327970D01*
X144461571Y-86336235D01*
X144437773Y-86342196D01*
X144413504Y-86345796D01*
X144389000Y-86347000D01*
X143139000Y-86347000D01*
X143114496Y-86345796D01*
X143090227Y-86342196D01*
X143066429Y-86336235D01*
X143043329Y-86327970D01*
X143021151Y-86317480D01*
X143000107Y-86304867D01*
X142980402Y-86290253D01*
X142962223Y-86273777D01*
X142945747Y-86255598D01*
X142931133Y-86235893D01*
X142918520Y-86214849D01*
X142908030Y-86192671D01*
X142899765Y-86169571D01*
X142893804Y-86145773D01*
X142890204Y-86121504D01*
X142889000Y-86097000D01*
X142889000Y-85172000D01*
X142890204Y-85147496D01*
X142893804Y-85123227D01*
X142899765Y-85099429D01*
X142908030Y-85076329D01*
X142918520Y-85054151D01*
X142931133Y-85033107D01*
X142945747Y-85013402D01*
X142962223Y-84995223D01*
X142980402Y-84978747D01*
X143000107Y-84964133D01*
X143021151Y-84951520D01*
X143043329Y-84941030D01*
X143066429Y-84932765D01*
X143090227Y-84926804D01*
X143114496Y-84923204D01*
X143139000Y-84922000D01*
X144389000Y-84922000D01*
X144413504Y-84923204D01*
X144413504Y-84923204D01*
G37*
D16*
X143764000Y-85634500D03*
M02*
