%TF.GenerationSoftware,KiCad,Pcbnew,(5.1.0)-1*%
%TF.CreationDate,2019-04-29T18:51:34+10:00*%
%TF.ProjectId,CT2960_Riser,43543239-3630-45f5-9269-7365722e6b69,rev?*%
%TF.SameCoordinates,Original*%
%TF.FileFunction,Soldermask,Bot*%
%TF.FilePolarity,Negative*%
%FSLAX46Y46*%
G04 Gerber Fmt 4.6, Leading zero omitted, Abs format (unit mm)*
G04 Created by KiCad (PCBNEW (5.1.0)-1) date 2019-04-29 18:51:34*
%MOMM*%
%LPD*%
G04 APERTURE LIST*
%ADD10O,1.750000X1.750000*%
%ADD11R,1.700000X1.700000*%
%ADD12O,1.700000X1.700000*%
%ADD13C,0.150000*%
%ADD14C,2.700000*%
%ADD15O,2.700000X3.300000*%
G04 APERTURE END LIST*
D10*
X135890000Y-183642000D03*
X135890000Y-181102000D03*
X135890000Y-178562000D03*
X135890000Y-176022000D03*
X135890000Y-173482000D03*
X135890000Y-170942000D03*
X135890000Y-168402000D03*
X135890000Y-165862000D03*
X135890000Y-163322000D03*
X135890000Y-160782000D03*
X135890000Y-158242000D03*
X135890000Y-155702000D03*
X135890000Y-153162000D03*
X135890000Y-150622000D03*
X135890000Y-148082000D03*
X135890000Y-145542000D03*
X135890000Y-143002000D03*
X135890000Y-140462000D03*
X130810000Y-183642000D03*
X130810000Y-181102000D03*
X130810000Y-178562000D03*
X130810000Y-176022000D03*
X130810000Y-173482000D03*
X130810000Y-170942000D03*
X130810000Y-168402000D03*
X130810000Y-165862000D03*
X130810000Y-163322000D03*
X130810000Y-160782000D03*
X130810000Y-158242000D03*
X130810000Y-155702000D03*
X130810000Y-153162000D03*
X130810000Y-150622000D03*
X130810000Y-148082000D03*
X130810000Y-145542000D03*
X130810000Y-143002000D03*
X130810000Y-140462000D03*
X135890000Y-130302000D03*
X135890000Y-127762000D03*
X135890000Y-125222000D03*
X135890000Y-122682000D03*
X135890000Y-120142000D03*
X135890000Y-117602000D03*
X135890000Y-115062000D03*
X135890000Y-112522000D03*
X135890000Y-109982000D03*
X135890000Y-107442000D03*
X135890000Y-104902000D03*
X135890000Y-102362000D03*
X135890000Y-99822000D03*
X135890000Y-79502000D03*
X135890000Y-66802000D03*
X135890000Y-97282000D03*
X135890000Y-76962000D03*
X135890000Y-89662000D03*
X135890000Y-92202000D03*
X135890000Y-94742000D03*
X135890000Y-82042000D03*
X135890000Y-74422000D03*
X135890000Y-71882000D03*
X135890000Y-69342000D03*
X135890000Y-84582000D03*
X135890000Y-87122000D03*
X135890000Y-59182000D03*
X135890000Y-64262000D03*
X135890000Y-61722000D03*
X135890000Y-54102000D03*
X135890000Y-56642000D03*
X130810000Y-130302000D03*
X130810000Y-127762000D03*
X130810000Y-125222000D03*
X130810000Y-122682000D03*
X130810000Y-120142000D03*
X130810000Y-117602000D03*
X130810000Y-115062000D03*
X130810000Y-112522000D03*
X130810000Y-109982000D03*
X130810000Y-107442000D03*
X130810000Y-104902000D03*
X130810000Y-102362000D03*
X130810000Y-99822000D03*
X130810000Y-97282000D03*
X130810000Y-94742000D03*
X130810000Y-92202000D03*
X130810000Y-89662000D03*
X130810000Y-87122000D03*
X130810000Y-84582000D03*
X130810000Y-82042000D03*
X130810000Y-79502000D03*
X130810000Y-76962000D03*
X130810000Y-74422000D03*
X130810000Y-71882000D03*
X130810000Y-69342000D03*
X130810000Y-66802000D03*
X130810000Y-64262000D03*
X130810000Y-61722000D03*
X130810000Y-59182000D03*
X130810000Y-56642000D03*
X130810000Y-54102000D03*
D11*
X157680000Y-98998000D03*
D12*
X160220000Y-98998000D03*
X157680000Y-101538000D03*
X160220000Y-101538000D03*
X157680000Y-104078000D03*
X160220000Y-104078000D03*
X157680000Y-106618000D03*
X160220000Y-106618000D03*
X157680000Y-109158000D03*
X160220000Y-109158000D03*
X157680000Y-111698000D03*
X160220000Y-111698000D03*
X157680000Y-114238000D03*
X160220000Y-114238000D03*
X157680000Y-116778000D03*
X160220000Y-116778000D03*
X157680000Y-119318000D03*
X160220000Y-119318000D03*
X157680000Y-121858000D03*
X160220000Y-121858000D03*
X157680000Y-124398000D03*
X160220000Y-124398000D03*
X157680000Y-126938000D03*
X160220000Y-126938000D03*
X157680000Y-129478000D03*
X160220000Y-129478000D03*
X157680000Y-132018000D03*
X160220000Y-132018000D03*
X157680000Y-134558000D03*
X160220000Y-134558000D03*
X157680000Y-137098000D03*
X160220000Y-137098000D03*
X157680000Y-139638000D03*
X160220000Y-139638000D03*
X157680000Y-142178000D03*
X160220000Y-142178000D03*
X157680000Y-144718000D03*
X160220000Y-144718000D03*
X157680000Y-147258000D03*
X160220000Y-147258000D03*
D11*
X94680000Y-98998000D03*
D12*
X97220000Y-98998000D03*
X94680000Y-101538000D03*
X97220000Y-101538000D03*
X94680000Y-104078000D03*
X97220000Y-104078000D03*
X94680000Y-106618000D03*
X97220000Y-106618000D03*
X94680000Y-109158000D03*
X97220000Y-109158000D03*
X94680000Y-111698000D03*
X97220000Y-111698000D03*
X94680000Y-114238000D03*
X97220000Y-114238000D03*
X94680000Y-116778000D03*
X97220000Y-116778000D03*
X94680000Y-119318000D03*
X97220000Y-119318000D03*
X94680000Y-121858000D03*
X97220000Y-121858000D03*
X94680000Y-124398000D03*
X97220000Y-124398000D03*
X94680000Y-126938000D03*
X97220000Y-126938000D03*
X94680000Y-129478000D03*
X97220000Y-129478000D03*
X94680000Y-132018000D03*
X97220000Y-132018000D03*
X94680000Y-134558000D03*
X97220000Y-134558000D03*
X94680000Y-137098000D03*
X97220000Y-137098000D03*
X94680000Y-139638000D03*
X97220000Y-139638000D03*
X94680000Y-142178000D03*
X97220000Y-142178000D03*
X94680000Y-144718000D03*
X97220000Y-144718000D03*
X94680000Y-147258000D03*
X97220000Y-147258000D03*
D13*
G36*
X124821512Y-45849209D02*
G01*
X124845887Y-45852825D01*
X124869790Y-45858812D01*
X124892992Y-45867114D01*
X124915268Y-45877650D01*
X124936404Y-45890318D01*
X124956196Y-45904997D01*
X124974455Y-45921545D01*
X124991003Y-45939804D01*
X125005682Y-45959596D01*
X125018350Y-45980732D01*
X125028886Y-46003008D01*
X125037188Y-46026210D01*
X125043175Y-46050113D01*
X125046791Y-46074488D01*
X125048000Y-46099100D01*
X125048000Y-48896900D01*
X125046791Y-48921512D01*
X125043175Y-48945887D01*
X125037188Y-48969790D01*
X125028886Y-48992992D01*
X125018350Y-49015268D01*
X125005682Y-49036404D01*
X124991003Y-49056196D01*
X124974455Y-49074455D01*
X124956196Y-49091003D01*
X124936404Y-49105682D01*
X124915268Y-49118350D01*
X124892992Y-49128886D01*
X124869790Y-49137188D01*
X124845887Y-49143175D01*
X124821512Y-49146791D01*
X124796900Y-49148000D01*
X122599100Y-49148000D01*
X122574488Y-49146791D01*
X122550113Y-49143175D01*
X122526210Y-49137188D01*
X122503008Y-49128886D01*
X122480732Y-49118350D01*
X122459596Y-49105682D01*
X122439804Y-49091003D01*
X122421545Y-49074455D01*
X122404997Y-49056196D01*
X122390318Y-49036404D01*
X122377650Y-49015268D01*
X122367114Y-48992992D01*
X122358812Y-48969790D01*
X122352825Y-48945887D01*
X122349209Y-48921512D01*
X122348000Y-48896900D01*
X122348000Y-46099100D01*
X122349209Y-46074488D01*
X122352825Y-46050113D01*
X122358812Y-46026210D01*
X122367114Y-46003008D01*
X122377650Y-45980732D01*
X122390318Y-45959596D01*
X122404997Y-45939804D01*
X122421545Y-45921545D01*
X122439804Y-45904997D01*
X122459596Y-45890318D01*
X122480732Y-45877650D01*
X122503008Y-45867114D01*
X122526210Y-45858812D01*
X122550113Y-45852825D01*
X122574488Y-45849209D01*
X122599100Y-45848000D01*
X124796900Y-45848000D01*
X124821512Y-45849209D01*
X124821512Y-45849209D01*
G37*
D14*
X123698000Y-47498000D03*
D15*
X119498000Y-47498000D03*
X115298000Y-47498000D03*
X111098000Y-47498000D03*
X106898000Y-47498000D03*
X102698000Y-47498000D03*
X98498000Y-47498000D03*
X94298000Y-47498000D03*
X90098000Y-47498000D03*
X85898000Y-47498000D03*
X81698000Y-47498000D03*
X77498000Y-47498000D03*
X123698000Y-41998000D03*
X119498000Y-41998000D03*
X115298000Y-41998000D03*
X111098000Y-41998000D03*
X106898000Y-41998000D03*
X102698000Y-41998000D03*
X98498000Y-41998000D03*
X94298000Y-41998000D03*
X90098000Y-41998000D03*
X85898000Y-41998000D03*
X81698000Y-41998000D03*
X77498000Y-41998000D03*
M02*
