M48
; DRILL file {KiCad (5.1.0)-1} date 29/04/2019 6:51:36 PM
; FORMAT={-:-/ absolute / inch / decimal}
; #@! TF.CreationDate,2019-04-29T18:51:36+10:00
; #@! TF.GenerationSoftware,Kicad,Pcbnew,(5.1.0)-1
; #@! TF.FileFunction,Plated,1,2,PTH
FMAT,2
INCH
T1C0.0210
T2C0.0315
T3C0.0346
T4C0.0394
T5C0.0551
%
G90
G05
T1
X3.37Y-5.07
X3.41Y-5.06
X3.6Y-4.98
X3.62Y-4.89
X4.04Y-3.96
X4.23Y-4.92
X4.25Y-4.09
X4.36Y-4.97
X4.6Y-5.18
X4.63Y-3.8
X4.63Y-4.47
X4.68Y-4.42
X4.71Y-2.6868
X4.71Y-5.16
X4.74Y-4.42
X4.75Y-3.89
X4.75Y-5.07
X4.77Y-2.93
X4.79Y-3.89
X4.8Y-4.98
X4.81Y-5.58
X4.82Y-3.72
X4.85Y-3.9
X4.85Y-4.82
X4.89Y-3.9
X4.89Y-4.89
X4.95Y-4.88
X4.99Y-5.14
X5.04Y-5.7881
X5.67Y-2.9
X5.76Y-3.86
X5.78Y-4.58
X5.8Y-7.11
X5.92Y-4.76
X5.95Y-2.73
X5.96Y-2.97
X5.96Y-3.39
X5.96Y-7.07
X5.98Y-3.66
X6.04Y-2.73
X6.1Y-7.2
T2
X3.38Y-2.33
X3.3818Y-2.0382
X4.51Y-2.33
T3
X5.15Y-2.13
X5.15Y-2.23
X5.15Y-2.33
X5.15Y-2.43
X5.15Y-2.53
X5.15Y-2.63
X5.15Y-2.73
X5.15Y-2.83
X5.15Y-2.93
X5.15Y-3.03
X5.15Y-3.13
X5.15Y-3.23
X5.15Y-3.33
X5.15Y-3.43
X5.15Y-3.53
X5.15Y-3.63
X5.15Y-3.73
X5.15Y-3.83
X5.15Y-3.93
X5.15Y-4.03
X5.15Y-4.13
X5.15Y-4.23
X5.15Y-4.33
X5.15Y-4.43
X5.15Y-4.53
X5.15Y-4.63
X5.15Y-4.73
X5.15Y-4.83
X5.15Y-4.93
X5.15Y-5.03
X5.15Y-5.13
X5.15Y-5.53
X5.15Y-5.63
X5.15Y-5.73
X5.15Y-5.83
X5.15Y-5.93
X5.15Y-6.03
X5.15Y-6.13
X5.15Y-6.23
X5.15Y-6.33
X5.15Y-6.43
X5.15Y-6.53
X5.15Y-6.63
X5.15Y-6.73
X5.15Y-6.83
X5.15Y-6.93
X5.15Y-7.03
X5.15Y-7.13
X5.15Y-7.23
X5.35Y-2.13
X5.35Y-2.23
X5.35Y-2.33
X5.35Y-2.43
X5.35Y-2.53
X5.35Y-2.63
X5.35Y-2.73
X5.35Y-2.83
X5.35Y-2.93
X5.35Y-3.03
X5.35Y-3.13
X5.35Y-3.23
X5.35Y-3.33
X5.35Y-3.43
X5.35Y-3.53
X5.35Y-3.63
X5.35Y-3.73
X5.35Y-3.83
X5.35Y-3.93
X5.35Y-4.03
X5.35Y-4.13
X5.35Y-4.23
X5.35Y-4.33
X5.35Y-4.43
X5.35Y-4.53
X5.35Y-4.63
X5.35Y-4.73
X5.35Y-4.83
X5.35Y-4.93
X5.35Y-5.03
X5.35Y-5.13
X5.35Y-5.53
X5.35Y-5.63
X5.35Y-5.73
X5.35Y-5.83
X5.35Y-5.93
X5.35Y-6.03
X5.35Y-6.13
X5.35Y-6.23
X5.35Y-6.33
X5.35Y-6.43
X5.35Y-6.53
X5.35Y-6.63
X5.35Y-6.73
X5.35Y-6.83
X5.35Y-6.93
X5.35Y-7.03
X5.35Y-7.13
X5.35Y-7.23
T4
X6.2079Y-3.8976
X6.2079Y-3.9976
X6.2079Y-4.0976
X6.2079Y-4.1976
X6.2079Y-4.2976
X6.2079Y-4.3976
X6.2079Y-4.4976
X6.2079Y-4.5976
X6.2079Y-4.6976
X6.2079Y-4.7976
X6.2079Y-4.8976
X6.2079Y-4.9976
X6.2079Y-5.0976
X6.2079Y-5.1976
X6.2079Y-5.2976
X6.2079Y-5.3976
X6.2079Y-5.4976
X6.2079Y-5.5976
X6.2079Y-5.6976
X6.2079Y-5.7976
X6.3079Y-3.8976
X6.3079Y-3.9976
X6.3079Y-4.0976
X6.3079Y-4.1976
X6.3079Y-4.2976
X6.3079Y-4.3976
X6.3079Y-4.4976
X6.3079Y-4.5976
X6.3079Y-4.6976
X6.3079Y-4.7976
X6.3079Y-4.8976
X6.3079Y-4.9976
X6.3079Y-5.0976
X6.3079Y-5.1976
X6.3079Y-5.2976
X6.3079Y-5.3976
X6.3079Y-5.4976
X6.3079Y-5.5976
X6.3079Y-5.6976
X6.3079Y-5.7976
X3.7276Y-3.8976
X3.7276Y-3.9976
X3.7276Y-4.0976
X3.7276Y-4.1976
X3.7276Y-4.2976
X3.7276Y-4.3976
X3.7276Y-4.4976
X3.7276Y-4.5976
X3.7276Y-4.6976
X3.7276Y-4.7976
X3.7276Y-4.8976
X3.7276Y-4.9976
X3.7276Y-5.0976
X3.7276Y-5.1976
X3.7276Y-5.2976
X3.7276Y-5.3976
X3.7276Y-5.4976
X3.7276Y-5.5976
X3.7276Y-5.6976
X3.7276Y-5.7976
X3.8276Y-3.8976
X3.8276Y-3.9976
X3.8276Y-4.0976
X3.8276Y-4.1976
X3.8276Y-4.2976
X3.8276Y-4.3976
X3.8276Y-4.4976
X3.8276Y-4.5976
X3.8276Y-4.6976
X3.8276Y-4.7976
X3.8276Y-4.8976
X3.8276Y-4.9976
X3.8276Y-5.0976
X3.8276Y-5.1976
X3.8276Y-5.2976
X3.8276Y-5.3976
X3.8276Y-5.4976
X3.8276Y-5.5976
X3.8276Y-5.6976
X3.8276Y-5.7976
T5
X3.0511Y-1.6535
X3.0511Y-1.87
X3.2165Y-1.6535
X3.2165Y-1.87
X3.3818Y-1.6535
X3.3818Y-1.87
X3.5472Y-1.6535
X3.5472Y-1.87
X3.7125Y-1.6535
X3.7125Y-1.87
X3.8779Y-1.6535
X3.8779Y-1.87
X4.0432Y-1.6535
X4.0432Y-1.87
X4.2086Y-1.6535
X4.2086Y-1.87
X4.3739Y-1.6535
X4.3739Y-1.87
X4.5393Y-1.6535
X4.5393Y-1.87
X4.7046Y-1.6535
X4.7046Y-1.87
X4.87Y-1.6535
X4.87Y-1.87
T0
M30
